<svg xmlns="http://www.w3.org/2000/svg" viewBox="0 0 85.04 26.08"><defs><style>.cls-1{fill:#fff;}.cls-2{fill:#fa5a3c;}.cls-3{fill:#0c2632;}</style></defs><title>Element 1</title><g id="Ebene_2" data-name="Ebene 2"><g id="Ebene_1-2" data-name="Ebene 1"><polygon class="cls-1" points="0 0 0 26.08 85.04 26.08 85.04 7.09 77.95 0 0 0"/><polygon class="cls-2" points="77.95 0 77.95 7.09 85.04 7.09 77.95 0"/><path class="cls-3" d="M44.63,10.58c-1.09,0-1.67.55-2.45,2.35h0V10.58a21,21,0,0,1-4.51.74c-.34,0-.43.09-.43.2,0,.34,1.43.17,1.43,1.56v6.24c0,1.06-1.26.65-1.26,1.11,0,.11,0,.21.31.21.93,0,1.84,0,2.77,0s1.87,0,2.8,0c.28,0,.32-.06.32-.23,0-.4-1.25-.07-1.25-1.07v-5.5c0-.46.13-.87.54-.87.63,0,.8,1.08,1.95,1.08a1.64,1.64,0,0,0,1.65-1.75A1.65,1.65,0,0,0,44.63,10.58Z"/><path class="cls-3" d="M76.88,16.68c-.42,0-.68,1.75-3,1.75-1.6,0-2.77-1.21-3-3.47h6a4.22,4.22,0,0,0-4.47-4.38,5.1,5.1,0,0,0-5.29,5.14,4.87,4.87,0,0,0,5.12,5,4.54,4.54,0,0,0,4.14-2.08,4.33,4.33,0,0,0,.63-1.75C77.07,16.76,77,16.68,76.88,16.68ZM72.23,11.1c1.19,0,1.36,1.28,1.38,3.34H70.88C70.9,13,70.92,11.1,72.23,11.1Z"/><path class="cls-3" d="M36.06,16.68c-.41,0-.67,1.75-3,1.75-1.6,0-2.77-1.21-3-3.47h6a4.22,4.22,0,0,0-4.47-4.38,5.1,5.1,0,0,0-5.29,5.14,4.87,4.87,0,0,0,5.12,5,4.54,4.54,0,0,0,4.14-2.08,4.33,4.33,0,0,0,.63-1.75C36.26,16.76,36.19,16.68,36.06,16.68ZM31.41,11.1c1.2,0,1.37,1.28,1.39,3.34H30.07C30.09,13,30.11,11.1,31.41,11.1Z"/><path class="cls-3" d="M51.72,19.3V4.79L48,8.47V19.32c0,1.06-1.26.65-1.26,1.11,0,.15,0,.21.32.21h5.56c.28,0,.32-.06.32-.21C53,20,51.72,20.41,51.72,19.3Z"/><path class="cls-3" d="M26.11,6.12c0-.2-.06-.26-.41-.26H20.12l-3.46,9L13.17,5.9c-1.63,0-3.75,0-5.64,0-.34,0-.41.06-.41.26,0,.69,1.82-.11,1.82,1.36v9.63c0,1.63-.58,2.3-1.21,2.62s-1.3.24-1.3.63c0,.18.08.28.5.28.78,0,1.58,0,2.36,0s1.58,0,2.36,0c.44,0,.5-.13.5-.28s-.32-.32-.69-.41c-.81-.2-1.82-.69-1.82-2.84V8.2h0l4.88,12.25c0,.11.13.32.32.32s.2-.08.33-.43l4.7-12.27H20V19c0,1.51-1.83.69-1.83,1.38,0,.2.07.26.42.26,1.19,0,2.36,0,3.55,0s2.41,0,3.6,0c.35,0,.41-.06.41-.26,0-.69-1.82.11-1.82-1.36V7.51C24.29,6,26.11,6.81,26.11,6.12Z"/><path class="cls-3" d="M65,19.3V4.79L61.34,8.47V19.32a.73.73,0,0,1-.53.76,2.58,2.58,0,0,1-1.22.05,1.46,1.46,0,0,1-1-.79l-3.46-6.07a7,7,0,0,1,2.31-1.78c.79-.34,1.31-.32,1.31-.56s-.11-.22-.39-.22H54c-.26,0-.33.07-.33.2,0,.45,1.26.09,1.26,1.56,0,.63-.24,1-2.43,2.84,1.69,3.45,2,3.88,2,4.34,0,.63-.74.41-.74.76,0,.19.09.23.43.23H66c.28,0,.33-.06.33-.21C66.29,20,65,20.41,65,19.3Z"/></g></g></svg>