<?xml version="1.0" encoding="UTF-8"?>
<svg width="160px" height="33px" viewBox="0 0 160 33" version="1.1" xmlns="http://www.w3.org/2000/svg" xmlns:xlink="http://www.w3.org/1999/xlink">
    <!-- Generator: Sketch 50.2 (55047) - http://www.bohemiancoding.com/sketch -->
    <title>Fill 1</title>
    <desc>Created with Sketch.</desc>
    <defs></defs>
    <g id="Page-1" stroke="none" stroke-width="1" fill="none" fill-rule="evenodd">
        <g id="Start" transform="translate(-57.000000, -18.000000)" fill="#C5B490">
            <g id="HZJ-Logo-Web" transform="translate(57.000000, 18.000000)">
                <path d="M90.8678822,29.2816407 L91.9363144,29.0886706 L91.9363144,18.4956622 L90.8678822,18.302692 L90.9204281,17.6360679 L93.3550523,17.6711534 L100.814461,17.6360679 L100.919552,21.1088288 L100.18391,21.1088288 L98.9235108,18.4430339 L95.1934563,18.4254912 L95.1934563,23.0904567 L96.9617992,23.0553713 L97.7675021,20.9860296 L98.4681134,20.9860296 L98.380537,23.476397 L98.4681134,25.9667645 L97.7675021,25.9667645 L96.9617992,23.8974228 L95.1934563,23.8623373 L95.1934563,29.1588415 L99.0461177,29.1412988 L100.306517,26.3702475 L101.041459,26.3702475 L100.761915,29.9482649 L93.3550523,29.9124777 L90.9204281,29.9482649 L90.8678822,29.2816407 Z M83.9822745,23.6518244 C83.9822745,20.5299183 82.8262659,18.2500638 80.6375563,18.3202348 L79.5698247,18.4430339 L79.5698247,29.1237561 L80.8827702,29.264098 C82.8444818,29.3518117 83.9822745,26.7912733 83.9822745,23.6518244 Z M75.2267353,29.2816407 L76.3126828,29.0886706 L76.3126828,18.4956622 L75.2267353,18.302692 L75.2792812,17.6360679 L77.6081131,17.6711534 L81.3731981,17.6360679 C85.2608901,17.6185251 87.4145692,19.793825 87.4145692,23.476397 C87.4145692,26.9309135 85.6462263,29.5623246 81.3381676,29.9482649 L77.5555672,29.9124777 L75.2792812,29.9482649 L75.2267353,29.2816407 Z M66.0998721,25.1429574 L64.5066821,20.0387216 L64.4891668,19.5306838 L62.6325469,25.1429574 L66.0998721,25.1429574 Z M59.4111362,29.2816407 L60.303715,29.0886706 L64.1563764,18.1272646 L66.958121,17.355384 L70.8976582,29.1062133 L71.878514,29.2816407 L71.8259682,29.9482649 L68.673918,29.9124777 L66.1874485,29.9482649 L66.1349027,29.2816407 L67.3609724,29.0886706 L66.3450861,25.8965935 L62.3880336,25.8965935 L61.3196014,29.0886706 L62.5975163,29.2816407 L62.5631864,29.9482649 L60.8291735,29.9124777 L59.4636821,29.9482649 L59.4111362,29.2816407 Z M50.0222444,30.5798035 L52.0007707,30.5798035 L52.0715324,30.141235 C52.1941394,29.6500383 52.2116547,29.0360424 52.2116547,28.2817045 L52.2116547,18.4956622 L50.5659188,18.302692 L50.6002487,17.6360679 L53.9099364,17.6711534 L56.4489517,17.6360679 L56.5014976,18.302692 L55.4687965,18.4956622 L55.4687965,26.8965297 C55.4687965,29.0360424 53.8931217,30.68506 52.9115653,31.6842945 L51.6161351,33 L50.0222444,33 L50.0222444,30.5798035 Z M33.2075736,23.3360551 L34.6263115,23.3360551 C35.6239819,22.7403036 36.2019862,21.635111 36.2019862,20.214149 C36.2019862,18.9861572 35.6239819,18.3202348 34.7482178,18.302692 L33.9950607,18.302692 L33.2075736,23.3360551 Z M39.6335803,29.2816407 L39.5291892,29.9482649 L37.6200235,29.9124777 L35.7641042,29.9482649 L33.6629709,24.3184486 L33.6097245,24.2658204 L33.0674514,24.2658204 L32.3318095,29.0886706 L33.3469953,29.2816407 L33.2250889,29.9482649 L30.6328271,29.9124777 L28.0938119,29.9482649 L28.1288424,29.2816407 L29.1797593,29.0886706 L30.8261959,18.4781194 L29.8103095,18.302692 L29.9329165,17.6360679 L32.4719318,17.6711534 L35.9918028,17.6360679 C38.1629972,17.6360679 39.6167656,18.6535468 39.6167656,20.1615208 C39.5985497,22.178936 37.7426304,23.1079995 35.9042264,23.6518244 L34.5912809,24.0553075 L37.1821414,24.6861444 L38.9336696,29.0711278 L39.6335803,29.2816407 Z M15.0449267,25.6860806 L16.1659048,18.4781194 L15.1325031,18.2851493 L15.2551101,17.6360679 L17.7941254,17.6711534 L20.3681712,17.6360679 L20.3506559,18.2851493 L19.3172543,18.4781194 L18.1794616,25.7387089 C17.8641865,27.5982393 18.8800729,28.8781577 20.6484157,28.8781577 C22.0146077,28.3694182 22.715219,27.685953 23.0122782,25.861508 L24.1682868,18.4781194 L23.0122782,18.2851493 L23.1173699,17.6360679 L24.8506822,17.6711534 L26.4095423,17.6360679 L26.3745118,18.2851493 L25.2009879,18.4781194 L24.0982257,25.6159097 C23.7997653,27.5280684 23.1348852,28.8430722 21.0687825,29.5272391 L19.0194945,30.2464915 C15.6404463,30.2464915 14.6245599,28.4220464 15.0449267,25.6860806 Z M0,29.3518117 L7.56520064,18.706175 L8.03741264,18.3904057 L4.23799765,18.4430339 L2.4339236,21.2842562 L1.75152821,21.2842562 L2.32883191,17.6536106 L11.4697073,17.6536106 L11.5572837,18.1798928 L3.95775314,28.8957004 L3.50235581,29.193927 L7.66959172,29.1412988 L9.8414867,26.1421919 L10.5070674,26.1421919 L9.59627275,29.9307221 L0.0525458463,29.9307221 L0,29.3518117 Z M149.825723,11.9445011 L150.894856,11.751531 L150.894856,1.15852258 L149.825723,0.964850727 L149.878969,0.298928298 L152.312893,0.334013779 L159.773002,0.298928298 L159.877393,3.77168921 L159.141751,3.77168921 L157.881351,1.10589436 L154.151297,1.08764991 L154.151297,5.75331717 L155.92034,5.71823169 L156.725343,3.64889002 L157.425954,3.64889002 L157.338378,6.13925746 L157.425954,8.6296249 L156.725343,8.6296249 L155.92034,6.55958153 L154.151297,6.52449604 L154.151297,11.821702 L158.003958,11.8041592 L159.264358,9.03310794 L160,9.03310794 L159.719755,12.6104236 L152.312893,12.5753381 L149.878969,12.6104236 L149.825723,11.9445011 Z M136.514109,11.9445011 L137.583241,11.751531 L137.583241,1.15852258 L136.514109,0.964850727 L136.567355,0.298928298 L139.053824,0.334013779 L141.855569,0.298928298 L141.908115,0.964850727 L140.839683,1.15852258 L140.839683,11.751531 L144.342038,11.7339883 L145.917713,8.8920643 L146.565779,8.8920643 L146.251204,12.6104236 L139.053824,12.5584971 L136.567355,12.6104236 L136.514109,11.9445011 Z M122.099031,8.33139832 L122.099031,1.15852258 L121.048815,0.964850727 L121.083846,0.298928298 L123.465223,0.334013779 L126.337029,0.298928298 L126.37206,0.964850727 L125.356874,1.15852258 L125.356874,8.31385558 C125.356874,10.2779408 126.354544,11.5761036 128.087857,11.5761036 C129.768623,11.5761036 130.78521,10.2779408 130.78521,8.31385558 L130.78521,1.15852258 L129.611686,0.964850727 L129.646717,0.298928298 L131.362514,0.334013779 L132.991435,0.298928298 L133.026466,0.964850727 L131.923003,1.15852258 L131.923003,8.31385558 C131.923003,10.5059964 131.100485,12.1367696 127.598129,12.9086502 C123.745468,12.9086502 122.099031,11.0849069 122.099031,8.33139832 Z M104.969086,11.9445011 L106.037518,11.751531 L106.037518,1.15852258 L104.969086,0.964850727 L105.021631,0.298928298 L107.666439,0.334013779 L110.187238,0.298928298 L110.239784,0.964850727 L109.29466,1.15852258 L109.29466,5.80594539 L113.251712,5.80594539 L113.251712,1.15852258 L112.306587,0.964850727 L112.340917,0.298928298 L114.863118,0.334013779 L117.52474,0.298928298 L117.559771,0.964850727 L116.509555,1.15852258 L116.509555,11.751531 L117.559771,11.9445011 L117.52474,12.6104236 L114.863118,12.5753381 L112.340917,12.6104236 L112.306587,11.9445011 L113.251712,11.751531 L113.251712,6.64729523 L109.29466,6.64729523 L109.29466,11.751531 L110.239784,11.9445011 L110.187238,12.6104236 L107.666439,12.5753381 L105.021631,12.6104236 L104.969086,11.9445011 Z M89.8709124,6.8058816 C89.8709124,2.64895381 92.4806894,0.632240367 97.0157462,0 C98.7665738,0 99.9751283,0.421727482 101.061076,0.964850727 L101.061076,4.4200689 L100.185312,4.4200689 L99.1350954,1.98303139 C98.6614821,1.36903547 98.0316326,0.860295994 96.875624,0.860295994 C94.9496436,0.860295994 93.4790605,2.75421026 93.4790605,6.29714213 C93.4790605,9.6288594 94.7569755,12.0322149 96.9281698,12.0322149 C97.9090256,12.0322149 98.5739057,11.6104874 99.2044559,10.9628094 L100.37798,8.26122735 L101.218013,8.26122735 L101.07789,11.821702 C99.7299144,12.3472825 98.5739057,12.6630518 96.5078031,12.9086502 C92.9704167,12.9086502 89.8709124,10.8750957 89.8709124,6.8058816 Z M77.2599093,11.7690737 L77.0679418,8.43665476 L78.0831275,8.43665476 L78.9063458,10.4884537 C79.5193807,11.2252488 80.2893525,11.9094157 81.3052388,11.9094157 C82.373671,11.9094157 83.1443434,11.2954197 83.1443434,10.2077698 C83.1443434,9.47167645 82.7758219,8.85768053 81.7080903,8.22614187 L79.3967737,6.8058816 C78.0130664,5.9813728 77.1723329,5.13932126 77.1723329,3.64889002 C77.1723329,2.14021434 78.1707039,0.71995407 81.7781514,0 C83.2662498,0 84.2646209,0.246300077 85.5082059,0.807667772 L85.5082059,3.99974483 L84.579896,3.99974483 L83.7041319,1.82444501 C83.1968893,1.2981628 82.6006691,0.912222506 81.7781514,0.912222506 C80.6746887,0.912222506 79.9740774,1.49113294 79.9740774,2.36826997 C79.9740774,3.14015055 80.44699,3.63064557 81.2877235,4.14008676 L83.6866166,5.59543251 C85.5425359,6.64729523 85.9986338,7.52443225 85.9986338,8.87522327 C85.9986338,10.9445649 84.3521973,12.1199286 81.0775402,12.9086502 C79.729564,12.9086502 78.485979,12.5227099 77.2599093,11.7690737 Z M63.1601072,11.9445011 L64.22924,11.751531 L64.22924,1.15852258 L63.1601072,0.964850727 L63.212653,0.298928298 L65.6472772,0.334013779 L73.1066856,0.298928298 L73.2117773,3.77168921 L72.4761354,3.77168921 L71.2157357,1.10589436 L67.4856813,1.08764991 L67.4856813,5.75331717 L69.2540241,5.71823169 L70.0597271,3.64889002 L70.7603384,3.64889002 L70.672762,6.13925746 L70.7603384,8.6296249 L70.0597271,8.6296249 L69.2540241,6.55958153 L67.4856813,6.52449604 L67.4856813,11.821702 L71.3383427,11.8041592 L72.5987424,9.03310794 L73.3343843,9.03310794 L73.0541397,12.6104236 L65.6472772,12.5753381 L63.212653,12.6104236 L63.1601072,11.9445011 Z M55.9241939,6.31468487 C55.9241939,3.19207706 54.7688859,0.912222506 52.5801762,0.983095177 L51.511744,1.10589436 L51.511744,11.7859148 L52.8246895,11.9269584 C54.7864011,12.0146721 55.9241939,9.453432 55.9241939,6.31468487 Z M47.1686547,11.9445011 L48.2546021,11.751531 L48.2546021,1.15852258 L47.1686547,0.964850727 L47.2212005,0.298928298 L49.5500324,0.334013779 L53.3151174,0.298928298 C57.2028095,0.281385558 59.3564885,2.45598367 59.3564885,6.13925746 C59.3564885,9.59377392 57.5881457,12.2244833 53.2807875,12.6104236 L49.4974866,12.5753381 L47.2212005,12.6104236 L47.1686547,11.9445011 Z M34.2949223,3.05243685 L34.0490078,2.1226716 L34.0490078,11.751531 L35.1875011,11.9445011 L35.1699858,12.6104236 L33.5235493,12.5753381 L32.0704815,12.6104236 L32.0179356,11.9445011 L33.0863679,11.751531 L33.0863679,1.15852258 L32.0179356,0.964850727 L32.0704815,0.298928298 L34.0847389,0.334013779 L36.1858722,0.298928298 L41.4215403,7.2795356 L41.7017848,8.19105639 L41.7017848,1.15852258 L40.5632915,0.964850727 L40.5815074,0.298928298 L42.1746974,0.334013779 L43.6803111,0.298928298 L43.7335575,0.964850727 L42.6644247,1.15852258 L42.6644247,12.6630518 L41.1412958,12.6630518 L34.2949223,3.05243685 Z M17.6028585,8.33139832 L17.6028585,1.15852258 L16.5526422,0.964850727 L16.5876727,0.298928298 L18.9690505,0.334013779 L21.8408561,0.298928298 L21.8751861,0.964850727 L20.8600004,1.15852258 L20.8600004,8.31385558 C20.8600004,10.2779408 21.8583714,11.5761036 23.5916837,11.5761036 C25.2724502,11.5761036 26.2883366,10.2779408 26.2883366,8.31385558 L26.2883366,1.15852258 L25.1148127,0.964850727 L25.1498432,0.298928298 L26.8656403,0.334013779 L28.4952621,0.298928298 L28.5295921,0.964850727 L27.4261293,1.15852258 L27.4261293,8.31385558 C27.4261293,10.5059964 26.6036117,12.1367696 23.1012558,12.9086502 C19.2485944,12.9086502 17.6028585,11.0849069 17.6028585,8.33139832 Z M0.472912616,11.9445011 L1.54134482,11.751531 L1.54134482,1.15852258 L0.472912616,0.964850727 L0.525458463,0.298928298 L3.16956545,0.334013779 L5.69106545,0.298928298 L5.7436113,0.964850727 L4.79778607,1.15852258 L4.79778607,5.80594539 L8.75553921,5.80594539 L8.75553921,1.15852258 L7.80971398,0.964850727 L7.84474454,0.298928298 L10.3669452,0.334013779 L13.0278668,0.298928298 L13.0628974,0.964850727 L12.0126811,1.15852258 L12.0126811,11.751531 L13.0628974,11.9445011 L13.0278668,12.6104236 L10.3669452,12.5753381 L7.84474454,12.6104236 L7.80971398,11.9445011 L8.75553921,11.751531 L8.75553921,6.64729523 L4.79778607,6.64729523 L4.79778607,11.751531 L5.7436113,11.9445011 L5.69106545,12.6104236 L3.16956545,12.5753381 L0.525458463,12.6104236 L0.472912616,11.9445011 Z" id="Fill-1"></path>
            </g>
        </g>
    </g>
</svg>