<svg xmlns="http://www.w3.org/2000/svg" viewBox="0 0 996 567"><defs><style>.cls-1{opacity:0.9;}.cls-2{fill:#1b1464;}.cls-3{fill:#f15a24;}.cls-4{fill:#0b094f;stroke:#f15a24;stroke-miterlimit:10;}</style></defs><g id="Ebene_2" data-name="Ebene 2"><g id="Ebene_1-2" data-name="Ebene 1"><g class="cls-1"><rect class="cls-2" x="0.5" y="0.5" width="995" height="566"/><path class="cls-3" d="M995,1V566H1V1H995m1-1H0V567H996V0Z"/></g><rect class="cls-4" x="617.5" y="43" width="103" height="481"/><path class="cls-3" d="M638.8,286.94v-8.37h5.56v1.62h-3.73v1.7h3.18v1.62h-3.18v3.43Z"/><path class="cls-3" d="M647.49,286.94a1.78,1.78,0,0,1-1.34-.44,1.8,1.8,0,0,1-.42-1.28v-7.16h1.77v7.5h.79v1.38Z"/><path class="cls-3" d="M652,287.09a3.21,3.21,0,0,1-1.28-.24,2.5,2.5,0,0,1-1-.66,2.9,2.9,0,0,1-.59-1,4.54,4.54,0,0,1-.19-1.37,4.36,4.36,0,0,1,.19-1.35,2.91,2.91,0,0,1,.57-1,2.53,2.53,0,0,1,.93-.67,3.33,3.33,0,0,1,1.26-.23,3.23,3.23,0,0,1,1.34.26,2.69,2.69,0,0,1,.91.71,2.84,2.84,0,0,1,.51,1,4.44,4.44,0,0,1,.17,1.22v.52H650.8v.1a1.23,1.23,0,0,0,1.39,1.34,1.62,1.62,0,0,0,.9-.22,3,3,0,0,0,.65-.53l.89,1.11a2.77,2.77,0,0,1-1.1.77A3.92,3.92,0,0,1,652,287.09Zm0-5.28a1.06,1.06,0,0,0-.84.35,1.37,1.37,0,0,0-.31.94v.1H653v-.11a1.57,1.57,0,0,0-.26-.93A.94.94,0,0,0,652,281.81Z"/><path class="cls-3" d="M655.3,286.94l2.08-3.2-2-3.1h2l1.18,2h.05l1.14-2h1.87l-2.09,3.16,2.1,3.14h-2l-1.21-2.05h-.05l-1.16,2.05Z"/><path class="cls-3" d="M666.35,280a1.07,1.07,0,0,1-.78-.24.85.85,0,0,1-.25-.63v-.27a.85.85,0,0,1,.25-.63,1.07,1.07,0,0,1,.78-.24,1.1,1.1,0,0,1,.79.24.89.89,0,0,1,.25.63v.27a.89.89,0,0,1-.25.63A1.1,1.1,0,0,1,666.35,280Zm-.88.67h1.77v6.3h-1.77Z"/><path class="cls-3" d="M671.11,286.94a1.91,1.91,0,0,1-1.4-.46,1.84,1.84,0,0,1-.48-1.37V282h-.88v-1.38h.44a.57.57,0,0,0,.49-.17.8.8,0,0,0,.13-.5v-1H671v1.7h1.25V282H671v3.54h1.15v1.38Z"/><path class="cls-3" d="M676.07,287.09a3.25,3.25,0,0,1-1.28-.24,2.47,2.47,0,0,1-.95-.66,2.75,2.75,0,0,1-.59-1,4.53,4.53,0,0,1-.2-1.37,4.36,4.36,0,0,1,.19-1.35,2.91,2.91,0,0,1,.57-1,2.53,2.53,0,0,1,.93-.67,3.33,3.33,0,0,1,1.26-.23,3.2,3.2,0,0,1,1.34.26,2.6,2.6,0,0,1,.91.71,2.86,2.86,0,0,1,.52,1,4.44,4.44,0,0,1,.16,1.22v.52h-4v.1a1.21,1.21,0,0,0,1.39,1.34,1.62,1.62,0,0,0,.9-.22,3.22,3.22,0,0,0,.65-.53l.88,1.11a2.73,2.73,0,0,1-1.09.77A4,4,0,0,1,676.07,287.09Zm0-5.28a1.09,1.09,0,0,0-.85.35,1.41,1.41,0,0,0-.3.94v.1h2.2v-.11a1.57,1.57,0,0,0-.25-.93A1,1,0,0,0,676,281.81Z"/><path class="cls-3" d="M680.19,286.94v-6.3H682v1.07H682a2,2,0,0,1,.57-.86,1.71,1.71,0,0,1,1.12-.35,1.88,1.88,0,0,1,1.1.32,1.79,1.79,0,0,1,.66.95h0a1.84,1.84,0,0,1,.26-.5,1.78,1.78,0,0,1,.42-.4,2.5,2.5,0,0,1,.57-.27,2.09,2.09,0,0,1,.67-.1,1.66,1.66,0,0,1,1.4.65,3.07,3.07,0,0,1,.48,1.85v3.94h-1.77v-3.8q0-1.2-.87-1.2a1.26,1.26,0,0,0-.72.23.79.79,0,0,0-.32.69v4.08h-1.78v-3.8c0-.8-.28-1.2-.86-1.2a1.65,1.65,0,0,0-.38.05,1.06,1.06,0,0,0-.33.18,1,1,0,0,0-.24.29.87.87,0,0,0-.09.4v4.08Z"/><path class="cls-3" d="M694.05,286.94v-1.45h2.26v-5.61h-.11l-1.71,2.23-1.15-.9,2-2.64h2.76v6.92h1.77v1.45Z"/><rect class="cls-4" x="489.5" y="43" width="103" height="481"/><path class="cls-3" d="M510.8,286.94v-8.37h5.56v1.62h-3.73v1.7h3.18v1.62h-3.18v3.43Z"/><path class="cls-3" d="M519.49,286.94a1.78,1.78,0,0,1-1.34-.44,1.8,1.8,0,0,1-.42-1.28v-7.16h1.77v7.5h.79v1.38Z"/><path class="cls-3" d="M524,287.09a3.21,3.21,0,0,1-1.28-.24,2.5,2.5,0,0,1-1-.66,2.9,2.9,0,0,1-.59-1,4.54,4.54,0,0,1-.19-1.37,4.36,4.36,0,0,1,.19-1.35,2.91,2.91,0,0,1,.57-1,2.53,2.53,0,0,1,.93-.67,3.33,3.33,0,0,1,1.26-.23,3.23,3.23,0,0,1,1.34.26,2.69,2.69,0,0,1,.91.71,2.84,2.84,0,0,1,.51,1,4.44,4.44,0,0,1,.17,1.22v.52H522.8v.1a1.23,1.23,0,0,0,1.39,1.34,1.62,1.62,0,0,0,.9-.22,3,3,0,0,0,.65-.53l.89,1.11a2.77,2.77,0,0,1-1.1.77A3.92,3.92,0,0,1,524,287.09Zm0-5.28a1.06,1.06,0,0,0-.84.35,1.37,1.37,0,0,0-.31.94v.1H525v-.11a1.57,1.57,0,0,0-.26-.93A.94.94,0,0,0,524,281.81Z"/><path class="cls-3" d="M527.3,286.94l2.08-3.2-2-3.1h2l1.18,2h.05l1.14-2h1.87l-2.09,3.16,2.1,3.14h-2l-1.21-2.05h-.05l-1.16,2.05Z"/><path class="cls-3" d="M538.35,280a1.07,1.07,0,0,1-.78-.24.85.85,0,0,1-.25-.63v-.27a.85.85,0,0,1,.25-.63,1.07,1.07,0,0,1,.78-.24,1.1,1.1,0,0,1,.79.24.89.89,0,0,1,.25.63v.27a.89.89,0,0,1-.25.63A1.1,1.1,0,0,1,538.35,280Zm-.88.67h1.77v6.3h-1.77Z"/><path class="cls-3" d="M543.11,286.94a1.91,1.91,0,0,1-1.4-.46,1.84,1.84,0,0,1-.48-1.37V282h-.88v-1.38h.44a.57.57,0,0,0,.49-.17.8.8,0,0,0,.13-.5v-1H543v1.7h1.25V282H543v3.54h1.15v1.38Z"/><path class="cls-3" d="M548.07,287.09a3.25,3.25,0,0,1-1.28-.24,2.47,2.47,0,0,1-.95-.66,2.75,2.75,0,0,1-.59-1,4.53,4.53,0,0,1-.2-1.37,4.36,4.36,0,0,1,.19-1.35,2.91,2.91,0,0,1,.57-1,2.53,2.53,0,0,1,.93-.67,3.33,3.33,0,0,1,1.26-.23,3.2,3.2,0,0,1,1.34.26,2.6,2.6,0,0,1,.91.71,2.86,2.86,0,0,1,.52,1,4.44,4.44,0,0,1,.16,1.22v.52h-4v.1a1.21,1.21,0,0,0,1.39,1.34,1.62,1.62,0,0,0,.9-.22,3.22,3.22,0,0,0,.65-.53l.88,1.11a2.73,2.73,0,0,1-1.09.77A4,4,0,0,1,548.07,287.09Zm0-5.28a1.09,1.09,0,0,0-.85.35,1.41,1.41,0,0,0-.3.94v.1h2.2v-.11a1.57,1.57,0,0,0-.25-.93A1,1,0,0,0,548,281.81Z"/><path class="cls-3" d="M552.19,286.94v-6.3H554v1.07H554a2,2,0,0,1,.57-.86,1.71,1.71,0,0,1,1.12-.35,1.88,1.88,0,0,1,1.1.32,1.79,1.79,0,0,1,.66.95h0a1.84,1.84,0,0,1,.26-.5,1.78,1.78,0,0,1,.42-.4,2.5,2.5,0,0,1,.57-.27,2.09,2.09,0,0,1,.67-.1,1.66,1.66,0,0,1,1.4.65,3.07,3.07,0,0,1,.48,1.85v3.94h-1.77v-3.8q0-1.2-.87-1.2a1.26,1.26,0,0,0-.72.23.79.79,0,0,0-.32.69v4.08h-1.78v-3.8c0-.8-.28-1.2-.86-1.2a1.65,1.65,0,0,0-.38.05,1.06,1.06,0,0,0-.33.18,1,1,0,0,0-.24.29.87.87,0,0,0-.09.4v4.08Z"/><path class="cls-3" d="M571.53,286.94h-5.92V285.3l2.58-2.21c.23-.2.42-.38.58-.54a3.75,3.75,0,0,0,.39-.48,1.66,1.66,0,0,0,.22-.47,1.87,1.87,0,0,0,.07-.49v-.17a.93.93,0,0,0-.1-.42.91.91,0,0,0-.25-.3,1.11,1.11,0,0,0-.36-.18,1.34,1.34,0,0,0-.4-.06,1.38,1.38,0,0,0-.52.1,1,1,0,0,0-.38.26,1.41,1.41,0,0,0-.27.37,1.74,1.74,0,0,0-.17.45l-1.57-.6a3.24,3.24,0,0,1,.39-.82,2.73,2.73,0,0,1,1.53-1.15,3.77,3.77,0,0,1,1.16-.17,3.45,3.45,0,0,1,1.21.2,2.66,2.66,0,0,1,.9.52,2.21,2.21,0,0,1,.55.8,2.55,2.55,0,0,1,.2,1,2.64,2.64,0,0,1-.18,1,3.7,3.7,0,0,1-.49.83,4.93,4.93,0,0,1-.71.74l-.86.71-1.56,1.22h4Z"/><rect class="cls-4" x="360.5" y="43" width="103" height="481"/><path class="cls-3" d="M381.8,286.94v-8.37h5.56v1.62h-3.73v1.7h3.18v1.62h-3.18v3.43Z"/><path class="cls-3" d="M390.49,286.94a1.78,1.78,0,0,1-1.34-.44,1.8,1.8,0,0,1-.42-1.28v-7.16h1.77v7.5h.79v1.38Z"/><path class="cls-3" d="M395,287.09a3.21,3.21,0,0,1-1.28-.24,2.5,2.5,0,0,1-1-.66,2.9,2.9,0,0,1-.59-1,4.54,4.54,0,0,1-.19-1.37,4.36,4.36,0,0,1,.19-1.35,2.91,2.91,0,0,1,.57-1,2.53,2.53,0,0,1,.93-.67,3.33,3.33,0,0,1,1.26-.23,3.23,3.23,0,0,1,1.34.26,2.69,2.69,0,0,1,.91.71,2.84,2.84,0,0,1,.51,1,4.44,4.44,0,0,1,.17,1.22v.52H393.8v.1a1.23,1.23,0,0,0,1.39,1.34,1.62,1.62,0,0,0,.9-.22,3,3,0,0,0,.65-.53l.89,1.11a2.77,2.77,0,0,1-1.1.77A3.92,3.92,0,0,1,395,287.09Zm0-5.28a1.06,1.06,0,0,0-.84.35,1.37,1.37,0,0,0-.31.94v.1H396v-.11a1.57,1.57,0,0,0-.26-.93A.94.94,0,0,0,395,281.81Z"/><path class="cls-3" d="M398.3,286.94l2.08-3.2-2.05-3.1h2l1.18,2h.05l1.14-2h1.87l-2.09,3.16,2.1,3.14h-2l-1.21-2.05h-.05l-1.16,2.05Z"/><path class="cls-3" d="M409.35,280a1.07,1.07,0,0,1-.78-.24.85.85,0,0,1-.25-.63v-.27a.85.85,0,0,1,.25-.63,1.07,1.07,0,0,1,.78-.24,1.1,1.1,0,0,1,.79.24.89.89,0,0,1,.25.63v.27a.89.89,0,0,1-.25.63A1.1,1.1,0,0,1,409.35,280Zm-.88.67h1.77v6.3h-1.77Z"/><path class="cls-3" d="M414.11,286.94a1.91,1.91,0,0,1-1.4-.46,1.84,1.84,0,0,1-.48-1.37V282h-.88v-1.38h.44a.57.57,0,0,0,.49-.17.8.8,0,0,0,.13-.5v-1H414v1.7h1.25V282H414v3.54h1.15v1.38Z"/><path class="cls-3" d="M419.07,287.09a3.25,3.25,0,0,1-1.28-.24,2.47,2.47,0,0,1-1-.66,2.75,2.75,0,0,1-.59-1,4.53,4.53,0,0,1-.2-1.37,4.36,4.36,0,0,1,.19-1.35,2.91,2.91,0,0,1,.57-1,2.53,2.53,0,0,1,.93-.67,3.33,3.33,0,0,1,1.26-.23,3.2,3.2,0,0,1,1.34.26,2.6,2.6,0,0,1,.91.71,2.86,2.86,0,0,1,.52,1,4.44,4.44,0,0,1,.16,1.22v.52h-4v.1a1.21,1.21,0,0,0,1.39,1.34,1.62,1.62,0,0,0,.9-.22,3.22,3.22,0,0,0,.65-.53l.88,1.11a2.73,2.73,0,0,1-1.09.77A4,4,0,0,1,419.07,287.09Zm0-5.28a1.09,1.09,0,0,0-.85.35,1.41,1.41,0,0,0-.3.94v.1h2.2v-.11a1.57,1.57,0,0,0-.25-.93A1,1,0,0,0,419,281.81Z"/><path class="cls-3" d="M423.19,286.94v-6.3H425v1.07H425a2,2,0,0,1,.57-.86,1.71,1.71,0,0,1,1.12-.35,1.88,1.88,0,0,1,1.1.32,1.79,1.79,0,0,1,.66.95h0a1.84,1.84,0,0,1,.26-.5,1.78,1.78,0,0,1,.42-.4,2.5,2.5,0,0,1,.57-.27,2.09,2.09,0,0,1,.67-.1,1.66,1.66,0,0,1,1.4.65,3.07,3.07,0,0,1,.48,1.85v3.94h-1.77v-3.8q0-1.2-.87-1.2a1.26,1.26,0,0,0-.72.23.79.79,0,0,0-.32.69v4.08h-1.78v-3.8c0-.8-.28-1.2-.86-1.2a1.65,1.65,0,0,0-.38.05,1.06,1.06,0,0,0-.33.18,1,1,0,0,0-.24.29.87.87,0,0,0-.09.4v4.08Z"/><path class="cls-3" d="M439.07,281.88a1.5,1.5,0,0,0,1-.26.78.78,0,0,0,.31-.64v-.08a1,1,0,0,0-.29-.74,1.21,1.21,0,0,0-.84-.27,1.81,1.81,0,0,0-1,.26,2.26,2.26,0,0,0-.75.73l-1.13-1.05a4,4,0,0,1,.52-.57,3.18,3.18,0,0,1,.62-.45,3,3,0,0,1,.78-.28,4.11,4.11,0,0,1,1-.11,4.56,4.56,0,0,1,1.22.16,2.74,2.74,0,0,1,.94.45,2.1,2.1,0,0,1,.6.7,2,2,0,0,1,.21.91,2,2,0,0,1-.13.72,1.65,1.65,0,0,1-.35.57,1.92,1.92,0,0,1-.51.39,2.1,2.1,0,0,1-.61.21v.07a2.94,2.94,0,0,1,.69.23,1.91,1.91,0,0,1,.55.42,1.79,1.79,0,0,1,.37.59,2.13,2.13,0,0,1,.13.78,2.2,2.2,0,0,1-.88,1.8,3,3,0,0,1-1,.49,4.49,4.49,0,0,1-1.3.18,4.81,4.81,0,0,1-1.13-.13,3.37,3.37,0,0,1-.86-.36,3.19,3.19,0,0,1-.63-.51,4,4,0,0,1-.48-.61l1.34-1a2.82,2.82,0,0,0,.67.84,1.67,1.67,0,0,0,1.09.33,1.37,1.37,0,0,0,1-.3,1.07,1.07,0,0,0,.35-.84v-.07a.86.86,0,0,0-.39-.77,2,2,0,0,0-1.08-.26h-.75v-1.5Z"/><rect class="cls-4" x="231.5" y="43" width="103" height="481"/><path class="cls-3" d="M252.8,286.94v-8.37h5.56v1.62h-3.73v1.7h3.18v1.62h-3.18v3.43Z"/><path class="cls-3" d="M261.49,286.94a1.78,1.78,0,0,1-1.34-.44,1.8,1.8,0,0,1-.42-1.28v-7.16h1.77v7.5h.79v1.38Z"/><path class="cls-3" d="M266,287.09a3.21,3.21,0,0,1-1.28-.24,2.5,2.5,0,0,1-1-.66,2.9,2.9,0,0,1-.59-1,4.54,4.54,0,0,1-.19-1.37,4.36,4.36,0,0,1,.19-1.35,2.91,2.91,0,0,1,.57-1,2.53,2.53,0,0,1,.93-.67,3.33,3.33,0,0,1,1.26-.23,3.23,3.23,0,0,1,1.34.26,2.69,2.69,0,0,1,.91.71,2.84,2.84,0,0,1,.51,1,4.44,4.44,0,0,1,.17,1.22v.52H264.8v.1a1.23,1.23,0,0,0,1.39,1.34,1.62,1.62,0,0,0,.9-.22,3,3,0,0,0,.65-.53l.89,1.11a2.77,2.77,0,0,1-1.1.77A3.92,3.92,0,0,1,266,287.09Zm0-5.28a1.06,1.06,0,0,0-.84.35,1.37,1.37,0,0,0-.31.94v.1H267v-.11a1.57,1.57,0,0,0-.26-.93A.94.94,0,0,0,266,281.81Z"/><path class="cls-3" d="M269.3,286.94l2.08-3.2-2.05-3.1h2l1.18,2h.05l1.14-2h1.87l-2.09,3.16,2.1,3.14h-2l-1.21-2.05h-.05l-1.16,2.05Z"/><path class="cls-3" d="M280.35,280a1.07,1.07,0,0,1-.78-.24.85.85,0,0,1-.25-.63v-.27a.85.85,0,0,1,.25-.63,1.07,1.07,0,0,1,.78-.24,1.1,1.1,0,0,1,.79.24.89.89,0,0,1,.25.63v.27a.89.89,0,0,1-.25.63A1.1,1.1,0,0,1,280.35,280Zm-.88.67h1.77v6.3h-1.77Z"/><path class="cls-3" d="M285.11,286.94a1.91,1.91,0,0,1-1.4-.46,1.84,1.84,0,0,1-.48-1.37V282h-.88v-1.38h.44a.57.57,0,0,0,.49-.17.8.8,0,0,0,.13-.5v-1H285v1.7h1.25V282H285v3.54h1.15v1.38Z"/><path class="cls-3" d="M290.07,287.09a3.25,3.25,0,0,1-1.28-.24,2.47,2.47,0,0,1-1-.66,2.75,2.75,0,0,1-.59-1,4.53,4.53,0,0,1-.2-1.37,4.36,4.36,0,0,1,.19-1.35,2.91,2.91,0,0,1,.57-1,2.53,2.53,0,0,1,.93-.67,3.33,3.33,0,0,1,1.26-.23,3.2,3.2,0,0,1,1.34.26,2.6,2.6,0,0,1,.91.71,2.86,2.86,0,0,1,.52,1,4.44,4.44,0,0,1,.16,1.22v.52h-4v.1a1.21,1.21,0,0,0,1.39,1.34,1.62,1.62,0,0,0,.9-.22,3.22,3.22,0,0,0,.65-.53l.88,1.11a2.73,2.73,0,0,1-1.09.77A4,4,0,0,1,290.07,287.09Zm0-5.28a1.09,1.09,0,0,0-.85.35,1.41,1.41,0,0,0-.3.94v.1h2.2v-.11a1.57,1.57,0,0,0-.25-.93A1,1,0,0,0,290,281.81Z"/><path class="cls-3" d="M294.19,286.94v-6.3H296v1.07H296a2,2,0,0,1,.57-.86,1.71,1.71,0,0,1,1.12-.35,1.88,1.88,0,0,1,1.1.32,1.79,1.79,0,0,1,.66.95h0a1.84,1.84,0,0,1,.26-.5,1.78,1.78,0,0,1,.42-.4,2.5,2.5,0,0,1,.57-.27,2.09,2.09,0,0,1,.67-.1,1.66,1.66,0,0,1,1.4.65,3.07,3.07,0,0,1,.48,1.85v3.94h-1.77v-3.8q0-1.2-.87-1.2a1.26,1.26,0,0,0-.72.23.79.79,0,0,0-.32.69v4.08h-1.78v-3.8c0-.8-.28-1.2-.86-1.2a1.65,1.65,0,0,0-.38.05,1.06,1.06,0,0,0-.33.18,1,1,0,0,0-.24.29.87.87,0,0,0-.09.4v4.08Z"/><path class="cls-3" d="M311,286.94v-1.6h-3.69v-1.55l3.27-5.22h2.13v5.36h1.06v1.41h-1.06v1.6Zm-2.25-3H311v-3.5h-.12Z"/></g></g></svg>