<svg xmlns="http://www.w3.org/2000/svg" viewBox="0 0 996 567"><defs><style>.cls-1{opacity:0.9;}.cls-2{fill:#1b1464;}.cls-3{fill:#f15a24;}.cls-4{fill:#0b094f;stroke:#f15a24;stroke-miterlimit:10;}</style></defs><g id="Ebene_2" data-name="Ebene 2"><g id="Ebene_1-2" data-name="Ebene 1"><g class="cls-1"><rect class="cls-2" x="0.5" y="0.5" width="995" height="566"/><path class="cls-3" d="M995,1V566H1V1H995m1-1H0V567H996V0Z"/></g><rect class="cls-4" x="54.38" y="41.78" width="887.9" height="59.18"/><path class="cls-3" d="M468.13,74.81V66.43h5.56v1.62H470v1.71h3.18v1.62H470v3.43Z"/><path class="cls-3" d="M476.82,74.81a1.8,1.8,0,0,1-1.34-.44,1.82,1.82,0,0,1-.43-1.29V65.93h1.78v7.5h.79v1.38Z"/><path class="cls-3" d="M481.32,75a3.3,3.3,0,0,1-1.29-.23,2.79,2.79,0,0,1-.95-.66,2.72,2.72,0,0,1-.59-1,4.72,4.72,0,0,1,0-2.72,2.59,2.59,0,0,1,.57-1,2.53,2.53,0,0,1,.93-.67,3.08,3.08,0,0,1,1.26-.23,3.15,3.15,0,0,1,1.33.26,2.53,2.53,0,0,1,.92.71,3,3,0,0,1,.51,1,4.49,4.49,0,0,1,.16,1.22v.53h-4v.1a1.23,1.23,0,0,0,1.39,1.34,1.62,1.62,0,0,0,.9-.22,3.59,3.59,0,0,0,.65-.53l.89,1.11a2.87,2.87,0,0,1-1.1.77A4.15,4.15,0,0,1,481.32,75Zm0-5.28a1,1,0,0,0-.84.36,1.35,1.35,0,0,0-.31.94v.1h2.21V71a1.53,1.53,0,0,0-.26-.93A.92.92,0,0,0,481.28,69.67Z"/><path class="cls-3" d="M484.63,74.81l2.08-3.2-2.06-3.1h2l1.18,2h0l1.14-2h1.88l-2.09,3.16,2.1,3.14h-2l-1.21-2h-.05l-1.16,2Z"/><path class="cls-3" d="M495.68,67.84a1,1,0,0,1-.78-.25.82.82,0,0,1-.25-.63V66.7a.82.82,0,0,1,.25-.63,1,1,0,0,1,.78-.25,1.07,1.07,0,0,1,.79.25.85.85,0,0,1,.24.63V67a.85.85,0,0,1-.24.63A1.07,1.07,0,0,1,495.68,67.84Zm-.89.67h1.78v6.3h-1.78Z"/><path class="cls-3" d="M500.43,74.81a1.9,1.9,0,0,1-1.39-.47,1.83,1.83,0,0,1-.48-1.37V69.89h-.89V68.51h.45a.6.6,0,0,0,.49-.17.82.82,0,0,0,.13-.5v-1h1.6v1.7h1.25v1.38h-1.25v3.54h1.15v1.38Z"/><path class="cls-3" d="M505.4,75a3.21,3.21,0,0,1-1.28-.23,2.74,2.74,0,0,1-1-.66,2.7,2.7,0,0,1-.58-1,4.2,4.2,0,0,1-.2-1.37,4.45,4.45,0,0,1,.19-1.35,2.86,2.86,0,0,1,.57-1,2.53,2.53,0,0,1,.93-.67,3.15,3.15,0,0,1,1.26-.23,3.2,3.2,0,0,1,1.34.26,2.58,2.58,0,0,1,.91.71,2.82,2.82,0,0,1,.52,1,4.92,4.92,0,0,1,.16,1.22v.53h-4.05v.1a1.41,1.41,0,0,0,.34,1,1.39,1.39,0,0,0,1.06.36,1.67,1.67,0,0,0,.9-.22,3.53,3.53,0,0,0,.64-.53l.89,1.11a2.79,2.79,0,0,1-1.1.77A4.11,4.11,0,0,1,505.4,75Zm0-5.28a1.05,1.05,0,0,0-.85.36,1.4,1.4,0,0,0-.31.94v.1h2.21V71a1.47,1.47,0,0,0-.26-.93A.9.9,0,0,0,505.37,69.67Z"/><path class="cls-3" d="M509.52,74.81v-6.3h1.77v1.07h.08a1.92,1.92,0,0,1,.57-.86,1.64,1.64,0,0,1,1.12-.35,1.81,1.81,0,0,1,1.1.32,1.75,1.75,0,0,1,.66,1h0a1.5,1.5,0,0,1,.26-.5,1.46,1.46,0,0,1,.42-.4,2.5,2.5,0,0,1,.57-.27,2,2,0,0,1,.67-.1,1.65,1.65,0,0,1,1.4.64,3.09,3.09,0,0,1,.48,1.85v4h-1.77V71q0-1.2-.87-1.2a1.25,1.25,0,0,0-.72.22.83.83,0,0,0-.32.7v4.08H513.2V71c0-.8-.29-1.2-.86-1.2a1.2,1.2,0,0,0-.38,0,1.35,1.35,0,0,0-.34.17.89.89,0,0,0-.24.3.84.84,0,0,0-.09.4v4.08Z"/><path class="cls-3" d="M523.38,74.81V73.36h2.25V67.74h-.1L523.82,70l-1.15-.9,2-2.64h2.76v6.93h1.78v1.45Z"/><rect class="cls-4" x="54.38" y="115.78" width="887.9" height="59.18"/><path class="cls-3" d="M468.13,148.81v-8.38h5.56v1.62H470v1.71h3.18v1.62H470v3.43Z"/><path class="cls-3" d="M476.82,148.81a1.8,1.8,0,0,1-1.34-.44,1.82,1.82,0,0,1-.43-1.29v-7.15h1.78v7.5h.79v1.38Z"/><path class="cls-3" d="M481.32,149a3.3,3.3,0,0,1-1.29-.23,2.79,2.79,0,0,1-.95-.66,2.72,2.72,0,0,1-.59-1,4.72,4.72,0,0,1,0-2.72,2.59,2.59,0,0,1,.57-1,2.53,2.53,0,0,1,.93-.67,3.08,3.08,0,0,1,1.26-.23,3.15,3.15,0,0,1,1.33.26,2.53,2.53,0,0,1,.92.71,3,3,0,0,1,.51,1,4.49,4.49,0,0,1,.16,1.22v.53h-4v.1a1.23,1.23,0,0,0,1.39,1.34,1.62,1.62,0,0,0,.9-.22,3.59,3.59,0,0,0,.65-.53l.89,1.11a2.87,2.87,0,0,1-1.1.77A4.15,4.15,0,0,1,481.32,149Zm0-5.28a1,1,0,0,0-.84.36,1.35,1.35,0,0,0-.31.94v.1h2.21V145a1.53,1.53,0,0,0-.26-.93A.92.92,0,0,0,481.28,143.67Z"/><path class="cls-3" d="M484.63,148.81l2.08-3.2-2.06-3.1h2l1.18,2h0l1.14-2h1.88l-2.09,3.16,2.1,3.14h-2l-1.21-2.05h-.05l-1.16,2.05Z"/><path class="cls-3" d="M495.68,141.84a1,1,0,0,1-.78-.25.82.82,0,0,1-.25-.63v-.26a.82.82,0,0,1,.25-.63,1,1,0,0,1,.78-.25,1.07,1.07,0,0,1,.79.25.85.85,0,0,1,.24.63V141a.85.85,0,0,1-.24.63A1.07,1.07,0,0,1,495.68,141.84Zm-.89.67h1.78v6.3h-1.78Z"/><path class="cls-3" d="M500.43,148.81a1.9,1.9,0,0,1-1.39-.47,1.83,1.83,0,0,1-.48-1.37v-3.08h-.89v-1.38h.45a.6.6,0,0,0,.49-.17.82.82,0,0,0,.13-.5v-1h1.6v1.7h1.25v1.38h-1.25v3.54h1.15v1.38Z"/><path class="cls-3" d="M505.4,149a3.21,3.21,0,0,1-1.28-.23,2.74,2.74,0,0,1-1-.66,2.7,2.7,0,0,1-.58-1,4.2,4.2,0,0,1-.2-1.37,4.45,4.45,0,0,1,.19-1.35,2.86,2.86,0,0,1,.57-1,2.53,2.53,0,0,1,.93-.67,3.15,3.15,0,0,1,1.26-.23,3.2,3.2,0,0,1,1.34.26,2.58,2.58,0,0,1,.91.71,2.82,2.82,0,0,1,.52,1,4.92,4.92,0,0,1,.16,1.22v.53h-4.05v.1a1.41,1.41,0,0,0,.34,1,1.39,1.39,0,0,0,1.06.36,1.67,1.67,0,0,0,.9-.22,3.53,3.53,0,0,0,.64-.53l.89,1.11a2.79,2.79,0,0,1-1.1.77A4.11,4.11,0,0,1,505.4,149Zm0-5.28a1.05,1.05,0,0,0-.85.36,1.4,1.4,0,0,0-.31.94v.1h2.21V145a1.47,1.47,0,0,0-.26-.93A.9.9,0,0,0,505.37,143.67Z"/><path class="cls-3" d="M509.52,148.81v-6.3h1.77v1.07h.08a1.92,1.92,0,0,1,.57-.86,1.64,1.64,0,0,1,1.12-.35,1.81,1.81,0,0,1,1.1.32,1.75,1.75,0,0,1,.66.95h0a1.5,1.5,0,0,1,.26-.5,1.46,1.46,0,0,1,.42-.4,2.5,2.5,0,0,1,.57-.27,2,2,0,0,1,.67-.1,1.65,1.65,0,0,1,1.4.64,3.09,3.09,0,0,1,.48,1.85v3.95h-1.77V145q0-1.2-.87-1.2a1.25,1.25,0,0,0-.72.22.83.83,0,0,0-.32.7v4.08H513.2V145c0-.8-.29-1.2-.86-1.2a1.2,1.2,0,0,0-.38.05,1.35,1.35,0,0,0-.34.17.89.89,0,0,0-.24.3.84.84,0,0,0-.09.4v4.08Z"/><path class="cls-3" d="M528.86,148.81h-5.93v-1.64l2.58-2.21a6.62,6.62,0,0,0,.59-.55,2.74,2.74,0,0,0,.39-.48,1.55,1.55,0,0,0,.28-1v-.17a.93.93,0,0,0-.09-.42,1.05,1.05,0,0,0-.25-.3,1.22,1.22,0,0,0-.36-.18,1.34,1.34,0,0,0-.4-.06,1.21,1.21,0,0,0-.52.1,1.3,1.3,0,0,0-.39.25,2.16,2.16,0,0,0-.27.38,2.18,2.18,0,0,0-.16.45l-1.58-.6a3.73,3.73,0,0,1,.4-.83,2.9,2.9,0,0,1,.63-.68,2.78,2.78,0,0,1,.89-.46,3.89,3.89,0,0,1,1.17-.17,3.49,3.49,0,0,1,1.21.19,2.7,2.7,0,0,1,.89.53,2.15,2.15,0,0,1,.56.8,2.74,2.74,0,0,1,0,2,3.51,3.51,0,0,1-.48.84,5.55,5.55,0,0,1-.72.74l-.85.7-1.56,1.23h4Z"/><rect class="cls-4" x="54.38" y="194.78" width="887.9" height="59.18"/><path class="cls-3" d="M468.13,227.81v-8.38h5.56v1.62H470v1.71h3.18v1.62H470v3.43Z"/><path class="cls-3" d="M476.82,227.81a1.8,1.8,0,0,1-1.34-.44,1.82,1.82,0,0,1-.43-1.29v-7.15h1.78v7.5h.79v1.38Z"/><path class="cls-3" d="M481.32,228a3.3,3.3,0,0,1-1.29-.23,2.79,2.79,0,0,1-.95-.66,2.72,2.72,0,0,1-.59-1,4.72,4.72,0,0,1,0-2.72,2.59,2.59,0,0,1,.57-1,2.53,2.53,0,0,1,.93-.67,3.08,3.08,0,0,1,1.26-.23,3.15,3.15,0,0,1,1.33.26,2.53,2.53,0,0,1,.92.71,3,3,0,0,1,.51,1,4.49,4.49,0,0,1,.16,1.22v.53h-4v.1a1.23,1.23,0,0,0,1.39,1.34,1.62,1.62,0,0,0,.9-.22,3.59,3.59,0,0,0,.65-.53l.89,1.11a2.87,2.87,0,0,1-1.1.77A4.15,4.15,0,0,1,481.32,228Zm0-5.28a1,1,0,0,0-.84.36,1.35,1.35,0,0,0-.31.94v.1h2.21V224a1.53,1.53,0,0,0-.26-.93A.92.92,0,0,0,481.28,222.67Z"/><path class="cls-3" d="M484.63,227.81l2.08-3.2-2.06-3.1h2l1.18,2h0l1.14-2h1.88l-2.09,3.16,2.1,3.14h-2l-1.21-2.05h-.05l-1.16,2.05Z"/><path class="cls-3" d="M495.68,220.84a1,1,0,0,1-.78-.25.82.82,0,0,1-.25-.63v-.26a.82.82,0,0,1,.25-.63,1,1,0,0,1,.78-.25,1.07,1.07,0,0,1,.79.25.85.85,0,0,1,.24.63V220a.85.85,0,0,1-.24.63A1.07,1.07,0,0,1,495.68,220.84Zm-.89.67h1.78v6.3h-1.78Z"/><path class="cls-3" d="M500.43,227.81a1.9,1.9,0,0,1-1.39-.47,1.83,1.83,0,0,1-.48-1.37v-3.08h-.89v-1.38h.45a.6.6,0,0,0,.49-.17.82.82,0,0,0,.13-.5v-1h1.6v1.7h1.25v1.38h-1.25v3.54h1.15v1.38Z"/><path class="cls-3" d="M505.4,228a3.21,3.21,0,0,1-1.28-.23,2.74,2.74,0,0,1-1-.66,2.7,2.7,0,0,1-.58-1,4.2,4.2,0,0,1-.2-1.37,4.45,4.45,0,0,1,.19-1.35,2.86,2.86,0,0,1,.57-1,2.53,2.53,0,0,1,.93-.67,3.15,3.15,0,0,1,1.26-.23,3.2,3.2,0,0,1,1.34.26,2.58,2.58,0,0,1,.91.71,2.82,2.82,0,0,1,.52,1,4.92,4.92,0,0,1,.16,1.22v.53h-4.05v.1a1.41,1.41,0,0,0,.34,1,1.39,1.39,0,0,0,1.06.36,1.67,1.67,0,0,0,.9-.22,3.53,3.53,0,0,0,.64-.53l.89,1.11a2.79,2.79,0,0,1-1.1.77A4.11,4.11,0,0,1,505.4,228Zm0-5.28a1.05,1.05,0,0,0-.85.36,1.4,1.4,0,0,0-.31.94v.1h2.21V224a1.47,1.47,0,0,0-.26-.93A.9.9,0,0,0,505.37,222.67Z"/><path class="cls-3" d="M509.52,227.81v-6.3h1.77v1.07h.08a1.92,1.92,0,0,1,.57-.86,1.64,1.64,0,0,1,1.12-.35,1.81,1.81,0,0,1,1.1.32,1.75,1.75,0,0,1,.66.95h0a1.5,1.5,0,0,1,.26-.5,1.46,1.46,0,0,1,.42-.4,2.5,2.5,0,0,1,.57-.27,2,2,0,0,1,.67-.1,1.65,1.65,0,0,1,1.4.64,3.09,3.09,0,0,1,.48,1.85v3.95h-1.77V224q0-1.2-.87-1.2a1.25,1.25,0,0,0-.72.22.83.83,0,0,0-.32.7v4.08H513.2V224c0-.8-.29-1.2-.86-1.2a1.2,1.2,0,0,0-.38.05,1.35,1.35,0,0,0-.34.17.89.89,0,0,0-.24.3.84.84,0,0,0-.09.4v4.08Z"/><path class="cls-3" d="M525.39,222.75a1.51,1.51,0,0,0,1-.26.79.79,0,0,0,.31-.64v-.09a.94.94,0,0,0-.3-.73,1.17,1.17,0,0,0-.83-.28,1.89,1.89,0,0,0-.95.26,2.21,2.21,0,0,0-.75.74l-1.13-1.06a6.91,6.91,0,0,1,.51-.57,3.09,3.09,0,0,1,.63-.44,3.41,3.41,0,0,1,.78-.29,4.13,4.13,0,0,1,1-.1,4.24,4.24,0,0,1,1.22.16,2.69,2.69,0,0,1,.93.45,2,2,0,0,1,.6.7,1.94,1.94,0,0,1,.21.91,2.09,2.09,0,0,1-.12.72,1.77,1.77,0,0,1-.35.56,1.73,1.73,0,0,1-.51.39,1.92,1.92,0,0,1-.61.21v.08a2.23,2.23,0,0,1,1.24.64,1.84,1.84,0,0,1,.37.6,2.3,2.3,0,0,1,.13.77,2.25,2.25,0,0,1-.23,1,2.13,2.13,0,0,1-.65.78,2.81,2.81,0,0,1-1,.5,4.38,4.38,0,0,1-1.29.17,4.28,4.28,0,0,1-1.13-.13,3.36,3.36,0,0,1-.86-.35,3.19,3.19,0,0,1-.63-.51,4.59,4.59,0,0,1-.48-.61l1.33-1a2.77,2.77,0,0,0,.68.85,1.67,1.67,0,0,0,1.09.33,1.34,1.34,0,0,0,1-.31,1,1,0,0,0,.34-.83v-.07a.88.88,0,0,0-.39-.78,1.93,1.93,0,0,0-1.07-.25h-.76v-1.5Z"/><rect class="cls-4" x="54.38" y="276.78" width="887.9" height="59.18"/><path class="cls-3" d="M468.13,309.81v-8.38h5.56v1.62H470v1.71h3.18v1.62H470v3.43Z"/><path class="cls-3" d="M476.82,309.81a1.8,1.8,0,0,1-1.34-.44,1.82,1.82,0,0,1-.43-1.29v-7.15h1.78v7.5h.79v1.38Z"/><path class="cls-3" d="M481.32,310a3.3,3.3,0,0,1-1.29-.23,2.79,2.79,0,0,1-.95-.66,2.72,2.72,0,0,1-.59-1,4.72,4.72,0,0,1,0-2.72,2.59,2.59,0,0,1,.57-1,2.53,2.53,0,0,1,.93-.67,3.08,3.08,0,0,1,1.26-.23,3.15,3.15,0,0,1,1.33.26,2.53,2.53,0,0,1,.92.71,3,3,0,0,1,.51,1,4.49,4.49,0,0,1,.16,1.22v.53h-4v.1a1.23,1.23,0,0,0,1.39,1.34,1.62,1.62,0,0,0,.9-.22,3.59,3.59,0,0,0,.65-.53l.89,1.11a2.87,2.87,0,0,1-1.1.77A4.15,4.15,0,0,1,481.32,310Zm0-5.28a1,1,0,0,0-.84.36,1.35,1.35,0,0,0-.31.94v.1h2.21V306a1.53,1.53,0,0,0-.26-.93A.92.92,0,0,0,481.28,304.67Z"/><path class="cls-3" d="M484.63,309.81l2.08-3.2-2.06-3.1h2l1.18,2h0l1.14-2h1.88l-2.09,3.16,2.1,3.14h-2l-1.21-2.05h-.05l-1.16,2.05Z"/><path class="cls-3" d="M495.68,302.84a1,1,0,0,1-.78-.25.82.82,0,0,1-.25-.63v-.26a.82.82,0,0,1,.25-.63,1,1,0,0,1,.78-.25,1.07,1.07,0,0,1,.79.25.85.85,0,0,1,.24.63V302a.85.85,0,0,1-.24.63A1.07,1.07,0,0,1,495.68,302.84Zm-.89.67h1.78v6.3h-1.78Z"/><path class="cls-3" d="M500.43,309.81a1.9,1.9,0,0,1-1.39-.47,1.83,1.83,0,0,1-.48-1.37v-3.08h-.89v-1.38h.45a.6.6,0,0,0,.49-.17.82.82,0,0,0,.13-.5v-1h1.6v1.7h1.25v1.38h-1.25v3.54h1.15v1.38Z"/><path class="cls-3" d="M505.4,310a3.21,3.21,0,0,1-1.28-.23,2.74,2.74,0,0,1-1-.66,2.7,2.7,0,0,1-.58-1,4.2,4.2,0,0,1-.2-1.37,4.45,4.45,0,0,1,.19-1.35,2.86,2.86,0,0,1,.57-1,2.53,2.53,0,0,1,.93-.67,3.15,3.15,0,0,1,1.26-.23,3.2,3.2,0,0,1,1.34.26,2.58,2.58,0,0,1,.91.71,2.82,2.82,0,0,1,.52,1,4.92,4.92,0,0,1,.16,1.22v.53h-4.05v.1a1.41,1.41,0,0,0,.34,1,1.39,1.39,0,0,0,1.06.36,1.67,1.67,0,0,0,.9-.22,3.53,3.53,0,0,0,.64-.53l.89,1.11a2.79,2.79,0,0,1-1.1.77A4.11,4.11,0,0,1,505.4,310Zm0-5.28a1.05,1.05,0,0,0-.85.36,1.4,1.4,0,0,0-.31.94v.1h2.21V306a1.47,1.47,0,0,0-.26-.93A.9.9,0,0,0,505.37,304.67Z"/><path class="cls-3" d="M509.52,309.81v-6.3h1.77v1.07h.08a1.92,1.92,0,0,1,.57-.86,1.64,1.64,0,0,1,1.12-.35,1.81,1.81,0,0,1,1.1.32,1.75,1.75,0,0,1,.66.95h0a1.5,1.5,0,0,1,.26-.5,1.46,1.46,0,0,1,.42-.4,2.5,2.5,0,0,1,.57-.27,2,2,0,0,1,.67-.1,1.65,1.65,0,0,1,1.4.64,3.09,3.09,0,0,1,.48,1.85v3.95h-1.77V306q0-1.2-.87-1.2a1.25,1.25,0,0,0-.72.22.83.83,0,0,0-.32.7v4.08H513.2V306c0-.8-.29-1.2-.86-1.2a1.2,1.2,0,0,0-.38.05,1.35,1.35,0,0,0-.34.17.89.89,0,0,0-.24.3.84.84,0,0,0-.09.4v4.08Z"/><path class="cls-3" d="M526.29,309.81V308.2h-3.68v-1.55l3.26-5.22H528v5.37h1.06v1.4H528v1.61Zm-2.24-3h2.24v-3.51h-.12Z"/></g></g></svg>