<svg xmlns="http://www.w3.org/2000/svg" viewBox="0 0 1069.34 546.5"><defs><style>.cls-1,.cls-2,.cls-4{fill:#f15a24;}.cls-1{stroke:#0b094f;}.cls-1,.cls-2{stroke-miterlimit:10;}.cls-2{stroke:#f15a24;}.cls-3{fill:#fff;}</style></defs><g id="Ebene_2" data-name="Ebene 2"><g id="Ebene_1-2" data-name="Ebene 1"><rect class="cls-1" x="0.5" y="72.34" width="107.99" height="338.97"/><rect class="cls-1" x="125.5" y="72.34" width="107.99" height="338.97"/><rect class="cls-1" x="250.5" y="72.34" width="107.99" height="338.97"/><line class="cls-2" x1="30.25" y1="21.34" x2="328.72" y2="21.34"/><line class="cls-2" x1="48.11" y1="21.34" x2="293.42" y2="21.34"/><circle class="cls-2" cx="49.05" cy="21.34" r="18.8"/><polygon class="cls-2" points="328.73 21.34 278.99 41.67 290.78 21.34 278.99 1.02 328.73 21.34"/><path class="cls-3" d="M102.62,509.06V481.14h18.52v5.4H108.7v5.68h10.6v5.4H108.7v11.44Z"/><path class="cls-3" d="M131.58,509.06a5.13,5.13,0,0,1-5.88-5.76V479.46h5.92v25h2.64v4.6Z"/><path class="cls-3" d="M146.58,509.54a11.07,11.07,0,0,1-4.28-.78,8.85,8.85,0,0,1-3.18-2.2,9.17,9.17,0,0,1-2-3.46,16.11,16.11,0,0,1,0-9.06,9.67,9.67,0,0,1,1.9-3.46,8.4,8.4,0,0,1,3.1-2.22,10.7,10.7,0,0,1,4.2-.78,10.46,10.46,0,0,1,4.46.88,8.56,8.56,0,0,1,3,2.36,9.51,9.51,0,0,1,1.72,3.42,15.13,15.13,0,0,1,.54,4.06v1.76H142.62v.32a4.09,4.09,0,0,0,4.64,4.48,5.51,5.51,0,0,0,3-.73,12,12,0,0,0,2.16-1.77l3,3.69a9.21,9.21,0,0,1-3.66,2.57A13.42,13.42,0,0,1,146.58,509.54Zm-.12-17.6a3.55,3.55,0,0,0-2.82,1.18,4.65,4.65,0,0,0-1,3.14v.32H150v-.36a5.17,5.17,0,0,0-.86-3.1A3.08,3.08,0,0,0,146.46,491.94Z"/><path class="cls-3" d="M157.62,509.06l6.92-10.68-6.84-10.32h6.72l3.92,6.6h.16l3.8-6.6h6.24l-7,10.52,7,10.48h-6.72l-4-6.84h-.16l-3.88,6.84Z"/><path class="cls-3" d="M182.06,479.46H188v12.12h.2a4.94,4.94,0,0,1,2-2.88,6.14,6.14,0,0,1,3.62-1.12,7,7,0,0,1,6,2.8q2,2.81,2,8.16c0,3.58-.68,6.3-2,8.18a7,7,0,0,1-6,2.82,6.28,6.28,0,0,1-2-.3,5.89,5.89,0,0,1-1.66-.84,5.47,5.47,0,0,1-1.26-1.28,5.12,5.12,0,0,1-.76-1.58H188v3.52h-5.92Zm9.8,25.28a3.62,3.62,0,0,0,2.78-1.18,4.47,4.47,0,0,0,1.1-3.18v-3.64a4.5,4.5,0,0,0-1.1-3.18,3.66,3.66,0,0,0-2.78-1.18,4.56,4.56,0,0,0-2.78.82,2.68,2.68,0,0,0-1.1,2.26v6.2a2.66,2.66,0,0,0,1.1,2.26A4.5,4.5,0,0,0,191.86,504.74Z"/><path class="cls-3" d="M214.9,509.54a10.58,10.58,0,0,1-4.14-.76,8.13,8.13,0,0,1-3.08-2.2,10,10,0,0,1-1.94-3.48,15.63,15.63,0,0,1,0-9.12,9.79,9.79,0,0,1,1.94-3.46,8.43,8.43,0,0,1,3.08-2.18,11.66,11.66,0,0,1,8.28,0,8.51,8.51,0,0,1,3.08,2.18,9.79,9.79,0,0,1,1.94,3.46,15.63,15.63,0,0,1,0,9.12,10,10,0,0,1-1.94,3.48,8.21,8.21,0,0,1-3.08,2.2A10.61,10.61,0,0,1,214.9,509.54Zm0-4.68a3.45,3.45,0,0,0,2.72-1.08,4.47,4.47,0,0,0,1-3.08v-4.28a4.49,4.49,0,0,0-1-3.08,4,4,0,0,0-5.44,0,4.49,4.49,0,0,0-1,3.08v4.28a4.47,4.47,0,0,0,1,3.08A3.44,3.44,0,0,0,214.9,504.86Z"/><path class="cls-3" d="M226.26,509.06l6.92-10.68-6.84-10.32h6.72l3.92,6.6h.16l3.8-6.6h6.24l-7,10.52,7,10.48H240.5l-4-6.84h-.16l-3.88,6.84Z"/><path class="cls-4" d="M91.49,546.26v-14H101V535H94.53v2.84h5.54v2.7H94.53v3H101v2.7Z"/><path class="cls-4" d="M103.09,546.26v-2.42h1.8v-9.12h-1.8V532.3h6.64v2.42h-1.8v9.12h1.8v2.42Z"/><path class="cls-4" d="M116.53,539.66l-1.34-2.8h-.06v9.4h-2.86v-14h3.32l3.82,6.6,1.34,2.8h.06v-9.4h2.86v14h-3.32Z"/><path class="cls-4" d="M126.75,546.26v-14h9.5V535h-6.46v2.84h5.54v2.7h-5.54v3h6.46v2.7Z"/><path class="cls-4" d="M143.61,532.3h5.26a7,7,0,0,1,2.52.44,5.13,5.13,0,0,1,1.94,1.31,6,6,0,0,1,1.24,2.18,10.79,10.79,0,0,1,0,6.1,5.93,5.93,0,0,1-1.24,2.18,5,5,0,0,1-1.94,1.31,6.81,6.81,0,0,1-2.52.44h-5.26Zm5.26,11.26a2.92,2.92,0,0,0,2.14-.76,3.28,3.28,0,0,0,.78-2.44V538.2a3.29,3.29,0,0,0-.78-2.44,3,3,0,0,0-2.14-.76h-2.22v8.56Z"/><path class="cls-4" d="M157,546.26v-2.42h1.8v-9.12H157V532.3h6.64v2.42h-1.8v9.12h1.8v2.42Z"/><path class="cls-4" d="M176.63,537.1h-.06l-1,2-2.72,4.94-2.66-4.92-1.06-2.2h-.06v9.3h-2.86v-14h3.22l3.42,6.54h0l3.38-6.54h3.24v14h-2.86Z"/><path class="cls-4" d="M182.57,546.26v-14h9.5V535h-6.46v2.84h5.54v2.7h-5.54v3h6.46v2.7Z"/><path class="cls-4" d="M199,539.66l-1.34-2.8h-.06v9.4h-2.86v-14H198l3.82,6.6,1.34,2.8h.06v-9.4h2.86v14h-3.32Z"/><path class="cls-4" d="M213.71,546.5a7,7,0,0,1-3.12-.63,7.12,7.12,0,0,1-2.18-1.63l2-2a4.5,4.5,0,0,0,3.5,1.58,2.55,2.55,0,0,0,1.66-.45,1.52,1.52,0,0,0,.54-1.21,1.48,1.48,0,0,0-.32-1,2,2,0,0,0-1.3-.53l-1.38-.18a5.29,5.29,0,0,1-3.25-1.34,3.87,3.87,0,0,1-1-2.82,4,4,0,0,1,.36-1.72,3.86,3.86,0,0,1,1-1.35,4.92,4.92,0,0,1,1.64-.87,7.47,7.47,0,0,1,2.21-.31,7.26,7.26,0,0,1,2.78.5,5.72,5.72,0,0,1,2.06,1.47l-2,2a4,4,0,0,0-1.21-.94,3.93,3.93,0,0,0-1.79-.37,2.6,2.6,0,0,0-1.52.36,1.16,1.16,0,0,0-.5,1,1.26,1.26,0,0,0,.39,1,2.69,2.69,0,0,0,1.27.45l1.38.22a5.9,5.9,0,0,1,3.2,1.34,3.7,3.7,0,0,1,1,2.81,4.61,4.61,0,0,1-.36,1.84,3.94,3.94,0,0,1-1,1.44,4.84,4.84,0,0,1-1.71.93A7.51,7.51,0,0,1,213.71,546.5Z"/><path class="cls-4" d="M221.13,546.26v-2.42h1.8v-9.12h-1.8V532.3h6.64v2.42H226v9.12h1.8v2.42Z"/><path class="cls-4" d="M235.91,546.5a6.61,6.61,0,0,1-2.52-.46,4.94,4.94,0,0,1-1.94-1.37,6.15,6.15,0,0,1-1.24-2.26,11.35,11.35,0,0,1,0-6.26,6.23,6.23,0,0,1,1.24-2.26,5.16,5.16,0,0,1,1.94-1.37,7.13,7.13,0,0,1,5,0,5.16,5.16,0,0,1,1.94,1.37,6.39,6.39,0,0,1,1.24,2.26,11.35,11.35,0,0,1,0,6.26,6.3,6.3,0,0,1-1.24,2.26,4.94,4.94,0,0,1-1.94,1.37A6.61,6.61,0,0,1,235.91,546.5Zm0-2.7a2.69,2.69,0,0,0,2.15-.9,3.88,3.88,0,0,0,.77-2.58v-2.08a3.88,3.88,0,0,0-.77-2.58,3,3,0,0,0-4.3,0,3.82,3.82,0,0,0-.77,2.58v2.08a3.82,3.82,0,0,0,.77,2.58A2.67,2.67,0,0,0,235.91,543.8Z"/><path class="cls-4" d="M248.85,539.66l-1.34-2.8h-.06v9.4h-2.86v-14h3.32l3.82,6.6,1.34,2.8h.06v-9.4H256v14h-3.32Z"/><rect class="cls-1" x="666.22" y="72.34" width="104.99" height="104.99"/><rect class="cls-1" x="913.22" y="189.32" width="104.99" height="221.99"/><rect class="cls-1" x="666.23" y="189.33" width="230.06" height="104.99"/><rect class="cls-1" x="666.23" y="306.33" width="104.99" height="104.99"/><rect class="cls-1" x="789.72" y="306.33" width="104.99" height="104.99"/><rect class="cls-1" x="787.29" y="72.34" width="231.4" height="104.99"/><line class="cls-2" x1="693.21" y1="21.34" x2="991.7" y2="21.34"/><line class="cls-2" x1="711.07" y1="21.34" x2="956.39" y2="21.34"/><circle class="cls-2" cx="712.01" cy="21.34" r="18.8"/><polygon class="cls-2" points="991.7 21.34 941.95 41.67 953.75 21.34 941.95 1.02 991.7 21.34"/><line class="cls-2" x1="1048.01" y1="94.59" x2="1048.01" y2="393.06"/><line class="cls-2" x1="1048.01" y1="112.45" x2="1048.01" y2="357.76"/><circle class="cls-2" cx="1048.01" cy="113.39" r="18.8"/><polygon class="cls-2" points="1048.01 393.06 1027.68 343.32 1048.01 355.12 1068.33 343.32 1048.01 393.06"/><path class="cls-3" d="M764.26,509.54a13.86,13.86,0,0,1-5.12-.9,10.14,10.14,0,0,1-3.88-2.68,12.23,12.23,0,0,1-2.48-4.44,19.69,19.69,0,0,1-.88-6.22,20.4,20.4,0,0,1,.88-6.26,13.16,13.16,0,0,1,2.48-4.6,10.37,10.37,0,0,1,3.88-2.82,13.09,13.09,0,0,1,5.12-1,11.88,11.88,0,0,1,6.4,1.58,10.94,10.94,0,0,1,4,5l-5.24,2.72a6.21,6.21,0,0,0-1.74-2.82,5.06,5.06,0,0,0-3.46-1.06,5.59,5.59,0,0,0-4.3,1.74,7.17,7.17,0,0,0-1.62,5.06v4.48A7.15,7.15,0,0,0,760,502.4a5.59,5.59,0,0,0,4.3,1.74,5.08,5.08,0,0,0,3.58-1.22,7.44,7.44,0,0,0,2-2.94l5,2.88a12.39,12.39,0,0,1-4.1,4.94A11.1,11.1,0,0,1,764.26,509.54Z"/><path class="cls-3" d="M788.06,509.54a14.05,14.05,0,0,1-6.24-1.26,14.28,14.28,0,0,1-4.36-3.26l4-4a9,9,0,0,0,7,3.17,5.06,5.06,0,0,0,3.32-.91,3,3,0,0,0,1.08-2.42,2.91,2.91,0,0,0-.64-1.92,4.17,4.17,0,0,0-2.6-1.05l-2.76-.36q-4.44-.56-6.5-2.68a7.78,7.78,0,0,1-2.06-5.65,8.12,8.12,0,0,1,.72-3.44,7.59,7.59,0,0,1,2.06-2.68,9.68,9.68,0,0,1,3.28-1.75,16,16,0,0,1,10,.38,11.38,11.38,0,0,1,4.12,2.93l-4,4.09A7.88,7.88,0,0,0,792,486.8a7.76,7.76,0,0,0-3.58-.74,5.22,5.22,0,0,0-3,.72,2.27,2.27,0,0,0-1,2,2.49,2.49,0,0,0,.78,2.06,5.31,5.31,0,0,0,2.54.91l2.76.44a11.84,11.84,0,0,1,6.4,2.67,7.39,7.39,0,0,1,2.08,5.62,9.27,9.27,0,0,1-.72,3.69,7.89,7.89,0,0,1-2.1,2.88,9.68,9.68,0,0,1-3.42,1.86A15.07,15.07,0,0,1,788.06,509.54Z"/><path class="cls-3" d="M812.46,509.54a14.05,14.05,0,0,1-6.24-1.26,14.28,14.28,0,0,1-4.36-3.26l4-4a9,9,0,0,0,7,3.17,5.06,5.06,0,0,0,3.32-.91,3,3,0,0,0,1.08-2.42,2.91,2.91,0,0,0-.64-1.92,4.17,4.17,0,0,0-2.6-1.05l-2.76-.36q-4.44-.56-6.5-2.68a7.78,7.78,0,0,1-2.06-5.65,8.12,8.12,0,0,1,.72-3.44,7.59,7.59,0,0,1,2.06-2.68,9.68,9.68,0,0,1,3.28-1.75,16,16,0,0,1,10,.38,11.38,11.38,0,0,1,4.12,2.93l-4,4.09a7.88,7.88,0,0,0-2.42-1.88,7.76,7.76,0,0,0-3.58-.74,5.22,5.22,0,0,0-3,.72,2.27,2.27,0,0,0-1,2,2.49,2.49,0,0,0,.78,2.06,5.31,5.31,0,0,0,2.54.91l2.76.44a11.84,11.84,0,0,1,6.4,2.67,7.39,7.39,0,0,1,2.08,5.62,9.27,9.27,0,0,1-.72,3.69,7.89,7.89,0,0,1-2.1,2.88,9.68,9.68,0,0,1-3.42,1.86A15.07,15.07,0,0,1,812.46,509.54Z"/><path class="cls-3" d="M855.54,504.62h-.2a5.26,5.26,0,0,1-2.16,3.52,8,8,0,0,1-5,1.4,10.85,10.85,0,0,1-4.48-.92,10.22,10.22,0,0,1-3.64-2.72,12.91,12.91,0,0,1-2.44-4.48,21.95,21.95,0,0,1,0-12.44,12.81,12.81,0,0,1,2.58-4.56,11,11,0,0,1,4-2.8,13.4,13.4,0,0,1,5.16-1,12.42,12.42,0,0,1,6.48,1.62,11.05,11.05,0,0,1,4.28,4.86l-5,2.84a6.82,6.82,0,0,0-2-2.78,5.75,5.75,0,0,0-3.8-1.14,6.21,6.21,0,0,0-4.52,1.64q-1.68,1.65-1.68,5.16v4.48c0,2.32.56,4,1.68,5.14a6.14,6.14,0,0,0,4.52,1.66,8.1,8.1,0,0,0,2.12-.26,5.25,5.25,0,0,0,1.76-.8,3.84,3.84,0,0,0,1.18-1.3,3.63,3.63,0,0,0,.42-1.8v-1.4h-5.2V493.5h11v15.56h-5.12Z"/><path class="cls-3" d="M866.26,509.06v-21h5.92v4.56h.2a6.65,6.65,0,0,1,.56-1.7,5.4,5.4,0,0,1,1.06-1.46,5.24,5.24,0,0,1,1.58-1,5.67,5.67,0,0,1,2.16-.38h1v5.52H877.3a8.49,8.49,0,0,0-3.86.68,2.62,2.62,0,0,0-1.26,2.52v12.28Z"/><path class="cls-3" d="M885.38,485.82a3.58,3.58,0,0,1-2.62-.82,2.81,2.81,0,0,1-.82-2.1V482a2.84,2.84,0,0,1,.82-2.1,4.6,4.6,0,0,1,5.24,0,2.88,2.88,0,0,1,.82,2.1v.88A2.85,2.85,0,0,1,888,485,3.58,3.58,0,0,1,885.38,485.82Zm-3,2.24h5.92v21h-5.92Z"/><path class="cls-3" d="M906.74,505.54h-.2a5.12,5.12,0,0,1-.76,1.58,5.47,5.47,0,0,1-1.26,1.28,6,6,0,0,1-1.68.84,6.34,6.34,0,0,1-1.94.3,7,7,0,0,1-6-2.82c-1.36-1.88-2-4.6-2-8.18s.68-6.29,2-8.16a7,7,0,0,1,6-2.8,6.16,6.16,0,0,1,3.62,1.12,5,5,0,0,1,2,2.88h.2V479.46h5.92v29.6h-5.92Zm-3.88-.8a4.52,4.52,0,0,0,2.78-.82,2.66,2.66,0,0,0,1.1-2.26v-6.2a2.68,2.68,0,0,0-1.1-2.26,4.58,4.58,0,0,0-2.78-.82,3.66,3.66,0,0,0-2.78,1.18,4.5,4.5,0,0,0-1.1,3.18v3.64a4.47,4.47,0,0,0,1.1,3.18A3.62,3.62,0,0,0,902.86,504.74Z"/><path class="cls-3" d="M925.3,509.54a11.84,11.84,0,0,1-5.12-1,11.71,11.71,0,0,1-3.72-2.78l3.48-3.52a8.83,8.83,0,0,0,2.48,2,6.45,6.45,0,0,0,3.08.72,4.08,4.08,0,0,0,2.44-.54,1.77,1.77,0,0,0,.68-1.46c0-1-.71-1.57-2.12-1.76l-2.28-.28q-7.08-.87-7.08-6.48a6.53,6.53,0,0,1,.58-2.78,6.09,6.09,0,0,1,1.64-2.16,7.69,7.69,0,0,1,2.56-1.4,10.72,10.72,0,0,1,3.38-.5,17.75,17.75,0,0,1,2.9.22,10.38,10.38,0,0,1,2.24.64,8.89,8.89,0,0,1,1.8,1q.81.63,1.62,1.38l-3.4,3.48a8,8,0,0,0-2.26-1.58,6.21,6.21,0,0,0-2.58-.58,3.66,3.66,0,0,0-2.16.48,1.52,1.52,0,0,0-.64,1.28,1.73,1.73,0,0,0,.46,1.3,3.11,3.11,0,0,0,1.74.66l2.36.32q6.92.93,6.92,6.32a6.23,6.23,0,0,1-.64,2.8,6.58,6.58,0,0,1-1.82,2.22A8.57,8.57,0,0,1,929,509,12.25,12.25,0,0,1,925.3,509.54Z"/><path class="cls-4" d="M754.56,546.26H744v-2.7l6.88-8.56h-6.54v-2.7H754.4V535l-6.9,8.56h7.06Z"/><path class="cls-4" d="M759,546.26l-3.16-14h3l1.32,6.7.74,3.88h.06l.88-3.88,1.54-6.7h3.32l1.56,6.7.86,3.88h.06l.74-3.88,1.34-6.7h2.88l-3.24,14h-3.46l-1.76-7.56-.68-3.06h-.06l-.7,3.06-1.76,7.56Z"/><path class="cls-4" d="M776.24,546.26v-14h9.5V535h-6.46v2.84h5.54v2.7h-5.54v3h6.46v2.7Z"/><path class="cls-4" d="M787.84,546.26v-2.42h1.8v-9.12h-1.8V532.3h6.64v2.42h-1.8v9.12h1.8v2.42Z"/><path class="cls-4" d="M801.74,532.3H807a7,7,0,0,1,2.52.44,5.13,5.13,0,0,1,1.94,1.31,6,6,0,0,1,1.24,2.18,10.79,10.79,0,0,1,0,6.1,5.93,5.93,0,0,1-1.24,2.18,5,5,0,0,1-1.94,1.31,6.81,6.81,0,0,1-2.52.44h-5.26ZM807,543.56a2.92,2.92,0,0,0,2.14-.76,3.28,3.28,0,0,0,.78-2.44V538.2a3.29,3.29,0,0,0-.78-2.44A3,3,0,0,0,807,535h-2.22v8.56Z"/><path class="cls-4" d="M815.14,546.26v-2.42h1.8v-9.12h-1.8V532.3h6.64v2.42H820v9.12h1.8v2.42Z"/><path class="cls-4" d="M834.76,537.1h-.06l-1,2L831,544.08l-2.66-4.92-1.06-2.2h-.06v9.3h-2.86v-14h3.22l3.42,6.54h0l3.38-6.54h3.24v14h-2.86Z"/><path class="cls-4" d="M840.7,546.26v-14h9.5V535h-6.46v2.84h5.54v2.7h-5.54v3h6.46v2.7Z"/><path class="cls-4" d="M857.1,539.66l-1.34-2.8h-.06v9.4h-2.86v-14h3.32l3.82,6.6,1.34,2.8h.06v-9.4h2.86v14h-3.32Z"/><path class="cls-4" d="M871.84,546.5a7,7,0,0,1-3.12-.63,7.12,7.12,0,0,1-2.18-1.63l2-2a4.5,4.5,0,0,0,3.5,1.58,2.55,2.55,0,0,0,1.66-.45,1.52,1.52,0,0,0,.54-1.21,1.48,1.48,0,0,0-.32-1,2,2,0,0,0-1.3-.53l-1.38-.18a5.29,5.29,0,0,1-3.25-1.34,3.87,3.87,0,0,1-1-2.82,4,4,0,0,1,.36-1.72,3.86,3.86,0,0,1,1-1.35,4.92,4.92,0,0,1,1.64-.87,7.47,7.47,0,0,1,2.21-.31,7.26,7.26,0,0,1,2.78.5A5.72,5.72,0,0,1,877,534l-2,2a4,4,0,0,0-1.21-.94,3.93,3.93,0,0,0-1.79-.37,2.6,2.6,0,0,0-1.52.36,1.16,1.16,0,0,0-.5,1,1.26,1.26,0,0,0,.39,1,2.69,2.69,0,0,0,1.27.45l1.38.22a5.9,5.9,0,0,1,3.2,1.34,3.7,3.7,0,0,1,1,2.81,4.61,4.61,0,0,1-.36,1.84,3.94,3.94,0,0,1-1,1.44,4.84,4.84,0,0,1-1.71.93A7.51,7.51,0,0,1,871.84,546.5Z"/><path class="cls-4" d="M879.26,546.26v-2.42h1.8v-9.12h-1.8V532.3h6.64v2.42h-1.8v9.12h1.8v2.42Z"/><path class="cls-4" d="M894,546.5a6.61,6.61,0,0,1-2.52-.46,4.94,4.94,0,0,1-1.94-1.37,6.15,6.15,0,0,1-1.24-2.26,11.35,11.35,0,0,1,0-6.26,6.23,6.23,0,0,1,1.24-2.26,5.16,5.16,0,0,1,1.94-1.37,7.13,7.13,0,0,1,5,0,5.16,5.16,0,0,1,1.94,1.37,6.55,6.55,0,0,1,1.24,2.26,11.35,11.35,0,0,1,0,6.26,6.46,6.46,0,0,1-1.24,2.26,4.94,4.94,0,0,1-1.94,1.37A6.61,6.61,0,0,1,894,546.5Zm0-2.7a2.67,2.67,0,0,0,2.15-.9,3.88,3.88,0,0,0,.77-2.58v-2.08a3.88,3.88,0,0,0-.77-2.58,3,3,0,0,0-4.3,0,3.88,3.88,0,0,0-.77,2.58v2.08a3.88,3.88,0,0,0,.77,2.58A2.67,2.67,0,0,0,894,543.8Z"/><path class="cls-4" d="M907,539.66l-1.34-2.8h-.06v9.4h-2.86v-14H906l3.82,6.6,1.34,2.8h.06v-9.4h2.86v14H910.8Z"/><path class="cls-4" d="M917.2,546.26v-14h9.5V535h-6.46v2.84h5.54v2.7h-5.54v3h6.46v2.7Z"/><path class="cls-4" d="M933.6,539.66l-1.34-2.8h-.06v9.4h-2.86v-14h3.32l3.82,6.6,1.34,2.8h.06v-9.4h2.86v14h-3.32Z"/></g></g></svg>