<svg xmlns="http://www.w3.org/2000/svg" viewBox="0 0 996 567"><defs><style>.cls-1{opacity:0.9;}.cls-2{fill:#1b1464;}.cls-3{fill:#f15a24;}.cls-4{fill:none;stroke:#f15a24;stroke-miterlimit:10;stroke-width:4px;}.cls-5{opacity:0.8;}</style></defs><g id="Ebene_2" data-name="Ebene 2"><g id="Ebene_1-2" data-name="Ebene 1"><g class="cls-1"><rect class="cls-2" x="0.5" y="0.5" width="995" height="566"/><path class="cls-3" d="M995,1V566H1V1H995m1-1H0V567H996V0Z"/></g><rect class="cls-2" x="56" y="44" width="880" height="479"/><path class="cls-3" d="M935.5,44.5v478H56.5V44.5h879m1-1H55.5v480h881V43.5Z"/><line class="cls-4" x1="928.5" y1="283.5" x2="72.84" y2="282.5"/><polygon class="cls-3" points="86.11 266.16 88.84 269.09 74.37 282.5 88.81 295.95 86.07 298.88 68.5 282.5 86.11 266.16"/><g class="cls-5"><line class="cls-4" x1="498.5" y1="69.5" x2="498.5" y2="486.16"/><polygon class="cls-3" points="482.14 472.91 485.07 470.18 498.5 484.63 511.93 470.18 514.86 472.91 498.5 490.5 482.14 472.91"/></g><path class="cls-3" d="M807.59,266.43h-5.14v6.87h-2V257.94h2v6.69h5.14v-6.69h2V273.3h-2Z"/><path class="cls-3" d="M821.05,273.3a1.65,1.65,0,0,1-1.36-.52,2.51,2.51,0,0,1-.54-1.35h-.1a3.2,3.2,0,0,1-1.11,1.56,3.38,3.38,0,0,1-2,.57,3.58,3.58,0,0,1-2.58-.91,3.32,3.32,0,0,1-1-2.52,3,3,0,0,1,1.09-2.49,5.58,5.58,0,0,1,3.44-.85H819v-1a2.43,2.43,0,0,0-.61-1.81,2.39,2.39,0,0,0-1.76-.61,3.05,3.05,0,0,0-1.68.43,3.2,3.2,0,0,0-1.07,1.2l-1.19-1a3.42,3.42,0,0,1,.57-.85,4.31,4.31,0,0,1,2-1.23,5.63,5.63,0,0,1,1.47-.19,4.23,4.23,0,0,1,3,1,3.75,3.75,0,0,1,1.1,2.89v6h1.39v1.7ZM816.34,272a3,3,0,0,0,1.92-.58A1.72,1.72,0,0,0,819,270V268.2h-2.1a3.64,3.64,0,0,0-2,.41,1.35,1.35,0,0,0-.64,1.21v.47a1.49,1.49,0,0,0,.54,1.25A2.43,2.43,0,0,0,816.34,272Z"/><path class="cls-3" d="M831.6,271.41h-.08a4,4,0,0,1-.42.82,2.79,2.79,0,0,1-.6.68,2.88,2.88,0,0,1-.84.48,3.49,3.49,0,0,1-1.13.17,3.27,3.27,0,0,1-2.6-1.12,4.72,4.72,0,0,1-1-3.19V262h1.88v6.95c0,2,.77,2.93,2.32,2.93a3.38,3.38,0,0,0,.9-.13,2.18,2.18,0,0,0,.78-.38,2.1,2.1,0,0,0,.56-.66,2,2,0,0,0,.21-.93V262h1.88V273.3H831.6Z"/><path class="cls-3" d="M837.12,262H839v1.89h.1a3.76,3.76,0,0,1,1.25-1.61,3.36,3.36,0,0,1,1.94-.55,3.43,3.43,0,0,1,3,1.54,9.5,9.5,0,0,1,0,8.8,3.41,3.41,0,0,1-3,1.54,3.29,3.29,0,0,1-1.94-.55,3.73,3.73,0,0,1-1.25-1.6H839v6.29h-1.88Zm4.4,9.88a2.56,2.56,0,0,0,2.08-.9,3.58,3.58,0,0,0,.73-2.36v-1.89a3.61,3.61,0,0,0-.73-2.37,2.58,2.58,0,0,0-2.08-.89,3.43,3.43,0,0,0-1,.14,2.47,2.47,0,0,0-.8.43,2,2,0,0,0-.56.7,2,2,0,0,0-.2.95v4a2.13,2.13,0,0,0,.2,1,1.8,1.8,0,0,0,.56.69,2.27,2.27,0,0,0,.8.42A3.11,3.11,0,0,0,841.52,271.83Z"/><path class="cls-3" d="M854.1,273.3a2.24,2.24,0,0,1-1.88-.76,3,3,0,0,1-.61-2v-6.93h-3.33V262h2.42a1.07,1.07,0,0,0,.78-.24,1.28,1.28,0,0,0,.23-.86v-2.91h1.78v4h4.63v1.69h-4.63v8h4.63v1.7Z"/><path class="cls-3" d="M869.56,273.3a1.68,1.68,0,0,1-1.37-.52,2.5,2.5,0,0,1-.53-1.35h-.1a3.2,3.2,0,0,1-1.11,1.56,3.39,3.39,0,0,1-2.05.57,3.57,3.57,0,0,1-2.57-.91,3.32,3.32,0,0,1-1-2.52,3,3,0,0,1,1.09-2.49,5.58,5.58,0,0,1,3.44-.85h2.12v-1a2.43,2.43,0,0,0-.61-1.81,2.39,2.39,0,0,0-1.76-.61,3.11,3.11,0,0,0-1.69.43,3.27,3.27,0,0,0-1.06,1.2l-1.19-1a3.42,3.42,0,0,1,.57-.85,4.31,4.31,0,0,1,2-1.23,5.57,5.57,0,0,1,1.47-.19,4.23,4.23,0,0,1,3,1,3.75,3.75,0,0,1,1.1,2.89v6h1.39v1.7ZM864.85,272a3,3,0,0,0,1.92-.58,1.72,1.72,0,0,0,.75-1.42V268.2h-2.1a3.7,3.7,0,0,0-2,.41,1.36,1.36,0,0,0-.63,1.21v.47a1.49,1.49,0,0,0,.54,1.25A2.43,2.43,0,0,0,864.85,272Z"/><path class="cls-3" d="M878.17,273.56a4.78,4.78,0,0,1-2-.42A4,4,0,0,1,874.6,272a5.68,5.68,0,0,1-1-1.87,9.26,9.26,0,0,1,0-4.9,5.64,5.64,0,0,1,1-1.88,4.14,4.14,0,0,1,1.52-1.2,4.72,4.72,0,0,1,2-.42,4,4,0,0,1,2.52.74,4.37,4.37,0,0,1,1.42,1.92l-1.47.88a2.76,2.76,0,0,0-.9-1.31,2.45,2.45,0,0,0-1.57-.49,2.53,2.53,0,0,0-2.09.91,3.57,3.57,0,0,0-.74,2.33v1.93a3.61,3.61,0,0,0,.74,2.33,2.93,2.93,0,0,0,3.79.39,3.8,3.8,0,0,0,1-1.4l1.35,1a4.44,4.44,0,0,1-1.47,1.93A4.29,4.29,0,0,1,878.17,273.56Z"/><path class="cls-3" d="M885.71,257h1.88v6.82h.08a5.7,5.7,0,0,1,.41-.82,3.08,3.08,0,0,1,.61-.69,2.86,2.86,0,0,1,.84-.47,3.23,3.23,0,0,1,1.13-.18,3.32,3.32,0,0,1,2.6,1.12,4.75,4.75,0,0,1,1,3.2v7.3h-1.88v-6.95c0-2-.78-2.93-2.33-2.93a3.37,3.37,0,0,0-.9.12,2.16,2.16,0,0,0-.77.39,1.9,1.9,0,0,0-.56.66,1.92,1.92,0,0,0-.21.92v7.79h-1.88Z"/><path class="cls-3" d="M902.12,273.56a6.42,6.42,0,0,1-2.87-.59,5.41,5.41,0,0,1-2-1.61l1.19-1.16a5.23,5.23,0,0,0,1.6,1.28,4.58,4.58,0,0,0,2.1.45,3.57,3.57,0,0,0,1.87-.43,1.52,1.52,0,0,0,.72-1.39,1.48,1.48,0,0,0-.14-.67,1.11,1.11,0,0,0-.39-.44,1.63,1.63,0,0,0-.55-.25,6.37,6.37,0,0,0-.66-.16l-1.64-.26a12,12,0,0,1-1.21-.26,3.68,3.68,0,0,1-1.14-.51,2.81,2.81,0,0,1-.85-.93,2.91,2.91,0,0,1-.33-1.47,3.42,3.42,0,0,1,.31-1.51,3,3,0,0,1,.89-1.09,4.06,4.06,0,0,1,1.37-.66,6.93,6.93,0,0,1,1.75-.22,5.79,5.79,0,0,1,2.49.49,5.21,5.21,0,0,1,1.78,1.32l-1.16,1.23a3.43,3.43,0,0,0-.46-.5,3.91,3.91,0,0,0-.67-.45,4.37,4.37,0,0,0-.89-.33,4.5,4.5,0,0,0-1.17-.13,3,3,0,0,0-1.77.43,1.63,1.63,0,0,0-.47,1.93,1.21,1.21,0,0,0,.38.43,1.71,1.71,0,0,0,.56.27,6.19,6.19,0,0,0,.65.15l1.64.27a9.38,9.38,0,0,1,1.21.26,4.14,4.14,0,0,1,1.15.52,2.63,2.63,0,0,1,.84.91,2.82,2.82,0,0,1,.34,1.48,3.2,3.2,0,0,1-1.2,2.66A5.21,5.21,0,0,1,902.12,273.56Z"/><path class="cls-3" d="M914.37,273.56a5,5,0,0,1-2.08-.42,4.26,4.26,0,0,1-1.57-1.18,5.68,5.68,0,0,1-1-1.86,8.94,8.94,0,0,1,0-4.92,5.89,5.89,0,0,1,1-1.88,4.35,4.35,0,0,1,1.53-1.2,4.5,4.5,0,0,1,2-.42,4.55,4.55,0,0,1,1.94.41,4.18,4.18,0,0,1,1.48,1.16,5,5,0,0,1,1,1.77,7,7,0,0,1,.34,2.25v.86h-7.6v.46a3.37,3.37,0,0,0,.81,2.33,2.86,2.86,0,0,0,2.24.91,3.15,3.15,0,0,0,1.78-.5,3.31,3.31,0,0,0,1.17-1.36l1.27,1.08a4.23,4.23,0,0,1-1.58,1.81A4.77,4.77,0,0,1,914.37,273.56Zm-.12-10.25a2.78,2.78,0,0,0-1.17.24,2.91,2.91,0,0,0-.92.67,2.88,2.88,0,0,0-.61,1,3.84,3.84,0,0,0-.21,1.29v.18H917v-.24a3.41,3.41,0,0,0-.75-2.3A2.49,2.49,0,0,0,914.25,263.31Z"/><path class="cls-3" d="M358.46,80l-1.88,2.46V87.3h-2V71.94h2v7.7h.08l1.8-2.55,3.84-5.15h2.3l-4.81,6.47,5,8.89H362.5Z"/><path class="cls-3" d="M366.65,85.6h2.93v-8h-2.93V76h4.81v2.92h.12a4.15,4.15,0,0,1,1.2-2.15,3.24,3.24,0,0,1,2.27-.77h1.38v2h-2a2.82,2.82,0,0,0-2.16.85,3,3,0,0,0-.79,2.18V85.6h3.94v1.7h-8.75Z"/><path class="cls-3" d="M383.5,87.56a5,5,0,0,1-2.08-.42A4.26,4.26,0,0,1,379.85,86a5.68,5.68,0,0,1-1-1.86,8.94,8.94,0,0,1,0-4.92,5.89,5.89,0,0,1,1-1.88,4.44,4.44,0,0,1,1.53-1.2,4.79,4.79,0,0,1,3.9,0,4.21,4.21,0,0,1,1.49,1.16,5.35,5.35,0,0,1,.95,1.77,7.28,7.28,0,0,1,.33,2.25v.86h-7.6v.46a3.37,3.37,0,0,0,.81,2.33,2.87,2.87,0,0,0,2.24.91,3.15,3.15,0,0,0,1.78-.5A3.31,3.31,0,0,0,386.47,84l1.28,1.08a4.32,4.32,0,0,1-1.59,1.81A4.77,4.77,0,0,1,383.5,87.56Zm-.12-10.25a2.78,2.78,0,0,0-1.17.24,2.91,2.91,0,0,0-.92.67,3,3,0,0,0-.61,1,3.84,3.84,0,0,0-.21,1.29v.18h5.64v-.24a3.41,3.41,0,0,0-.75-2.3A2.49,2.49,0,0,0,383.38,77.31Z"/><path class="cls-3" d="M397.75,85.41h-.08a3.93,3.93,0,0,1-.41.82,2.83,2.83,0,0,1-.61.68,2.75,2.75,0,0,1-.84.48,3.49,3.49,0,0,1-1.13.17,3.28,3.28,0,0,1-2.6-1.12,4.72,4.72,0,0,1-1-3.19V76H393v7c0,1.95.78,2.93,2.33,2.93a3.38,3.38,0,0,0,.9-.13,2.14,2.14,0,0,0,.77-.38,2.1,2.1,0,0,0,.56-.66,2,2,0,0,0,.21-.93V76h1.88V87.3h-1.88Z"/><path class="cls-3" d="M403.13,87.3V85.41l6.57-7.77h-6.35V76h8.43v1.89l-6.57,7.76H412v1.7Z"/><path class="cls-3" d="M423.58,87.3a1.66,1.66,0,0,1-1.36-.52,2.51,2.51,0,0,1-.54-1.35h-.1A3.2,3.2,0,0,1,420.47,87a3.34,3.34,0,0,1-2,.57,3.58,3.58,0,0,1-2.58-.91,3.32,3.32,0,0,1-1-2.52A3,3,0,0,1,416,81.64a5.6,5.6,0,0,1,3.44-.85h2.12v-1a2.47,2.47,0,0,0-.6-1.81,2.41,2.41,0,0,0-1.76-.61,3.09,3.09,0,0,0-1.69.43,3.18,3.18,0,0,0-1.06,1.2l-1.19-1a3.37,3.37,0,0,1,.56-.85,3.88,3.88,0,0,1,.87-.72,4.15,4.15,0,0,1,1.17-.51,5.7,5.7,0,0,1,1.48-.19,4.2,4.2,0,0,1,3,1,3.75,3.75,0,0,1,1.1,2.89v6h1.4v1.7ZM418.87,86a3,3,0,0,0,1.92-.58,1.72,1.72,0,0,0,.75-1.42V82.2h-2.1a3.64,3.64,0,0,0-2,.41,1.35,1.35,0,0,0-.64,1.21v.47a1.47,1.47,0,0,0,.55,1.25A2.38,2.38,0,0,0,418.87,86Z"/><path class="cls-3" d="M432.19,87.56a4.81,4.81,0,0,1-2.05-.42A4,4,0,0,1,428.63,86a5.68,5.68,0,0,1-.95-1.87,9,9,0,0,1,0-4.9,5.64,5.64,0,0,1,.95-1.88,4.11,4.11,0,0,1,1.51-1.2,4.76,4.76,0,0,1,2-.42,4,4,0,0,1,2.52.74,4.39,4.39,0,0,1,1.43,1.92l-1.48.88a2.76,2.76,0,0,0-.9-1.31,2.42,2.42,0,0,0-1.57-.49,2.53,2.53,0,0,0-2.09.91,3.57,3.57,0,0,0-.74,2.33v1.93a3.61,3.61,0,0,0,.74,2.33,2.93,2.93,0,0,0,3.79.39,3.8,3.8,0,0,0,1.05-1.4l1.36,1a4.39,4.39,0,0,1-1.48,1.93A4.25,4.25,0,0,1,432.19,87.56Z"/><path class="cls-3" d="M439.73,71h1.88v6.82h.08a4.89,4.89,0,0,1,.42-.82,3.31,3.31,0,0,1,.6-.69,2.86,2.86,0,0,1,.84-.47,3.59,3.59,0,0,1,3.73.94,4.69,4.69,0,0,1,1,3.2v7.3h-1.88v-7c0-1.95-.77-2.93-2.32-2.93a3.37,3.37,0,0,0-.9.12,2.2,2.2,0,0,0-.78.39,1.87,1.87,0,0,0-.55.66,1.82,1.82,0,0,0-.22.92V87.3h-1.88Z"/><path class="cls-3" d="M456.15,87.56a6.37,6.37,0,0,1-2.87-.59,5.53,5.53,0,0,1-2-1.61l1.2-1.16a5.19,5.19,0,0,0,1.59,1.28,4.65,4.65,0,0,0,2.11.45,3.6,3.6,0,0,0,1.87-.43,1.53,1.53,0,0,0,.71-1.39,1.36,1.36,0,0,0-.14-.67,1.09,1.09,0,0,0-.38-.44,1.68,1.68,0,0,0-.56-.25c-.21-.06-.43-.12-.65-.16l-1.64-.26a11.43,11.43,0,0,1-1.21-.26,3.85,3.85,0,0,1-1.15-.51,3,3,0,0,1-.85-.93,2.91,2.91,0,0,1-.33-1.47,3.42,3.42,0,0,1,.31-1.51,3.13,3.13,0,0,1,.89-1.09,4.21,4.21,0,0,1,1.38-.66,6.81,6.81,0,0,1,1.75-.22,5.78,5.78,0,0,1,2.48.49,5.12,5.12,0,0,1,1.78,1.32l-1.15,1.23a3.55,3.55,0,0,0-.47-.5,3.8,3.8,0,0,0-.66-.45,4.86,4.86,0,0,0-.89-.33,4.63,4.63,0,0,0-1.18-.13,3,3,0,0,0-1.76.43,1.43,1.43,0,0,0-.62,1.24,1.54,1.54,0,0,0,.14.69,1.24,1.24,0,0,0,.39.43,1.66,1.66,0,0,0,.55.27,6.38,6.38,0,0,0,.66.15l1.64.27a9.75,9.75,0,0,1,1.21.26,4,4,0,0,1,1.14.52,2.66,2.66,0,0,1,.85.91,2.92,2.92,0,0,1,.33,1.48,3.2,3.2,0,0,1-1.2,2.66A5.18,5.18,0,0,1,456.15,87.56Z"/><path class="cls-3" d="M468.39,87.56a5,5,0,0,1-2.08-.42A4.15,4.15,0,0,1,464.75,86a5.33,5.33,0,0,1-1-1.86,8.16,8.16,0,0,1-.35-2.46,7.9,7.9,0,0,1,.36-2.46,5.52,5.52,0,0,1,1-1.88,4.31,4.31,0,0,1,1.52-1.2,4.79,4.79,0,0,1,3.9,0,4.21,4.21,0,0,1,1.49,1.16,5.18,5.18,0,0,1,.95,1.77,7.28,7.28,0,0,1,.33,2.25v.86h-7.6v.46a3.37,3.37,0,0,0,.81,2.33,2.87,2.87,0,0,0,2.24.91,3.15,3.15,0,0,0,1.78-.5A3.41,3.41,0,0,0,471.37,84l1.27,1.08a4.32,4.32,0,0,1-1.59,1.81A4.75,4.75,0,0,1,468.39,87.56Zm-.12-10.25a2.78,2.78,0,0,0-1.17.24,2.91,2.91,0,0,0-.92.67,3.2,3.2,0,0,0-.61,1,3.84,3.84,0,0,0-.21,1.29v.18H471v-.24a3.41,3.41,0,0,0-.75-2.3A2.47,2.47,0,0,0,468.27,77.31Z"/></g></g></svg>