<svg xmlns="http://www.w3.org/2000/svg" viewBox="0 0 660.16 818.7"><defs><style>.cls-1{fill:#1b1464;}.cls-2{fill:#f15a24;}.cls-3,.cls-4,.cls-5{fill:none;stroke:#f15a24;stroke-miterlimit:10;}.cls-3,.cls-4{stroke-width:2px;}.cls-4{stroke-dasharray:29.4 29.4;}</style></defs><g id="Ebene_2" data-name="Ebene 2"><g id="Ebene_1-2" data-name="Ebene 1"><rect class="cls-1" x="1.16" y="1" width="658" height="763"/><path class="cls-2" d="M658.16,2V763H2.16V2h656m2-2H.16V765h660V0Z"/><line class="cls-1" x1="343.16" x2="343.16" y2="765"/><line class="cls-3" x1="343.16" x2="343.16" y2="15"/><line class="cls-4" x1="343.16" y1="44.4" x2="343.16" y2="735.3"/><line class="cls-3" x1="343.16" y1="750" x2="343.16" y2="765"/><line class="cls-1" x1="511.16" x2="511.16" y2="765"/><line class="cls-3" x1="511.16" x2="511.16" y2="15"/><line class="cls-4" x1="511.16" y1="44.4" x2="511.16" y2="735.3"/><line class="cls-3" x1="511.16" y1="750" x2="511.16" y2="765"/><polyline class="cls-5" points="0.5 778.22 0.5 798.22 343.54 798.22 343.54 778.5"/><path class="cls-2" d="M165.3,818.7h-6.39v-1.44l3.1-3.07a7.06,7.06,0,0,0,1.13-1.41,2.9,2.9,0,0,0,.43-1.47v-.18a1.89,1.89,0,0,0-.44-1.3,1.56,1.56,0,0,0-1.24-.49,1.9,1.9,0,0,0-.75.13,1.42,1.42,0,0,0-.54.36,1.73,1.73,0,0,0-.37.54,4.05,4.05,0,0,0-.25.67l-1.18-.5a4.66,4.66,0,0,1,.38-.93,3.27,3.27,0,0,1,.64-.8,3,3,0,0,1,.92-.55,3.3,3.3,0,0,1,1.23-.21,3.44,3.44,0,0,1,1.28.23,2.63,2.63,0,0,1,1.54,1.59,3.89,3.89,0,0,1,0,2.4,4.37,4.37,0,0,1-.46,1,6.85,6.85,0,0,1-.71.92c-.27.3-.57.6-.88.9l-2.38,2.31h4.9Z"/><path class="cls-2" d="M170.68,818.7V808.23h5.86v1.29H172v3.24h4.08v1.29H172v4.65Z"/><path class="cls-2" d="M179.79,818.7h-1.34V808.23h4a2.54,2.54,0,0,1,2,.81,3.26,3.26,0,0,1,.73,2.27,3.44,3.44,0,0,1-.48,1.89,2.3,2.3,0,0,1-1.41,1l2.14,4.5h-1.51l-2-4.35h-2.11Zm2.57-5.61a1.32,1.32,0,0,0,1-.37,1.41,1.41,0,0,0,.36-1v-.75a1.41,1.41,0,0,0-.36-1,1.32,1.32,0,0,0-1-.37h-2.57v3.57Z"/><polyline class="cls-5" points="352.5 778.22 352.5 798.22 506.16 798.22 506.16 778.5"/><path class="cls-2" d="M416.1,818.7v-1.29h2.63V809.3h-.09l-2.33,2.52-.8-.86,2.49-2.73h2.07v9.18h2.41v1.29Z"/><path class="cls-2" d="M427.68,818.7V808.23h5.86v1.29H429v3.24h4.08v1.29H429v4.65Z"/><path class="cls-2" d="M436.79,818.7h-1.34V808.23h4a2.54,2.54,0,0,1,2,.81,3.26,3.26,0,0,1,.73,2.27,3.44,3.44,0,0,1-.48,1.89,2.3,2.3,0,0,1-1.41,1l2.14,4.5h-1.51l-2-4.35h-2.11Zm2.57-5.61a1.32,1.32,0,0,0,1-.37,1.41,1.41,0,0,0,.36-1v-.75a1.41,1.41,0,0,0-.36-1,1.32,1.32,0,0,0-1-.37h-2.57v3.57Z"/><polyline class="cls-5" points="517.16 778.22 517.16 798.22 657.16 798.22 657.16 778.5"/><path class="cls-2" d="M575.1,818.7v-1.29h2.63V809.3h-.09l-2.33,2.52-.8-.86,2.49-2.73h2.07v9.18h2.41v1.29Z"/><path class="cls-2" d="M586.68,818.7V808.23h5.85v1.29H588v3.24h4.08v1.29H588v4.65Z"/><path class="cls-2" d="M595.79,818.7h-1.34V808.23h4a2.54,2.54,0,0,1,2,.81,3.26,3.26,0,0,1,.73,2.27,3.44,3.44,0,0,1-.48,1.89,2.33,2.33,0,0,1-1.41,1l2.14,4.5h-1.51l-2-4.35h-2.1Zm2.57-5.61a1.32,1.32,0,0,0,1-.37,1.41,1.41,0,0,0,.36-1v-.75a1.41,1.41,0,0,0-.36-1,1.32,1.32,0,0,0-1-.37h-2.57v3.57Z"/></g></g></svg>