<svg xmlns="http://www.w3.org/2000/svg" viewBox="0 0 749.24 818.7"><defs><style>.cls-1{fill:#1b1464;}.cls-2{fill:#f15a24;}.cls-3,.cls-4,.cls-5,.cls-6{fill:none;stroke:#f15a24;stroke-miterlimit:10;}.cls-3,.cls-4,.cls-6{stroke-width:2px;}.cls-4{stroke-dasharray:29.4 29.4;}.cls-6{stroke-dasharray:30 30;}</style></defs><g id="Ebene_2" data-name="Ebene 2"><g id="Ebene_1-2" data-name="Ebene 1"><rect class="cls-1" x="1.49" y="1" width="658" height="763"/><path class="cls-2" d="M658.49,2V763H2.49V2h656m2-2H.49V765h660V0Z"/><line class="cls-1" x1="343.49" x2="343.49" y2="765"/><line class="cls-3" x1="343.49" x2="343.49" y2="15"/><line class="cls-4" x1="343.49" y1="44.4" x2="343.49" y2="735.3"/><line class="cls-3" x1="343.49" y1="750" x2="343.49" y2="765"/><line class="cls-1" x1="511.49" x2="511.49" y2="765"/><line class="cls-3" x1="511.49" x2="511.49" y2="15"/><line class="cls-4" x1="511.49" y1="44.4" x2="511.49" y2="735.3"/><line class="cls-3" x1="511.49" y1="750" x2="511.49" y2="765"/><polyline class="cls-5" points="0.83 778.22 0.83 798.22 343.87 798.22 343.87 778.5"/><path class="cls-2" d="M165.63,818.7h-6.39v-1.44l3.1-3.07a7.43,7.43,0,0,0,1.13-1.41,2.9,2.9,0,0,0,.43-1.47v-.18a1.89,1.89,0,0,0-.44-1.3,1.56,1.56,0,0,0-1.25-.49,1.88,1.88,0,0,0-.74.13,1.42,1.42,0,0,0-.54.36,1.75,1.75,0,0,0-.38.54,5.22,5.22,0,0,0-.24.67l-1.18-.5a4.66,4.66,0,0,1,.38-.93,3.27,3.27,0,0,1,.64-.8,3,3,0,0,1,.91-.55,3.39,3.39,0,0,1,1.24-.21,3.47,3.47,0,0,1,1.28.23,2.72,2.72,0,0,1,.95.63,2.77,2.77,0,0,1,.59,1,3.55,3.55,0,0,1,.21,1.24,3.87,3.87,0,0,1-.17,1.16,4,4,0,0,1-.47,1,6,6,0,0,1-.7.92c-.28.3-.57.6-.88.9l-2.38,2.31h4.9Z"/><path class="cls-2" d="M171,818.7V808.23h5.85v1.29h-4.52v3.24h4.08v1.29h-4.08v4.65Z"/><path class="cls-2" d="M180.11,818.7h-1.33V808.23h4a2.54,2.54,0,0,1,2,.81,3.26,3.26,0,0,1,.73,2.27,3.44,3.44,0,0,1-.48,1.89,2.33,2.33,0,0,1-1.41,1l2.13,4.5h-1.5l-2-4.35h-2.11Zm2.58-5.61a1.34,1.34,0,0,0,1-.37,1.41,1.41,0,0,0,.36-1v-.75a1.41,1.41,0,0,0-.36-1,1.34,1.34,0,0,0-1-.37h-2.58v3.57Z"/><polyline class="cls-5" points="352.83 778.22 352.83 798.22 506.49 798.22 506.49 778.5"/><path class="cls-2" d="M416.43,818.7v-1.29h2.63V809.3H419l-2.33,2.52-.8-.86,2.49-2.73h2.07v9.18h2.41v1.29Z"/><path class="cls-2" d="M428,818.7V808.23h5.85v1.29h-4.52v3.24h4.08v1.29h-4.08v4.65Z"/><path class="cls-2" d="M437.11,818.7h-1.33V808.23h4a2.54,2.54,0,0,1,2,.81,3.26,3.26,0,0,1,.73,2.27,3.44,3.44,0,0,1-.48,1.89,2.33,2.33,0,0,1-1.41,1l2.13,4.5h-1.5l-2-4.35h-2.11Zm2.58-5.61a1.34,1.34,0,0,0,1-.37,1.41,1.41,0,0,0,.36-1v-.75a1.41,1.41,0,0,0-.36-1,1.34,1.34,0,0,0-1-.37h-2.58v3.57Z"/><polyline class="cls-5" points="517.49 778.22 517.49 798.22 657.49 798.22 657.49 778.5"/><path class="cls-2" d="M575.43,818.7v-1.29h2.63V809.3H578l-2.33,2.52-.8-.86,2.49-2.73h2.07v9.18h2.41v1.29Z"/><path class="cls-2" d="M587,818.7V808.23h5.85v1.29h-4.52v3.24h4.08v1.29h-4.08v4.65Z"/><path class="cls-2" d="M596.11,818.7h-1.33V808.23h4a2.54,2.54,0,0,1,2,.81,3.31,3.31,0,0,1,.73,2.27,3.44,3.44,0,0,1-.48,1.89,2.33,2.33,0,0,1-1.41,1l2.13,4.5h-1.5l-2-4.35h-2.11Zm2.58-5.61a1.34,1.34,0,0,0,1-.37,1.41,1.41,0,0,0,.36-1v-.75a1.41,1.41,0,0,0-.36-1,1.34,1.34,0,0,0-1-.37h-2.58v3.57Z"/><line class="cls-1" y1="576.2" x2="660" y2="576.2"/><line class="cls-3" y1="576.2" x2="15" y2="576.2"/><line class="cls-6" x1="45" y1="576.2" x2="630" y2="576.2"/><line class="cls-3" x1="645" y1="576.2" x2="660" y2="576.2"/><line class="cls-1" y1="379.2" x2="660" y2="379.2"/><line class="cls-3" y1="379.2" x2="15" y2="379.2"/><line class="cls-6" x1="45" y1="379.2" x2="630" y2="379.2"/><line class="cls-3" x1="645" y1="379.2" x2="660" y2="379.2"/><polyline class="cls-5" points="679.86 365.02 699.86 365.02 699.86 21.98 680.15 21.98"/><path class="cls-2" d="M728.86,198.82h-6.4v-1.44l3.1-3.07a6.79,6.79,0,0,0,1.13-1.41,2.78,2.78,0,0,0,.43-1.47v-.18a1.89,1.89,0,0,0-.43-1.3,1.61,1.61,0,0,0-1.25-.49,2.14,2.14,0,0,0-.75.13,1.7,1.7,0,0,0-.54.36,2,2,0,0,0-.37.54,3.54,3.54,0,0,0-.24.67l-1.19-.5a4.17,4.17,0,0,1,.39-.93,3,3,0,0,1,.63-.79,2.84,2.84,0,0,1,.92-.56,3.3,3.3,0,0,1,1.23-.21,3.4,3.4,0,0,1,1.28.23,2.55,2.55,0,0,1,1,.63,2.79,2.79,0,0,1,.6,1,3.79,3.79,0,0,1,.2,1.24,3.87,3.87,0,0,1-.16,1.16,4.22,4.22,0,0,1-.47,1,6.74,6.74,0,0,1-.71.93c-.27.29-.56.59-.88.89L724,197.53h4.91Z"/><path class="cls-2" d="M734.23,198.82V188.35h5.86v1.29h-4.52v3.24h4.08v1.29h-4.08v4.65Z"/><path class="cls-2" d="M743.34,198.82H742V188.35h4a2.56,2.56,0,0,1,2,.81,3.31,3.31,0,0,1,.72,2.27,3.53,3.53,0,0,1-.47,1.89,2.33,2.33,0,0,1-1.42,1l2.14,4.5h-1.5l-2-4.35h-2.11Zm2.58-5.61a1.35,1.35,0,0,0,1-.36,1.45,1.45,0,0,0,.36-1v-.75a1.43,1.43,0,0,0-.36-1,1.35,1.35,0,0,0-1-.37h-2.58v3.57Z"/><polyline class="cls-5" points="679.86 567.87 699.86 567.87 699.86 414.21 680.15 414.21"/><path class="cls-2" d="M722.94,496.28V495h2.64v-8.12h-.1l-2.33,2.52-.8-.85,2.5-2.73h2.06V495h2.41v1.29Z"/><path class="cls-2" d="M734.52,496.28V485.81h5.86v1.29h-4.52v3.24h4.08v1.29h-4.08v4.65Z"/><path class="cls-2" d="M743.63,496.28h-1.34V485.81h4a2.58,2.58,0,0,1,2,.81,3.28,3.28,0,0,1,.72,2.26,3.44,3.44,0,0,1-.48,1.89,2.29,2.29,0,0,1-1.41,1l2.14,4.5h-1.51l-2-4.35h-2.11Zm2.58-5.61a1.31,1.31,0,0,0,1-.37,1.41,1.41,0,0,0,.36-1v-.75a1.41,1.41,0,0,0-.36-1,1.31,1.31,0,0,0-1-.37h-2.58v3.57Z"/><polyline class="cls-5" points="679.86 757.87 699.86 757.87 699.86 604.21 680.15 604.21"/><path class="cls-2" d="M722.94,686.28V685h2.64v-8.12h-.1l-2.33,2.52-.8-.85,2.5-2.73h2.06V685h2.41v1.29Z"/><path class="cls-2" d="M734.52,686.28V675.81h5.86v1.29h-4.52v3.24h4.08v1.29h-4.08v4.65Z"/><path class="cls-2" d="M743.63,686.28h-1.34V675.81h4a2.58,2.58,0,0,1,2,.81,3.28,3.28,0,0,1,.72,2.26,3.44,3.44,0,0,1-.48,1.89,2.29,2.29,0,0,1-1.41,1l2.14,4.5h-1.51l-2-4.35h-2.11Zm2.58-5.61a1.31,1.31,0,0,0,1-.37,1.41,1.41,0,0,0,.36-1v-.75a1.41,1.41,0,0,0-.36-1,1.31,1.31,0,0,0-1-.37h-2.58v3.57Z"/></g></g></svg>