<svg xmlns="http://www.w3.org/2000/svg" viewBox="0 0 837 115.05"><defs><style>.cls-1{opacity:0.9;}.cls-2{fill:#1b1464;}.cls-3{fill:#f15a24;}</style></defs><g id="Ebene_2" data-name="Ebene 2"><g id="Ebene_1-2" data-name="Ebene 1"><g class="cls-1"><rect class="cls-2" x="0.5" y="0.5" width="836" height="114.05"/><path class="cls-3" d="M836,1V114.05H1V1H836m1-1H0V115.05H837V0Z"/></g><path class="cls-3" d="M36.06,36a1.58,1.58,0,0,1-1.25-.42,1.51,1.51,0,0,1-.36-1v-.47a1.46,1.46,0,0,1,.36-1,1.62,1.62,0,0,1,1.25-.4,1.64,1.64,0,0,1,1.26.4,1.46,1.46,0,0,1,.36,1v.47a1.51,1.51,0,0,1-.36,1A1.61,1.61,0,0,1,36.06,36Z"/><path class="cls-3" d="M43.76,34.06h3.42v-8H43.56V24.4h3.62V22.2a3,3,0,0,1,.61-2,2.27,2.27,0,0,1,1.88-.75h3.49v1.69h-4.1V24.4h4.1v1.7h-4.1v8H52.7v1.7H43.76Z"/><path class="cls-3" d="M55.83,34.06h3.54V21.17H55.83V19.48h5.42V34.06h3.56v1.7h-9Z"/><path class="cls-3" d="M72.65,36a5,5,0,0,1-2.08-.42A4.2,4.2,0,0,1,69,34.41a5.49,5.49,0,0,1-1-1.86,8.06,8.06,0,0,1-.34-2.45A7.86,7.86,0,0,1,68,27.64a5.79,5.79,0,0,1,1-1.88,4.26,4.26,0,0,1,1.53-1.2,4.5,4.5,0,0,1,2-.42,4.41,4.41,0,0,1,1.94.41,4.15,4.15,0,0,1,1.48,1.15,5.37,5.37,0,0,1,.95,1.77,7.34,7.34,0,0,1,.34,2.26v.86h-7.6V31a3.4,3.4,0,0,0,.8,2.33,2.85,2.85,0,0,0,2.25.91,3.15,3.15,0,0,0,1.78-.49,3.28,3.28,0,0,0,1.17-1.37l1.27,1.08a4.17,4.17,0,0,1-1.58,1.81A4.77,4.77,0,0,1,72.65,36Zm-.12-10.25a2.86,2.86,0,0,0-1.18.24,2.72,2.72,0,0,0-.91.67,2.92,2.92,0,0,0-.61,1,3.9,3.9,0,0,0-.21,1.3v.18h5.64v-.24a3.39,3.39,0,0,0-.75-2.3A2.49,2.49,0,0,0,72.53,25.77Z"/><path class="cls-3" d="M79.6,35.76,83.48,30,79.72,24.4H82l1.49,2.29,1.17,1.81h.1l1.16-1.81,1.45-2.29h2.12L85.65,30l3.92,5.81H87.34L85.67,33.2l-1.14-1.76h-.1L83.34,33.2,81.7,35.76Z"/><path class="cls-3" d="M109.25,38.79a1.7,1.7,0,0,1-1.4-.55,2,2,0,0,1-.46-1.36V35.56a4.39,4.39,0,0,1,.11-1,4.94,4.94,0,0,1,.28-.77,4.46,4.46,0,0,1,.36-.61c.14-.18.26-.36.39-.52a3.58,3.58,0,0,0,.47-.76,1.67,1.67,0,0,0,.13-.67,1.21,1.21,0,0,0-.68-1.14,4.18,4.18,0,0,0-2-.38h-1.61V28.14h1.61a4.19,4.19,0,0,0,2-.37,1.21,1.21,0,0,0,.68-1.14A1.75,1.75,0,0,0,109,26a3.82,3.82,0,0,0-.47-.75l-.39-.52a4,4,0,0,1-.36-.62,4.29,4.29,0,0,1-.28-.77,4.24,4.24,0,0,1-.11-1V21a2,2,0,0,1,.46-1.36,1.7,1.7,0,0,1,1.4-.56h3.56v1.52H109v1.59a3.55,3.55,0,0,0,.07.77,3.76,3.76,0,0,0,.18.59,3.24,3.24,0,0,0,.26.49c.09.14.19.29.3.44.23.32.44.65.65,1a2.37,2.37,0,0,1,.3,1.22,2,2,0,0,1-.6,1.49,2.93,2.93,0,0,1-1.67.73V29a2.93,2.93,0,0,1,1.67.72,2,2,0,0,1,.6,1.5,2.37,2.37,0,0,1-.3,1.22c-.21.35-.42.68-.65,1l-.31.46a2.55,2.55,0,0,0-.44,1.06,4.38,4.38,0,0,0-.06.77v1.58h3.82v1.52Z"/><path class="cls-3" d="M71.54,60.26h-.1a3.69,3.69,0,0,1-1.25,1.61,3.36,3.36,0,0,1-1.94.55,3.42,3.42,0,0,1-3-1.54,7.61,7.61,0,0,1-1.08-4.4,7.61,7.61,0,0,1,1.08-4.4,3.42,3.42,0,0,1,3-1.54,3.29,3.29,0,0,1,1.94.55,3.71,3.71,0,0,1,1.25,1.6h.1V45.87h1.88V62.15H71.54ZM69,60.68a3.43,3.43,0,0,0,1-.14,2.83,2.83,0,0,0,.81-.42,1.87,1.87,0,0,0,.55-.69,2.13,2.13,0,0,0,.2-1v-4a2,2,0,0,0-.75-1.65,2.62,2.62,0,0,0-.81-.43,3.1,3.1,0,0,0-1-.14,2.52,2.52,0,0,0-2.07.89,3.53,3.53,0,0,0-.74,2.36v1.89A3.54,3.54,0,0,0,67,59.79,2.54,2.54,0,0,0,69,60.68Z"/><path class="cls-3" d="M77.3,60.46H81v-8H77.3V50.8h5.54v9.66h3.44v1.69h-9Zm4.61-12a1.37,1.37,0,0,1-1.07-.34,1.24,1.24,0,0,1-.3-.84v-.42a1.27,1.27,0,0,1,.3-.86,1.34,1.34,0,0,1,1.07-.35A1.32,1.32,0,0,1,83,46a1.23,1.23,0,0,1,.31.86v.42a1.2,1.2,0,0,1-.31.84A1.36,1.36,0,0,1,81.91,48.49Z"/><path class="cls-3" d="M93.47,62.42a6.42,6.42,0,0,1-2.87-.6,5.56,5.56,0,0,1-2-1.6l1.2-1.17a5.08,5.08,0,0,0,1.59,1.29,4.65,4.65,0,0,0,2.11.45,3.53,3.53,0,0,0,1.86-.44A1.5,1.5,0,0,0,96.1,59a1.41,1.41,0,0,0-.14-.67,1.16,1.16,0,0,0-.38-.44A1.91,1.91,0,0,0,95,57.6a6.38,6.38,0,0,0-.66-.15l-1.63-.27a12,12,0,0,1-1.22-.25,3.68,3.68,0,0,1-1.14-.52A2.66,2.66,0,0,1,89.19,54a3.39,3.39,0,0,1,.31-1.51,3,3,0,0,1,.89-1.09,4.11,4.11,0,0,1,1.38-.66,6.4,6.4,0,0,1,1.75-.22A5.93,5.93,0,0,1,96,51a5.48,5.48,0,0,1,1.78,1.32l-1.15,1.23a3.52,3.52,0,0,0-.47-.49,3.19,3.19,0,0,0-.66-.45,4.86,4.86,0,0,0-.89-.33,4.63,4.63,0,0,0-1.18-.13,3,3,0,0,0-1.76.43,1.39,1.39,0,0,0-.62,1.24,1.46,1.46,0,0,0,.14.68,1.24,1.24,0,0,0,.38.44,1.82,1.82,0,0,0,.56.27l.66.15,1.63.26a9.6,9.6,0,0,1,1.22.27,3.93,3.93,0,0,1,1.14.51,2.79,2.79,0,0,1,.85.92A2.91,2.91,0,0,1,98,58.81a3.2,3.2,0,0,1-1.2,2.66A5.19,5.19,0,0,1,93.47,62.42Z"/><path class="cls-3" d="M101.24,50.8h1.88v1.89h.1a3.71,3.71,0,0,1,1.25-1.6,3.29,3.29,0,0,1,1.94-.55,3.42,3.42,0,0,1,3,1.54,7.61,7.61,0,0,1,1.08,4.4,7.61,7.61,0,0,1-1.08,4.4,3.42,3.42,0,0,1-3,1.54,3.36,3.36,0,0,1-1.94-.55,3.69,3.69,0,0,1-1.25-1.61h-.1v6.3h-1.88Zm4.4,9.88a2.54,2.54,0,0,0,2.07-.89,3.54,3.54,0,0,0,.74-2.37V55.53a3.53,3.53,0,0,0-.74-2.36,2.52,2.52,0,0,0-2.07-.89,3.1,3.1,0,0,0-1,.14,2.62,2.62,0,0,0-.81.43,2,2,0,0,0-.75,1.65v4a2.13,2.13,0,0,0,.2,1,1.87,1.87,0,0,0,.55.69,2.83,2.83,0,0,0,.81.42A3.43,3.43,0,0,0,105.64,60.68Z"/><path class="cls-3" d="M113.16,60.46h3.54V47.57h-3.54v-1.7h5.42V60.46h3.56v1.69h-9Z"/><path class="cls-3" d="M133.68,62.15a1.71,1.71,0,0,1-1.37-.51,2.49,2.49,0,0,1-.53-1.36h-.1a3.18,3.18,0,0,1-1.12,1.57,3.34,3.34,0,0,1-2,.57,3.6,3.6,0,0,1-2.57-.91A3.32,3.32,0,0,1,125,59a3,3,0,0,1,1.09-2.49,5.56,5.56,0,0,1,3.43-.86h2.13v-1a2.46,2.46,0,0,0-.61-1.81,2.37,2.37,0,0,0-1.76-.61,3,3,0,0,0-1.69.43,3.27,3.27,0,0,0-1.06,1.2l-1.19-1a3,3,0,0,1,.57-.85,4.1,4.1,0,0,1,.86-.73,4.37,4.37,0,0,1,1.18-.5,5.18,5.18,0,0,1,1.47-.19,4.23,4.23,0,0,1,3,1,3.74,3.74,0,0,1,1.11,2.89v6h1.39v1.69ZM129,60.81a3.08,3.08,0,0,0,1.92-.57,1.73,1.73,0,0,0,.75-1.43V57.05h-2.11a3.65,3.65,0,0,0-2,.42,1.36,1.36,0,0,0-.63,1.21v.46a1.5,1.5,0,0,0,.54,1.26A2.47,2.47,0,0,0,129,60.81Z"/><path class="cls-3" d="M145.14,50.8H147L141.9,64.51a5.27,5.27,0,0,1-.41.89,2.33,2.33,0,0,1-.56.64,2.26,2.26,0,0,1-.76.38,3.68,3.68,0,0,1-1.06.14h-1.63v-1.7h2.42L141,62l-4.2-11.16h2l1.72,4.76,1.43,4.11h.1l1.44-4.11Z"/><path class="cls-3" d="M154,53.9a1.58,1.58,0,0,1-1.25-.41,1.51,1.51,0,0,1-.37-1V52a1.47,1.47,0,0,1,.37-1,2.11,2.11,0,0,1,2.5,0,1.42,1.42,0,0,1,.37,1v.47a1.47,1.47,0,0,1-.37,1A1.58,1.58,0,0,1,154,53.9Zm0,8.47a1.62,1.62,0,0,1-1.25-.41,1.52,1.52,0,0,1-.37-1v-.46a1.47,1.47,0,0,1,.37-1,2.11,2.11,0,0,1,2.5,0,1.42,1.42,0,0,1,.37,1v.46a1.47,1.47,0,0,1-.37,1A1.62,1.62,0,0,1,154,62.37Z"/><path class="cls-3" d="M173.86,60.46h3.42v-8h-3.62V50.8h3.62V48.6a3.1,3.1,0,0,1,.6-2,2.29,2.29,0,0,1,1.88-.76h3.5v1.7h-4.1V50.8h4.1v1.7h-4.1v8h3.63v1.69h-8.93Z"/><path class="cls-3" d="M185.93,60.46h3.53V47.57h-3.53v-1.7h5.41V60.46h3.56v1.69h-9Z"/><path class="cls-3" d="M202.74,62.42a5,5,0,0,1-2.08-.42,4.28,4.28,0,0,1-1.57-1.19,5.49,5.49,0,0,1-1-1.86,8.06,8.06,0,0,1-.34-2.45,8.16,8.16,0,0,1,.35-2.46,5.79,5.79,0,0,1,1-1.88,4.44,4.44,0,0,1,1.53-1.2,4.53,4.53,0,0,1,2-.42,4.38,4.38,0,0,1,1.94.41A4.18,4.18,0,0,1,206,52.1a5.37,5.37,0,0,1,.95,1.77,7.34,7.34,0,0,1,.33,2.26V57h-7.6v.46a3.36,3.36,0,0,0,.81,2.33,2.84,2.84,0,0,0,2.24.91,3.15,3.15,0,0,0,1.78-.49,3.34,3.34,0,0,0,1.17-1.37L207,59.9a4.26,4.26,0,0,1-1.59,1.81A4.77,4.77,0,0,1,202.74,62.42Zm-.12-10.25a2.75,2.75,0,0,0-2.09.91,3.08,3.08,0,0,0-.61,1,3.9,3.9,0,0,0-.21,1.3v.18h5.64v-.25A3.38,3.38,0,0,0,204.6,53,2.49,2.49,0,0,0,202.62,52.17Z"/><path class="cls-3" d="M209.7,62.15l3.88-5.76-3.76-5.59H212l1.5,2.29,1.17,1.81h.1L216,53.09l1.46-2.29h2.12l-3.8,5.55,3.92,5.8h-2.22l-1.68-2.55-1.13-1.76h-.1l-1.09,1.76-1.64,2.55Z"/><path class="cls-3" d="M225.81,59h2.85l-2.41,6.29h-1.54Zm1-5.11a1.61,1.61,0,0,1-1.26-.41,1.51,1.51,0,0,1-.36-1V52a1.46,1.46,0,0,1,.36-1,1.64,1.64,0,0,1,1.26-.41,1.62,1.62,0,0,1,1.25.41,1.46,1.46,0,0,1,.36,1v.47a1.51,1.51,0,0,1-.36,1A1.58,1.58,0,0,1,226.8,53.9Z"/><path class="cls-3" d="M35.64,71.84a1.7,1.7,0,0,1,1.4.55,2,2,0,0,1,.46,1.36v1.32a4.24,4.24,0,0,1-.11,1,4.29,4.29,0,0,1-.28.77,2.88,2.88,0,0,1-.36.62l-.38.52a3.5,3.5,0,0,0-.48.75,1.75,1.75,0,0,0-.13.68,1.23,1.23,0,0,0,.68,1.14,4.19,4.19,0,0,0,2,.37h1.62v1.54H38.43a4.18,4.18,0,0,0-2,.38A1.23,1.23,0,0,0,35.76,84a1.67,1.67,0,0,0,.13.67,3.3,3.3,0,0,0,.48.76l.38.52a3.06,3.06,0,0,1,.36.61,4.94,4.94,0,0,1,.28.77,4.39,4.39,0,0,1,.11,1v1.32A2,2,0,0,1,37,91a1.7,1.7,0,0,1-1.4.55H32.08V90.07H35.9V88.49a3,3,0,0,0-.24-1.35,7.14,7.14,0,0,0-.57-.94,11.35,11.35,0,0,1-.64-1A2.28,2.28,0,0,1,34.14,84a2,2,0,0,1,.6-1.5,2.93,2.93,0,0,1,1.67-.72v-.09a2.93,2.93,0,0,1-1.67-.73,2,2,0,0,1-.6-1.49,2.28,2.28,0,0,1,.31-1.22,11.35,11.35,0,0,1,.64-1l.31-.44a3.21,3.21,0,0,0,.25-.49,3.76,3.76,0,0,0,.18-.59,3.55,3.55,0,0,0,.07-.77V73.35H32.08V71.84Z"/></g></g></svg>