<svg xmlns="http://www.w3.org/2000/svg" viewBox="0 0 837 110.95"><defs><style>.cls-1{opacity:0.9;}.cls-2{fill:#1b1464;}.cls-3{fill:#f15a24;}</style></defs><g id="Ebene_2" data-name="Ebene 2"><g id="Ebene_1-2" data-name="Ebene 1"><g class="cls-1"><rect class="cls-2" x="0.5" y="0.5" width="836" height="109.95"/><path class="cls-3" d="M836,1V110H1V1H836m1-1H0V111H837V0Z"/></g><path class="cls-3" d="M36.06,33.92a1.58,1.58,0,0,1-1.25-.41,1.51,1.51,0,0,1-.36-1V32a1.46,1.46,0,0,1,.36-1,1.62,1.62,0,0,1,1.25-.41,1.64,1.64,0,0,1,1.26.41,1.46,1.46,0,0,1,.36,1v.47a1.51,1.51,0,0,1-.36,1A1.61,1.61,0,0,1,36.06,33.92Z"/><path class="cls-3" d="M53.55,35a2.79,2.79,0,0,1-1.33,2.56,7.75,7.75,0,0,1-4,.83A10.73,10.73,0,0,1,46,38.18a4.32,4.32,0,0,1-1.48-.55,2.29,2.29,0,0,1-.83-.87,2.51,2.51,0,0,1-.26-1.16,2.06,2.06,0,0,1,.46-1.44,2.56,2.56,0,0,1,1.3-.76v-.24a1.86,1.86,0,0,1-.76-.61,1.67,1.67,0,0,1-.27-1,1.59,1.59,0,0,1,.52-1.31A3.75,3.75,0,0,1,46,29.61V29.5a3.34,3.34,0,0,1-1.5-1.35A4.09,4.09,0,0,1,44,26a4.25,4.25,0,0,1,.29-1.62,3.29,3.29,0,0,1,.84-1.24,3.88,3.88,0,0,1,1.3-.79,4.58,4.58,0,0,1,1.69-.29,4.41,4.41,0,0,1,2,.42v-.29a1.94,1.94,0,0,1,.31-1.11,1.16,1.16,0,0,1,1-.45h1.9V22.4H51v.66a3.24,3.24,0,0,1,1,1.26,4.59,4.59,0,0,1,0,3.34,3.44,3.44,0,0,1-.85,1.23,4,4,0,0,1-1.31.79,4.85,4.85,0,0,1-1.7.28,5.43,5.43,0,0,1-.57,0,3.2,3.2,0,0,1-.54-.08,4,4,0,0,0-.45.15,2,2,0,0,0-.42.24,1.17,1.17,0,0,0-.32.35.91.91,0,0,0-.12.47.65.65,0,0,0,.46.68,4,4,0,0,0,1.19.15h2.31a4.37,4.37,0,0,1,3,.84A2.87,2.87,0,0,1,53.55,35Zm-1.76.11a1.23,1.23,0,0,0-.48-1,2.67,2.67,0,0,0-1.66-.38h-3.6a1.46,1.46,0,0,0-.93,1.4,1.63,1.63,0,0,0,.51,1.21,2.46,2.46,0,0,0,1.75.51H49a4,4,0,0,0,2.06-.44A1.42,1.42,0,0,0,51.79,35.09Zm-3.68-6.62a2.27,2.27,0,0,0,1.7-.58,2.21,2.21,0,0,0,.54-1.56v-.61a2.18,2.18,0,0,0-.54-1.55,2.23,2.23,0,0,0-1.7-.59,2.15,2.15,0,0,0-1.68.59,2.22,2.22,0,0,0-.52,1.55v.61a2.25,2.25,0,0,0,.52,1.56A2.19,2.19,0,0,0,48.11,28.47Z"/><path class="cls-3" d="M55.79,32h2.93v-8H55.79v-1.7H60.6v2.93h.12a4.16,4.16,0,0,1,1.21-2.16,3.29,3.29,0,0,1,2.27-.77h1.37v2h-2a2.82,2.82,0,0,0-2.15.84,3.09,3.09,0,0,0-.8,2.19V32h3.94v1.7H55.79Z"/><path class="cls-3" d="M68.48,32h3.66v-8H68.48v-1.7H74V32h3.44v1.7h-9Zm4.61-12A1.37,1.37,0,0,1,72,19.7a1.24,1.24,0,0,1-.3-.84v-.42a1.27,1.27,0,0,1,.3-.86,1.81,1.81,0,0,1,2.14,0,1.23,1.23,0,0,1,.31.86v.42a1.2,1.2,0,0,1-.31.84A1.37,1.37,0,0,1,73.09,20Z"/><path class="cls-3" d="M87,31.81h-.1a3.7,3.7,0,0,1-1.26,1.61,3.27,3.27,0,0,1-1.94.55,3.42,3.42,0,0,1-3-1.54A7.61,7.61,0,0,1,79.64,28a7.61,7.61,0,0,1,1.08-4.4,3.42,3.42,0,0,1,3-1.54,3.27,3.27,0,0,1,1.94.55,3.7,3.7,0,0,1,1.26,1.61H87V17.42h1.88V33.71H87Zm-2.53.42a3.32,3.32,0,0,0,1-.14,2.71,2.71,0,0,0,.81-.42,1.9,1.9,0,0,0,.56-.69,2.27,2.27,0,0,0,.2-1v-4a2.19,2.19,0,0,0-.2-1,2.08,2.08,0,0,0-.56-.69,2.52,2.52,0,0,0-.81-.43,3.32,3.32,0,0,0-1-.14,2.52,2.52,0,0,0-2.07.89,3.58,3.58,0,0,0-.74,2.36V29a3.59,3.59,0,0,0,.74,2.37A2.54,2.54,0,0,0,84.45,32.23Z"/><path class="cls-3" d="M109.25,36.74a1.7,1.7,0,0,1-1.4-.55,2,2,0,0,1-.46-1.36V33.51a4.39,4.39,0,0,1,.11-1,4.94,4.94,0,0,1,.28-.77,4.46,4.46,0,0,1,.36-.61c.14-.18.26-.36.39-.52a3.58,3.58,0,0,0,.47-.76,1.67,1.67,0,0,0,.13-.67,1.21,1.21,0,0,0-.68-1.14,4.18,4.18,0,0,0-2-.38h-1.61V26.09h1.61a4.19,4.19,0,0,0,2-.37,1.21,1.21,0,0,0,.68-1.14,1.75,1.75,0,0,0-.13-.68,3.82,3.82,0,0,0-.47-.75l-.39-.52a4,4,0,0,1-.36-.62,4.29,4.29,0,0,1-.28-.77,4.24,4.24,0,0,1-.11-1V18.9a2,2,0,0,1,.46-1.36,1.7,1.7,0,0,1,1.4-.56h3.56V18.5H109v1.59a3.55,3.55,0,0,0,.07.77,3.76,3.76,0,0,0,.18.59,3.24,3.24,0,0,0,.26.49c.09.14.19.29.3.44.23.32.44.65.65,1a2.37,2.37,0,0,1,.3,1.22,2,2,0,0,1-.6,1.49,2.93,2.93,0,0,1-1.67.73v.09a2.93,2.93,0,0,1,1.67.72,2,2,0,0,1,.6,1.5,2.37,2.37,0,0,1-.3,1.22c-.21.35-.42.68-.65,1l-.31.46a2.55,2.55,0,0,0-.44,1.06,4.38,4.38,0,0,0-.06.77v1.58h3.82v1.52Z"/><path class="cls-3" d="M71.54,58.21h-.1a3.69,3.69,0,0,1-1.25,1.61,3.36,3.36,0,0,1-1.94.55,3.42,3.42,0,0,1-3-1.54,7.63,7.63,0,0,1-1.08-4.4A7.61,7.61,0,0,1,65.29,50a3.42,3.42,0,0,1,3-1.54,3.29,3.29,0,0,1,1.94.55,3.71,3.71,0,0,1,1.25,1.6h.1V43.82h1.88V60.1H71.54ZM69,58.63a3.43,3.43,0,0,0,1-.14,2.83,2.83,0,0,0,.81-.42,1.87,1.87,0,0,0,.55-.69,2.13,2.13,0,0,0,.2-1v-4a2,2,0,0,0-.75-1.65,2.43,2.43,0,0,0-.81-.43,3.1,3.1,0,0,0-1-.14,2.52,2.52,0,0,0-2.07.89,3.53,3.53,0,0,0-.74,2.36v1.89A3.54,3.54,0,0,0,67,57.74,2.54,2.54,0,0,0,69,58.63Z"/><path class="cls-3" d="M77.3,58.41H81v-8H77.3v-1.7h5.54v9.66h3.44V60.1h-9Zm4.61-12a1.37,1.37,0,0,1-1.07-.34,1.24,1.24,0,0,1-.3-.85v-.41a1.27,1.27,0,0,1,.3-.86,1.34,1.34,0,0,1,1.07-.35A1.32,1.32,0,0,1,83,44a1.23,1.23,0,0,1,.31.86v.41a1.2,1.2,0,0,1-.31.85A1.36,1.36,0,0,1,81.91,46.44Z"/><path class="cls-3" d="M93.47,60.37a6.42,6.42,0,0,1-2.87-.6,5.56,5.56,0,0,1-2-1.6L89.82,57a5.08,5.08,0,0,0,1.59,1.29,4.65,4.65,0,0,0,2.11.45,3.53,3.53,0,0,0,1.86-.44,1.51,1.51,0,0,0,.72-1.39,1.41,1.41,0,0,0-.14-.67,1.16,1.16,0,0,0-.38-.44,1.91,1.91,0,0,0-.56-.25,6.38,6.38,0,0,0-.66-.15l-1.63-.27a12,12,0,0,1-1.22-.25,3.68,3.68,0,0,1-1.14-.52A2.66,2.66,0,0,1,89.19,52a3.38,3.38,0,0,1,.31-1.5,3,3,0,0,1,.89-1.09,4.11,4.11,0,0,1,1.38-.66,6.4,6.4,0,0,1,1.75-.22A5.93,5.93,0,0,1,96,49a5.34,5.34,0,0,1,1.78,1.32l-1.15,1.23a3.52,3.52,0,0,0-.47-.49,3.19,3.19,0,0,0-.66-.45,4.86,4.86,0,0,0-.89-.33,4.63,4.63,0,0,0-1.18-.13,3,3,0,0,0-1.76.43,1.39,1.39,0,0,0-.62,1.24,1.49,1.49,0,0,0,.14.68,1.24,1.24,0,0,0,.38.44,1.6,1.6,0,0,0,.56.26l.66.16,1.63.26a9.6,9.6,0,0,1,1.22.27,3.93,3.93,0,0,1,1.14.51,2.79,2.79,0,0,1,.85.92A2.91,2.91,0,0,1,98,56.76a3.2,3.2,0,0,1-1.2,2.66A5.19,5.19,0,0,1,93.47,60.37Z"/><path class="cls-3" d="M101.24,48.75h1.88v1.89h.1a3.71,3.71,0,0,1,1.25-1.6,3.29,3.29,0,0,1,1.94-.55,3.42,3.42,0,0,1,3,1.54,7.61,7.61,0,0,1,1.08,4.4,7.63,7.63,0,0,1-1.08,4.4,3.42,3.42,0,0,1-3,1.54,3.36,3.36,0,0,1-1.94-.55,3.69,3.69,0,0,1-1.25-1.61h-.1V64.5h-1.88Zm4.4,9.88a2.54,2.54,0,0,0,2.07-.89,3.54,3.54,0,0,0,.74-2.37V53.48a3.53,3.53,0,0,0-.74-2.36,2.52,2.52,0,0,0-2.07-.89,3.1,3.1,0,0,0-1,.14,2.43,2.43,0,0,0-.81.43,2,2,0,0,0-.75,1.65v4a2.13,2.13,0,0,0,.2,1,1.87,1.87,0,0,0,.55.69,2.83,2.83,0,0,0,.81.42A3.43,3.43,0,0,0,105.64,58.63Z"/><path class="cls-3" d="M113.16,58.41h3.54V45.52h-3.54v-1.7h5.42V58.41h3.56V60.1h-9Z"/><path class="cls-3" d="M133.68,60.1a1.71,1.71,0,0,1-1.37-.51,2.49,2.49,0,0,1-.53-1.36h-.1a3.18,3.18,0,0,1-1.12,1.57,3.34,3.34,0,0,1-2,.57,3.6,3.6,0,0,1-2.57-.91,3.32,3.32,0,0,1-1-2.52,3,3,0,0,1,1.09-2.49,5.56,5.56,0,0,1,3.43-.86h2.13v-1a2.46,2.46,0,0,0-.61-1.81,2.37,2.37,0,0,0-1.76-.61,3,3,0,0,0-1.69.43,3.27,3.27,0,0,0-1.06,1.2l-1.19-1a3.12,3.12,0,0,1,.57-.84,4.1,4.1,0,0,1,.86-.73,4.37,4.37,0,0,1,1.18-.5,5.18,5.18,0,0,1,1.47-.19,4.23,4.23,0,0,1,3,1,3.74,3.74,0,0,1,1.11,2.89v6h1.39V60.1ZM129,58.76a3.08,3.08,0,0,0,1.92-.57,1.73,1.73,0,0,0,.75-1.43V55h-2.11a3.65,3.65,0,0,0-2,.42,1.36,1.36,0,0,0-.63,1.21v.46a1.47,1.47,0,0,0,.54,1.25A2.41,2.41,0,0,0,129,58.76Z"/><path class="cls-3" d="M145.14,48.75H147L141.9,62.46a5.27,5.27,0,0,1-.41.89,2.33,2.33,0,0,1-.56.64,2.26,2.26,0,0,1-.76.38,3.7,3.7,0,0,1-1.06.13h-1.63V62.81h2.42l1.07-2.9-4.2-11.16h2l1.72,4.75,1.43,4.12h.1l1.44-4.12Z"/><path class="cls-3" d="M154,51.85a1.62,1.62,0,0,1-1.25-.41,1.52,1.52,0,0,1-.37-1V50a1.47,1.47,0,0,1,.37-1,2.11,2.11,0,0,1,2.5,0,1.42,1.42,0,0,1,.37,1v.46a1.47,1.47,0,0,1-.37,1A1.62,1.62,0,0,1,154,51.85Zm0,8.47a1.62,1.62,0,0,1-1.25-.41,1.52,1.52,0,0,1-.37-1v-.46a1.47,1.47,0,0,1,.37-1,2.11,2.11,0,0,1,2.5,0,1.42,1.42,0,0,1,.37,1v.46a1.47,1.47,0,0,1-.37,1A1.62,1.62,0,0,1,154,60.32Z"/><path class="cls-3" d="M183.64,61.38a2.8,2.8,0,0,1-1.32,2.56,7.77,7.77,0,0,1-4,.83,10.9,10.9,0,0,1-2.23-.19,4.26,4.26,0,0,1-1.47-.55,2.22,2.22,0,0,1-.83-.87A2.39,2.39,0,0,1,173.5,62a2.11,2.11,0,0,1,.45-1.44,2.61,2.61,0,0,1,1.3-.76v-.25a1.73,1.73,0,0,1-.75-.6,1.87,1.87,0,0,1,.25-2.29A3.69,3.69,0,0,1,176.1,56V55.9a3.43,3.43,0,0,1-1.49-1.35,4.09,4.09,0,0,1-.53-2.12,4.25,4.25,0,0,1,.3-1.62,3.27,3.27,0,0,1,.83-1.24,3.94,3.94,0,0,1,1.31-.8,4.72,4.72,0,0,1,1.69-.28,4.47,4.47,0,0,1,2,.42v-.29a1.9,1.9,0,0,1,.31-1.12,1.18,1.18,0,0,1,1-.44h1.9V48.8h-2.38v.66a3.44,3.44,0,0,1,1,1.26,4.27,4.27,0,0,1,.33,1.71,4.18,4.18,0,0,1-.3,1.62,3.65,3.65,0,0,1-.85,1.24,4,4,0,0,1-1.32.79,4.83,4.83,0,0,1-1.69.28,5.43,5.43,0,0,1-.57,0,2.53,2.53,0,0,1-.55-.09l-.44.16a2,2,0,0,0-.43.24,1.32,1.32,0,0,0-.32.35.88.88,0,0,0-.12.46.65.65,0,0,0,.46.69,4,4,0,0,0,1.2.15h2.3a4.33,4.33,0,0,1,3,.84A2.84,2.84,0,0,1,183.64,61.38Zm-1.76.11a1.22,1.22,0,0,0-.47-1,2.69,2.69,0,0,0-1.67-.39h-3.6a1.48,1.48,0,0,0-.93,1.41,1.66,1.66,0,0,0,.52,1.21,2.44,2.44,0,0,0,1.75.51h1.61a4.08,4.08,0,0,0,2.07-.44A1.43,1.43,0,0,0,181.88,61.49Zm-3.67-6.62a2.24,2.24,0,0,0,1.69-.58,2.17,2.17,0,0,0,.55-1.56v-.61a2.15,2.15,0,0,0-.55-1.55,2.21,2.21,0,0,0-1.69-.59,2.15,2.15,0,0,0-1.68.59,2.22,2.22,0,0,0-.53,1.55v.61a2.25,2.25,0,0,0,.53,1.56A2.19,2.19,0,0,0,178.21,54.87Z"/><path class="cls-3" d="M185.89,58.41h2.93v-8h-2.93v-1.7h4.81v2.93h.12a4.18,4.18,0,0,1,1.2-2.16,3.29,3.29,0,0,1,2.27-.77h1.38v2h-2a2.85,2.85,0,0,0-2.16.85,3.09,3.09,0,0,0-.79,2.19v4.62h3.94V60.1h-8.75Z"/><path class="cls-3" d="M198.58,58.41h3.66v-8h-3.66v-1.7h5.54v9.66h3.43V60.1h-9Zm4.61-12a1.37,1.37,0,0,1-1.07-.34,1.2,1.2,0,0,1-.31-.85v-.41a1.23,1.23,0,0,1,.31-.86,1.81,1.81,0,0,1,2.14,0,1.27,1.27,0,0,1,.3.86v.41a1.24,1.24,0,0,1-.3.85A1.37,1.37,0,0,1,203.19,46.44Z"/><path class="cls-3" d="M217.07,58.21H217a3.69,3.69,0,0,1-1.25,1.61,3.36,3.36,0,0,1-1.94.55,3.42,3.42,0,0,1-3-1.54,7.63,7.63,0,0,1-1.08-4.4,7.61,7.61,0,0,1,1.08-4.4,3.42,3.42,0,0,1,3-1.54,3.29,3.29,0,0,1,1.94.55,3.71,3.71,0,0,1,1.25,1.6h.1V43.82H219V60.1h-1.88Zm-2.52.42a3.43,3.43,0,0,0,1-.14,2.83,2.83,0,0,0,.81-.42,1.87,1.87,0,0,0,.55-.69,2.13,2.13,0,0,0,.2-1v-4a2,2,0,0,0-.75-1.65,2.43,2.43,0,0,0-.81-.43,3.1,3.1,0,0,0-1-.14,2.52,2.52,0,0,0-2.07.89,3.53,3.53,0,0,0-.74,2.36v1.89a3.54,3.54,0,0,0,.74,2.37A2.54,2.54,0,0,0,214.55,58.63Z"/><path class="cls-3" d="M225.81,57h2.85l-2.41,6.29h-1.54Zm1-5.11a1.64,1.64,0,0,1-1.26-.41,1.51,1.51,0,0,1-.36-1V50a1.46,1.46,0,0,1,.36-1,1.64,1.64,0,0,1,1.26-.41,1.62,1.62,0,0,1,1.25.41,1.46,1.46,0,0,1,.36,1v.46a1.51,1.51,0,0,1-.36,1A1.62,1.62,0,0,1,226.8,51.85Z"/><path class="cls-3" d="M35.64,69.79a1.72,1.72,0,0,1,1.4.54,2.06,2.06,0,0,1,.46,1.37V73a4.24,4.24,0,0,1-.11,1,4.6,4.6,0,0,1-.28.77,2.88,2.88,0,0,1-.36.62l-.38.52a3.5,3.5,0,0,0-.48.75,1.75,1.75,0,0,0-.13.68,1.23,1.23,0,0,0,.68,1.14,4.19,4.19,0,0,0,2,.37h1.62v1.54H38.43a4.18,4.18,0,0,0-2,.38A1.23,1.23,0,0,0,35.76,82a1.67,1.67,0,0,0,.13.67,3.52,3.52,0,0,0,.48.76c.12.16.25.33.38.52a3.06,3.06,0,0,1,.36.61,4.94,4.94,0,0,1,.28.77,4.39,4.39,0,0,1,.11,1v1.32A2,2,0,0,1,37,89a1.7,1.7,0,0,1-1.4.55H32.08V88H35.9V86.44a3,3,0,0,0-.24-1.35,7.14,7.14,0,0,0-.57-.94,11.35,11.35,0,0,1-.64-1,2.28,2.28,0,0,1-.31-1.22,2,2,0,0,1,.6-1.5,2.93,2.93,0,0,1,1.67-.72v-.09a2.93,2.93,0,0,1-1.67-.73,2,2,0,0,1-.6-1.49,2.28,2.28,0,0,1,.31-1.22c.2-.35.41-.68.64-1,.11-.14.21-.29.31-.43a3.21,3.21,0,0,0,.25-.49,3.76,3.76,0,0,0,.18-.59,3.55,3.55,0,0,0,.07-.77V71.3H32.08V69.79Z"/></g></g></svg>