<svg xmlns="http://www.w3.org/2000/svg" viewBox="0 0 996 567"><defs><style>.cls-1{opacity:0.9;}.cls-2{fill:#1b1464;}.cls-3{fill:#f15a24;}.cls-4{fill:#0b094f;stroke:#f15a24;stroke-miterlimit:10;}</style></defs><g id="Ebene_2" data-name="Ebene 2"><g id="Ebene_1-2" data-name="Ebene 1"><g class="cls-1"><rect class="cls-2" x="0.5" y="0.5" width="995" height="566"/><path class="cls-3" d="M995,1V566H1V1H995m1-1H0V567H996V0Z"/></g><rect class="cls-4" x="831.5" y="43" width="103" height="481"/><path class="cls-3" d="M852.8,286.94v-8.37h5.56v1.62h-3.73v1.7h3.18v1.62h-3.18v3.43Z"/><path class="cls-3" d="M861.49,286.94a1.78,1.78,0,0,1-1.34-.44,1.8,1.8,0,0,1-.42-1.28v-7.16h1.77v7.5h.79v1.38Z"/><path class="cls-3" d="M866,287.09a3.21,3.21,0,0,1-1.28-.24,2.5,2.5,0,0,1-1-.66,2.9,2.9,0,0,1-.59-1,4.54,4.54,0,0,1-.19-1.37,4.36,4.36,0,0,1,.19-1.35,2.91,2.91,0,0,1,.57-1,2.53,2.53,0,0,1,.93-.67,3.33,3.33,0,0,1,1.26-.23,3.23,3.23,0,0,1,1.34.26,2.69,2.69,0,0,1,.91.71,2.84,2.84,0,0,1,.51,1,4.44,4.44,0,0,1,.17,1.22v.52H864.8v.1a1.23,1.23,0,0,0,1.39,1.34,1.62,1.62,0,0,0,.9-.22,3,3,0,0,0,.65-.53l.89,1.11a2.77,2.77,0,0,1-1.1.77A3.92,3.92,0,0,1,866,287.09Zm0-5.28a1.06,1.06,0,0,0-.84.35,1.37,1.37,0,0,0-.31.94v.1H867v-.11a1.57,1.57,0,0,0-.26-.93A.94.94,0,0,0,866,281.81Z"/><path class="cls-3" d="M869.3,286.94l2.08-3.2-2-3.1h2l1.18,2h.05l1.14-2h1.87l-2.09,3.16,2.1,3.14h-2l-1.21-2.05h-.05l-1.16,2.05Z"/><path class="cls-3" d="M880.35,280a1.07,1.07,0,0,1-.78-.24.85.85,0,0,1-.25-.63v-.27a.85.85,0,0,1,.25-.63,1.07,1.07,0,0,1,.78-.24,1.1,1.1,0,0,1,.79.24.89.89,0,0,1,.25.63v.27a.89.89,0,0,1-.25.63A1.1,1.1,0,0,1,880.35,280Zm-.88.67h1.77v6.3h-1.77Z"/><path class="cls-3" d="M885.11,286.94a1.91,1.91,0,0,1-1.4-.46,1.84,1.84,0,0,1-.48-1.37V282h-.88v-1.38h.44a.57.57,0,0,0,.49-.17.8.8,0,0,0,.13-.5v-1H885v1.7h1.25V282H885v3.54h1.15v1.38Z"/><path class="cls-3" d="M890.07,287.09a3.25,3.25,0,0,1-1.28-.24,2.47,2.47,0,0,1-.95-.66,2.75,2.75,0,0,1-.59-1,4.53,4.53,0,0,1-.2-1.37,4.36,4.36,0,0,1,.19-1.35,2.91,2.91,0,0,1,.57-1,2.53,2.53,0,0,1,.93-.67,3.33,3.33,0,0,1,1.26-.23,3.2,3.2,0,0,1,1.34.26,2.6,2.6,0,0,1,.91.71,2.86,2.86,0,0,1,.52,1,4.44,4.44,0,0,1,.16,1.22v.52h-4v.1a1.21,1.21,0,0,0,1.39,1.34,1.62,1.62,0,0,0,.9-.22,3.22,3.22,0,0,0,.65-.53l.88,1.11a2.73,2.73,0,0,1-1.09.77A4,4,0,0,1,890.07,287.09Zm0-5.28a1.09,1.09,0,0,0-.85.35,1.41,1.41,0,0,0-.3.94v.1h2.2v-.11a1.57,1.57,0,0,0-.25-.93A1,1,0,0,0,890,281.81Z"/><path class="cls-3" d="M894.19,286.94v-6.3H896v1.07H896a2,2,0,0,1,.57-.86,1.71,1.71,0,0,1,1.12-.35,1.88,1.88,0,0,1,1.1.32,1.79,1.79,0,0,1,.66.95h0a1.84,1.84,0,0,1,.26-.5,1.78,1.78,0,0,1,.42-.4,2.5,2.5,0,0,1,.57-.27,2.09,2.09,0,0,1,.67-.1,1.66,1.66,0,0,1,1.4.65,3.07,3.07,0,0,1,.48,1.85v3.94h-1.77v-3.8q0-1.2-.87-1.2a1.26,1.26,0,0,0-.72.23.79.79,0,0,0-.32.69v4.08h-1.78v-3.8c0-.8-.28-1.2-.86-1.2a1.65,1.65,0,0,0-.38.05,1.06,1.06,0,0,0-.33.18,1,1,0,0,0-.24.29.87.87,0,0,0-.09.4v4.08Z"/><path class="cls-3" d="M908.05,286.94v-1.45h2.26v-5.61h-.11l-1.71,2.23-1.15-.9,2-2.64h2.76v6.92h1.77v1.45Z"/><rect class="cls-4" x="581.83" y="43" width="103" height="481"/><path class="cls-3" d="M603.14,286.94v-8.37h5.55v1.62H605v1.7h3.18v1.62H605v3.43Z"/><path class="cls-3" d="M611.82,286.94a1.54,1.54,0,0,1-1.76-1.72v-7.16h1.78v7.5h.79v1.38Z"/><path class="cls-3" d="M616.32,287.09a3.25,3.25,0,0,1-1.28-.24,2.47,2.47,0,0,1-.95-.66,2.75,2.75,0,0,1-.59-1,4.53,4.53,0,0,1-.2-1.37,4.36,4.36,0,0,1,.19-1.35,2.91,2.91,0,0,1,.57-1,2.53,2.53,0,0,1,.93-.67,3.33,3.33,0,0,1,1.26-.23,3.2,3.2,0,0,1,1.34.26,2.6,2.6,0,0,1,.91.71,2.86,2.86,0,0,1,.52,1,4.44,4.44,0,0,1,.16,1.22v.52h-4v.1a1.21,1.21,0,0,0,1.39,1.34,1.62,1.62,0,0,0,.9-.22,3.22,3.22,0,0,0,.65-.53L619,286a2.73,2.73,0,0,1-1.09.77A4,4,0,0,1,616.32,287.09Zm0-5.28a1.09,1.09,0,0,0-.85.35,1.41,1.41,0,0,0-.3.94v.1h2.2v-.11a1.57,1.57,0,0,0-.25-.93A1,1,0,0,0,616.29,281.81Z"/><path class="cls-3" d="M619.64,286.94l2.07-3.2-2.05-3.1h2l1.17,2h0l1.14-2h1.87l-2.09,3.16,2.1,3.14h-2l-1.21-2.05h-.05l-1.17,2.05Z"/><path class="cls-3" d="M630.69,280a1.11,1.11,0,0,1-.79-.24.88.88,0,0,1-.24-.63v-.27a.88.88,0,0,1,.24-.63,1.11,1.11,0,0,1,.79-.24,1.07,1.07,0,0,1,.78.24.85.85,0,0,1,.25.63v.27a.85.85,0,0,1-.25.63A1.07,1.07,0,0,1,630.69,280Zm-.89.67h1.78v6.3H629.8Z"/><path class="cls-3" d="M635.44,286.94a1.92,1.92,0,0,1-1.4-.46,1.88,1.88,0,0,1-.47-1.37V282h-.89v-1.38h.44a.59.59,0,0,0,.5-.17.88.88,0,0,0,.13-.5v-1h1.59v1.7h1.25V282h-1.25v3.54h1.16v1.38Z"/><path class="cls-3" d="M640.41,287.09a3.3,3.3,0,0,1-1.29-.24,2.54,2.54,0,0,1-1-.66,2.75,2.75,0,0,1-.59-1,4.53,4.53,0,0,1-.2-1.37,4.35,4.35,0,0,1,.2-1.35,2.63,2.63,0,0,1,.57-1,2.53,2.53,0,0,1,.93-.67,3.26,3.26,0,0,1,1.26-.23,3.15,3.15,0,0,1,1.33.26,2.64,2.64,0,0,1,.92.71,3,3,0,0,1,.51,1,4.44,4.44,0,0,1,.16,1.22v.52h-4v.1a1.23,1.23,0,0,0,1.39,1.34,1.62,1.62,0,0,0,.9-.22,3.22,3.22,0,0,0,.65-.53l.89,1.11a2.77,2.77,0,0,1-1.1.77A4,4,0,0,1,640.41,287.09Zm0-5.28a1.06,1.06,0,0,0-.84.35,1.37,1.37,0,0,0-.31.94v.1h2.21v-.11a1.57,1.57,0,0,0-.26-.93A.94.94,0,0,0,640.37,281.81Z"/><path class="cls-3" d="M644.52,286.94v-6.3h1.78v1.07h.07a2,2,0,0,1,.58-.86,1.66,1.66,0,0,1,1.11-.35,1.73,1.73,0,0,1,1.77,1.27h0a2.17,2.17,0,0,1,.26-.5,1.83,1.83,0,0,1,.43-.4,2.42,2.42,0,0,1,.56-.27,2.09,2.09,0,0,1,.67-.1,1.64,1.64,0,0,1,1.4.65,3,3,0,0,1,.49,1.85v3.94h-1.78v-3.8c0-.8-.29-1.2-.86-1.2a1.21,1.21,0,0,0-.72.23.78.78,0,0,0-.33.69v4.08h-1.77v-3.8q0-1.2-.87-1.2a1.57,1.57,0,0,0-.37.05,1,1,0,0,0-.34.18,1,1,0,0,0-.24.29.87.87,0,0,0-.09.4v4.08Z"/><path class="cls-3" d="M663.87,286.94h-5.93V285.3l2.58-2.21c.23-.2.43-.38.59-.54a3.75,3.75,0,0,0,.39-.48,1.62,1.62,0,0,0,.21-.47,1.53,1.53,0,0,0,.07-.49v-.17a.82.82,0,0,0-.1-.42.91.91,0,0,0-.25-.3,1.06,1.06,0,0,0-.35-.18,1.39,1.39,0,0,0-.4-.06,1.43,1.43,0,0,0-.53.1,1.22,1.22,0,0,0-.38.26,1.41,1.41,0,0,0-.27.37,2.2,2.2,0,0,0-.17.45l-1.57-.6a3.66,3.66,0,0,1,.4-.82,2.57,2.57,0,0,1,.63-.69,3,3,0,0,1,.89-.46,3.77,3.77,0,0,1,1.16-.17,3.55,3.55,0,0,1,1.22.2,2.61,2.61,0,0,1,.89.52,2.36,2.36,0,0,1,.56.8,2.54,2.54,0,0,1,.19,1,2.64,2.64,0,0,1-.18,1,3.36,3.36,0,0,1-.49.83,4.93,4.93,0,0,1-.71.74l-.85.71-1.56,1.22h4Z"/><rect class="cls-4" x="332.17" y="43" width="103" height="481"/><path class="cls-3" d="M353.47,286.94v-8.37H359v1.62h-3.74v1.7h3.18v1.62h-3.18v3.43Z"/><path class="cls-3" d="M362.16,286.94a1.54,1.54,0,0,1-1.77-1.72v-7.16h1.78v7.5H363v1.38Z"/><path class="cls-3" d="M366.66,287.09a3.3,3.3,0,0,1-1.29-.24,2.54,2.54,0,0,1-.95-.66,2.75,2.75,0,0,1-.59-1,4.53,4.53,0,0,1-.2-1.37,4.68,4.68,0,0,1,.19-1.35,2.91,2.91,0,0,1,.57-1,2.7,2.7,0,0,1,.93-.67,3.33,3.33,0,0,1,1.26-.23,3.2,3.2,0,0,1,1.34.26,2.6,2.6,0,0,1,.91.71,2.86,2.86,0,0,1,.52,1,4.44,4.44,0,0,1,.16,1.22v.52h-4v.1a1.21,1.21,0,0,0,1.39,1.34,1.62,1.62,0,0,0,.9-.22,3.22,3.22,0,0,0,.65-.53l.89,1.11a2.77,2.77,0,0,1-1.1.77A4,4,0,0,1,366.66,287.09Zm0-5.28a1.09,1.09,0,0,0-.85.35,1.41,1.41,0,0,0-.3.94v.1h2.21v-.11a1.57,1.57,0,0,0-.26-.93A.94.94,0,0,0,366.62,281.81Z"/><path class="cls-3" d="M370,286.94l2.07-3.2-2.05-3.1h2l1.17,2h.05l1.14-2h1.87l-2.08,3.16,2.1,3.14h-2L373,284.89h0l-1.16,2.05Z"/><path class="cls-3" d="M381,280a1.11,1.11,0,0,1-.79-.24.88.88,0,0,1-.24-.63v-.27a.88.88,0,0,1,.24-.63,1.42,1.42,0,0,1,1.58,0,.88.88,0,0,1,.24.63v.27a.88.88,0,0,1-.24.63A1.11,1.11,0,0,1,381,280Zm-.89.67h1.78v6.3h-1.78Z"/><path class="cls-3" d="M385.77,286.94a1.94,1.94,0,0,1-1.4-.46,1.88,1.88,0,0,1-.47-1.37V282H383v-1.38h.45a.57.57,0,0,0,.49-.17.8.8,0,0,0,.13-.5v-1h1.6v1.7h1.24V282h-1.24v3.54h1.15v1.38Z"/><path class="cls-3" d="M390.74,287.09a3.21,3.21,0,0,1-1.28-.24,2.5,2.5,0,0,1-1-.66,2.9,2.9,0,0,1-.59-1,4.54,4.54,0,0,1-.19-1.37,4.36,4.36,0,0,1,.19-1.35,2.91,2.91,0,0,1,.57-1,2.53,2.53,0,0,1,.93-.67,3.33,3.33,0,0,1,1.26-.23,3.23,3.23,0,0,1,1.34.26,2.69,2.69,0,0,1,.91.71,2.84,2.84,0,0,1,.51,1,4.44,4.44,0,0,1,.17,1.22v.52h-4.05v.1a1.23,1.23,0,0,0,1.39,1.34,1.62,1.62,0,0,0,.9-.22,3,3,0,0,0,.65-.53l.89,1.11a2.77,2.77,0,0,1-1.1.77A3.92,3.92,0,0,1,390.74,287.09Zm0-5.28a1.06,1.06,0,0,0-.84.35,1.37,1.37,0,0,0-.31.94v.1h2.21v-.11a1.57,1.57,0,0,0-.26-.93A.94.94,0,0,0,390.7,281.81Z"/><path class="cls-3" d="M394.86,286.94v-6.3h1.77v1.07h.07a2.09,2.09,0,0,1,.58-.86,1.67,1.67,0,0,1,1.12-.35,1.88,1.88,0,0,1,1.1.32,1.9,1.9,0,0,1,.66.95h0a1.8,1.8,0,0,1,.25-.5,1.83,1.83,0,0,1,.43-.4,2.63,2.63,0,0,1,.56-.27,2.15,2.15,0,0,1,.68-.1,1.64,1.64,0,0,1,1.39.65A3,3,0,0,1,404,283v3.94h-1.78v-3.8c0-.8-.28-1.2-.86-1.2a1.26,1.26,0,0,0-.72.23.77.77,0,0,0-.32.69v4.08h-1.78v-3.8c0-.8-.29-1.2-.86-1.2a1.58,1.58,0,0,0-.38.05,1,1,0,0,0-.34.18,1,1,0,0,0-.24.29.87.87,0,0,0-.09.4v4.08Z"/><path class="cls-3" d="M410.73,281.88a1.51,1.51,0,0,0,1-.26A.81.81,0,0,0,412,281v-.08a1,1,0,0,0-.3-.74,1.17,1.17,0,0,0-.83-.27,1.79,1.79,0,0,0-.95.26,2.2,2.2,0,0,0-.76.73l-1.12-1.05a4.7,4.7,0,0,1,.51-.57,3.25,3.25,0,0,1,.63-.45,3,3,0,0,1,.78-.28,4,4,0,0,1,1-.11,4.62,4.62,0,0,1,1.22.16,2.69,2.69,0,0,1,.93.45,2.1,2.1,0,0,1,.6.7,2,2,0,0,1,.21.91,2,2,0,0,1-.12.72,1.82,1.82,0,0,1-.35.57,1.92,1.92,0,0,1-.51.39,2.21,2.21,0,0,1-.61.21v.07a3.29,3.29,0,0,1,.69.23,2.06,2.06,0,0,1,.55.42,1.77,1.77,0,0,1,.36.59,2.13,2.13,0,0,1,.14.78,2.2,2.2,0,0,1-.88,1.8,3.07,3.07,0,0,1-1,.49,4.37,4.37,0,0,1-1.29.18,4.74,4.74,0,0,1-1.13-.13,3.23,3.23,0,0,1-.86-.36,3.26,3.26,0,0,1-.64-.51,4,4,0,0,1-.47-.61l1.33-1a2.85,2.85,0,0,0,.68.84,1.67,1.67,0,0,0,1.09.33,1.41,1.41,0,0,0,.95-.3,1.06,1.06,0,0,0,.34-.84v-.07a.86.86,0,0,0-.39-.77,2,2,0,0,0-1.07-.26H410v-1.5Z"/><rect class="cls-4" x="82.5" y="43" width="103" height="481"/><path class="cls-3" d="M103.8,286.94v-8.37h5.56v1.62h-3.73v1.7h3.18v1.62h-3.18v3.43Z"/><path class="cls-3" d="M112.49,286.94a1.78,1.78,0,0,1-1.34-.44,1.8,1.8,0,0,1-.42-1.28v-7.16h1.77v7.5h.79v1.38Z"/><path class="cls-3" d="M117,287.09a3.21,3.21,0,0,1-1.28-.24,2.5,2.5,0,0,1-1-.66,2.9,2.9,0,0,1-.59-1,4.54,4.54,0,0,1-.19-1.37,4.36,4.36,0,0,1,.19-1.35,2.91,2.91,0,0,1,.57-1,2.53,2.53,0,0,1,.93-.67,3.33,3.33,0,0,1,1.26-.23,3.23,3.23,0,0,1,1.34.26,2.69,2.69,0,0,1,.91.71,2.84,2.84,0,0,1,.51,1,4.44,4.44,0,0,1,.17,1.22v.52h-4v.1a1.23,1.23,0,0,0,1.39,1.34,1.62,1.62,0,0,0,.9-.22,3,3,0,0,0,.65-.53l.89,1.11a2.77,2.77,0,0,1-1.1.77A3.92,3.92,0,0,1,117,287.09Zm0-5.28a1.06,1.06,0,0,0-.84.35,1.37,1.37,0,0,0-.31.94v.1H118v-.11a1.57,1.57,0,0,0-.26-.93A.94.94,0,0,0,117,281.81Z"/><path class="cls-3" d="M120.3,286.94l2.08-3.2-2-3.1h2l1.18,2h0l1.14-2h1.87l-2.09,3.16,2.1,3.14h-2l-1.21-2.05h0l-1.16,2.05Z"/><path class="cls-3" d="M131.35,280a1.07,1.07,0,0,1-.78-.24.85.85,0,0,1-.25-.63v-.27a.85.85,0,0,1,.25-.63,1.07,1.07,0,0,1,.78-.24,1.1,1.1,0,0,1,.79.24.89.89,0,0,1,.25.63v.27a.89.89,0,0,1-.25.63A1.1,1.1,0,0,1,131.35,280Zm-.88.67h1.77v6.3h-1.77Z"/><path class="cls-3" d="M136.11,286.94a1.91,1.91,0,0,1-1.4-.46,1.84,1.84,0,0,1-.48-1.37V282h-.88v-1.38h.44a.57.57,0,0,0,.49-.17.8.8,0,0,0,.13-.5v-1H136v1.7h1.25V282H136v3.54h1.15v1.38Z"/><path class="cls-3" d="M141.07,287.09a3.25,3.25,0,0,1-1.28-.24,2.47,2.47,0,0,1-.95-.66,2.75,2.75,0,0,1-.59-1,4.53,4.53,0,0,1-.2-1.37,4.36,4.36,0,0,1,.19-1.35,2.91,2.91,0,0,1,.57-1,2.53,2.53,0,0,1,.93-.67,3.33,3.33,0,0,1,1.26-.23,3.2,3.2,0,0,1,1.34.26,2.6,2.6,0,0,1,.91.71,2.86,2.86,0,0,1,.52,1,4.44,4.44,0,0,1,.16,1.22v.52h-4v.1a1.21,1.21,0,0,0,1.39,1.34,1.62,1.62,0,0,0,.9-.22,3.22,3.22,0,0,0,.65-.53l.88,1.11a2.73,2.73,0,0,1-1.09.77A4,4,0,0,1,141.07,287.09Zm0-5.28a1.09,1.09,0,0,0-.85.35,1.41,1.41,0,0,0-.3.94v.1h2.2v-.11a1.57,1.57,0,0,0-.25-.93A1,1,0,0,0,141,281.81Z"/><path class="cls-3" d="M145.19,286.94v-6.3H147v1.07H147a2,2,0,0,1,.57-.86,1.71,1.71,0,0,1,1.12-.35,1.88,1.88,0,0,1,1.1.32,1.79,1.79,0,0,1,.66.95h0a1.84,1.84,0,0,1,.26-.5,1.78,1.78,0,0,1,.42-.4,2.5,2.5,0,0,1,.57-.27,2.09,2.09,0,0,1,.67-.1,1.66,1.66,0,0,1,1.4.65,3.07,3.07,0,0,1,.48,1.85v3.94h-1.77v-3.8q0-1.2-.87-1.2a1.26,1.26,0,0,0-.72.23.79.79,0,0,0-.32.69v4.08h-1.78v-3.8c0-.8-.28-1.2-.86-1.2a1.65,1.65,0,0,0-.38.05,1.06,1.06,0,0,0-.33.18,1,1,0,0,0-.24.29.87.87,0,0,0-.09.4v4.08Z"/><path class="cls-3" d="M162,286.94v-1.6h-3.69v-1.55l3.27-5.22h2.13v5.36h1.06v1.41h-1.06v1.6Zm-2.25-3H162v-3.5h-.12Z"/></g></g></svg>