<svg xmlns="http://www.w3.org/2000/svg" viewBox="0 0 227.39 19.76"><defs><style>.cls-1{fill:#f15a24;}</style></defs><g id="Ebene_2" data-name="Ebene 2"><g id="Ebene_1-2" data-name="Ebene 1"><path class="cls-1" d="M0,11V9L8.69,3.61V5.68L1.74,9.9v.18l7,4.24v2.09Z"/><path class="cls-1" d="M12.67.44h1.88V7.26h.08a4.45,4.45,0,0,1,.42-.81,2.69,2.69,0,0,1,1.44-1.17,3.27,3.27,0,0,1,1.13-.18,3.28,3.28,0,0,1,2.6,1.13,4.65,4.65,0,0,1,1,3.19v7.3H19.32V9.77c0-1.95-.77-2.93-2.32-2.93a3.37,3.37,0,0,0-.9.12,2.2,2.2,0,0,0-.78.39,2,2,0,0,0-.55.66,1.82,1.82,0,0,0-.22.92v7.79H12.67Z"/><path class="cls-1" d="M24.68,16.72v-1.8h4v-12h-.14L25.12,6.62,24,5.37l3.66-4h3V14.92h3.58v1.8Z"/><path class="cls-1" d="M36.79,14.34l7-4.22V9.94l-7-4.24V3.61L45.48,9v2l-8.69,5.39Z"/><path class="cls-1" d="M68,9.86H62.82v6.86h-2V1.36h2V8.05H68V1.36h2V16.72H68Z"/><path class="cls-1" d="M77.72,17a5.2,5.2,0,0,1-2.09-.41,4.36,4.36,0,0,1-1.56-1.19,5.32,5.32,0,0,1-1-1.86,8.1,8.1,0,0,1-.35-2.45A8,8,0,0,1,73.1,8.6a5.52,5.52,0,0,1,1-1.88,4.26,4.26,0,0,1,1.53-1.2,4.5,4.5,0,0,1,2-.42,4.55,4.55,0,0,1,1.94.41A4.18,4.18,0,0,1,81,6.67a5.37,5.37,0,0,1,1,1.77,7.27,7.27,0,0,1,.34,2.25v.86h-7.6V12a3.42,3.42,0,0,0,.8,2.33,2.88,2.88,0,0,0,2.25.91,3.18,3.18,0,0,0,1.78-.5,3.32,3.32,0,0,0,1.17-1.36L82,14.47a4.17,4.17,0,0,1-1.58,1.81A4.79,4.79,0,0,1,77.72,17ZM77.6,6.73A2.8,2.8,0,0,0,76.42,7a3.06,3.06,0,0,0-.92.68,2.87,2.87,0,0,0-.6,1,3.85,3.85,0,0,0-.21,1.3v.17h5.63V9.9a3.4,3.4,0,0,0-.74-2.3A2.49,2.49,0,0,0,77.6,6.73Z"/><path class="cls-1" d="M93.54,16.72a1.66,1.66,0,0,1-1.36-.52,2.51,2.51,0,0,1-.54-1.35h-.1a3.2,3.2,0,0,1-1.11,1.56,3.34,3.34,0,0,1-2,.57,3.58,3.58,0,0,1-2.58-.91,3.32,3.32,0,0,1-1-2.52,3,3,0,0,1,1.09-2.48,5.59,5.59,0,0,1,3.44-.86H91.5v-1a2.5,2.5,0,0,0-.6-1.82,2.41,2.41,0,0,0-1.76-.6,3,3,0,0,0-1.69.43A3.07,3.07,0,0,0,86.39,8.4l-1.19-1a3.37,3.37,0,0,1,.56-.85,3.88,3.88,0,0,1,.87-.72,4.45,4.45,0,0,1,1.17-.51,5.7,5.7,0,0,1,1.48-.19,4.27,4.27,0,0,1,3,1A3.75,3.75,0,0,1,93.38,9v6h1.4v1.69Zm-4.71-1.34a3,3,0,0,0,1.92-.57,1.73,1.73,0,0,0,.75-1.43V11.62H89.4a3.63,3.63,0,0,0-2,.42,1.34,1.34,0,0,0-.64,1.21v.46A1.47,1.47,0,0,0,87.34,15,2.38,2.38,0,0,0,88.83,15.38Z"/><path class="cls-1" d="M104.18,14.83h-.11a3.65,3.65,0,0,1-1.25,1.6,3.29,3.29,0,0,1-1.94.55,3.42,3.42,0,0,1-3-1.54A7.58,7.58,0,0,1,96.84,11a7.63,7.63,0,0,1,1.08-4.4,3.44,3.44,0,0,1,3-1.54,3.36,3.36,0,0,1,1.94.55,3.74,3.74,0,0,1,1.25,1.61h.11V.44h1.87V16.72h-1.87Zm-2.53.42a3,3,0,0,0,1-.15,2.58,2.58,0,0,0,.81-.41A2,2,0,0,0,104,14a2.13,2.13,0,0,0,.21-1v-4a2.05,2.05,0,0,0-.76-1.64,2.26,2.26,0,0,0-.81-.43,3,3,0,0,0-1-.15,2.54,2.54,0,0,0-2.07.89,3.58,3.58,0,0,0-.74,2.37V12a3.58,3.58,0,0,0,.74,2.37A2.54,2.54,0,0,0,101.65,15.25Z"/><path class="cls-1" d="M109.41,15H113V2.13h-3.54V.44h5.42V15h3.55v1.69h-9Z"/><path class="cls-1" d="M122.06,15h3.66v-8h-3.66V5.37h5.54V15H131v1.69h-9Zm4.61-12a1.37,1.37,0,0,1-1.07-.34,1.24,1.24,0,0,1-.3-.85V1.45a1.31,1.31,0,0,1,.3-.86,1.81,1.81,0,0,1,2.14,0,1.26,1.26,0,0,1,.31.86v.42a1.2,1.2,0,0,1-.31.85A1.37,1.37,0,0,1,126.67,3.06Z"/><path class="cls-1" d="M134,16.72V5.37h1.88V7.26h.08a4.4,4.4,0,0,1,.41-.81,2.93,2.93,0,0,1,.61-.7,3.1,3.1,0,0,1,.84-.47,3.23,3.23,0,0,1,1.13-.18,3.29,3.29,0,0,1,2.6,1.13,4.7,4.7,0,0,1,1,3.19v7.3H140.6V9.77c0-1.95-.78-2.93-2.33-2.93a3.37,3.37,0,0,0-.9.12,2.08,2.08,0,0,0-.77.39A2,2,0,0,0,136,8a1.92,1.92,0,0,0-.21.92v7.79Z"/><path class="cls-1" d="M150.48,17a5.15,5.15,0,0,1-2.08-.41,4.4,4.4,0,0,1-1.57-1.19,5.49,5.49,0,0,1-1-1.86,8.11,8.11,0,0,1-.34-2.45,8.28,8.28,0,0,1,.35-2.47,5.89,5.89,0,0,1,1-1.88,4.44,4.44,0,0,1,1.53-1.2,4.79,4.79,0,0,1,3.9,0,4.21,4.21,0,0,1,1.49,1.16,5.56,5.56,0,0,1,.95,1.77,7.28,7.28,0,0,1,.33,2.25v.86h-7.6V12a3.37,3.37,0,0,0,.81,2.33,2.86,2.86,0,0,0,2.24.91,3.15,3.15,0,0,0,1.78-.5,3.25,3.25,0,0,0,1.17-1.36l1.28,1.08a4.26,4.26,0,0,1-1.59,1.81A4.77,4.77,0,0,1,150.48,17Zm-.12-10.25a2.78,2.78,0,0,0-1.17.24,2.94,2.94,0,0,0-.92.68,2.89,2.89,0,0,0-.61,1,3.85,3.85,0,0,0-.21,1.3v.17h5.64V9.9a3.41,3.41,0,0,0-.75-2.3A2.49,2.49,0,0,0,150.36,6.73Z"/><path class="cls-1" d="M170.19,11V9l8.69-5.39V5.68L171.93,9.9v.18l6.95,4.24v2.09Z"/><path class="cls-1" d="M182.36,19.76,189.29,0H191L184,19.76Z"/><path class="cls-1" d="M194.58.44h1.88V7.26h.09a3.86,3.86,0,0,1,.41-.81,2.93,2.93,0,0,1,.61-.7,2.83,2.83,0,0,1,.84-.47,3.56,3.56,0,0,1,3.72,1,4.65,4.65,0,0,1,1,3.19v7.3h-1.88V9.77c0-1.95-.78-2.93-2.33-2.93A3.37,3.37,0,0,0,198,7a2.2,2.2,0,0,0-.78.39,2,2,0,0,0-.55.66,1.92,1.92,0,0,0-.22.92v7.79h-1.88Z"/><path class="cls-1" d="M206.59,16.72v-1.8h4v-12h-.14L207,6.62l-1.18-1.25,3.66-4h3V14.92h3.58v1.8Z"/><path class="cls-1" d="M218.7,14.34l7-4.22V9.94l-7-4.24V3.61L227.39,9v2l-8.69,5.39Z"/></g></g></svg>