<svg xmlns="http://www.w3.org/2000/svg" viewBox="0 0 1514.51 121.98"><defs><style>.cls-1{fill:none;stroke:#fff;stroke-width:4px;}.cls-1,.cls-6{stroke-miterlimit:10;}.cls-2{fill:#696969;}.cls-3{fill:#fff;}.cls-4{fill:#000234;}.cls-5{fill:#6f7072;}.cls-6{fill:#f15a24;stroke:#000234;stroke-width:6px;}.cls-7{opacity:0.9;}.cls-8{opacity:0.8;}.cls-9{fill:#fcfcfc;}.cls-10{fill:#ff4901;}</style></defs><g id="Ebene_2" data-name="Ebene 2"><g id="Ebene_1-2" data-name="Ebene 1"><line class="cls-1" y1="71.08" x2="1514.51" y2="71.08"/><path class="cls-2" d="M118.11,85.11a13.38,13.38,0,1,0-13.37-13.38,13.38,13.38,0,0,0,13.37,13.38"/><circle class="cls-3" cx="118.11" cy="71.73" r="10.38"/><path class="cls-4" d="M118.11,64.36a7.38,7.38,0,1,1-7.37,7.37,7.38,7.38,0,0,1,7.37-7.37m0-6a13.38,13.38,0,1,0,13.38,13.37,13.37,13.37,0,0,0-13.38-13.37Z"/><path class="cls-5" d="M405.32,85.11A13.38,13.38,0,1,0,392,71.73a13.38,13.38,0,0,0,13.37,13.38"/><circle class="cls-3" cx="405.32" cy="71.73" r="10.38"/><path class="cls-4" d="M405.32,64.36A7.38,7.38,0,1,1,398,71.73a7.38,7.38,0,0,1,7.37-7.37m0-6A13.38,13.38,0,1,0,418.7,71.73a13.36,13.36,0,0,0-13.38-13.37Z"/><path class="cls-5" d="M677.92,85.11a13.38,13.38,0,1,0-13.38-13.38,13.37,13.37,0,0,0,13.38,13.38"/><circle class="cls-3" cx="677.92" cy="71.73" r="10.38"/><path class="cls-4" d="M677.92,64.36a7.38,7.38,0,1,1-7.38,7.37,7.37,7.37,0,0,1,7.38-7.37m0-6a13.38,13.38,0,1,0,13.37,13.37,13.37,13.37,0,0,0-13.37-13.37Z"/><path d="M963,85.11a13.38,13.38,0,1,0-13.37-13.38A13.38,13.38,0,0,0,963,85.11"/><circle class="cls-3" cx="963.03" cy="71.73" r="10.38"/><path class="cls-4" d="M963,64.36a7.38,7.38,0,1,1-7.37,7.37A7.38,7.38,0,0,1,963,64.36m0-6a13.38,13.38,0,1,0,13.38,13.37A13.37,13.37,0,0,0,963,58.36Z"/><path class="cls-6" d="M1256.34,85.11A13.38,13.38,0,1,0,1243,71.73a13.38,13.38,0,0,0,13.37,13.38"/><g class="cls-7"><path class="cls-4" d="M1256.34,62.36a9.38,9.38,0,1,1-9.37,9.37,9.38,9.38,0,0,1,9.37-9.37m0-4a13.38,13.38,0,1,0,13.38,13.37,13.37,13.37,0,0,0-13.38-13.37Z"/></g><path class="cls-6" d="M1457.34,85.11A13.38,13.38,0,1,0,1444,71.73a13.38,13.38,0,0,0,13.37,13.38"/><g class="cls-7"><path class="cls-4" d="M1457.34,62.36a9.38,9.38,0,1,1-9.37,9.37,9.38,9.38,0,0,1,9.37-9.37m0-4a13.38,13.38,0,1,0,13.38,13.37,13.37,13.37,0,0,0-13.38-13.37Z"/></g><g class="cls-8"><path class="cls-9" d="M51.44.84h4.68a6.13,6.13,0,0,1,2.36.44,4.71,4.71,0,0,1,1.81,1.31,5.88,5.88,0,0,1,1.15,2.18,10.35,10.35,0,0,1,.4,3.05,10.35,10.35,0,0,1-.4,3,5.88,5.88,0,0,1-1.15,2.18,4.71,4.71,0,0,1-1.81,1.31,6.13,6.13,0,0,1-2.36.44H51.44Zm4.68,12.48A4.32,4.32,0,0,0,57.71,13a3.4,3.4,0,0,0,1.23-.85,3.8,3.8,0,0,0,.81-1.37A5.32,5.32,0,0,0,60,9V6.68a5.32,5.32,0,0,0-.29-1.85,3.8,3.8,0,0,0-.81-1.37,3.4,3.4,0,0,0-1.23-.85,4.32,4.32,0,0,0-1.59-.29h-3v11Z"/><path class="cls-9" d="M68.52,15a4.72,4.72,0,0,1-1.91-.38,4.21,4.21,0,0,1-1.46-1.09,5.08,5.08,0,0,1-.94-1.7,7,7,0,0,1-.33-2.23,7.09,7.09,0,0,1,.33-2.22,5,5,0,0,1,.94-1.71,4.21,4.21,0,0,1,1.46-1.09,4.72,4.72,0,0,1,1.91-.38,4.38,4.38,0,0,1,1.86.38,4,4,0,0,1,1.4,1,4.45,4.45,0,0,1,.89,1.58,6.14,6.14,0,0,1,.31,2V10H65.56v.48a3.53,3.53,0,0,0,.21,1.23,2.92,2.92,0,0,0,.6,1,2.74,2.74,0,0,0,1,.66,3.3,3.3,0,0,0,1.29.24,3.08,3.08,0,0,0,1.71-.46,3,3,0,0,0,1.13-1.32l1.14.83A4,4,0,0,1,71,14.39,4.72,4.72,0,0,1,68.52,15Zm0-9.46a3.09,3.09,0,0,0-1.2.23,2.76,2.76,0,0,0-.93.64,3.11,3.11,0,0,0-.61,1,3.55,3.55,0,0,0-.22,1.24v.14h5.7V8.6a3.13,3.13,0,0,0-.75-2.19A2.53,2.53,0,0,0,68.52,5.58Z"/><path class="cls-9" d="M78.66,15a4.8,4.8,0,0,1-2.41-.55A5.7,5.7,0,0,1,74.58,13l1.14-.92a4.43,4.43,0,0,0,1.34,1.17,3.56,3.56,0,0,0,1.72.41,2.57,2.57,0,0,0,1.59-.44A1.6,1.6,0,0,0,80.55,11a2.38,2.38,0,0,0-1.41-.59l-.82-.12A7.1,7.1,0,0,1,77,10a3.75,3.75,0,0,1-1-.56,2.39,2.39,0,0,1-.7-.87A3,3,0,0,1,75,7.28,3.07,3.07,0,0,1,75.28,6a2.76,2.76,0,0,1,.77-1,3.55,3.55,0,0,1,1.17-.57,5.31,5.31,0,0,1,1.46-.19,4.29,4.29,0,0,1,3.6,1.66l-1.06,1a3.11,3.11,0,0,0-1-.87,3.21,3.21,0,0,0-1.66-.39A2.29,2.29,0,0,0,77.05,6a1.46,1.46,0,0,0-.51,1.17,1.22,1.22,0,0,0,.51,1.1,3.81,3.81,0,0,0,1.47.5l.8.12a4.24,4.24,0,0,1,2.44,1,2.6,2.6,0,0,1,.72,1.91,2.92,2.92,0,0,1-1,2.36A4.22,4.22,0,0,1,78.66,15Z"/><path class="cls-9" d="M86,2.06a1,1,0,0,1-.75-.25.94.94,0,0,1-.23-.65V.9a.94.94,0,0,1,.23-.65A1,1,0,0,1,86,0a1,1,0,0,1,.75.25A.89.89,0,0,1,87,.9v.26a.89.89,0,0,1-.23.65A1,1,0,0,1,86,2.06Zm-.8,2.42h1.6V14.8h-1.6Z"/><path class="cls-9" d="M98.88,16a2.52,2.52,0,0,1-1.25,2.34,7.42,7.42,0,0,1-3.75.75,6.89,6.89,0,0,1-3.48-.66,2.1,2.1,0,0,1-1.06-1.88,1.87,1.87,0,0,1,.44-1.31A2.72,2.72,0,0,1,91,14.5v-.21a1.5,1.5,0,0,1-.92-1.44,1.43,1.43,0,0,1,.5-1.18,3.18,3.18,0,0,1,1.28-.61V11a3.38,3.38,0,0,1-1.43-1.26,3.57,3.57,0,0,1-.51-1.91,3.77,3.77,0,0,1,.28-1.44A3.29,3.29,0,0,1,91,5.23a3.64,3.64,0,0,1,1.22-.73,4.73,4.73,0,0,1,1.59-.26,4.52,4.52,0,0,1,2,.4V4.46a1.74,1.74,0,0,1,.28-1,1,1,0,0,1,.92-.4h1.54V4.48h-2v.66a3.25,3.25,0,0,1,.87,1.15,3.75,3.75,0,0,1,0,3,3.25,3.25,0,0,1-.79,1.14,3.59,3.59,0,0,1-1.23.73,4.75,4.75,0,0,1-1.6.26,4.92,4.92,0,0,1-1-.1,3.31,3.31,0,0,0-.94.41.85.85,0,0,0-.42.75.61.61,0,0,0,.44.62,3.36,3.36,0,0,0,1.14.16h2.2A4.3,4.3,0,0,1,98,14,2.46,2.46,0,0,1,98.88,16Zm-1.5.11a1.19,1.19,0,0,0-.47-1,2.76,2.76,0,0,0-1.67-.37H91.8a1.46,1.46,0,0,0-1,1.4,1.54,1.54,0,0,0,.51,1.16,2.5,2.5,0,0,0,1.73.48h1.48a4.23,4.23,0,0,0,2.08-.42A1.35,1.35,0,0,0,97.38,16.06Zm-3.58-6a2.47,2.47,0,0,0,1.62-.49A1.86,1.86,0,0,0,96,8.09V7.53A1.86,1.86,0,0,0,95.42,6a2.92,2.92,0,0,0-3.24,0,1.86,1.86,0,0,0-.6,1.52v.56a1.86,1.86,0,0,0,.6,1.52A2.47,2.47,0,0,0,93.8,10.1Z"/><path class="cls-9" d="M100.68,14.8V4.48h1.6V6.14h.08a3.49,3.49,0,0,1,1.07-1.39,3.05,3.05,0,0,1,1.85-.51,3.22,3.22,0,0,1,2.53,1,4.2,4.2,0,0,1,.93,2.91V14.8h-1.6V8.45q0-2.79-2.34-2.79a3.59,3.59,0,0,0-.93.12,2.7,2.7,0,0,0-.81.36,1.7,1.7,0,0,0-.78,1.48V14.8Z"/><path class="cls-9" d="M116.8,14.8V.84h8.32V2.32h-6.64V7h6.06V8.48h-6.06V14.8Z"/><path class="cls-9" d="M135.26,14.8a1.57,1.57,0,0,1-1.29-.48,2.41,2.41,0,0,1-.49-1.2h-.1a2.64,2.64,0,0,1-1.12,1.44,3.48,3.48,0,0,1-1.86.48,3.63,3.63,0,0,1-2.55-.84,3,3,0,0,1-.91-2.28A2.62,2.62,0,0,1,128,9.68a5.72,5.72,0,0,1,3.33-.78h2v-1a2.24,2.24,0,0,0-.6-1.68,2.54,2.54,0,0,0-1.84-.58,2.79,2.79,0,0,0-1.57.42,3.43,3.43,0,0,0-1.05,1.12l-1-.9a3.65,3.65,0,0,1,1.34-1.43,5,5,0,0,1,5.24.33,3.2,3.2,0,0,1,1,2.55v5.67h1.18V14.8Zm-4.6-1.12a4.19,4.19,0,0,0,1.1-.14,2.63,2.63,0,0,0,.86-.4,1.87,1.87,0,0,0,.56-.6,1.37,1.37,0,0,0,.2-.74V10.1h-2.12a3.84,3.84,0,0,0-2,.4,1.29,1.29,0,0,0-.63,1.16v.42a1.41,1.41,0,0,0,.55,1.18A2.42,2.42,0,0,0,130.66,13.68Z"/><path class="cls-9" d="M142.22,15a4.83,4.83,0,0,1-1.94-.38,4,4,0,0,1-1.45-1.08,4.92,4.92,0,0,1-.9-1.7,7.77,7.77,0,0,1-.31-2.24,7.77,7.77,0,0,1,.31-2.24,4.92,4.92,0,0,1,.9-1.7,4,4,0,0,1,1.45-1.08,4.83,4.83,0,0,1,1.94-.38,4.11,4.11,0,0,1,2.47.67,4.06,4.06,0,0,1,1.39,1.75l-1.34.68a2.38,2.38,0,0,0-.92-1.24,2.77,2.77,0,0,0-1.6-.44,3.26,3.26,0,0,0-1.26.23,2.46,2.46,0,0,0-.9.64,2.67,2.67,0,0,0-.54,1,4.15,4.15,0,0,0-.18,1.25v1.76a3.38,3.38,0,0,0,.73,2.23,2.66,2.66,0,0,0,2.15.87,2.89,2.89,0,0,0,2.8-1.8l1.16.78a4.06,4.06,0,0,1-1.49,1.78A4.35,4.35,0,0,1,142.22,15Z"/><path class="cls-9" d="M150.66,14.8a1.65,1.65,0,0,1-1.27-.47A1.77,1.77,0,0,1,149,13.1V5.9h-1.7V4.48h1a.93.93,0,0,0,.71-.21,1.07,1.07,0,0,0,.19-.73V1.62h1.44V4.48h2.26V5.9h-2.26v7.48h2.1V14.8Z"/><path class="cls-9" d="M159.24,15a4.74,4.74,0,0,1-1.9-.38,4.15,4.15,0,0,1-1.47-1.09,5.28,5.28,0,0,1-1-1.7,7,7,0,0,1-.34-2.23,7.08,7.08,0,0,1,.34-2.22,5.23,5.23,0,0,1,1-1.71,4.15,4.15,0,0,1,1.47-1.09,4.74,4.74,0,0,1,1.9-.38,4.59,4.59,0,0,1,1.89.38,4.15,4.15,0,0,1,1.47,1.09,4.75,4.75,0,0,1,1,1.71,6.8,6.8,0,0,1,.34,2.22,6.74,6.74,0,0,1-.34,2.23,4.8,4.8,0,0,1-1,1.7,4.15,4.15,0,0,1-1.47,1.09A4.59,4.59,0,0,1,159.24,15Zm0-1.42a2.91,2.91,0,0,0,2.12-.8,3.26,3.26,0,0,0,.82-2.44V8.9a3.26,3.26,0,0,0-.82-2.44,2.91,2.91,0,0,0-2.12-.8,2.94,2.94,0,0,0-2.12.8,3.3,3.3,0,0,0-.82,2.44v1.48a3.3,3.3,0,0,0,.82,2.44A2.94,2.94,0,0,0,159.24,13.62Z"/><path class="cls-9" d="M166.48,14.8V4.48h1.6v1.9h.1a3.18,3.18,0,0,1,1-1.32,3.05,3.05,0,0,1,2-.58h.62v1.6h-.94a3.61,3.61,0,0,0-2,.49,1.47,1.47,0,0,0-.73,1.23v7Z"/><path class="cls-9" d="M180.12,4.48h1.58L177.08,17.2a5.66,5.66,0,0,1-.36.77,1.4,1.4,0,0,1-.44.49,1.67,1.67,0,0,1-.65.26,5,5,0,0,1-.95.08h-.82V17.38h1.62l.78-2.2L172.4,4.48H174l2.48,7,.48,1.67h.1l.56-1.67Z"/><path class="cls-9" d="M61,38.8V37.4h2V26.24H61v-1.4h5.6v1.4h-2V37.4h2v1.4Z"/><path class="cls-9" d="M69.42,38.8V28.48H71v1.66h.08a3.49,3.49,0,0,1,1.07-1.39A3.05,3.05,0,0,1,74,28.24a3.22,3.22,0,0,1,2.53,1,4.2,4.2,0,0,1,.93,2.91V38.8h-1.6V32.45q0-2.79-2.34-2.79a3.59,3.59,0,0,0-.93.12,2.7,2.7,0,0,0-.81.36A1.7,1.7,0,0,0,71,31.62V38.8Z"/><path class="cls-9" d="M83,38.8a1.65,1.65,0,0,1-1.27-.47,1.77,1.77,0,0,1-.43-1.23V29.9H79.6V28.48h1a.93.93,0,0,0,.71-.21,1.07,1.07,0,0,0,.19-.73V25.62H82.9v2.86h2.26V29.9H82.9v7.48H85V38.8Z"/><path class="cls-9" d="M91.56,39a4.72,4.72,0,0,1-1.91-.38,4.21,4.21,0,0,1-1.46-1.09,5.08,5.08,0,0,1-.94-1.7,7.67,7.67,0,0,1,0-4.45,5,5,0,0,1,.94-1.71,4.21,4.21,0,0,1,1.46-1.09,4.72,4.72,0,0,1,1.91-.38,4.38,4.38,0,0,1,1.86.38,4,4,0,0,1,1.4,1.05,4.45,4.45,0,0,1,.89,1.58,6.14,6.14,0,0,1,.31,2V34H88.6v.48a3.53,3.53,0,0,0,.21,1.23,2.92,2.92,0,0,0,.6,1,2.74,2.74,0,0,0,1,.66,3.3,3.3,0,0,0,1.29.24,3.08,3.08,0,0,0,1.71-.46,3,3,0,0,0,1.13-1.32l1.14.83a4,4,0,0,1-1.56,1.72A4.72,4.72,0,0,1,91.56,39Zm0-9.46a3.09,3.09,0,0,0-1.2.23,2.76,2.76,0,0,0-.93.64,3.11,3.11,0,0,0-.61,1,3.55,3.55,0,0,0-.22,1.24v.14h5.7V32.6a3.13,3.13,0,0,0-.75-2.19A2.53,2.53,0,0,0,91.56,29.58Z"/><path class="cls-9" d="M98.6,38.8V28.48h1.6v1.9h.1a3.18,3.18,0,0,1,1-1.32,3.05,3.05,0,0,1,2-.58h.62v1.6H103a3.61,3.61,0,0,0-2,.49,1.47,1.47,0,0,0-.73,1.23v7Z"/><path class="cls-9" d="M105.88,38.8V28.48h1.6v1.66h.08a3.49,3.49,0,0,1,1.07-1.39,3.05,3.05,0,0,1,1.85-.51,3.22,3.22,0,0,1,2.53,1,4.2,4.2,0,0,1,.93,2.91V38.8h-1.6V32.45q0-2.79-2.34-2.79a3.59,3.59,0,0,0-.93.12,2.7,2.7,0,0,0-.81.36,1.7,1.7,0,0,0-.78,1.48V38.8Z"/><path class="cls-9" d="M124.68,38.8a1.57,1.57,0,0,1-1.29-.48,2.41,2.41,0,0,1-.49-1.2h-.1a2.64,2.64,0,0,1-1.12,1.44,3.48,3.48,0,0,1-1.86.48,3.63,3.63,0,0,1-2.55-.84,3,3,0,0,1-.91-2.28,2.62,2.62,0,0,1,1.07-2.24,5.72,5.72,0,0,1,3.33-.78h2v-1a2.24,2.24,0,0,0-.6-1.68,2.54,2.54,0,0,0-1.84-.58,2.79,2.79,0,0,0-1.57.42,3.43,3.43,0,0,0-1.05,1.12l-1-.9a3.65,3.65,0,0,1,1.34-1.43,5,5,0,0,1,5.24.33,3.2,3.2,0,0,1,1,2.55v5.67h1.18V38.8Zm-4.6-1.12a4.19,4.19,0,0,0,1.1-.14,2.63,2.63,0,0,0,.86-.4,1.87,1.87,0,0,0,.56-.6,1.37,1.37,0,0,0,.2-.74V34.1h-2.12a3.84,3.84,0,0,0-2,.4,1.29,1.29,0,0,0-.63,1.16v.42a1.41,1.41,0,0,0,.55,1.18A2.42,2.42,0,0,0,120.08,37.68Z"/><path class="cls-9" d="M130.08,38.8a1.65,1.65,0,0,1-1.27-.47,1.77,1.77,0,0,1-.43-1.23V29.9h-1.7V28.48h1a.93.93,0,0,0,.71-.21,1.07,1.07,0,0,0,.19-.73V25.62H130v2.86h2.26V29.9H130v7.48h2.1V38.8Z"/><path class="cls-9" d="M135.56,26.06a1,1,0,0,1-.75-.25.94.94,0,0,1-.23-.65V24.9a.94.94,0,0,1,.23-.65,1,1,0,0,1,.75-.25,1,1,0,0,1,.75.25.89.89,0,0,1,.23.65v.26a.89.89,0,0,1-.23.65A1,1,0,0,1,135.56,26.06Zm-.8,2.42h1.6V38.8h-1.6Z"/><path class="cls-9" d="M143.6,39a4.74,4.74,0,0,1-1.9-.38,4.15,4.15,0,0,1-1.47-1.09,5.28,5.28,0,0,1-.95-1.7,7,7,0,0,1-.34-2.23,7.08,7.08,0,0,1,.34-2.22,5.23,5.23,0,0,1,.95-1.71,4.15,4.15,0,0,1,1.47-1.09,4.74,4.74,0,0,1,1.9-.38,4.59,4.59,0,0,1,1.89.38A4.15,4.15,0,0,1,147,29.71a4.75,4.75,0,0,1,1,1.71,7.45,7.45,0,0,1,0,4.45,4.8,4.8,0,0,1-1,1.7,4.15,4.15,0,0,1-1.47,1.09A4.59,4.59,0,0,1,143.6,39Zm0-1.42a2.91,2.91,0,0,0,2.12-.8,3.26,3.26,0,0,0,.82-2.44V32.9a3.26,3.26,0,0,0-.82-2.44,2.91,2.91,0,0,0-2.12-.8,2.94,2.94,0,0,0-2.12.8,3.3,3.3,0,0,0-.82,2.44v1.48a3.3,3.3,0,0,0,.82,2.44A2.94,2.94,0,0,0,143.6,37.62Z"/><path class="cls-9" d="M150.84,38.8V28.48h1.6v1.66h.08a3.49,3.49,0,0,1,1.07-1.39,3.05,3.05,0,0,1,1.85-.51,3.22,3.22,0,0,1,2.53,1,4.2,4.2,0,0,1,.93,2.91V38.8h-1.6V32.45q0-2.79-2.34-2.79a3.59,3.59,0,0,0-.93.12,2.7,2.7,0,0,0-.81.36,1.7,1.7,0,0,0-.78,1.48V38.8Z"/><path class="cls-9" d="M169.64,38.8a1.57,1.57,0,0,1-1.29-.48,2.41,2.41,0,0,1-.49-1.2h-.1a2.64,2.64,0,0,1-1.12,1.44,3.48,3.48,0,0,1-1.86.48,3.63,3.63,0,0,1-2.55-.84,3,3,0,0,1-.91-2.28,2.62,2.62,0,0,1,1.07-2.24,5.72,5.72,0,0,1,3.33-.78h2v-1a2.24,2.24,0,0,0-.6-1.68,2.54,2.54,0,0,0-1.84-.58,2.79,2.79,0,0,0-1.57.42,3.43,3.43,0,0,0-1.05,1.12l-1-.9a3.65,3.65,0,0,1,1.34-1.43,5,5,0,0,1,5.24.33,3.2,3.2,0,0,1,1,2.55v5.67h1.18V38.8ZM165,37.68a4.19,4.19,0,0,0,1.1-.14,2.63,2.63,0,0,0,.86-.4,1.87,1.87,0,0,0,.56-.6,1.37,1.37,0,0,0,.2-.74V34.1h-2.12a3.84,3.84,0,0,0-2,.4,1.29,1.29,0,0,0-.63,1.16v.42a1.41,1.41,0,0,0,.55,1.18A2.42,2.42,0,0,0,165,37.68Z"/><path class="cls-9" d="M174.46,38.8a1.65,1.65,0,0,1-1.27-.47,1.72,1.72,0,0,1-.43-1.19V24h1.6V37.38h1.52V38.8Z"/></g><g class="cls-8"><path class="cls-9" d="M338.79,31.8v-14h8.32v1.48h-6.64V24h6.06v1.48h-6.06V31.8Z"/><path class="cls-9" d="M357.05,31.8a1.57,1.57,0,0,1-1.29-.48,2.41,2.41,0,0,1-.49-1.2h-.1a2.64,2.64,0,0,1-1.12,1.44,3.48,3.48,0,0,1-1.86.48,3.63,3.63,0,0,1-2.55-.84,3,3,0,0,1-.91-2.28,2.62,2.62,0,0,1,1.07-2.24,5.7,5.7,0,0,1,3.33-.78h2v-1a2.24,2.24,0,0,0-.6-1.68,2.54,2.54,0,0,0-1.84-.58,2.79,2.79,0,0,0-1.57.42,3.43,3.43,0,0,0-1.05,1.12l-1-.9a3.65,3.65,0,0,1,1.34-1.43,5,5,0,0,1,5.24.33,3.2,3.2,0,0,1,1,2.55v5.67H358V31.8Zm-4.6-1.12a4.19,4.19,0,0,0,1.1-.14,2.63,2.63,0,0,0,.86-.4,1.87,1.87,0,0,0,.56-.6,1.37,1.37,0,0,0,.2-.74V27.1h-2.12a3.84,3.84,0,0,0-2,.4,1.29,1.29,0,0,0-.63,1.16v.42a1.41,1.41,0,0,0,.55,1.18A2.42,2.42,0,0,0,352.45,30.68Z"/><path class="cls-9" d="M363.81,32a4.83,4.83,0,0,1-1.94-.38,4,4,0,0,1-1.45-1.08,4.92,4.92,0,0,1-.9-1.7,8.25,8.25,0,0,1,0-4.48,4.92,4.92,0,0,1,.9-1.7,4,4,0,0,1,1.45-1.08,4.83,4.83,0,0,1,1.94-.38,4.11,4.11,0,0,1,2.47.67,4.06,4.06,0,0,1,1.39,1.75l-1.34.68a2.38,2.38,0,0,0-.92-1.24,2.77,2.77,0,0,0-1.6-.44,3.26,3.26,0,0,0-1.26.23,2.46,2.46,0,0,0-.9.64,2.67,2.67,0,0,0-.54,1,4.15,4.15,0,0,0-.18,1.25v1.76a3.38,3.38,0,0,0,.73,2.23,2.66,2.66,0,0,0,2.15.87,2.89,2.89,0,0,0,2.8-1.8l1.16.78a4.06,4.06,0,0,1-1.49,1.78A4.35,4.35,0,0,1,363.81,32Z"/><path class="cls-9" d="M372.05,31.8a1.65,1.65,0,0,1-1.27-.47,1.77,1.77,0,0,1-.43-1.23V22.9h-1.7V21.48h1a.93.93,0,0,0,.71-.21,1.07,1.07,0,0,0,.19-.73V18.62H372v2.86h2.26V22.9H372v7.48h2.1V31.8Z"/><path class="cls-9" d="M380.43,32a4.74,4.74,0,0,1-1.9-.38,4.15,4.15,0,0,1-1.47-1.09,5.28,5.28,0,0,1-.95-1.7,7.45,7.45,0,0,1,0-4.45,5.23,5.23,0,0,1,.95-1.71,4.15,4.15,0,0,1,1.47-1.09,4.74,4.74,0,0,1,1.9-.38,4.62,4.62,0,0,1,1.89.38,4.15,4.15,0,0,1,1.47,1.09,4.75,4.75,0,0,1,1,1.71,7.45,7.45,0,0,1,0,4.45,4.8,4.8,0,0,1-1,1.7,4.15,4.15,0,0,1-1.47,1.09A4.62,4.62,0,0,1,380.43,32Zm0-1.42a2.91,2.91,0,0,0,2.12-.8,3.26,3.26,0,0,0,.82-2.44V25.9a3.26,3.26,0,0,0-.82-2.44,3.21,3.21,0,0,0-4.24,0,3.3,3.3,0,0,0-.82,2.44v1.48a3.3,3.3,0,0,0,.82,2.44A2.92,2.92,0,0,0,380.43,30.62Z"/><path class="cls-9" d="M387.47,31.8V21.48h1.6v1.9h.1a3.18,3.18,0,0,1,1-1.32,3.05,3.05,0,0,1,2-.58h.62v1.6h-.94a3.59,3.59,0,0,0-2,.49,1.45,1.45,0,0,0-.73,1.23v7Z"/><path class="cls-9" d="M395.35,19.06a1,1,0,0,1-.75-.25.94.94,0,0,1-.23-.65V17.9a.94.94,0,0,1,.23-.65,1,1,0,0,1,.75-.25,1,1,0,0,1,.75.25.89.89,0,0,1,.23.65v.26a.89.89,0,0,1-.23.65A1,1,0,0,1,395.35,19.06Zm-.8,2.42h1.6V31.8h-1.6Z"/><path class="cls-9" d="M406.79,31.8a1.57,1.57,0,0,1-1.29-.48,2.41,2.41,0,0,1-.49-1.2h-.1a2.64,2.64,0,0,1-1.12,1.44,3.48,3.48,0,0,1-1.86.48,3.63,3.63,0,0,1-2.55-.84,3,3,0,0,1-.91-2.28,2.62,2.62,0,0,1,1.07-2.24,5.7,5.7,0,0,1,3.33-.78h2v-1a2.24,2.24,0,0,0-.6-1.68,2.54,2.54,0,0,0-1.84-.58,2.76,2.76,0,0,0-1.57.42,3.43,3.43,0,0,0-1,1.12l-1-.9a3.65,3.65,0,0,1,1.34-1.43,5,5,0,0,1,5.24.33,3.2,3.2,0,0,1,1,2.55v5.67h1.18V31.8Zm-4.6-1.12a4.19,4.19,0,0,0,1.1-.14,2.73,2.73,0,0,0,.86-.4,1.87,1.87,0,0,0,.56-.6,1.47,1.47,0,0,0,.2-.74V27.1h-2.12a3.84,3.84,0,0,0-2,.4,1.29,1.29,0,0,0-.63,1.16v.42a1.39,1.39,0,0,0,.55,1.18A2.4,2.4,0,0,0,402.19,30.68Z"/><path class="cls-9" d="M411.41,31.8a1.65,1.65,0,0,1-1.27-.47,1.72,1.72,0,0,1-.43-1.19V17h1.6V30.38h1.52V31.8Z"/><path class="cls-9" d="M428.55,29.78h-.06a2.76,2.76,0,0,1-1.27,1.62,4.76,4.76,0,0,1-2.61.64,5.84,5.84,0,0,1-2.35-.47,4.93,4.93,0,0,1-1.83-1.38,6.64,6.64,0,0,1-1.19-2.26,10.48,10.48,0,0,1-.43-3.11,10.4,10.4,0,0,1,.42-3.09,6.33,6.33,0,0,1,1.2-2.26,5.16,5.16,0,0,1,1.88-1.39,6,6,0,0,1,2.44-.48,5.62,5.62,0,0,1,3.14.83,5.47,5.47,0,0,1,1.94,2.21l-1.38.84a3.83,3.83,0,0,0-3.7-2.4,4.2,4.2,0,0,0-1.68.33,3.82,3.82,0,0,0-1.31.93,4.27,4.27,0,0,0-.85,1.45,5.59,5.59,0,0,0-.3,1.89v2.26a5.69,5.69,0,0,0,.3,1.9,4.22,4.22,0,0,0,.85,1.46,3.79,3.79,0,0,0,1.35.93,4.66,4.66,0,0,0,1.8.33,4.73,4.73,0,0,0,1.37-.19,3.59,3.59,0,0,0,1.14-.57,2.77,2.77,0,0,0,.77-1,3,3,0,0,0,.28-1.35V26.1h-3.08V24.62h4.72V31.8h-1.56Z"/><path class="cls-9" d="M433,31.8V21.48h1.6v1.66h.08a5.86,5.86,0,0,1,.41-.74,2.44,2.44,0,0,1,1.33-1,3.22,3.22,0,0,1,1-.15,3.69,3.69,0,0,1,1.88.49,2.92,2.92,0,0,1,1.28,1.59h0a3.08,3.08,0,0,1,3.14-2.08,3.08,3.08,0,0,1,2.47,1,4.34,4.34,0,0,1,.89,2.91V31.8h-1.6V25.45a3.39,3.39,0,0,0-.54-2.09,2,2,0,0,0-1.72-.7,3.39,3.39,0,0,0-.91.12,2.48,2.48,0,0,0-.77.36,1.67,1.67,0,0,0-.54.61,1.86,1.86,0,0,0-.2.87V31.8h-1.6V25.45a3.39,3.39,0,0,0-.54-2.09,2,2,0,0,0-1.68-.7,3.46,3.46,0,0,0-.92.12,2.53,2.53,0,0,0-.78.36,1.79,1.79,0,0,0-.55.61,1.75,1.75,0,0,0-.21.87V31.8Z"/><path class="cls-9" d="M450.19,17h1.6v6.14h.08A2.91,2.91,0,0,1,453,21.71a3.51,3.51,0,0,1,1.85-.47,4,4,0,0,1,1.74.38A3.74,3.74,0,0,1,458,22.7a4.83,4.83,0,0,1,.84,1.7,8.8,8.8,0,0,1,0,4.48,4.83,4.83,0,0,1-.84,1.7,3.74,3.74,0,0,1-1.33,1.08,4,4,0,0,1-1.74.38,3.12,3.12,0,0,1-3-1.9h-.08V31.8h-1.6Zm4.26,13.62a2.78,2.78,0,0,0,2.14-.85,3.21,3.21,0,0,0,.78-2.25V25.76a3.21,3.21,0,0,0-.78-2.25,2.74,2.74,0,0,0-2.14-.85,3.52,3.52,0,0,0-1,.15,2.92,2.92,0,0,0-.85.41,2,2,0,0,0-.57.64,1.56,1.56,0,0,0-.21.79v3.86a1.86,1.86,0,0,0,.21.89,1.94,1.94,0,0,0,.57.67,2.49,2.49,0,0,0,.85.41A3.88,3.88,0,0,0,454.45,30.62Z"/><path class="cls-9" d="M470.43,25.48h-7.06V31.8h-1.68v-14h1.68V24h7.06V17.84h1.68v14h-1.68Z"/></g><g class="cls-8"><path class="cls-9" d="M614.48,17.84h5.74a3.72,3.72,0,0,1,2.73,1,3.52,3.52,0,0,1,1,2.62,3.44,3.44,0,0,1-.22,1.32,2.71,2.71,0,0,1-.56.89,2.27,2.27,0,0,1-.74.52,3.64,3.64,0,0,1-.74.23v.12a2.73,2.73,0,0,1,.85.2,2.8,2.8,0,0,1,.89.57,3.15,3.15,0,0,1,.71,1,3.47,3.47,0,0,1,.29,1.47,4.63,4.63,0,0,1-.27,1.6,4,4,0,0,1-.75,1.28,3.55,3.55,0,0,1-1.14.85,3.3,3.3,0,0,1-1.44.31h-6.34Zm1.68,6H620a2.27,2.27,0,0,0,1.56-.5,1.83,1.83,0,0,0,.56-1.44v-.68a1.83,1.83,0,0,0-.56-1.44,2.27,2.27,0,0,0-1.56-.5h-3.86Zm0,6.44h4.14a2.45,2.45,0,0,0,1.7-.55,2.05,2.05,0,0,0,.62-1.61v-.68a2.05,2.05,0,0,0-.62-1.61,2.45,2.45,0,0,0-1.7-.55h-4.14Z"/><path class="cls-9" d="M631,32a4.68,4.68,0,0,1-1.91-.38,4.12,4.12,0,0,1-1.46-1.09,4.92,4.92,0,0,1-.94-1.7,7.67,7.67,0,0,1,0-4.45,4.87,4.87,0,0,1,.94-1.71,4.12,4.12,0,0,1,1.46-1.09,4.68,4.68,0,0,1,1.91-.38,4.45,4.45,0,0,1,1.86.38,4,4,0,0,1,1.4,1.05,4.6,4.6,0,0,1,.89,1.58,6.14,6.14,0,0,1,.31,2V27H628v.48a3.53,3.53,0,0,0,.21,1.23,2.92,2.92,0,0,0,.6,1,2.74,2.74,0,0,0,1,.66,3.3,3.3,0,0,0,1.29.24,3.13,3.13,0,0,0,1.71-.46,3.05,3.05,0,0,0,1.13-1.32l1.14.83a4,4,0,0,1-1.56,1.72A4.77,4.77,0,0,1,631,32Zm0-9.46a3.09,3.09,0,0,0-1.2.23,2.76,2.76,0,0,0-.93.64,3.11,3.11,0,0,0-.61,1,3.33,3.33,0,0,0-.22,1.24v.14h5.7V25.6a3.13,3.13,0,0,0-.75-2.19A2.53,2.53,0,0,0,631,22.58Z"/><path class="cls-9" d="M637.84,31.8V21.48h1.6v1.66h.08a3.4,3.4,0,0,1,1.07-1.39,3.05,3.05,0,0,1,1.85-.51,3.22,3.22,0,0,1,2.53,1,4.2,4.2,0,0,1,.93,2.91V31.8h-1.6V25.45q0-2.79-2.34-2.79a3.59,3.59,0,0,0-.93.12,2.7,2.7,0,0,0-.81.36,1.7,1.7,0,0,0-.78,1.48V31.8Z"/><path class="cls-9" d="M661.48,30.16c-.15.17-.33.37-.56.59a4.25,4.25,0,0,1-.83.61,5.19,5.19,0,0,1-1.16.48,5.41,5.41,0,0,1-1.51.2,5.22,5.22,0,0,1-1.84-.3,3.85,3.85,0,0,1-1.34-.83,3.54,3.54,0,0,1-.82-1.23,4,4,0,0,1-.28-1.5,3.7,3.7,0,0,1,.24-1.38,3.74,3.74,0,0,1,.65-1.07,4.52,4.52,0,0,1,.92-.83,11.63,11.63,0,0,1,1-.67,7.52,7.52,0,0,1-1.15-1.54,3.55,3.55,0,0,1-.43-1.73,3.41,3.41,0,0,1,.26-1.32,3.18,3.18,0,0,1,.73-1.07,3.29,3.29,0,0,1,1.14-.71A4.16,4.16,0,0,1,658,17.6a4,4,0,0,1,1.36.22,3.24,3.24,0,0,1,1.06.61,2.86,2.86,0,0,1,.94,2.17,3,3,0,0,1-.25,1.25,3.94,3.94,0,0,1-.69,1,6.21,6.21,0,0,1-1,.85c-.39.26-.8.51-1.24.75l3.14,3.36a8.85,8.85,0,0,0,.46-1.61,12.49,12.49,0,0,0,.2-1.75h2.72v1.36H663.3a11.4,11.4,0,0,1-.38,1.65,8.61,8.61,0,0,1-.58,1.42l2.72,2.91H663Zm-3.92.46a3.72,3.72,0,0,0,1.76-.39,3.82,3.82,0,0,0,1.26-1l-3.74-4c-.27.15-.52.3-.77.46a3,3,0,0,0-.65.57,2.58,2.58,0,0,0-.45.75,2.81,2.81,0,0,0-.17,1v.3a2.14,2.14,0,0,0,.75,1.73A3,3,0,0,0,657.56,30.62Zm.4-11.68a1.94,1.94,0,0,0-1.41.54,1.78,1.78,0,0,0-.55,1.34v.24a2.24,2.24,0,0,0,.37,1.2,9,9,0,0,0,1,1.29c.32-.17.63-.35.93-.55a4.64,4.64,0,0,0,.8-.63,3.42,3.42,0,0,0,.57-.71,1.44,1.44,0,0,0,.22-.78v-.24a1.49,1.49,0,0,0-.57-1.26A2.13,2.13,0,0,0,658,18.94Z"/><path class="cls-9" d="M678.22,17.84V28.18a4.3,4.3,0,0,1-.29,1.6,3.37,3.37,0,0,1-.82,1.22,3.7,3.7,0,0,1-1.27.77,4.67,4.67,0,0,1-1.62.27,3.85,3.85,0,0,1-2.61-.86,3.94,3.94,0,0,1-1.27-2.3l1.52-.36a3,3,0,0,0,.76,1.47,2.19,2.19,0,0,0,1.64.57,2.16,2.16,0,0,0,1.68-.66,2.9,2.9,0,0,0,.6-2V19.32h-4.8V17.84Z"/><path class="cls-9" d="M688.92,31.8a1.57,1.57,0,0,1-1.29-.48,2.41,2.41,0,0,1-.49-1.2H687a2.69,2.69,0,0,1-1.12,1.44,3.48,3.48,0,0,1-1.86.48,3.63,3.63,0,0,1-2.55-.84,2.94,2.94,0,0,1-.91-2.28,2.62,2.62,0,0,1,1.07-2.24A5.68,5.68,0,0,1,685,25.9h2v-1a2.24,2.24,0,0,0-.6-1.68,2.54,2.54,0,0,0-1.84-.58A2.76,2.76,0,0,0,683,23a3.43,3.43,0,0,0-1,1.12l-1-.9a3.65,3.65,0,0,1,1.34-1.43,5,5,0,0,1,5.24.33,3.23,3.23,0,0,1,1,2.55v5.67h1.18V31.8Zm-4.6-1.12a4.19,4.19,0,0,0,1.1-.14,2.73,2.73,0,0,0,.86-.4,1.87,1.87,0,0,0,.56-.6,1.47,1.47,0,0,0,.2-.74V27.1h-2.12a3.84,3.84,0,0,0-2,.4,1.29,1.29,0,0,0-.63,1.16v.42a1.39,1.39,0,0,0,.55,1.18A2.4,2.4,0,0,0,684.32,30.68Z"/><path class="cls-9" d="M691.84,31.8V21.48h1.6v1.66h.08a3.4,3.4,0,0,1,1.07-1.39,3.05,3.05,0,0,1,1.85-.51,3.22,3.22,0,0,1,2.53,1,4.2,4.2,0,0,1,.93,2.91V31.8h-1.6V25.45q0-2.79-2.34-2.79a3.59,3.59,0,0,0-.93.12,2.7,2.7,0,0,0-.81.36,1.7,1.7,0,0,0-.78,1.48V31.8Z"/><path class="cls-9" d="M716.6,29.78h-.06a2.76,2.76,0,0,1-1.27,1.62,4.81,4.81,0,0,1-2.61.64,5.8,5.8,0,0,1-2.35-.47,4.85,4.85,0,0,1-1.83-1.38,6.64,6.64,0,0,1-1.19-2.26,10.16,10.16,0,0,1-.43-3.11,10.4,10.4,0,0,1,.42-3.09,6.33,6.33,0,0,1,1.2-2.26,5.07,5.07,0,0,1,1.88-1.39,6,6,0,0,1,2.44-.48,5.62,5.62,0,0,1,3.14.83,5.54,5.54,0,0,1,1.94,2.21l-1.38.84a3.83,3.83,0,0,0-3.7-2.4,4.13,4.13,0,0,0-1.68.33,3.73,3.73,0,0,0-1.31.93,4.27,4.27,0,0,0-.85,1.45,5.59,5.59,0,0,0-.3,1.89v2.26a5.69,5.69,0,0,0,.3,1.9,4.22,4.22,0,0,0,.85,1.46,3.62,3.62,0,0,0,1.35.93,4.66,4.66,0,0,0,1.8.33,4.73,4.73,0,0,0,1.37-.19,3.59,3.59,0,0,0,1.14-.57,2.89,2.89,0,0,0,.77-1,3.13,3.13,0,0,0,.28-1.35V26.1h-3.08V24.62h4.72V31.8H716.6Z"/><path class="cls-9" d="M721,17h1.6v6.14h.08a2.86,2.86,0,0,1,1.17-1.43,3.51,3.51,0,0,1,1.85-.47,4,4,0,0,1,1.74.38,3.74,3.74,0,0,1,1.33,1.08,5,5,0,0,1,.84,1.7,8.8,8.8,0,0,1,0,4.48,5,5,0,0,1-.84,1.7,3.74,3.74,0,0,1-1.33,1.08,4,4,0,0,1-1.74.38,3.12,3.12,0,0,1-3-1.9h-.08V31.8H721Zm4.26,13.62a2.78,2.78,0,0,0,2.14-.85,3.21,3.21,0,0,0,.78-2.25V25.76a3.21,3.21,0,0,0-.78-2.25,2.74,2.74,0,0,0-2.14-.85,3.47,3.47,0,0,0-1,.15,2.92,2.92,0,0,0-.85.41,2,2,0,0,0-.57.64,1.56,1.56,0,0,0-.21.79v3.86a1.86,1.86,0,0,0,.21.89,1.94,1.94,0,0,0,.57.67,2.49,2.49,0,0,0,.85.41A3.82,3.82,0,0,0,725.3,30.62Z"/><path class="cls-9" d="M734.22,31.8h-1.68v-14h5.56a3.92,3.92,0,0,1,2.87,1,4,4,0,0,1,1,2.94,4.25,4.25,0,0,1-.71,2.53,3.41,3.41,0,0,1-2.09,1.31l3.2,6.16h-1.9l-3-6h-3.26Zm3.88-7.44a2.17,2.17,0,0,0,1.55-.52,2,2,0,0,0,.55-1.48v-1a2,2,0,0,0-.55-1.48,2.17,2.17,0,0,0-1.55-.52h-3.88v5Z"/></g><path class="cls-9" d="M873.4,32a6.06,6.06,0,0,1-2.9-.65,6.32,6.32,0,0,1-2-1.79l1.25-1a5.44,5.44,0,0,0,1.64,1.49,4.2,4.2,0,0,0,2.11.51,3.28,3.28,0,0,0,2.29-.72,2.46,2.46,0,0,0,.79-1.92,2,2,0,0,0-.59-1.54,4.58,4.58,0,0,0-2-.86l-1.13-.26a6.65,6.65,0,0,1-2.94-1.33,3.18,3.18,0,0,1-1-2.51,3.91,3.91,0,0,1,.34-1.64,3.4,3.4,0,0,1,.95-1.2,4.45,4.45,0,0,1,1.46-.73,6.56,6.56,0,0,1,1.87-.25,5.8,5.8,0,0,1,2.71.58,5.09,5.09,0,0,1,1.91,1.7l-1.25.92a4.45,4.45,0,0,0-1.41-1.26,4.05,4.05,0,0,0-2-.46,3.5,3.5,0,0,0-2.11.57,2,2,0,0,0-.77,1.71,1.79,1.79,0,0,0,.66,1.51,5,5,0,0,0,2,.81l1.13.26a6,6,0,0,1,3,1.4,3.44,3.44,0,0,1,.92,2.5,4.25,4.25,0,0,1-.34,1.74,3.49,3.49,0,0,1-1,1.32,4.37,4.37,0,0,1-1.5.84A6.35,6.35,0,0,1,873.4,32Z"/><path class="cls-9" d="M880.93,17h1.6v6.14h.08a3.32,3.32,0,0,1,1.07-1.39,3,3,0,0,1,1.85-.51,3.2,3.2,0,0,1,2.52,1,4.16,4.16,0,0,1,.93,2.91V31.8h-1.6V25.45c0-1.86-.77-2.79-2.34-2.79a3.52,3.52,0,0,0-.92.12,2.65,2.65,0,0,0-.82.36,1.75,1.75,0,0,0-.57.61,1.86,1.86,0,0,0-.2.87V31.8h-1.6Z"/><path class="cls-9" d="M896.14,32a4.72,4.72,0,0,1-1.91-.38,4.08,4.08,0,0,1-1.45-1.09,4.93,4.93,0,0,1-.95-1.7,7.31,7.31,0,0,1-.33-2.23,7.39,7.39,0,0,1,.33-2.22,4.89,4.89,0,0,1,.95-1.71,4.08,4.08,0,0,1,1.45-1.09,4.72,4.72,0,0,1,1.91-.38,4.38,4.38,0,0,1,1.86.38,4,4,0,0,1,1.4,1.05,4.45,4.45,0,0,1,.89,1.58,6.14,6.14,0,0,1,.32,2V27h-7.42v.48a3.53,3.53,0,0,0,.2,1.23,2.94,2.94,0,0,0,.61,1,2.57,2.57,0,0,0,1,.66,3.26,3.26,0,0,0,1.29.24,3.13,3.13,0,0,0,1.71-.46,3,3,0,0,0,1.12-1.32l1.14.83a4,4,0,0,1-1.55,1.72A4.78,4.78,0,0,1,896.14,32Zm0-9.46a3,3,0,0,0-1.19.23,2.66,2.66,0,0,0-.93.64,3,3,0,0,0-.62,1,3.55,3.55,0,0,0-.21,1.24v.14h5.69V25.6a3.13,3.13,0,0,0-.75-2.19A2.53,2.53,0,0,0,896.14,22.58Z"/><path class="cls-9" d="M903.22,31.8V21.48h1.6v1.9h.1a3.18,3.18,0,0,1,1-1.32,3.05,3.05,0,0,1,2-.58h.62v1.6h-.94a3.61,3.61,0,0,0-2,.49,1.47,1.47,0,0,0-.73,1.23v7Z"/><path class="cls-9" d="M910.54,21.48h1.6v1.66h.08a2.91,2.91,0,0,1,1.17-1.43,3.53,3.53,0,0,1,1.85-.47,4,4,0,0,1,1.74.38,3.65,3.65,0,0,1,1.33,1.08,4.83,4.83,0,0,1,.84,1.7,8.8,8.8,0,0,1,0,4.48,4.83,4.83,0,0,1-.84,1.7A3.65,3.65,0,0,1,917,31.66a4,4,0,0,1-1.74.38,3.13,3.13,0,0,1-3-1.9h-.08V35.8h-1.6Zm4.26,9.14a2.78,2.78,0,0,0,2.14-.85,3.21,3.21,0,0,0,.78-2.25V25.76a3.21,3.21,0,0,0-.78-2.25,2.74,2.74,0,0,0-2.14-.85,3.52,3.52,0,0,0-1,.15,3.05,3.05,0,0,0-.85.41,2,2,0,0,0-.57.64,1.56,1.56,0,0,0-.21.79v3.86a1.86,1.86,0,0,0,.21.89,1.94,1.94,0,0,0,.57.67,2.58,2.58,0,0,0,.85.41A3.88,3.88,0,0,0,914.8,30.62Z"/><path class="cls-9" d="M929.62,31.8a1.57,1.57,0,0,1-1.29-.48,2.41,2.41,0,0,1-.49-1.2h-.1a2.64,2.64,0,0,1-1.12,1.44,3.48,3.48,0,0,1-1.86.48,3.63,3.63,0,0,1-2.55-.84,3,3,0,0,1-.91-2.28,2.62,2.62,0,0,1,1.07-2.24,5.72,5.72,0,0,1,3.33-.78h2v-1a2.24,2.24,0,0,0-.6-1.68,2.54,2.54,0,0,0-1.84-.58,2.79,2.79,0,0,0-1.57.42,3.43,3.43,0,0,0-1.05,1.12l-1-.9a3.65,3.65,0,0,1,1.34-1.43,5,5,0,0,1,5.24.33,3.2,3.2,0,0,1,1,2.55v5.67h1.18V31.8ZM925,30.68a4.19,4.19,0,0,0,1.1-.14,2.63,2.63,0,0,0,.86-.4,1.87,1.87,0,0,0,.56-.6,1.37,1.37,0,0,0,.2-.74V27.1h-2.12a3.84,3.84,0,0,0-2,.4,1.29,1.29,0,0,0-.63,1.16v.42a1.41,1.41,0,0,0,.55,1.18A2.42,2.42,0,0,0,925,30.68Z"/><path class="cls-9" d="M937.64,17.84h4.68a6.13,6.13,0,0,1,2.36.44,4.71,4.71,0,0,1,1.81,1.31,5.88,5.88,0,0,1,1.15,2.18,10.35,10.35,0,0,1,.4,3.05,10.35,10.35,0,0,1-.4,3.05,5.88,5.88,0,0,1-1.15,2.18,4.71,4.71,0,0,1-1.81,1.31,6.13,6.13,0,0,1-2.36.44h-4.68Zm4.68,12.48A4.23,4.23,0,0,0,943.9,30a3.35,3.35,0,0,0,1.24-.85,3.8,3.8,0,0,0,.81-1.37,5.32,5.32,0,0,0,.29-1.85V23.68a5.32,5.32,0,0,0-.29-1.85,3.8,3.8,0,0,0-.81-1.37,3.35,3.35,0,0,0-1.24-.85,4.23,4.23,0,0,0-1.58-.29h-3v11Z"/><path class="cls-9" d="M954.76,32a4.72,4.72,0,0,1-1.91-.38,4.21,4.21,0,0,1-1.46-1.09,5.08,5.08,0,0,1-.94-1.7,7.67,7.67,0,0,1,0-4.45,5,5,0,0,1,.94-1.71,4.21,4.21,0,0,1,1.46-1.09,4.72,4.72,0,0,1,1.91-.38,4.38,4.38,0,0,1,1.86.38,4,4,0,0,1,1.4,1.05,4.45,4.45,0,0,1,.89,1.58,6.14,6.14,0,0,1,.31,2V27H951.8v.48a3.53,3.53,0,0,0,.21,1.23,2.92,2.92,0,0,0,.6,1,2.74,2.74,0,0,0,1,.66,3.3,3.3,0,0,0,1.29.24,3.08,3.08,0,0,0,1.71-.46,3,3,0,0,0,1.13-1.32l1.14.83a4,4,0,0,1-1.56,1.72A4.72,4.72,0,0,1,954.76,32Zm0-9.46a3.09,3.09,0,0,0-1.2.23,2.76,2.76,0,0,0-.93.64,3.11,3.11,0,0,0-.61,1,3.55,3.55,0,0,0-.22,1.24v.14h5.7V25.6a3.13,3.13,0,0,0-.75-2.19A2.53,2.53,0,0,0,954.76,22.58Z"/><path class="cls-9" d="M964.94,32a4.8,4.8,0,0,1-2.41-.55A5.7,5.7,0,0,1,960.86,30L962,29.1a4.43,4.43,0,0,0,1.34,1.17,3.56,3.56,0,0,0,1.72.41,2.57,2.57,0,0,0,1.59-.44,1.6,1.6,0,0,0,.18-2.27,2.38,2.38,0,0,0-1.41-.59l-.82-.12a7.1,7.1,0,0,1-1.32-.31,3.75,3.75,0,0,1-1-.56,2.39,2.39,0,0,1-.7-.87,3,3,0,0,1-.25-1.24,3.07,3.07,0,0,1,.28-1.33,2.76,2.76,0,0,1,.77-.95,3.55,3.55,0,0,1,1.17-.57,5.31,5.31,0,0,1,1.46-.19,4.29,4.29,0,0,1,3.6,1.66l-1.06,1a3.11,3.11,0,0,0-1-.87,3.21,3.21,0,0,0-1.66-.39,2.29,2.29,0,0,0-1.51.43,1.46,1.46,0,0,0-.51,1.17,1.22,1.22,0,0,0,.51,1.1,3.81,3.81,0,0,0,1.47.5l.8.12a4.24,4.24,0,0,1,2.44,1,2.6,2.6,0,0,1,.72,1.91,2.92,2.92,0,0,1-1,2.36A4.22,4.22,0,0,1,964.94,32Z"/><path class="cls-9" d="M972.36,19.06a1,1,0,0,1-.75-.25.94.94,0,0,1-.23-.65V17.9a.94.94,0,0,1,.23-.65,1,1,0,0,1,.75-.25,1,1,0,0,1,.75.25.89.89,0,0,1,.23.65v.26a.89.89,0,0,1-.23.65A1,1,0,0,1,972.36,19.06Zm-.8,2.42h1.6V31.8h-1.6Z"/><path class="cls-9" d="M985.24,33A2.52,2.52,0,0,1,984,35.29a7.42,7.42,0,0,1-3.75.75,6.89,6.89,0,0,1-3.48-.66,2.1,2.1,0,0,1-1.06-1.88,1.87,1.87,0,0,1,.44-1.31,2.72,2.72,0,0,1,1.2-.69v-.21a1.5,1.5,0,0,1-.92-1.44,1.43,1.43,0,0,1,.5-1.18,3.18,3.18,0,0,1,1.28-.61V28a3.38,3.38,0,0,1-1.43-1.26,3.57,3.57,0,0,1-.51-1.91,3.77,3.77,0,0,1,.28-1.44,3.29,3.29,0,0,1,.79-1.14,3.64,3.64,0,0,1,1.22-.73,4.73,4.73,0,0,1,1.59-.26,4.52,4.52,0,0,1,2,.4v-.18a1.74,1.74,0,0,1,.28-1,1,1,0,0,1,.92-.4h1.54v1.42h-2v.66a3.25,3.25,0,0,1,.87,1.15,3.86,3.86,0,0,1,0,3,3.25,3.25,0,0,1-.79,1.14,3.59,3.59,0,0,1-1.23.73,4.75,4.75,0,0,1-1.6.26,4.92,4.92,0,0,1-1-.1,3.31,3.31,0,0,0-.94.41.85.85,0,0,0-.42.75.61.61,0,0,0,.44.62,3.36,3.36,0,0,0,1.14.16h2.2a4.3,4.3,0,0,1,2.79.73A2.46,2.46,0,0,1,985.24,33Zm-1.5.11a1.19,1.19,0,0,0-.47-1,2.76,2.76,0,0,0-1.67-.37h-3.44a1.46,1.46,0,0,0-1,1.4,1.54,1.54,0,0,0,.51,1.16,2.5,2.5,0,0,0,1.73.48h1.48a4.23,4.23,0,0,0,2.08-.42A1.35,1.35,0,0,0,983.74,33.06Zm-3.58-6a2.47,2.47,0,0,0,1.62-.49,1.86,1.86,0,0,0,.6-1.52v-.56a1.86,1.86,0,0,0-.6-1.52,2.92,2.92,0,0,0-3.24,0,1.86,1.86,0,0,0-.6,1.52v.56a1.86,1.86,0,0,0,.6,1.52A2.47,2.47,0,0,0,980.16,27.1Z"/><path class="cls-9" d="M987.08,31.8V21.48h1.6v1.66h.08a3.49,3.49,0,0,1,1.07-1.39,3.05,3.05,0,0,1,1.85-.51,3.22,3.22,0,0,1,2.53,1,4.2,4.2,0,0,1,.93,2.91V31.8h-1.6V25.45q0-2.79-2.34-2.79a3.59,3.59,0,0,0-.93.12,2.7,2.7,0,0,0-.81.36,1.7,1.7,0,0,0-.78,1.48V31.8Z"/><path class="cls-9" d="M1012.32,29.78h-.06A2.72,2.72,0,0,1,1011,31.4a4.76,4.76,0,0,1-2.61.64,5.87,5.87,0,0,1-2.35-.47,4.93,4.93,0,0,1-1.83-1.38,6.82,6.82,0,0,1-1.19-2.26,10.48,10.48,0,0,1-.43-3.11,10.4,10.4,0,0,1,.42-3.09,6.33,6.33,0,0,1,1.2-2.26,5.16,5.16,0,0,1,1.88-1.39,6.07,6.07,0,0,1,2.44-.48,5.6,5.6,0,0,1,3.14.83,5.47,5.47,0,0,1,1.94,2.21l-1.38.84a3.89,3.89,0,0,0-1.43-1.76,3.93,3.93,0,0,0-2.27-.64,4.2,4.2,0,0,0-1.68.33,3.92,3.92,0,0,0-1.31.93,4.44,4.44,0,0,0-.85,1.45,5.59,5.59,0,0,0-.3,1.89v2.26a5.69,5.69,0,0,0,.3,1.9,4.39,4.39,0,0,0,.85,1.46,3.79,3.79,0,0,0,1.35.93,5.06,5.06,0,0,0,3.17.14,3.39,3.39,0,0,0,1.14-.57,2.66,2.66,0,0,0,.77-1,3,3,0,0,0,.28-1.35V26.1h-3.08V24.62h4.72V31.8h-1.56Z"/><path class="cls-9" d="M1017,31.8V21.48h1.6v1.66h.08a5.86,5.86,0,0,1,.41-.74,2.94,2.94,0,0,1,.56-.61,2.67,2.67,0,0,1,.77-.4,3.26,3.26,0,0,1,1-.15,3.69,3.69,0,0,1,1.88.49,2.88,2.88,0,0,1,1.28,1.59h0a3.08,3.08,0,0,1,3.14-2.08,3.07,3.07,0,0,1,2.47,1,4.29,4.29,0,0,1,.89,2.91V31.8h-1.6V25.45a3.39,3.39,0,0,0-.54-2.09,2,2,0,0,0-1.72-.7,3.39,3.39,0,0,0-.91.12,2.59,2.59,0,0,0-.77.36,1.73,1.73,0,0,0-.74,1.48V31.8h-1.6V25.45a3.39,3.39,0,0,0-.54-2.09,2,2,0,0,0-1.68-.7,3.52,3.52,0,0,0-.92.12,2.53,2.53,0,0,0-.78.36,1.9,1.9,0,0,0-.55.61,1.75,1.75,0,0,0-.21.87V31.8Z"/><path class="cls-9" d="M1034.44,17h1.6v6.14h.08a2.91,2.91,0,0,1,1.17-1.43,3.53,3.53,0,0,1,1.85-.47,4,4,0,0,1,1.74.38,3.65,3.65,0,0,1,1.33,1.08,4.83,4.83,0,0,1,.84,1.7,8.8,8.8,0,0,1,0,4.48,4.83,4.83,0,0,1-.84,1.7,3.65,3.65,0,0,1-1.33,1.08,4,4,0,0,1-1.74.38,3.13,3.13,0,0,1-3-1.9H1036V31.8h-1.6Zm4.26,13.62a2.78,2.78,0,0,0,2.14-.85,3.21,3.21,0,0,0,.78-2.25V25.76a3.21,3.21,0,0,0-.78-2.25,2.74,2.74,0,0,0-2.14-.85,3.52,3.52,0,0,0-1,.15,3.05,3.05,0,0,0-.85.41,2,2,0,0,0-.57.64,1.56,1.56,0,0,0-.21.79v3.86a1.86,1.86,0,0,0,.21.89,1.94,1.94,0,0,0,.57.67,2.58,2.58,0,0,0,.85.41A3.88,3.88,0,0,0,1038.7,30.62Z"/><path class="cls-9" d="M1054.92,25.48h-7.06V31.8h-1.68v-14h1.68V24h7.06V17.84h1.68v14h-1.68Z"/><path class="cls-10" d="M1181,21.48h1.6V33.4a2.66,2.66,0,0,1-.54,1.74,2.07,2.07,0,0,1-1.7.66h-1V34.38H1181Zm.8-2.42a1,1,0,0,1-.75-.25.89.89,0,0,1-.23-.65V17.9a.89.89,0,0,1,.23-.65,1,1,0,0,1,.75-.25,1,1,0,0,1,.75.25.94.94,0,0,1,.23.65v.26a.94.94,0,0,1-.23.65A1,1,0,0,1,1181.79,19.06Z"/><path class="cls-10" d="M1192.37,30.14h-.08a5.38,5.38,0,0,1-.39.7,3,3,0,0,1-.57.62,2.75,2.75,0,0,1-.82.42,3.48,3.48,0,0,1-1.12.16,3.24,3.24,0,0,1-2.54-1,4.16,4.16,0,0,1-.94-2.91V21.48h1.6v6.35c0,1.86.78,2.79,2.36,2.79a3.59,3.59,0,0,0,.93-.12,2.65,2.65,0,0,0,.8-.36,1.92,1.92,0,0,0,.56-.61,1.8,1.8,0,0,0,.21-.89V21.48h1.6V31.8h-1.6Z"/><path class="cls-10" d="M1197.39,31.8V21.48h1.6v1.66h.08a3.4,3.4,0,0,1,1.07-1.39,3,3,0,0,1,1.85-.51,3.24,3.24,0,0,1,2.53,1,4.2,4.2,0,0,1,.93,2.91V31.8h-1.6V25.45q0-2.79-2.34-2.79a3.59,3.59,0,0,0-.93.12,2.7,2.7,0,0,0-.81.36,1.7,1.7,0,0,0-.78,1.48V31.8Z"/><path class="cls-10" d="M1217.47,33a2.54,2.54,0,0,1-1.25,2.34,7.47,7.47,0,0,1-3.75.75,6.84,6.84,0,0,1-3.48-.66,2.08,2.08,0,0,1-1.06-1.88,1.82,1.82,0,0,1,.44-1.31,2.61,2.61,0,0,1,1.2-.69v-.21a1.48,1.48,0,0,1-.92-1.44,1.41,1.41,0,0,1,.5-1.18,3.12,3.12,0,0,1,1.28-.61V28a3.26,3.26,0,0,1-1.43-1.26,3.84,3.84,0,0,1-.23-3.35,3.16,3.16,0,0,1,.79-1.14,3.54,3.54,0,0,1,1.22-.73,4.65,4.65,0,0,1,1.59-.26,4.58,4.58,0,0,1,2,.4v-.18a1.66,1.66,0,0,1,.28-1,1,1,0,0,1,.92-.4h1.54v1.42h-2v.66a3.5,3.5,0,0,1,.87,1.15,3.72,3.72,0,0,1,.31,1.52,3.77,3.77,0,0,1-.28,1.44,3.38,3.38,0,0,1-.79,1.14,3.69,3.69,0,0,1-1.23.73,5.05,5.05,0,0,1-2.6.16,3.19,3.19,0,0,0-.94.41.85.85,0,0,0-.42.75.6.6,0,0,0,.44.62,3.29,3.29,0,0,0,1.14.16h2.2a4.31,4.31,0,0,1,2.79.73A2.46,2.46,0,0,1,1217.47,33Zm-1.5.11a1.21,1.21,0,0,0-.47-1,2.8,2.8,0,0,0-1.67-.37h-3.44a1.46,1.46,0,0,0-1,1.4,1.54,1.54,0,0,0,.51,1.16,2.49,2.49,0,0,0,1.73.48h1.48a4.28,4.28,0,0,0,2.08-.42A1.37,1.37,0,0,0,1216,33.06Zm-3.58-6a2.47,2.47,0,0,0,1.62-.49,1.86,1.86,0,0,0,.6-1.52v-.56A1.86,1.86,0,0,0,1214,23a2.92,2.92,0,0,0-3.24,0,1.86,1.86,0,0,0-.6,1.52v.56a1.86,1.86,0,0,0,.6,1.52A2.47,2.47,0,0,0,1212.39,27.1Z"/><path class="cls-10" d="M1223.23,32a4.65,4.65,0,0,1-1.91-.38,4,4,0,0,1-1.46-1.09,4.92,4.92,0,0,1-.94-1.7,7.67,7.67,0,0,1,0-4.45,4.87,4.87,0,0,1,.94-1.71,4,4,0,0,1,1.46-1.09,4.65,4.65,0,0,1,1.91-.38,4.45,4.45,0,0,1,1.86.38,4.13,4.13,0,0,1,1.4,1.05,4.77,4.77,0,0,1,.89,1.58,6.42,6.42,0,0,1,.31,2V27h-7.42v.48a3.53,3.53,0,0,0,.21,1.23,2.92,2.92,0,0,0,.6,1,2.74,2.74,0,0,0,1,.66,3.3,3.3,0,0,0,1.29.24,3,3,0,0,0,2.84-1.78l1.14.83a4.09,4.09,0,0,1-1.56,1.72A4.77,4.77,0,0,1,1223.23,32Zm0-9.46a3.09,3.09,0,0,0-1.2.23,2.76,2.76,0,0,0-.93.64,2.94,2.94,0,0,0-.61,1,3.33,3.33,0,0,0-.22,1.24v.14h5.7V25.6a3.13,3.13,0,0,0-.75-2.19A2.54,2.54,0,0,0,1223.23,22.58Z"/><path class="cls-10" d="M1235.09,17h1.6v6.14h.08a3.4,3.4,0,0,1,1.07-1.39,3,3,0,0,1,1.85-.51,3.24,3.24,0,0,1,2.53,1,4.2,4.2,0,0,1,.93,2.91V31.8h-1.6V25.45q0-2.79-2.34-2.79a3.59,3.59,0,0,0-.93.12,2.7,2.7,0,0,0-.81.36,1.7,1.7,0,0,0-.78,1.48V31.8h-1.6Z"/><path class="cls-10" d="M1254,31.8a1.57,1.57,0,0,1-1.29-.48,2.32,2.32,0,0,1-.49-1.2h-.1a2.69,2.69,0,0,1-1.12,1.44,3.48,3.48,0,0,1-1.86.48,3.6,3.6,0,0,1-2.55-.84,2.94,2.94,0,0,1-.91-2.28,2.59,2.59,0,0,1,1.07-2.24,5.68,5.68,0,0,1,3.33-.78h2v-1a2.24,2.24,0,0,0-.6-1.68,2.56,2.56,0,0,0-1.84-.58,2.76,2.76,0,0,0-1.57.42,3.43,3.43,0,0,0-1,1.12l-1-.9a3.58,3.58,0,0,1,1.34-1.43,4.23,4.23,0,0,1,2.32-.59,4.29,4.29,0,0,1,2.92.92,3.23,3.23,0,0,1,1,2.55v5.67h1.18V31.8Zm-4.6-1.12a4.25,4.25,0,0,0,1.1-.14,2.73,2.73,0,0,0,.86-.4,2,2,0,0,0,.56-.6,1.47,1.47,0,0,0,.2-.74V27.1H1250a3.84,3.84,0,0,0-2,.4,1.29,1.29,0,0,0-.63,1.16v.42a1.39,1.39,0,0,0,.55,1.18A2.38,2.38,0,0,0,1249.37,30.68Z"/><path class="cls-10" d="M1258,19.06a1,1,0,0,1-.75-.25.89.89,0,0,1-.23-.65V17.9a.89.89,0,0,1,.23-.65A1,1,0,0,1,1258,17a1,1,0,0,1,.75.25.94.94,0,0,1,.23.65v.26a.94.94,0,0,1-.23.65A1,1,0,0,1,1258,19.06Zm-.8,2.42h1.6V31.8h-1.6Z"/><path class="cls-10" d="M1266.07,32a4.65,4.65,0,0,1-1.91-.38,4,4,0,0,1-1.46-1.09,5.1,5.1,0,0,1-1-1.7,7.32,7.32,0,0,1-.32-2.23,7.39,7.39,0,0,1,.32-2.22,5.05,5.05,0,0,1,1-1.71,4,4,0,0,1,1.46-1.09,4.65,4.65,0,0,1,1.91-.38,4.45,4.45,0,0,1,1.86.38,4.13,4.13,0,0,1,1.4,1.05,4.77,4.77,0,0,1,.89,1.58,6.42,6.42,0,0,1,.31,2V27h-7.42v.48a3.53,3.53,0,0,0,.21,1.23,2.92,2.92,0,0,0,.6,1,2.79,2.79,0,0,0,.95.66,3.35,3.35,0,0,0,1.3.24,3.07,3.07,0,0,0,1.7-.46,3,3,0,0,0,1.13-1.32l1.15.83a4.05,4.05,0,0,1-1.57,1.72A4.71,4.71,0,0,1,1266.07,32Zm0-9.46a3.06,3.06,0,0,0-1.2.23,2.66,2.66,0,0,0-.93.64,2.94,2.94,0,0,0-.61,1,3.33,3.33,0,0,0-.22,1.24v.14h5.7V25.6a3.13,3.13,0,0,0-.75-2.19A2.54,2.54,0,0,0,1266.07,22.58Z"/><path class="cls-10" d="M1287.13,29.78h-.06a2.8,2.8,0,0,1-1.27,1.62,4.81,4.81,0,0,1-2.61.64,5.8,5.8,0,0,1-2.35-.47,4.78,4.78,0,0,1-1.83-1.38,6.47,6.47,0,0,1-1.19-2.26,10.16,10.16,0,0,1-.43-3.11,10.4,10.4,0,0,1,.42-3.09,6.33,6.33,0,0,1,1.2-2.26,5.07,5.07,0,0,1,1.88-1.39,6,6,0,0,1,2.44-.48,5.62,5.62,0,0,1,3.14.83,5.54,5.54,0,0,1,1.94,2.21l-1.38.84a3.83,3.83,0,0,0-3.7-2.4,4.13,4.13,0,0,0-1.68.33,3.73,3.73,0,0,0-1.31.93,4.27,4.27,0,0,0-.85,1.45,5.59,5.59,0,0,0-.3,1.89v2.26a5.69,5.69,0,0,0,.3,1.9,4.22,4.22,0,0,0,.85,1.46,3.62,3.62,0,0,0,1.35.93,4.66,4.66,0,0,0,1.8.33,4.77,4.77,0,0,0,1.37-.19,3.59,3.59,0,0,0,1.14-.57,2.89,2.89,0,0,0,.77-1,3.13,3.13,0,0,0,.28-1.35V26.1H1284V24.62h4.72V31.8h-1.56Z"/><path class="cls-10" d="M1291.85,31.8V21.48h1.6v1.66h.08a4.83,4.83,0,0,1,.41-.74,2.69,2.69,0,0,1,.56-.61,2.55,2.55,0,0,1,.77-.4,3.22,3.22,0,0,1,1-.15,3.72,3.72,0,0,1,1.88.49,2.92,2.92,0,0,1,1.28,1.59h0a3.12,3.12,0,0,1,1-1.46,3.25,3.25,0,0,1,2.09-.62,3.09,3.09,0,0,1,2.47,1,4.34,4.34,0,0,1,.89,2.91V31.8h-1.6V25.45a3.39,3.39,0,0,0-.54-2.09,2,2,0,0,0-1.72-.7,3.34,3.34,0,0,0-.91.12,2.38,2.38,0,0,0-.77.36,1.67,1.67,0,0,0-.54.61,1.75,1.75,0,0,0-.2.87V31.8h-1.6V25.45a3.39,3.39,0,0,0-.54-2.09,2,2,0,0,0-1.68-.7,3.46,3.46,0,0,0-.92.12,2.33,2.33,0,0,0-.78.36,1.79,1.79,0,0,0-.55.61,1.75,1.75,0,0,0-.21.87V31.8Z"/><path class="cls-10" d="M1309.33,17h1.59v6.14h.08a2.91,2.91,0,0,1,1.17-1.43,3.54,3.54,0,0,1,1.86-.47,3.89,3.89,0,0,1,1.73.38,3.57,3.57,0,0,1,1.33,1.08,4.83,4.83,0,0,1,.84,1.7,8.8,8.8,0,0,1,0,4.48,4.83,4.83,0,0,1-.84,1.7,3.57,3.57,0,0,1-1.33,1.08A3.89,3.89,0,0,1,1314,32a3.13,3.13,0,0,1-3-1.9h-.08V31.8h-1.59Zm4.25,13.62a2.76,2.76,0,0,0,2.14-.85,3.16,3.16,0,0,0,.78-2.25V25.76a3.16,3.16,0,0,0-.78-2.25,2.73,2.73,0,0,0-2.14-.85,3.52,3.52,0,0,0-1,.15,3,3,0,0,0-.84.41,2.08,2.08,0,0,0-.58.64,1.66,1.66,0,0,0-.21.79v3.86a1.89,1.89,0,0,0,.79,1.56,2.53,2.53,0,0,0,.84.41A3.88,3.88,0,0,0,1313.58,30.62Z"/><path class="cls-10" d="M1329.84,25.48h-7.06V31.8h-1.68v-14h1.68V24h7.06V17.84h1.68v14h-1.68Z"/><path class="cls-10" d="M1407.35,31.8v-14h8.32v1.48H1409V24h6v1.48h-6V31.8Z"/><path class="cls-10" d="M1418.39,31.8V21.48h1.6v1.9h.1a3.1,3.1,0,0,1,1-1.32,3.05,3.05,0,0,1,2-.58h.62v1.6h-.94a3.56,3.56,0,0,0-2,.49,1.45,1.45,0,0,0-.73,1.23v7Z"/><path class="cls-10" d="M1429.62,32a4.72,4.72,0,0,1-1.91-.38,4.21,4.21,0,0,1-1.46-1.09,5.27,5.27,0,0,1-.94-1.7,7.9,7.9,0,0,1,0-4.45,5.21,5.21,0,0,1,.94-1.71,4.21,4.21,0,0,1,1.46-1.09,4.72,4.72,0,0,1,1.91-.38,4.46,4.46,0,0,1,1.87.38,4,4,0,0,1,1.39,1.05,4.62,4.62,0,0,1,.9,1.58,6.42,6.42,0,0,1,.3,2V27h-7.41v.48a3.78,3.78,0,0,0,.2,1.23,2.92,2.92,0,0,0,.6,1,2.84,2.84,0,0,0,1,.66,3.33,3.33,0,0,0,1.29.24,3.08,3.08,0,0,0,1.71-.46,3,3,0,0,0,1.13-1.32l1.15.83a4.05,4.05,0,0,1-1.57,1.72A4.72,4.72,0,0,1,1429.62,32Zm0-9.46a3.13,3.13,0,0,0-1.2.23,2.62,2.62,0,0,0-.92.64,3.14,3.14,0,0,0-.62,1,3.55,3.55,0,0,0-.21,1.24v.14h5.7V25.6a3.13,3.13,0,0,0-.75-2.19A2.55,2.55,0,0,0,1429.62,22.58Z"/><path class="cls-10" d="M1440.62,32a4.72,4.72,0,0,1-1.91-.38,4.21,4.21,0,0,1-1.46-1.09,5.27,5.27,0,0,1-.94-1.7,7.9,7.9,0,0,1,0-4.45,5.21,5.21,0,0,1,.94-1.71,4.21,4.21,0,0,1,1.46-1.09,4.72,4.72,0,0,1,1.91-.38,4.46,4.46,0,0,1,1.87.38,4,4,0,0,1,1.39,1.05,4.62,4.62,0,0,1,.9,1.58,6.42,6.42,0,0,1,.3,2V27h-7.41v.48a3.78,3.78,0,0,0,.2,1.23,2.92,2.92,0,0,0,.6,1,2.84,2.84,0,0,0,1,.66,3.33,3.33,0,0,0,1.29.24,3.08,3.08,0,0,0,1.71-.46,3,3,0,0,0,1.13-1.32l1.15.83a4.05,4.05,0,0,1-1.57,1.72A4.72,4.72,0,0,1,1440.62,32Zm0-9.46a3.13,3.13,0,0,0-1.2.23,2.62,2.62,0,0,0-.92.64,3.14,3.14,0,0,0-.62,1,3.55,3.55,0,0,0-.21,1.24v.14h5.7V25.6a3.13,3.13,0,0,0-.75-2.19A2.55,2.55,0,0,0,1440.62,22.58Z"/><path class="cls-10" d="M1449.45,31.8a1.66,1.66,0,0,1-1.28-.47,1.71,1.71,0,0,1-.42-1.19V17h1.59V30.38h1.53V31.8Z"/><path class="cls-10" d="M1460.71,31.8a1.54,1.54,0,0,1-1.29-.48,2.42,2.42,0,0,1-.5-1.2h-.09a2.73,2.73,0,0,1-1.12,1.44,3.54,3.54,0,0,1-1.87.48,3.63,3.63,0,0,1-2.55-.84,3,3,0,0,1-.91-2.28,2.6,2.6,0,0,1,1.08-2.24,5.68,5.68,0,0,1,3.33-.78h2v-1a2.24,2.24,0,0,0-.61-1.68,2.52,2.52,0,0,0-1.84-.58,2.81,2.81,0,0,0-1.57.42,3.43,3.43,0,0,0-1,1.12l-1-.9a3.65,3.65,0,0,1,1.34-1.43,5,5,0,0,1,5.24.33,3.2,3.2,0,0,1,1,2.55v5.67h1.18V31.8Zm-4.61-1.12a4.32,4.32,0,0,0,1.11-.14,2.58,2.58,0,0,0,.85-.4,1.87,1.87,0,0,0,.56-.6,1.38,1.38,0,0,0,.21-.74V27.1h-2.12a3.84,3.84,0,0,0-2,.4,1.28,1.28,0,0,0-.64,1.16v.42a1.39,1.39,0,0,0,.56,1.18A2.37,2.37,0,0,0,1456.1,30.68Z"/><path class="cls-10" d="M1463.9,31.8V21.48h1.6v1.66h.08a3.49,3.49,0,0,1,1.07-1.39,3.05,3.05,0,0,1,1.85-.51,3.22,3.22,0,0,1,2.53,1,4.2,4.2,0,0,1,.93,2.91V31.8h-1.6V25.45q0-2.79-2.34-2.79a3.59,3.59,0,0,0-.93.12,2.7,2.7,0,0,0-.81.36,1.7,1.7,0,0,0-.78,1.48V31.8Z"/><path class="cls-10" d="M1479.12,32a4.83,4.83,0,0,1-1.94-.38,4,4,0,0,1-1.45-1.08,4.92,4.92,0,0,1-.9-1.7,8.25,8.25,0,0,1,0-4.48,4.92,4.92,0,0,1,.9-1.7,4,4,0,0,1,1.45-1.08,4.83,4.83,0,0,1,1.94-.38,4.11,4.11,0,0,1,2.47.67,4.06,4.06,0,0,1,1.39,1.75l-1.34.68a2.38,2.38,0,0,0-.92-1.24,2.77,2.77,0,0,0-1.6-.44,3.26,3.26,0,0,0-1.26.23,2.46,2.46,0,0,0-.9.64,2.67,2.67,0,0,0-.54,1,4.15,4.15,0,0,0-.18,1.25v1.76a3.38,3.38,0,0,0,.73,2.23,2.66,2.66,0,0,0,2.15.87,2.89,2.89,0,0,0,2.8-1.8l1.16.78a4.06,4.06,0,0,1-1.49,1.78A4.35,4.35,0,0,1,1479.12,32Z"/><path class="cls-10" d="M1486.16,19.06a1,1,0,0,1-.75-.25.94.94,0,0,1-.23-.65V17.9a.94.94,0,0,1,.23-.65,1,1,0,0,1,.75-.25,1,1,0,0,1,.75.25.89.89,0,0,1,.23.65v.26a.89.89,0,0,1-.23.65A1,1,0,0,1,1486.16,19.06Zm-.8,2.42h1.6V31.8h-1.6Z"/><path class="cls-10" d="M1490.38,31.8V21.48h1.6v1.66h.08a3.49,3.49,0,0,1,1.07-1.39,3.05,3.05,0,0,1,1.85-.51,3.22,3.22,0,0,1,2.53,1,4.2,4.2,0,0,1,.93,2.91V31.8h-1.6V25.45q0-2.79-2.34-2.79a3.59,3.59,0,0,0-.93.12,2.7,2.7,0,0,0-.81.36,1.7,1.7,0,0,0-.78,1.48V31.8Z"/><path class="cls-10" d="M1510.46,33a2.52,2.52,0,0,1-1.25,2.34,7.42,7.42,0,0,1-3.75.75,6.89,6.89,0,0,1-3.48-.66,2.1,2.1,0,0,1-1.06-1.88,1.87,1.87,0,0,1,.44-1.31,2.72,2.72,0,0,1,1.2-.69v-.21a1.5,1.5,0,0,1-.92-1.44,1.43,1.43,0,0,1,.5-1.18,3.18,3.18,0,0,1,1.28-.61V28a3.38,3.38,0,0,1-1.43-1.26,3.57,3.57,0,0,1-.51-1.91,3.77,3.77,0,0,1,.28-1.44,3.29,3.29,0,0,1,.79-1.14,3.64,3.64,0,0,1,1.22-.73,4.73,4.73,0,0,1,1.59-.26,4.52,4.52,0,0,1,2,.4v-.18a1.74,1.74,0,0,1,.28-1,1,1,0,0,1,.92-.4h1.54v1.42h-2v.66a3.25,3.25,0,0,1,.87,1.15,3.86,3.86,0,0,1,0,3,3.25,3.25,0,0,1-.79,1.14,3.59,3.59,0,0,1-1.23.73,4.75,4.75,0,0,1-1.6.26,4.92,4.92,0,0,1-1-.1,3.31,3.31,0,0,0-.94.41.85.85,0,0,0-.42.75.61.61,0,0,0,.44.62,3.36,3.36,0,0,0,1.14.16h2.2a4.3,4.3,0,0,1,2.79.73A2.46,2.46,0,0,1,1510.46,33Zm-1.5.11a1.19,1.19,0,0,0-.47-1,2.76,2.76,0,0,0-1.67-.37h-3.44a1.46,1.46,0,0,0-1,1.4,1.54,1.54,0,0,0,.51,1.16,2.5,2.5,0,0,0,1.73.48h1.48a4.23,4.23,0,0,0,2.08-.42A1.35,1.35,0,0,0,1509,33.06Zm-3.58-6a2.47,2.47,0,0,0,1.62-.49,1.86,1.86,0,0,0,.6-1.52v-.56A1.86,1.86,0,0,0,1507,23a2.92,2.92,0,0,0-3.24,0,1.86,1.86,0,0,0-.6,1.52v.56a1.86,1.86,0,0,0,.6,1.52A2.47,2.47,0,0,0,1505.38,27.1Z"/><g class="cls-8"><path class="cls-9" d="M88.9,118a6.06,6.06,0,0,1-2.9-.65,6.23,6.23,0,0,1-2-1.79l1.24-1A5.56,5.56,0,0,0,86.84,116a4.24,4.24,0,0,0,2.12.51,3.28,3.28,0,0,0,2.29-.72,2.46,2.46,0,0,0,.79-1.92,2,2,0,0,0-.6-1.54,4.48,4.48,0,0,0-2-.86l-1.14-.26a6.77,6.77,0,0,1-2.93-1.33,3.19,3.19,0,0,1-1-2.51,3.87,3.87,0,0,1,.34-1.64,3.4,3.4,0,0,1,1-1.2,4.26,4.26,0,0,1,1.46-.73,6.51,6.51,0,0,1,1.87-.25,5.8,5.8,0,0,1,2.71.58,5.08,5.08,0,0,1,1.91,1.7l-1.26.92a4.1,4.1,0,0,0-1.4-1.26,4.05,4.05,0,0,0-2-.46,3.5,3.5,0,0,0-2.11.57A2,2,0,0,0,86,107.3a1.82,1.82,0,0,0,.65,1.51,5.07,5.07,0,0,0,2,.81l1.14.26a5.8,5.8,0,0,1,3,1.4,3.38,3.38,0,0,1,.92,2.5,4.42,4.42,0,0,1-.33,1.74,3.49,3.49,0,0,1-1,1.32,4.32,4.32,0,0,1-1.51.84A6.25,6.25,0,0,1,88.9,118Z"/><path class="cls-9" d="M98.58,117.74a1.65,1.65,0,0,1-1.27-.47,1.77,1.77,0,0,1-.43-1.23v-7.2h-1.7v-1.42h1a.93.93,0,0,0,.71-.21,1.08,1.08,0,0,0,.19-.73v-1.92h1.44v2.86h2.26v1.42H98.48v7.48h2.1v1.42Z"/><path class="cls-9" d="M109.54,116.08h-.08a4.09,4.09,0,0,1-.39.7,2.53,2.53,0,0,1-.57.61,2.65,2.65,0,0,1-.82.43,3.73,3.73,0,0,1-1.12.16,3.31,3.31,0,0,1-2.54-1,4.21,4.21,0,0,1-.94-2.91v-6.62h1.6v6.35c0,1.86.79,2.79,2.36,2.79a3.59,3.59,0,0,0,.93-.12,2.54,2.54,0,0,0,.8-.36,1.76,1.76,0,0,0,.77-1.51v-7.15h1.6v10.32h-1.6Z"/><path class="cls-9" d="M121,116.08h-.08a3.15,3.15,0,0,1-3,1.9,3.78,3.78,0,0,1-3.07-1.46,5.3,5.3,0,0,1-.84-1.7,8.21,8.21,0,0,1-.29-2.24,8.11,8.11,0,0,1,.29-2.24,5.1,5.1,0,0,1,.84-1.7,3.74,3.74,0,0,1,1.33-1.08,3.83,3.83,0,0,1,1.74-.38,3.5,3.5,0,0,1,1.85.46,2.83,2.83,0,0,1,1.17,1.44H121v-6.14h1.6v14.8H121Zm-2.66.48a3.82,3.82,0,0,0,1-.14,2.51,2.51,0,0,0,.85-.42,2,2,0,0,0,.57-.66,1.86,1.86,0,0,0,.21-.89v-3.86a1.62,1.62,0,0,0-.21-.8,2,2,0,0,0-.57-.63,2.92,2.92,0,0,0-.85-.41,3.47,3.47,0,0,0-1-.15,2.76,2.76,0,0,0-2.14.85,3.2,3.2,0,0,0-.78,2.24v1.77a3.18,3.18,0,0,0,.78,2.24A2.76,2.76,0,0,0,118.34,116.56Z"/><path class="cls-9" d="M129.74,118a4.72,4.72,0,0,1-1.91-.38,4.34,4.34,0,0,1-1.46-1.09,5.18,5.18,0,0,1-.94-1.7,7.67,7.67,0,0,1,0-4.45,5,5,0,0,1,.94-1.71,4.09,4.09,0,0,1,1.46-1.09,4.56,4.56,0,0,1,1.91-.38,4.24,4.24,0,0,1,1.86.38,4,4,0,0,1,1.4,1,4.58,4.58,0,0,1,.89,1.59,6.14,6.14,0,0,1,.31,2V113h-7.42v.48a3.53,3.53,0,0,0,.21,1.23,2.92,2.92,0,0,0,.6,1,2.74,2.74,0,0,0,1,.66,3.3,3.3,0,0,0,1.29.24,3.16,3.16,0,0,0,1.71-.46,3,3,0,0,0,1.13-1.32l1.14.82a3.91,3.91,0,0,1-1.56,1.72A4.64,4.64,0,0,1,129.74,118Zm0-9.46a2.92,2.92,0,0,0-1.2.23,2.62,2.62,0,0,0-.93.64,3.11,3.11,0,0,0-.61,1,3.51,3.51,0,0,0-.22,1.24v.14h5.7v-.22a3.14,3.14,0,0,0-.75-2.2A2.55,2.55,0,0,0,129.74,108.52Z"/><path class="cls-9" d="M136.7,117.74V107.42h1.6v1.66h.08a3.49,3.49,0,0,1,1.07-1.39,3.05,3.05,0,0,1,1.85-.51,3.22,3.22,0,0,1,2.53,1,4.17,4.17,0,0,1,.93,2.91v6.62h-1.6v-6.36c0-1.85-.78-2.78-2.34-2.78a3.59,3.59,0,0,0-.93.12,2.7,2.7,0,0,0-.81.36,1.7,1.7,0,0,0-.78,1.48v7.18Z"/><path class="cls-9" d="M150.2,117.74a1.65,1.65,0,0,1-1.27-.47,1.77,1.77,0,0,1-.43-1.23v-7.2h-1.7v-1.42h1a.93.93,0,0,0,.71-.21,1.08,1.08,0,0,0,.19-.73v-1.92h1.44v2.86h2.26v1.42H150.1v7.48h2.1v1.42Z"/></g><g class="cls-8"><path class="cls-9" d="M322.16,117.74v-14h8.32v1.48h-6.64v4.68h6.06v1.48h-6.06v6.32Z"/><path class="cls-9" d="M332.7,117.74V107.42h1.6v1.9h.1a3,3,0,0,1,3-1.9H338V109h-.94a3.61,3.61,0,0,0-2,.49,1.42,1.42,0,0,0-.73,1.23v7Z"/><path class="cls-9" d="M343.46,118a4.71,4.71,0,0,1-1.9-.38,4.28,4.28,0,0,1-1.47-1.09,5.39,5.39,0,0,1-.95-1.7,7.45,7.45,0,0,1,0-4.45,5.23,5.23,0,0,1,.95-1.71,4,4,0,0,1,1.47-1.09,4.54,4.54,0,0,1,1.9-.38,4.43,4.43,0,0,1,1.89.38,4,4,0,0,1,1.47,1.09,4.75,4.75,0,0,1,1,1.71,7.45,7.45,0,0,1,0,4.45,4.88,4.88,0,0,1-1,1.7,4.28,4.28,0,0,1-1.47,1.09A4.59,4.59,0,0,1,343.46,118Zm0-1.42a2.91,2.91,0,0,0,2.12-.8,3.27,3.27,0,0,0,.82-2.44v-1.48a3.24,3.24,0,0,0-.82-2.44,2.87,2.87,0,0,0-2.12-.8,2.9,2.9,0,0,0-2.12.8,3.24,3.24,0,0,0-.82,2.44v1.48a3.27,3.27,0,0,0,.82,2.44A2.94,2.94,0,0,0,343.46,116.56Z"/><path class="cls-9" d="M350.28,117.74V107.42h1.6v1.66H352a3.49,3.49,0,0,1,1.07-1.39,3.05,3.05,0,0,1,1.85-.51,3.22,3.22,0,0,1,2.53,1,4.17,4.17,0,0,1,.93,2.91v6.62h-1.6v-6.36c0-1.85-.78-2.78-2.34-2.78a3.59,3.59,0,0,0-.93.12,2.7,2.7,0,0,0-.81.36,1.7,1.7,0,0,0-.78,1.48v7.18Z"/><path class="cls-9" d="M363.44,117.74a1.65,1.65,0,0,1-1.27-.47,1.72,1.72,0,0,1-.43-1.23v-7.2H360v-1.42h1a.94.94,0,0,0,.71-.21,1.08,1.08,0,0,0,.19-.73v-1.92h1.44v2.86h2.26v1.42h-2.26v7.48h2.1v1.42Z"/><path class="cls-9" d="M371.58,118a4.68,4.68,0,0,1-1.91-.38,4.34,4.34,0,0,1-1.46-1.09,5,5,0,0,1-.94-1.7,7.67,7.67,0,0,1,0-4.45,4.87,4.87,0,0,1,.94-1.71,4.09,4.09,0,0,1,1.46-1.09,4.53,4.53,0,0,1,1.91-.38,4.27,4.27,0,0,1,1.86.38,4,4,0,0,1,1.4,1,4.58,4.58,0,0,1,.89,1.59,6.14,6.14,0,0,1,.31,2V113h-7.42v.48a3.53,3.53,0,0,0,.21,1.23,2.92,2.92,0,0,0,.6,1,2.74,2.74,0,0,0,1,.66,3.3,3.3,0,0,0,1.29.24,3.19,3.19,0,0,0,1.71-.46,3.05,3.05,0,0,0,1.13-1.32l1.14.82a3.91,3.91,0,0,1-1.56,1.72A4.69,4.69,0,0,1,371.58,118Zm0-9.46a2.92,2.92,0,0,0-1.2.23,2.62,2.62,0,0,0-.93.64,3.11,3.11,0,0,0-.61,1,3.51,3.51,0,0,0-.22,1.24v.14h5.7v-.22a3.14,3.14,0,0,0-.75-2.2A2.55,2.55,0,0,0,371.58,108.52Z"/><path class="cls-9" d="M378.2,117.74V107.42h1.6v1.66h.08a3.4,3.4,0,0,1,1.07-1.39,3.05,3.05,0,0,1,1.85-.51,3.22,3.22,0,0,1,2.53,1,4.17,4.17,0,0,1,.93,2.91v6.62h-1.6v-6.36c0-1.85-.78-2.78-2.34-2.78a3.59,3.59,0,0,0-.93.12,2.7,2.7,0,0,0-.81.36,1.7,1.7,0,0,0-.78,1.48v7.18Z"/><path class="cls-9" d="M395.68,116.08h-.08a3.16,3.16,0,0,1-3,1.9,3.78,3.78,0,0,1-3.07-1.46,5.1,5.1,0,0,1-.84-1.7,8.21,8.21,0,0,1-.29-2.24,8.11,8.11,0,0,1,.29-2.24,4.92,4.92,0,0,1,.84-1.7,3.74,3.74,0,0,1,1.33-1.08,3.83,3.83,0,0,1,1.74-.38,3.5,3.5,0,0,1,1.85.46,2.88,2.88,0,0,1,1.17,1.44h.08v-6.14h1.6v14.8h-1.6Zm-2.66.48a3.88,3.88,0,0,0,1-.14,2.51,2.51,0,0,0,.85-.42,2,2,0,0,0,.57-.66,1.86,1.86,0,0,0,.21-.89v-3.86a1.62,1.62,0,0,0-.21-.8,2,2,0,0,0-.57-.63,2.92,2.92,0,0,0-.85-.41,3.52,3.52,0,0,0-1-.15,2.76,2.76,0,0,0-2.14.85,3.2,3.2,0,0,0-.78,2.24v1.77a3.18,3.18,0,0,0,.78,2.24A2.76,2.76,0,0,0,393,116.56Z"/><path class="cls-9" d="M404.6,103.78h4.68a6,6,0,0,1,2.36.44,4.71,4.71,0,0,1,1.81,1.31,6,6,0,0,1,1.15,2.18,11.83,11.83,0,0,1,0,6.1,6,6,0,0,1-1.15,2.18,4.82,4.82,0,0,1-1.81,1.31,6.13,6.13,0,0,1-2.36.44H404.6Zm4.68,12.48a4.23,4.23,0,0,0,1.58-.29,3.56,3.56,0,0,0,1.24-.85,3.89,3.89,0,0,0,.81-1.37,5.32,5.32,0,0,0,.29-1.85v-2.28a5.28,5.28,0,0,0-.29-1.85,3.8,3.8,0,0,0-.81-1.37,3.32,3.32,0,0,0-1.24-.85,4,4,0,0,0-1.58-.29h-3v11Z"/><path class="cls-9" d="M421.26,118a4.68,4.68,0,0,1-1.91-.38,4.24,4.24,0,0,1-1.46-1.09,5,5,0,0,1-.94-1.7,7.67,7.67,0,0,1,0-4.45,4.87,4.87,0,0,1,.94-1.71,4,4,0,0,1,1.46-1.09,4.53,4.53,0,0,1,1.91-.38,4.3,4.3,0,0,1,1.86.38,4.14,4.14,0,0,1,1.4,1,4.75,4.75,0,0,1,.89,1.59,6.14,6.14,0,0,1,.31,2V113H418.3v.48a3.53,3.53,0,0,0,.21,1.23,2.92,2.92,0,0,0,.6,1,2.74,2.74,0,0,0,1,.66,3.3,3.3,0,0,0,1.29.24,3.21,3.21,0,0,0,1.71-.46,3.05,3.05,0,0,0,1.13-1.32l1.14.82a3.91,3.91,0,0,1-1.56,1.72A4.69,4.69,0,0,1,421.26,118Zm0-9.46a2.92,2.92,0,0,0-1.2.23,2.62,2.62,0,0,0-.93.64,3.11,3.11,0,0,0-.61,1,3.3,3.3,0,0,0-.22,1.24v.14H424v-.22a3.14,3.14,0,0,0-.75-2.2A2.55,2.55,0,0,0,421.26,108.52Z"/><path class="cls-9" d="M430.16,117.74l-3.62-10.32h1.6l1.8,5.12,1.12,3.52h.1l1.12-3.52,1.84-5.12h1.54L432,117.74Z"/><path class="cls-9" d="M441.12,118a4.68,4.68,0,0,1-1.91-.38,4.24,4.24,0,0,1-1.46-1.09,5,5,0,0,1-.94-1.7,7.67,7.67,0,0,1,0-4.45,4.87,4.87,0,0,1,.94-1.71,4,4,0,0,1,1.46-1.09,4.53,4.53,0,0,1,1.91-.38,4.3,4.3,0,0,1,1.86.38,4.14,4.14,0,0,1,1.4,1,4.75,4.75,0,0,1,.89,1.59,6.14,6.14,0,0,1,.31,2V113h-7.42v.48a3.53,3.53,0,0,0,.21,1.23,2.92,2.92,0,0,0,.6,1,2.74,2.74,0,0,0,1,.66,3.3,3.3,0,0,0,1.29.24,3.21,3.21,0,0,0,1.71-.46,3.05,3.05,0,0,0,1.13-1.32l1.14.82a3.91,3.91,0,0,1-1.56,1.72A4.69,4.69,0,0,1,441.12,118Zm0-9.46a2.92,2.92,0,0,0-1.2.23,2.62,2.62,0,0,0-.93.64,3.11,3.11,0,0,0-.61,1,3.3,3.3,0,0,0-.22,1.24v.14h5.7v-.22a3.14,3.14,0,0,0-.75-2.2A2.55,2.55,0,0,0,441.12,108.52Z"/><path class="cls-9" d="M449.44,117.74a1.65,1.65,0,0,1-1.27-.47,1.69,1.69,0,0,1-.43-1.19V102.94h1.6v13.38h1.52v1.42Z"/><path class="cls-9" d="M456.6,118a4.71,4.71,0,0,1-1.9-.38,4.28,4.28,0,0,1-1.47-1.09,5.2,5.2,0,0,1-1-1.7,7.45,7.45,0,0,1,0-4.45,5.05,5.05,0,0,1,1-1.71,4,4,0,0,1,1.47-1.09,4.54,4.54,0,0,1,1.9-.38,4.5,4.5,0,0,1,1.89.38,4,4,0,0,1,1.47,1.09,5.07,5.07,0,0,1,1,1.71,7.45,7.45,0,0,1,0,4.45,5.22,5.22,0,0,1-1,1.7,4.28,4.28,0,0,1-1.47,1.09A4.66,4.66,0,0,1,456.6,118Zm0-1.42a2.92,2.92,0,0,0,2.12-.8,3.27,3.27,0,0,0,.82-2.44v-1.48a3.24,3.24,0,0,0-.82-2.44,3.21,3.21,0,0,0-4.24,0,3.24,3.24,0,0,0-.82,2.44v1.48a3.27,3.27,0,0,0,.82,2.44A2.92,2.92,0,0,0,456.6,116.56Z"/><path class="cls-9" d="M463.42,107.42H465v1.66h.08a2.93,2.93,0,0,1,1.17-1.44,3.5,3.5,0,0,1,1.85-.46,3.83,3.83,0,0,1,1.74.38,3.74,3.74,0,0,1,1.33,1.08,4.75,4.75,0,0,1,.84,1.7,8.11,8.11,0,0,1,.29,2.24,8.21,8.21,0,0,1-.29,2.24,4.92,4.92,0,0,1-.84,1.7,3.78,3.78,0,0,1-3.07,1.46,3.13,3.13,0,0,1-3-1.9H465v5.66h-1.6Zm4.26,9.14a2.75,2.75,0,0,0,2.14-.86,3.18,3.18,0,0,0,.78-2.24v-1.77a3.2,3.2,0,0,0-.78-2.24,2.74,2.74,0,0,0-2.14-.85,3.52,3.52,0,0,0-1,.15,2.92,2.92,0,0,0-.85.41,2,2,0,0,0-.57.63,1.62,1.62,0,0,0-.21.8v3.86a1.86,1.86,0,0,0,.21.89,2,2,0,0,0,.57.66,2.51,2.51,0,0,0,.85.42A3.88,3.88,0,0,0,467.68,116.56Z"/><path class="cls-9" d="M478.42,118a4.68,4.68,0,0,1-1.91-.38,4.24,4.24,0,0,1-1.46-1.09,5,5,0,0,1-.94-1.7,7.67,7.67,0,0,1,0-4.45,4.87,4.87,0,0,1,.94-1.71,4,4,0,0,1,1.46-1.09,4.53,4.53,0,0,1,1.91-.38,4.3,4.3,0,0,1,1.86.38,4.14,4.14,0,0,1,1.4,1,4.75,4.75,0,0,1,.89,1.59,6.14,6.14,0,0,1,.31,2V113h-7.42v.48a3.53,3.53,0,0,0,.21,1.23,2.92,2.92,0,0,0,.6,1,2.74,2.74,0,0,0,1,.66,3.3,3.3,0,0,0,1.29.24,3.21,3.21,0,0,0,1.71-.46,3.05,3.05,0,0,0,1.13-1.32l1.14.82a3.91,3.91,0,0,1-1.56,1.72A4.69,4.69,0,0,1,478.42,118Zm0-9.46a2.92,2.92,0,0,0-1.2.23,2.62,2.62,0,0,0-.93.64,3.11,3.11,0,0,0-.61,1,3.3,3.3,0,0,0-.22,1.24v.14h5.7v-.22a3.14,3.14,0,0,0-.75-2.2A2.55,2.55,0,0,0,478.42,108.52Z"/><path class="cls-9" d="M485,117.74V107.42h1.6v1.9h.1a3,3,0,0,1,3-1.9h.62V109h-.94a3.59,3.59,0,0,0-2,.49,1.42,1.42,0,0,0-.73,1.23v7Z"/></g><g class="cls-8"><path class="cls-9" d="M627.73,103.78v8.65a5.22,5.22,0,0,0,.74,3,3.8,3.8,0,0,0,5.2,0,5.22,5.22,0,0,0,.74-3v-8.65h1.68V112a11.41,11.41,0,0,1-.27,2.64,4.72,4.72,0,0,1-.87,1.86,3.58,3.58,0,0,1-1.57,1.1A6.87,6.87,0,0,1,631,118a6.67,6.67,0,0,1-2.35-.36,3.51,3.51,0,0,1-1.53-1.1,4.68,4.68,0,0,1-.83-1.86,12.08,12.08,0,0,1-.25-2.64v-8.24Z"/><path class="cls-9" d="M638.79,117.74v-1.4h2V105.18h-2v-1.4h5.6v1.4h-2v11.16h2v1.4Z"/><path class="cls-9" d="M651.65,103.78h4.68a6,6,0,0,1,2.36.44,4.71,4.71,0,0,1,1.81,1.31,6,6,0,0,1,1.15,2.18,11.83,11.83,0,0,1,0,6.1A6,6,0,0,1,660.5,116a4.82,4.82,0,0,1-1.81,1.31,6.16,6.16,0,0,1-2.36.44h-4.68Zm4.68,12.48a4.27,4.27,0,0,0,1.58-.29,3.56,3.56,0,0,0,1.24-.85,3.89,3.89,0,0,0,.81-1.37,5.57,5.57,0,0,0,.29-1.85v-2.28a5.53,5.53,0,0,0-.29-1.85,3.8,3.8,0,0,0-.81-1.37,3.32,3.32,0,0,0-1.24-.85,4.08,4.08,0,0,0-1.58-.29h-3v11Z"/><path class="cls-9" d="M668.53,118a4.68,4.68,0,0,1-1.91-.38,4.24,4.24,0,0,1-1.46-1.09,5,5,0,0,1-.94-1.7,7.67,7.67,0,0,1,0-4.45,4.87,4.87,0,0,1,.94-1.71,4,4,0,0,1,1.46-1.09,4.53,4.53,0,0,1,1.91-.38,4.3,4.3,0,0,1,1.86.38,4.14,4.14,0,0,1,1.4,1,4.75,4.75,0,0,1,.89,1.59,6.42,6.42,0,0,1,.31,2V113h-7.42v.48a3.53,3.53,0,0,0,.21,1.23,2.92,2.92,0,0,0,.6,1,2.74,2.74,0,0,0,1,.66,3.3,3.3,0,0,0,1.29.24,3.21,3.21,0,0,0,1.71-.46,3.05,3.05,0,0,0,1.13-1.32l1.14.82a3.91,3.91,0,0,1-1.56,1.72A4.69,4.69,0,0,1,668.53,118Zm0-9.46a2.92,2.92,0,0,0-1.2.23,2.62,2.62,0,0,0-.93.64,3.11,3.11,0,0,0-.61,1,3.3,3.3,0,0,0-.22,1.24v.14h5.7v-.22a3.14,3.14,0,0,0-.75-2.2A2.55,2.55,0,0,0,668.53,108.52Z"/><path class="cls-9" d="M678.47,118a4.91,4.91,0,0,1-2.41-.55,5.57,5.57,0,0,1-1.67-1.47l1.14-.92a4.6,4.6,0,0,0,1.34,1.17,3.53,3.53,0,0,0,1.72.41,2.57,2.57,0,0,0,1.59-.44,1.49,1.49,0,0,0,.57-1.24,1.47,1.47,0,0,0-.39-1,2.32,2.32,0,0,0-1.41-.59l-.82-.12a7.1,7.1,0,0,1-1.32-.31,3.75,3.75,0,0,1-1-.56,2.57,2.57,0,0,1-.7-.87,2.8,2.8,0,0,1-.25-1.24,2.93,2.93,0,0,1,.28-1.33,2.65,2.65,0,0,1,.77-1,3.2,3.2,0,0,1,1.17-.57,5.26,5.26,0,0,1,1.46-.19,4.48,4.48,0,0,1,2.11.44,4.68,4.68,0,0,1,1.49,1.22l-1.06,1a3.16,3.16,0,0,0-2.66-1.26,2.27,2.27,0,0,0-1.51.43,1.43,1.43,0,0,0-.51,1.17,1.24,1.24,0,0,0,.51,1.1,4,4,0,0,0,1.47.5l.8.12a4.24,4.24,0,0,1,2.44,1,2.59,2.59,0,0,1,.72,1.91,2.93,2.93,0,0,1-1,2.36A4.22,4.22,0,0,1,678.47,118Z"/><path class="cls-9" d="M685.65,105a1,1,0,0,1-.75-.25,1,1,0,0,1-.23-.65v-.26a.92.92,0,0,1,.23-.65,1.25,1.25,0,0,1,1.5,0,.92.92,0,0,1,.23.65v.26a1,1,0,0,1-.23.65A1,1,0,0,1,685.65,105Zm-.8,2.42h1.6v10.32h-1.6Z"/><path class="cls-9" d="M698.29,118.89a2.54,2.54,0,0,1-1.25,2.34,7.42,7.42,0,0,1-3.75.75,6.89,6.89,0,0,1-3.48-.66,2.09,2.09,0,0,1-1.06-1.88,1.81,1.81,0,0,1,.44-1.31,2.61,2.61,0,0,1,1.2-.69v-.22a1.48,1.48,0,0,1-.92-1.43,1.44,1.44,0,0,1,.5-1.19,3.24,3.24,0,0,1,1.28-.6v-.08a3.34,3.34,0,0,1-1.43-1.27,3.51,3.51,0,0,1-.51-1.9,3.67,3.67,0,0,1,.28-1.45,3.25,3.25,0,0,1,.79-1.13,3.54,3.54,0,0,1,1.22-.73,4.42,4.42,0,0,1,1.59-.26,4.55,4.55,0,0,1,2,.4v-.18a1.7,1.7,0,0,1,.28-1,1.05,1.05,0,0,1,.92-.39h1.54v1.42h-2v.66a3.5,3.5,0,0,1,.87,1.15,3.86,3.86,0,0,1,0,3,3.25,3.25,0,0,1-.79,1.13,3.61,3.61,0,0,1-1.23.74,4.79,4.79,0,0,1-1.6.26,5.56,5.56,0,0,1-1-.1,3.19,3.19,0,0,0-.94.41.85.85,0,0,0-.42.75.62.62,0,0,0,.44.62,3.54,3.54,0,0,0,1.14.16h2.2a4.36,4.36,0,0,1,2.79.72A2.49,2.49,0,0,1,698.29,118.89Zm-1.5.11a1.19,1.19,0,0,0-.47-1,2.76,2.76,0,0,0-1.67-.37h-3.44a1.46,1.46,0,0,0-1,1.4,1.54,1.54,0,0,0,.51,1.16,2.5,2.5,0,0,0,1.73.48H694a4.28,4.28,0,0,0,2.08-.42A1.37,1.37,0,0,0,696.79,119Zm-3.58-6a2.47,2.47,0,0,0,1.62-.5,1.83,1.83,0,0,0,.6-1.51v-.56a1.85,1.85,0,0,0-.6-1.52,2.92,2.92,0,0,0-3.24,0,1.85,1.85,0,0,0-.6,1.52V111a1.83,1.83,0,0,0,.6,1.51A2.47,2.47,0,0,0,693.21,113Z"/><path class="cls-9" d="M699.89,117.74V107.42h1.6v1.66h.08a3.4,3.4,0,0,1,1.07-1.39,3,3,0,0,1,1.85-.51,3.22,3.22,0,0,1,2.53,1,4.17,4.17,0,0,1,.93,2.91v6.62h-1.6v-6.36c0-1.85-.78-2.78-2.34-2.78a3.59,3.59,0,0,0-.93.12,2.7,2.7,0,0,0-.81.36,1.7,1.7,0,0,0-.78,1.48v7.18Z"/><path class="cls-9" d="M714.87,118a4.68,4.68,0,0,1-1.91-.38,4.24,4.24,0,0,1-1.46-1.09,5,5,0,0,1-.94-1.7,7.67,7.67,0,0,1,0-4.45,4.87,4.87,0,0,1,.94-1.71,4,4,0,0,1,1.46-1.09,4.53,4.53,0,0,1,1.91-.38,4.3,4.3,0,0,1,1.86.38,4.14,4.14,0,0,1,1.4,1,4.75,4.75,0,0,1,.89,1.59,6.42,6.42,0,0,1,.31,2V113h-7.42v.48a3.53,3.53,0,0,0,.21,1.23,2.92,2.92,0,0,0,.6,1,2.74,2.74,0,0,0,1,.66,3.3,3.3,0,0,0,1.29.24,3.21,3.21,0,0,0,1.71-.46,3.05,3.05,0,0,0,1.13-1.32l1.14.82a3.91,3.91,0,0,1-1.56,1.72A4.69,4.69,0,0,1,714.87,118Zm0-9.46a2.92,2.92,0,0,0-1.2.23,2.62,2.62,0,0,0-.93.64,3.11,3.11,0,0,0-.61,1,3.3,3.3,0,0,0-.22,1.24v.14h5.7v-.22a3.14,3.14,0,0,0-.75-2.2A2.55,2.55,0,0,0,714.87,108.52Z"/><path class="cls-9" d="M721.71,117.74V107.42h1.6v1.9h.1a3,3,0,0,1,3-1.9H727V109h-.94a3.59,3.59,0,0,0-2,.49,1.42,1.42,0,0,0-.73,1.23v7Z"/></g><path class="cls-9" d="M894.26,103.78v8.65a5.22,5.22,0,0,0,.74,3,3.81,3.81,0,0,0,5.21,0,5.22,5.22,0,0,0,.74-3v-8.65h1.67V112a10.89,10.89,0,0,1-.27,2.64,4.72,4.72,0,0,1-.87,1.86,3.58,3.58,0,0,1-1.57,1.1,6.79,6.79,0,0,1-2.37.36,6.62,6.62,0,0,1-2.34-.36,3.49,3.49,0,0,1-1.54-1.1,4.82,4.82,0,0,1-.83-1.86,12.73,12.73,0,0,1-.25-2.64v-8.24Z"/><path class="cls-9" d="M915.9,117.74h-2l-3.66-5.86h0l-3.66,5.86H904.6l4.56-7.1-4.44-6.86h2l3.5,5.56h0l3.58-5.56h1.92l-4.49,6.8Z"/><path class="cls-9" d="M920.76,120.76,926,102.94h1.44l-5.21,17.82Z"/><path class="cls-9" d="M935.88,103.78v8.65a5.22,5.22,0,0,0,.74,3,3.8,3.8,0,0,0,5.2,0,5.15,5.15,0,0,0,.74-3v-8.65h1.68V112a11.41,11.41,0,0,1-.27,2.64,4.72,4.72,0,0,1-.87,1.86,3.58,3.58,0,0,1-1.57,1.1,6.79,6.79,0,0,1-2.37.36,6.71,6.71,0,0,1-2.35-.36,3.51,3.51,0,0,1-1.53-1.1,4.82,4.82,0,0,1-.83-1.86,12.73,12.73,0,0,1-.25-2.64v-8.24Z"/><path class="cls-9" d="M946.94,117.74v-1.4h2V105.18h-2v-1.4h5.6v1.4h-2v11.16h2v1.4Z"/><path class="cls-9" d="M959.8,103.78h4.68a6,6,0,0,1,2.36.44,4.71,4.71,0,0,1,1.81,1.31,5.8,5.8,0,0,1,1.15,2.18,11.83,11.83,0,0,1,0,6.1,5.88,5.88,0,0,1-1.15,2.18,4.82,4.82,0,0,1-1.81,1.31,6.13,6.13,0,0,1-2.36.44H959.8Zm4.68,12.48a4.23,4.23,0,0,0,1.58-.29,3.47,3.47,0,0,0,1.24-.85,3.89,3.89,0,0,0,.81-1.37,5.32,5.32,0,0,0,.29-1.85v-2.28a5.28,5.28,0,0,0-.29-1.85,3.8,3.8,0,0,0-.81-1.37,3.24,3.24,0,0,0-1.24-.85,4,4,0,0,0-1.58-.29h-3v11Z"/><path class="cls-9" d="M976.68,118a4.72,4.72,0,0,1-1.91-.38,4.34,4.34,0,0,1-1.46-1.09,5.18,5.18,0,0,1-.94-1.7,7.67,7.67,0,0,1,0-4.45,5,5,0,0,1,.94-1.71,4.09,4.09,0,0,1,1.46-1.09,4.56,4.56,0,0,1,1.91-.38,4.24,4.24,0,0,1,1.86.38,4,4,0,0,1,1.4,1,4.58,4.58,0,0,1,.89,1.59,6.14,6.14,0,0,1,.31,2V113h-7.42v.48a3.53,3.53,0,0,0,.21,1.23,2.92,2.92,0,0,0,.6,1,2.74,2.74,0,0,0,1,.66,3.3,3.3,0,0,0,1.29.24,3.16,3.16,0,0,0,1.71-.46,3,3,0,0,0,1.13-1.32l1.14.82a3.91,3.91,0,0,1-1.56,1.72A4.64,4.64,0,0,1,976.68,118Zm0-9.46a2.92,2.92,0,0,0-1.2.23,2.62,2.62,0,0,0-.93.64,3.11,3.11,0,0,0-.61,1,3.51,3.51,0,0,0-.22,1.24v.14h5.7v-.22a3.14,3.14,0,0,0-.75-2.2A2.55,2.55,0,0,0,976.68,108.52Z"/><path class="cls-9" d="M986.62,118a4.91,4.91,0,0,1-2.41-.55,5.7,5.7,0,0,1-1.67-1.47l1.14-.92a4.73,4.73,0,0,0,1.34,1.17,3.56,3.56,0,0,0,1.72.41,2.57,2.57,0,0,0,1.59-.44,1.49,1.49,0,0,0,.57-1.24,1.47,1.47,0,0,0-.39-1,2.32,2.32,0,0,0-1.41-.59l-.82-.12a7.1,7.1,0,0,1-1.32-.31,3.75,3.75,0,0,1-1.05-.56,2.57,2.57,0,0,1-.7-.87,3,3,0,0,1-.25-1.24,3.07,3.07,0,0,1,.28-1.33,2.76,2.76,0,0,1,.77-1,3.2,3.2,0,0,1,1.17-.57,5.31,5.31,0,0,1,1.46-.19,4.46,4.46,0,0,1,2.11.44,4.58,4.58,0,0,1,1.49,1.22l-1.06,1a3.11,3.11,0,0,0-1-.87,3.21,3.21,0,0,0-1.66-.39A2.29,2.29,0,0,0,985,109a1.43,1.43,0,0,0-.51,1.17,1.24,1.24,0,0,0,.51,1.1,4,4,0,0,0,1.47.5l.8.12a4.24,4.24,0,0,1,2.44,1,2.59,2.59,0,0,1,.72,1.91,2.93,2.93,0,0,1-1,2.36A4.22,4.22,0,0,1,986.62,118Z"/><path class="cls-9" d="M993.8,105a1,1,0,0,1-.75-.25,1,1,0,0,1-.23-.65v-.26a.92.92,0,0,1,.23-.65,1,1,0,0,1,.75-.25,1,1,0,0,1,.75.25.88.88,0,0,1,.23.65v.26a.91.91,0,0,1-.23.65A1,1,0,0,1,993.8,105Zm-.8,2.42h1.6v10.32H993Z"/><path class="cls-9" d="M1006.44,118.89a2.52,2.52,0,0,1-1.25,2.34,7.42,7.42,0,0,1-3.75.75,6.89,6.89,0,0,1-3.48-.66,2.11,2.11,0,0,1-1.06-1.88,1.85,1.85,0,0,1,.44-1.31,2.72,2.72,0,0,1,1.2-.69v-.22a1.48,1.48,0,0,1-.92-1.43,1.47,1.47,0,0,1,.5-1.19,3.31,3.31,0,0,1,1.28-.6v-.08a3.4,3.4,0,0,1-1.43-1.27,3.51,3.51,0,0,1-.51-1.9,3.86,3.86,0,0,1,.28-1.45,3.25,3.25,0,0,1,.79-1.13,3.64,3.64,0,0,1,1.22-.73,5,5,0,0,1,3.55.14v-.18a1.77,1.77,0,0,1,.28-1,1.07,1.07,0,0,1,.92-.39H1006v1.42h-2v.66a3.25,3.25,0,0,1,.87,1.15,3.86,3.86,0,0,1,0,3,3.12,3.12,0,0,1-.79,1.13,3.61,3.61,0,0,1-1.23.74,4.75,4.75,0,0,1-1.6.26,5.74,5.74,0,0,1-1-.1,3.31,3.31,0,0,0-.94.41.85.85,0,0,0-.42.75.62.62,0,0,0,.44.62,3.63,3.63,0,0,0,1.14.16h2.2a4.36,4.36,0,0,1,2.79.72A2.49,2.49,0,0,1,1006.44,118.89Zm-1.5.11a1.16,1.16,0,0,0-.47-1,2.76,2.76,0,0,0-1.67-.37h-3.44a1.46,1.46,0,0,0-1,1.4,1.54,1.54,0,0,0,.51,1.16,2.5,2.5,0,0,0,1.73.48h1.48a4.23,4.23,0,0,0,2.08-.42A1.35,1.35,0,0,0,1004.94,119Zm-3.58-6a2.47,2.47,0,0,0,1.62-.5,1.83,1.83,0,0,0,.6-1.51v-.56a1.85,1.85,0,0,0-.6-1.52,2.92,2.92,0,0,0-3.24,0,1.85,1.85,0,0,0-.6,1.52V111a1.83,1.83,0,0,0,.6,1.51A2.47,2.47,0,0,0,1001.36,113Z"/><path class="cls-9" d="M1008,117.74V107.42h1.6v1.66h.08a3.49,3.49,0,0,1,1.07-1.39,3.05,3.05,0,0,1,1.85-.51,3.22,3.22,0,0,1,2.53,1,4.17,4.17,0,0,1,.93,2.91v6.62h-1.6v-6.36c0-1.85-.78-2.78-2.34-2.78a3.59,3.59,0,0,0-.93.12,2.7,2.7,0,0,0-.81.36,1.7,1.7,0,0,0-.78,1.48v7.18Z"/><path class="cls-9" d="M1023,118a4.72,4.72,0,0,1-1.91-.38,4.34,4.34,0,0,1-1.46-1.09,5.18,5.18,0,0,1-.94-1.7,7.67,7.67,0,0,1,0-4.45,5,5,0,0,1,.94-1.71,4.09,4.09,0,0,1,1.46-1.09,4.56,4.56,0,0,1,1.91-.38,4.24,4.24,0,0,1,1.86.38,4,4,0,0,1,1.4,1,4.58,4.58,0,0,1,.89,1.59,6.14,6.14,0,0,1,.31,2V113h-7.42v.48a3.53,3.53,0,0,0,.21,1.23,2.92,2.92,0,0,0,.6,1,2.74,2.74,0,0,0,1,.66,3.3,3.3,0,0,0,1.29.24,3.16,3.16,0,0,0,1.71-.46,3,3,0,0,0,1.13-1.32l1.14.82a3.91,3.91,0,0,1-1.56,1.72A4.64,4.64,0,0,1,1023,118Zm0-9.46a2.92,2.92,0,0,0-1.2.23,2.62,2.62,0,0,0-.93.64,3.11,3.11,0,0,0-.61,1,3.51,3.51,0,0,0-.22,1.24v.14h5.7v-.22a3.14,3.14,0,0,0-.75-2.2A2.55,2.55,0,0,0,1023,108.52Z"/><path class="cls-9" d="M1029.86,117.74V107.42h1.6v1.9h.1a3,3,0,0,1,3-1.9h.62V109h-.94a3.61,3.61,0,0,0-2,.49,1.44,1.44,0,0,0-.73,1.23v7Z"/><path class="cls-10" d="M1269.76,117.74v-14h8.32v1.48h-6.64v4.68h6.06v1.48h-6.06v6.32Z"/><path class="cls-10" d="M1280.8,117.74V107.42h1.6v1.9h.1a3,3,0,0,1,1-1.32,3.05,3.05,0,0,1,2-.58h.62V109h-.94a3.56,3.56,0,0,0-2,.49,1.42,1.42,0,0,0-.73,1.23v7Z"/><path class="cls-10" d="M1292.06,118a4.67,4.67,0,0,1-1.9-.38,4.1,4.1,0,0,1-1.47-1.09,5,5,0,0,1-1-1.7,7.45,7.45,0,0,1,0-4.45,4.89,4.89,0,0,1,1-1.71,3.88,3.88,0,0,1,1.47-1.09,4.92,4.92,0,0,1,3.79,0,4.21,4.21,0,0,1,1.47,1.09,5.07,5.07,0,0,1,1,1.71,7.45,7.45,0,0,1,0,4.45,5.22,5.22,0,0,1-1,1.7,4.48,4.48,0,0,1-1.47,1.09A4.66,4.66,0,0,1,1292.06,118Zm0-1.42a2.94,2.94,0,0,0,2.12-.8,3.31,3.31,0,0,0,.82-2.44v-1.48a3.28,3.28,0,0,0-.82-2.44,2.9,2.9,0,0,0-2.12-.8,2.87,2.87,0,0,0-2.12.8,3.24,3.24,0,0,0-.82,2.44v1.48a3.27,3.27,0,0,0,.82,2.44A2.91,2.91,0,0,0,1292.06,116.56Z"/><path class="cls-10" d="M1299.38,117.74V107.42h1.6v1.66h.08a3.4,3.4,0,0,1,1.07-1.39,3,3,0,0,1,1.85-.51,3.24,3.24,0,0,1,2.53,1,4.17,4.17,0,0,1,.93,2.91v6.62h-1.6v-6.36c0-1.85-.78-2.78-2.34-2.78a3.59,3.59,0,0,0-.93.12,2.7,2.7,0,0,0-.81.36,1.7,1.7,0,0,0-.78,1.48v7.18Z"/><path class="cls-10" d="M1313,117.74a1.64,1.64,0,0,1-1.27-.47,1.72,1.72,0,0,1-.43-1.23v-7.2h-1.7v-1.42h1a1,1,0,0,0,.71-.21,1.14,1.14,0,0,0,.19-.73v-1.92h1.44v2.86h2.26v1.42h-2.26v7.48h2.1v1.42Z"/><path class="cls-10" d="M1321.68,118a4.65,4.65,0,0,1-1.91-.38,4.15,4.15,0,0,1-1.46-1.09,5,5,0,0,1-.94-1.7,7.67,7.67,0,0,1,0-4.45,4.87,4.87,0,0,1,.94-1.71,3.92,3.92,0,0,1,1.46-1.09,4.49,4.49,0,0,1,1.91-.38,4.3,4.3,0,0,1,1.86.38,4.24,4.24,0,0,1,1.4,1,4.93,4.93,0,0,1,.89,1.59,6.42,6.42,0,0,1,.31,2V113h-7.42v.48a3.53,3.53,0,0,0,.21,1.23,2.92,2.92,0,0,0,.6,1,2.74,2.74,0,0,0,1,.66,3.3,3.3,0,0,0,1.29.24,3.21,3.21,0,0,0,1.71-.46,3.12,3.12,0,0,0,1.13-1.32l1.14.82a4,4,0,0,1-1.56,1.72A4.69,4.69,0,0,1,1321.68,118Zm0-9.46a2.92,2.92,0,0,0-1.2.23,2.62,2.62,0,0,0-.93.64,2.94,2.94,0,0,0-.61,1,3.3,3.3,0,0,0-.22,1.24v.14h5.7v-.22a3.14,3.14,0,0,0-.75-2.2A2.57,2.57,0,0,0,1321.68,108.52Z"/><path class="cls-10" d="M1328.8,117.74V107.42h1.6v1.66h.08a3.4,3.4,0,0,1,1.07-1.39,3,3,0,0,1,1.85-.51,3.24,3.24,0,0,1,2.53,1,4.17,4.17,0,0,1,.93,2.91v6.62h-1.6v-6.36c0-1.85-.78-2.78-2.34-2.78a3.59,3.59,0,0,0-.93.12,2.7,2.7,0,0,0-.81.36,1.7,1.7,0,0,0-.78,1.48v7.18Z"/><path class="cls-10" d="M1346.78,116.08h-.08a3.17,3.17,0,0,1-3,1.9,4,4,0,0,1-1.74-.38,3.87,3.87,0,0,1-1.33-1.08,4.92,4.92,0,0,1-.84-1.7,7.84,7.84,0,0,1-.29-2.24,7.75,7.75,0,0,1,.29-2.24,4.75,4.75,0,0,1,.84-1.7,3.65,3.65,0,0,1,1.33-1.08,3.83,3.83,0,0,1,1.74-.38,3.53,3.53,0,0,1,1.85.46,2.93,2.93,0,0,1,1.17,1.44h.08v-6.14h1.6v14.8h-1.6Zm-2.66.48a3.88,3.88,0,0,0,1-.14,2.6,2.6,0,0,0,.85-.42,2,2,0,0,0,.57-.66,1.86,1.86,0,0,0,.21-.89v-3.86a1.62,1.62,0,0,0-.21-.8,2,2,0,0,0-.57-.63,3.05,3.05,0,0,0-.85-.41,3.52,3.52,0,0,0-1-.15,2.74,2.74,0,0,0-2.14.85,3.2,3.2,0,0,0-.78,2.24v1.77a3.18,3.18,0,0,0,.78,2.24A2.75,2.75,0,0,0,1344.12,116.56Z"/><path class="cls-10" d="M1356.7,103.78h4.67a6,6,0,0,1,2.37.44,4.76,4.76,0,0,1,1.8,1.31,6,6,0,0,1,1.16,2.18,12.12,12.12,0,0,1,0,6.1,6,6,0,0,1-1.16,2.18,4.87,4.87,0,0,1-1.8,1.31,6.21,6.21,0,0,1-2.37.44h-4.67Zm4.67,12.48A4.32,4.32,0,0,0,1363,116a3.66,3.66,0,0,0,1.24-.85,4,4,0,0,0,.8-1.37,5.32,5.32,0,0,0,.29-1.85v-2.28a5.28,5.28,0,0,0-.29-1.85,3.93,3.93,0,0,0-.8-1.37,3.4,3.4,0,0,0-1.24-.85,4.13,4.13,0,0,0-1.59-.29h-3v11Z"/><path class="cls-10" d="M1373.86,118a4.65,4.65,0,0,1-1.91-.38,4.15,4.15,0,0,1-1.46-1.09,5.2,5.2,0,0,1-1-1.7,7.9,7.9,0,0,1,0-4.45,5.05,5.05,0,0,1,1-1.71,3.92,3.92,0,0,1,1.46-1.09,4.49,4.49,0,0,1,1.91-.38,4.3,4.3,0,0,1,1.86.38,4.24,4.24,0,0,1,1.4,1,4.93,4.93,0,0,1,.89,1.59,6.42,6.42,0,0,1,.31,2V113h-7.42v.48a3.53,3.53,0,0,0,.21,1.23,2.92,2.92,0,0,0,.6,1,2.74,2.74,0,0,0,1,.66,3.26,3.26,0,0,0,1.29.24,3.21,3.21,0,0,0,1.71-.46,3,3,0,0,0,1.12-1.32l1.15.82a4,4,0,0,1-1.57,1.72A4.63,4.63,0,0,1,1373.86,118Zm0-9.46a2.92,2.92,0,0,0-1.2.23,2.54,2.54,0,0,0-.93.64,2.94,2.94,0,0,0-.61,1,3.3,3.3,0,0,0-.22,1.24v.14h5.7v-.22a3.14,3.14,0,0,0-.75-2.2A2.57,2.57,0,0,0,1373.86,108.52Z"/><path class="cls-10" d="M1383.26,117.74l-3.62-10.32h1.6l1.8,5.12,1.12,3.52h.1l1.11-3.52,1.85-5.12h1.54l-3.64,10.32Z"/><path class="cls-10" d="M1394.71,118a4.72,4.72,0,0,1-1.91-.38,4.34,4.34,0,0,1-1.46-1.09,5.18,5.18,0,0,1-.94-1.7,7.9,7.9,0,0,1,0-4.45,5,5,0,0,1,.94-1.71,4.09,4.09,0,0,1,1.46-1.09,4.56,4.56,0,0,1,1.91-.38,4.31,4.31,0,0,1,1.87.38,4.1,4.1,0,0,1,1.39,1,4.77,4.77,0,0,1,.9,1.59,6.42,6.42,0,0,1,.3,2V113h-7.42v.48a3.78,3.78,0,0,0,.21,1.23,2.92,2.92,0,0,0,.6,1,2.84,2.84,0,0,0,1,.66,3.3,3.3,0,0,0,1.29.24,3.16,3.16,0,0,0,1.71-.46,3,3,0,0,0,1.13-1.32l1.14.82a3.91,3.91,0,0,1-1.56,1.72A4.64,4.64,0,0,1,1394.71,118Zm0-9.46a2.92,2.92,0,0,0-1.2.23,2.62,2.62,0,0,0-.93.64,3.3,3.3,0,0,0-.61,1,3.51,3.51,0,0,0-.22,1.24v.14h5.71v-.22a3.14,3.14,0,0,0-.75-2.2A2.57,2.57,0,0,0,1394.71,108.52Z"/><path class="cls-10" d="M1403.54,117.74a1.66,1.66,0,0,1-1.28-.47,1.74,1.74,0,0,1-.43-1.19V102.94h1.6v13.38H1405v1.42Z"/><path class="cls-10" d="M1411.19,118a4.74,4.74,0,0,1-1.9-.38,4.15,4.15,0,0,1-1.46-1.09,5.22,5.22,0,0,1-1-1.7,7.67,7.67,0,0,1,0-4.45,5.07,5.07,0,0,1,1-1.71,3.92,3.92,0,0,1,1.46-1.09,4.58,4.58,0,0,1,1.9-.38,4.43,4.43,0,0,1,1.89.38,4,4,0,0,1,1.47,1.09,4.75,4.75,0,0,1,1,1.71,7.45,7.45,0,0,1,0,4.45,4.88,4.88,0,0,1-1,1.7,4.28,4.28,0,0,1-1.47,1.09A4.59,4.59,0,0,1,1411.19,118Zm0-1.42a2.91,2.91,0,0,0,2.12-.8,3.27,3.27,0,0,0,.82-2.44v-1.48a3.24,3.24,0,0,0-.82-2.44,3.2,3.2,0,0,0-4.23,0,3.24,3.24,0,0,0-.83,2.44v1.48a3.27,3.27,0,0,0,.83,2.44A2.9,2.9,0,0,0,1411.19,116.56Z"/><path class="cls-10" d="M1418.51,107.42h1.6v1.66h.08a2.93,2.93,0,0,1,1.17-1.44,3.53,3.53,0,0,1,1.85-.46,3.83,3.83,0,0,1,1.74.38,3.65,3.65,0,0,1,1.33,1.08,4.75,4.75,0,0,1,.84,1.7,7.75,7.75,0,0,1,.29,2.24,7.84,7.84,0,0,1-.29,2.24,4.92,4.92,0,0,1-.84,1.7,3.87,3.87,0,0,1-1.33,1.08,4,4,0,0,1-1.74.38,3.14,3.14,0,0,1-3-1.9h-.08v5.66h-1.6Zm4.26,9.14a2.75,2.75,0,0,0,2.14-.86,3.18,3.18,0,0,0,.78-2.24v-1.77a3.2,3.2,0,0,0-.78-2.24,2.74,2.74,0,0,0-2.14-.85,3.52,3.52,0,0,0-1,.15,3.05,3.05,0,0,0-.85.41,2,2,0,0,0-.57.63,1.62,1.62,0,0,0-.21.8v3.86a1.86,1.86,0,0,0,.21.89,2,2,0,0,0,.57.66,2.6,2.6,0,0,0,.85.42A3.88,3.88,0,0,0,1422.77,116.56Z"/><path class="cls-10" d="M1434,118a4.72,4.72,0,0,1-1.91-.38,4.34,4.34,0,0,1-1.46-1.09,5.18,5.18,0,0,1-.94-1.7,7.67,7.67,0,0,1,0-4.45,5,5,0,0,1,.94-1.71,4.09,4.09,0,0,1,1.46-1.09,4.56,4.56,0,0,1,1.91-.38,4.24,4.24,0,0,1,1.86.38,4,4,0,0,1,1.4,1,4.58,4.58,0,0,1,.89,1.59,6.14,6.14,0,0,1,.31,2V113h-7.42v.48a3.53,3.53,0,0,0,.21,1.23,2.92,2.92,0,0,0,.6,1,2.74,2.74,0,0,0,1,.66,3.3,3.3,0,0,0,1.29.24,3.16,3.16,0,0,0,1.71-.46,3,3,0,0,0,1.13-1.32l1.14.82a3.91,3.91,0,0,1-1.56,1.72A4.64,4.64,0,0,1,1434,118Zm0-9.46a2.92,2.92,0,0,0-1.2.23,2.62,2.62,0,0,0-.93.64,3.11,3.11,0,0,0-.61,1,3.51,3.51,0,0,0-.22,1.24v.14h5.7v-.22a3.14,3.14,0,0,0-.75-2.2A2.55,2.55,0,0,0,1434,108.52Z"/><path class="cls-10" d="M1441.13,117.74V107.42h1.6v1.9h.1a3,3,0,0,1,3-1.9h.62V109h-.94a3.61,3.61,0,0,0-2,.49,1.44,1.44,0,0,0-.73,1.23v7Z"/></g></g></svg>