<svg xmlns="http://www.w3.org/2000/svg" viewBox="0 0 1153.7 1106.57"><defs><style>.cls-1{fill:#000234;}.cls-2{fill:#f15a24;}.cls-3{opacity:0.9;}.cls-4{fill:#1b1464;}.cls-5{fill:#00064c;}</style></defs><g id="Ebene_2" data-name="Ebene 2"><g id="Ebene_1-2" data-name="Ebene 1"><rect class="cls-1" x="2" y="2" width="1149.7" height="1102.57"/><path class="cls-2" d="M9195,3301.43V4400H8049.3V3301.43H9195m4-4H8045.3V4404H9199V3297.43Z" transform="translate(-8045.3 -3297.43)"/><rect class="cls-1" x="48.98" y="57" width="913" height="206.57"/><path class="cls-2" d="M9006.28,3355.43V3560h-911V3355.43h911m2-2h-915V3562h915V3353.43Z" transform="translate(-8045.3 -3297.43)"/><g class="cls-3"><rect class="cls-4" x="87.48" y="104.5" width="836" height="48"/><path class="cls-2" d="M8968.28,3402.43v47h-835v-47h835m1-1h-837v49h837v-49Z" transform="translate(-8045.3 -3297.43)"/></g><rect class="cls-1" x="48.7" y="293.57" width="913" height="537"/><path class="cls-2" d="M9006,3592v535H8095V3592h911m2-2H8093v539h915V3590Z" transform="translate(-8045.3 -3297.43)"/><g class="cls-3"><rect class="cls-4" x="87.2" y="346.07" width="836" height="269"/><path class="cls-2" d="M8968,3644v268H8133V3644h835m1-1H8132v270h837V3643Z" transform="translate(-8045.3 -3297.43)"/></g><path class="cls-2" d="M8068.69,3326.91v-2l9.46-5.39v2.07l-7.57,4.23v.17l7.57,4.25v2.09Z" transform="translate(-8045.3 -3297.43)"/><path class="cls-2" d="M8082,3316.33h2v6.82h.11a3.57,3.57,0,0,1,3.48-2.16,3.82,3.82,0,0,1,3.22,1.54,8.79,8.79,0,0,1,0,8.8,4.2,4.2,0,0,1-5.33,1,3.77,3.77,0,0,1-1.37-1.61H8084v1.9h-2Zm4.79,14.8a2.91,2.91,0,0,0,2.26-.89,3.41,3.41,0,0,0,.8-2.36V3326a3.41,3.41,0,0,0-.8-2.36,2.91,2.91,0,0,0-2.26-.89,3.9,3.9,0,0,0-1,.14,2.78,2.78,0,0,0-.88.43,2.11,2.11,0,0,0-.61.69,2.06,2.06,0,0,0-.22,1v4a2.13,2.13,0,0,0,.22,1,1.93,1.93,0,0,0,.61.69,3,3,0,0,0,.88.42A3.9,3.9,0,0,0,8086.75,3331.13Z" transform="translate(-8045.3 -3297.43)"/><path class="cls-2" d="M8099.82,3332.87a5.5,5.5,0,0,1-2.2-.42,4.48,4.48,0,0,1-1.65-1.19,5.39,5.39,0,0,1-1.05-1.87,8.58,8.58,0,0,1,0-4.92,5.39,5.39,0,0,1,1.05-1.87,4.48,4.48,0,0,1,1.65-1.19,5.95,5.95,0,0,1,4.39,0,4.61,4.61,0,0,1,1.66,1.19,5.22,5.22,0,0,1,1,1.87,8.36,8.36,0,0,1,0,4.92,5.22,5.22,0,0,1-1,1.87,4.61,4.61,0,0,1-1.66,1.19A5.48,5.48,0,0,1,8099.82,3332.87Zm0-1.69a3,3,0,0,0,2.24-.85,3.51,3.51,0,0,0,.84-2.56v-1.68a3.51,3.51,0,0,0-.84-2.56,3.38,3.38,0,0,0-4.48,0,3.51,3.51,0,0,0-.84,2.56v1.68a3.51,3.51,0,0,0,.84,2.56A3,3,0,0,0,8099.82,3331.18Z" transform="translate(-8045.3 -3297.43)"/><path class="cls-2" d="M8115.64,3330.71h-.11a3.57,3.57,0,0,1-3.48,2.16,3.82,3.82,0,0,1-3.22-1.54,8.79,8.79,0,0,1,0-8.8,4.2,4.2,0,0,1,5.33-1,3.77,3.77,0,0,1,1.37,1.61h.11v-6.82h2v16.28h-2Zm-2.75.42a4,4,0,0,0,1-.14,3,3,0,0,0,.88-.42,1.93,1.93,0,0,0,.61-.69,2.13,2.13,0,0,0,.22-1v-4a2.06,2.06,0,0,0-.22-1,2.11,2.11,0,0,0-.61-.69,2.78,2.78,0,0,0-.88-.43,4,4,0,0,0-1-.14,2.91,2.91,0,0,0-2.26.89,3.41,3.41,0,0,0-.8,2.36v1.9a3.41,3.41,0,0,0,.8,2.36A2.91,2.91,0,0,0,8112.89,3331.13Z" transform="translate(-8045.3 -3297.43)"/><path class="cls-2" d="M8129.74,3321.25h2.07l-5.59,13.71a4.62,4.62,0,0,1-.45.89,2.38,2.38,0,0,1-1.44,1,4.36,4.36,0,0,1-1.15.14h-1.78v-1.7H8124l1.17-2.9-4.58-11.16h2.14l1.86,4.76,1.57,4.11h.11l1.56-4.11Z" transform="translate(-8045.3 -3297.43)"/><path class="cls-2" d="M8134.69,3330.23l7.57-4.22v-.18l-7.57-4.25v-2.09l9.46,5.39v2l-9.46,5.39Z" transform="translate(-8045.3 -3297.43)"/><path class="cls-2" d="M8114.69,3379.91v-2l9.46-5.39v2.07l-7.57,4.23v.17l7.57,4.25v2.09Z" transform="translate(-8045.3 -3297.43)"/><path class="cls-2" d="M8128,3369.33h2.05v6.82h.09a4.42,4.42,0,0,1,.45-.82,3.08,3.08,0,0,1,.66-.69,2.8,2.8,0,0,1,.91-.47,3.8,3.8,0,0,1,1.23-.18,3.71,3.71,0,0,1,2.83,1.12,4.46,4.46,0,0,1,1.07,3.19v7.31h-2.05v-7c0-2-.84-2.92-2.53-2.92a4,4,0,0,0-1,.12,2.67,2.67,0,0,0-.84.38,2.13,2.13,0,0,0-.61.66,1.89,1.89,0,0,0-.23.93v7.79H8128Z" transform="translate(-8045.3 -3297.43)"/><path class="cls-2" d="M8146,3385.87a5.89,5.89,0,0,1-2.27-.42,4.59,4.59,0,0,1-1.7-1.19,5.31,5.31,0,0,1-1.07-1.86,7.46,7.46,0,0,1-.37-2.45,7.56,7.56,0,0,1,.38-2.46,5.58,5.58,0,0,1,1.08-1.88,4.72,4.72,0,0,1,1.66-1.2,5.65,5.65,0,0,1,4.25,0,4.56,4.56,0,0,1,1.62,1.15,5.35,5.35,0,0,1,1,1.77,6.78,6.78,0,0,1,.36,2.26v.86h-8.27v.45a3.18,3.18,0,0,0,.88,2.33,3.23,3.23,0,0,0,2.44.91,3.66,3.66,0,0,0,1.94-.49,3.36,3.36,0,0,0,1.27-1.37l1.39,1.08a4.35,4.35,0,0,1-1.73,1.81A5.53,5.53,0,0,1,8146,3385.87Zm-.13-10.25a3.12,3.12,0,0,0-2.28.91,2.89,2.89,0,0,0-.66,1,3.66,3.66,0,0,0-.23,1.3v.18h6.14v-.24a3.19,3.19,0,0,0-.82-2.3A2.8,2.8,0,0,0,8145.91,3375.62Z" transform="translate(-8045.3 -3297.43)"/><path class="cls-2" d="M8163.27,3385.61a2,2,0,0,1-1.49-.52,2.39,2.39,0,0,1-.58-1.35h-.11a3.26,3.26,0,0,1-1.21,1.56,3.89,3.89,0,0,1-2.22.57,4.11,4.11,0,0,1-2.81-.91,3.16,3.16,0,0,1-1-2.52A2.87,2.87,0,0,1,8155,3380a6.49,6.49,0,0,1,3.74-.86H8161v-1a2.34,2.34,0,0,0-.66-1.81,2.69,2.69,0,0,0-1.91-.61,3.51,3.51,0,0,0-1.84.43,3.32,3.32,0,0,0-1.15,1.2l-1.3-1a3.43,3.43,0,0,1,.61-.85,5.08,5.08,0,0,1,.95-.73,5,5,0,0,1,1.28-.5,6.16,6.16,0,0,1,1.6-.19,4.89,4.89,0,0,1,3.27,1,3.61,3.61,0,0,1,1.2,2.9v6h1.52v1.7Zm-5.13-1.35a3.56,3.56,0,0,0,2.09-.57,1.7,1.7,0,0,0,.81-1.43v-1.76h-2.28a4.27,4.27,0,0,0-2.15.42,1.33,1.33,0,0,0-.69,1.21v.46a1.45,1.45,0,0,0,.59,1.26A2.87,2.87,0,0,0,8158.14,3384.26Z" transform="translate(-8045.3 -3297.43)"/><path class="cls-2" d="M8174.84,3383.71h-.11a3.57,3.57,0,0,1-3.48,2.16,3.82,3.82,0,0,1-3.22-1.54,8.79,8.79,0,0,1,0-8.8,4.2,4.2,0,0,1,5.33-1,3.77,3.77,0,0,1,1.37,1.61h.11v-6.82h2v16.28h-2Zm-2.75.42a4,4,0,0,0,1-.14,3,3,0,0,0,.88-.42,1.93,1.93,0,0,0,.61-.69,2.13,2.13,0,0,0,.22-1v-4a2.06,2.06,0,0,0-.22-1,2.11,2.11,0,0,0-.61-.69,2.78,2.78,0,0,0-.88-.43,4,4,0,0,0-1-.14,2.91,2.91,0,0,0-2.26.89,3.41,3.41,0,0,0-.8,2.36v1.9a3.41,3.41,0,0,0,.8,2.36A2.91,2.91,0,0,0,8172.09,3384.13Z" transform="translate(-8045.3 -3297.43)"/><path class="cls-2" d="M8185.64,3385.87a5.89,5.89,0,0,1-2.27-.42,4.59,4.59,0,0,1-1.7-1.19,5.31,5.31,0,0,1-1.07-1.86,7.46,7.46,0,0,1-.37-2.45,7.56,7.56,0,0,1,.38-2.46,5.58,5.58,0,0,1,1.08-1.88,4.72,4.72,0,0,1,1.66-1.2,5.65,5.65,0,0,1,4.25,0,4.44,4.44,0,0,1,1.61,1.15,5.21,5.21,0,0,1,1,1.77,6.78,6.78,0,0,1,.36,2.26v.86h-8.27v.45a3.08,3.08,0,0,0,3.32,3.24,3.68,3.68,0,0,0,1.94-.49,3.43,3.43,0,0,0,1.27-1.37l1.39,1.08a4.35,4.35,0,0,1-1.73,1.81A5.53,5.53,0,0,1,8185.64,3385.87Zm-.13-10.25a3.12,3.12,0,0,0-2.28.91,2.89,2.89,0,0,0-.66,1,3.66,3.66,0,0,0-.23,1.3v.18h6.14v-.24a3.19,3.19,0,0,0-.82-2.3A2.8,2.8,0,0,0,8185.51,3375.62Z" transform="translate(-8045.3 -3297.43)"/><path class="cls-2" d="M8193.69,3383.91h3.19v-8h-3.19v-1.7h5.24v2.93h.13a4.09,4.09,0,0,1,1.31-2.16,3.78,3.78,0,0,1,2.47-.77h1.5v2h-2.2a3.27,3.27,0,0,0-2.35.84,3,3,0,0,0-.86,2.19v4.62h4.29v1.7h-9.53Z" transform="translate(-8045.3 -3297.43)"/><path class="cls-2" d="M8207.09,3383.23l7.57-4.22v-.18l-7.57-4.25v-2.09l9.46,5.39v2l-9.46,5.39Z" transform="translate(-8045.3 -3297.43)"/><path class="cls-2" d="M8114.41,3614.48v-2l9.46-5.39v2.06l-7.57,4.23v.18l7.57,4.24v2.09Z" transform="translate(-8045.3 -3297.43)"/><path class="cls-2" d="M8126.81,3620.18v-11.35h1.83v1.38h.11a3.41,3.41,0,0,1,.75-1.16,1.87,1.87,0,0,1,1.41-.49,2,2,0,0,1,1.46.5,2.19,2.19,0,0,1,.63,1.31h.08a3.5,3.5,0,0,1,.87-1.29,2.28,2.28,0,0,1,1.58-.52,1.92,1.92,0,0,1,1.85,1,6.08,6.08,0,0,1,.5,2.75v7.92h-1.83v-7.64a4,4,0,0,0-.29-1.83,1.08,1.08,0,0,0-1-.52,1.4,1.4,0,0,0-1,.43,1.74,1.74,0,0,0-.42,1.26v8.3h-1.83v-7.64a4,4,0,0,0-.29-1.83,1.05,1.05,0,0,0-1-.52,1.43,1.43,0,0,0-1.08.43,1.74,1.74,0,0,0-.42,1.26v8.3Z" transform="translate(-8045.3 -3297.43)"/><path class="cls-2" d="M8149.78,3620.18a1.89,1.89,0,0,1-1.48-.52,2.4,2.4,0,0,1-.59-1.35h-.11a3.2,3.2,0,0,1-1.21,1.56,3.84,3.84,0,0,1-2.22.57,4.09,4.09,0,0,1-2.8-.91,3.17,3.17,0,0,1-1.05-2.52,2.88,2.88,0,0,1,1.19-2.48,6.39,6.39,0,0,1,3.74-.86h2.31v-1a2.34,2.34,0,0,0-.66-1.82,2.75,2.75,0,0,0-1.91-.6,3.58,3.58,0,0,0-1.84.42,3.34,3.34,0,0,0-1.16,1.2l-1.29-1a3.36,3.36,0,0,1,.61-.85,4.39,4.39,0,0,1,.95-.72,4.88,4.88,0,0,1,1.27-.51,6.71,6.71,0,0,1,1.61-.19,4.84,4.84,0,0,1,3.27,1,3.58,3.58,0,0,1,1.2,2.89v6h1.51v1.69Zm-5.12-1.34a3.58,3.58,0,0,0,2.09-.57,1.72,1.72,0,0,0,.81-1.44v-1.75h-2.29a4.24,4.24,0,0,0-2.14.41,1.35,1.35,0,0,0-.7,1.21v.47a1.43,1.43,0,0,0,.6,1.25A2.77,2.77,0,0,0,8144.66,3618.84Z" transform="translate(-8045.3 -3297.43)"/><path class="cls-2" d="M8154.42,3618.49h4v-8h-4v-1.69h6v9.66h3.74v1.69h-9.77Zm5-12a1.63,1.63,0,0,1-1.17-.34,1.18,1.18,0,0,1-.33-.85v-.42a1.22,1.22,0,0,1,.33-.86,2.13,2.13,0,0,1,2.34,0,1.22,1.22,0,0,1,.33.86v.42a1.18,1.18,0,0,1-.33.85A1.63,1.63,0,0,1,8159.44,3606.52Z" transform="translate(-8045.3 -3297.43)"/><path class="cls-2" d="M8167.36,3620.18v-11.35h2.05v1.89h.08a4.62,4.62,0,0,1,.45-.81,3.38,3.38,0,0,1,.66-.7,3.19,3.19,0,0,1,.92-.47,3.8,3.8,0,0,1,1.23-.18,3.73,3.73,0,0,1,2.83,1.13,4.44,4.44,0,0,1,1.06,3.19v7.3h-2v-6.95c0-1.95-.85-2.93-2.53-2.93a3.93,3.93,0,0,0-1,.12,2.45,2.45,0,0,0-.85.39,1.9,1.9,0,0,0-.6.66,1.72,1.72,0,0,0-.23.92v7.79Z" transform="translate(-8045.3 -3297.43)"/><path class="cls-2" d="M8180.41,3617.8l7.56-4.22v-.18l-7.56-4.24v-2.09l9.46,5.39v2l-9.46,5.39Z" transform="translate(-8045.3 -3297.43)"/><path class="cls-2" d="M8145.41,3671.48v-2l9.46-5.39v2.06l-7.57,4.23v.18l7.57,4.24v2.09Z" transform="translate(-8045.3 -3297.43)"/><path class="cls-2" d="M8167.58,3677.18a1.89,1.89,0,0,1-1.48-.52,2.4,2.4,0,0,1-.59-1.35h-.11a3.2,3.2,0,0,1-1.21,1.56,3.84,3.84,0,0,1-2.22.57,4.09,4.09,0,0,1-2.8-.91,3.17,3.17,0,0,1-1.05-2.52,2.88,2.88,0,0,1,1.19-2.48,6.39,6.39,0,0,1,3.74-.86h2.31v-1a2.34,2.34,0,0,0-.66-1.82,2.75,2.75,0,0,0-1.91-.6,3.61,3.61,0,0,0-1.84.42,3.34,3.34,0,0,0-1.16,1.2l-1.29-1a3.36,3.36,0,0,1,.61-.85,4.39,4.39,0,0,1,1-.72,4.88,4.88,0,0,1,1.27-.51,6.71,6.71,0,0,1,1.61-.19,4.84,4.84,0,0,1,3.27,1,3.58,3.58,0,0,1,1.2,2.89v6h1.51v1.69Zm-5.12-1.34a3.58,3.58,0,0,0,2.09-.57,1.72,1.72,0,0,0,.81-1.44v-1.75h-2.29a4.24,4.24,0,0,0-2.14.41,1.33,1.33,0,0,0-.7,1.21v.47a1.43,1.43,0,0,0,.6,1.25A2.77,2.77,0,0,0,8162.46,3675.84Z" transform="translate(-8045.3 -3297.43)"/><path class="cls-2" d="M8171.61,3675.49h3.19v-8h-3.19v-1.69h5.23v2.92h.14a4,4,0,0,1,1.31-2.15,3.71,3.71,0,0,1,2.47-.77h1.5v2h-2.2a3.2,3.2,0,0,0-2.35.85,2.91,2.91,0,0,0-.87,2.19v4.62h4.29v1.69h-9.52Z" transform="translate(-8045.3 -3297.43)"/><path class="cls-2" d="M8190.35,3677.18a2.55,2.55,0,0,1-2-.76,2.9,2.9,0,0,1-.66-2v-6.93H8184v-1.69h2.64a1.16,1.16,0,0,0,.84-.25,1.14,1.14,0,0,0,.26-.85v-2.91h1.93v4h5v1.69h-5v8h5v1.69Z" transform="translate(-8045.3 -3297.43)"/><path class="cls-2" d="M8198.62,3675.49h4v-8h-4v-1.69h6v9.66h3.74v1.69h-9.77Zm5-12a1.63,1.63,0,0,1-1.17-.34,1.18,1.18,0,0,1-.33-.85v-.42a1.22,1.22,0,0,1,.33-.86,2.13,2.13,0,0,1,2.34,0,1.21,1.21,0,0,1,.32.86v.42a1.17,1.17,0,0,1-.32.85A1.63,1.63,0,0,1,8203.64,3663.52Z" transform="translate(-8045.3 -3297.43)"/><path class="cls-2" d="M8216.55,3677.44a5.79,5.79,0,0,1-2.23-.41,4.51,4.51,0,0,1-1.65-1.2,5.47,5.47,0,0,1-1-1.87,8.3,8.3,0,0,1,0-4.9,5.42,5.42,0,0,1,1-1.88,4.51,4.51,0,0,1,1.65-1.2,5.55,5.55,0,0,1,2.21-.42,4.67,4.67,0,0,1,2.74.74,4.42,4.42,0,0,1,1.55,1.92l-1.61.89a2.73,2.73,0,0,0-1-1.32,2.81,2.81,0,0,0-1.71-.49,2.88,2.88,0,0,0-2.28.91,3.4,3.4,0,0,0-.8,2.33v1.93a3.43,3.43,0,0,0,.8,2.33,3.41,3.41,0,0,0,4.13.39,3.78,3.78,0,0,0,1.14-1.4l1.48,1a4.54,4.54,0,0,1-1.61,1.93A4.93,4.93,0,0,1,8216.55,3677.44Z" transform="translate(-8045.3 -3297.43)"/><path class="cls-2" d="M8224.45,3675.49h3.85v-12.9h-3.85v-1.69h5.9v14.59h3.87v1.69h-9.77Z" transform="translate(-8045.3 -3297.43)"/><path class="cls-2" d="M8242.75,3677.44a6,6,0,0,1-2.26-.41,4.74,4.74,0,0,1-1.71-1.19,5.48,5.48,0,0,1-1.06-1.86,7.54,7.54,0,0,1-.38-2.45,7.36,7.36,0,0,1,.39-2.47,5.36,5.36,0,0,1,1.08-1.88,4.63,4.63,0,0,1,1.66-1.2,5.62,5.62,0,0,1,4.24,0,4.69,4.69,0,0,1,1.62,1.15,5.14,5.14,0,0,1,1,1.78,6.48,6.48,0,0,1,.37,2.25v.86h-8.27v.46a3.23,3.23,0,0,0,.87,2.33,3.27,3.27,0,0,0,2.45.91,3.65,3.65,0,0,0,1.93-.5,3.49,3.49,0,0,0,1.28-1.36l1.39,1.08a4.48,4.48,0,0,1-1.73,1.81A5.56,5.56,0,0,1,8242.75,3677.44Zm-.13-10.25a3.23,3.23,0,0,0-1.27.24,3,3,0,0,0-1,.67,2.85,2.85,0,0,0-.66,1,3.42,3.42,0,0,0-.23,1.3v.17h6.13v-.24a3.25,3.25,0,0,0-.81-2.3A2.81,2.81,0,0,0,8242.62,3667.19Z" transform="translate(-8045.3 -3297.43)"/><path class="cls-2" d="M8251,3674.8l7.57-4.22v-.18l-7.57-4.24v-2.09l9.46,5.39v2l-9.46,5.39Z" transform="translate(-8045.3 -3297.43)"/><path class="cls-2" d="M8145.41,3890.26v-2l9.46-5.39v2.07l-7.57,4.22v.18l7.57,4.24v2.09Z" transform="translate(-8045.3 -3297.43)"/><path class="cls-2" d="M8158.65,3899l7.55-19.76H8168l-7.54,19.76Z" transform="translate(-8045.3 -3297.43)"/><path class="cls-2" d="M8180.78,3896a1.92,1.92,0,0,1-1.48-.51,2.46,2.46,0,0,1-.59-1.36h-.11a3.14,3.14,0,0,1-1.21,1.56,3.77,3.77,0,0,1-2.22.58,4.09,4.09,0,0,1-2.8-.92,3.14,3.14,0,0,1-1.05-2.52,2.88,2.88,0,0,1,1.19-2.48,6.47,6.47,0,0,1,3.74-.86h2.31v-1a2.36,2.36,0,0,0-.66-1.82,2.75,2.75,0,0,0-1.91-.6,3.51,3.51,0,0,0-1.84.43,3.19,3.19,0,0,0-1.16,1.2l-1.29-1a3.32,3.32,0,0,1,.61-.84,4.13,4.13,0,0,1,.95-.73,5.18,5.18,0,0,1,1.28-.51,6.58,6.58,0,0,1,1.6-.18,4.89,4.89,0,0,1,3.27,1,3.59,3.59,0,0,1,1.2,2.89v6h1.51V3896Zm-5.12-1.34a3.58,3.58,0,0,0,2.09-.57,1.7,1.7,0,0,0,.81-1.43v-1.76h-2.29a4.22,4.22,0,0,0-2.14.42,1.33,1.33,0,0,0-.7,1.21v.46a1.42,1.42,0,0,0,.6,1.25A2.77,2.77,0,0,0,8175.66,3894.62Z" transform="translate(-8045.3 -3297.43)"/><path class="cls-2" d="M8184.81,3894.27H8188v-8h-3.19v-1.69H8190v2.93h.14a4,4,0,0,1,1.31-2.16,3.76,3.76,0,0,1,2.47-.77h1.5v2h-2.2a3.2,3.2,0,0,0-2.35.85,2.91,2.91,0,0,0-.87,2.19v4.62h4.29V3896h-9.52Z" transform="translate(-8045.3 -3297.43)"/><path class="cls-2" d="M8203.55,3896a2.55,2.55,0,0,1-2-.76,2.88,2.88,0,0,1-.66-2v-6.93h-3.63v-1.69h2.64a1.2,1.2,0,0,0,.84-.24,1.16,1.16,0,0,0,.26-.86v-2.9h1.93v4h5v1.69h-5v8h5V3896Z" transform="translate(-8045.3 -3297.43)"/><path class="cls-2" d="M8211.82,3894.27h4v-8h-4v-1.69h6v9.66h3.74V3896h-9.77Zm5-12a1.59,1.59,0,0,1-1.17-.34,1.18,1.18,0,0,1-.33-.85v-.42a1.19,1.19,0,0,1,.33-.85,2.08,2.08,0,0,1,2.34,0,1.19,1.19,0,0,1,.33.85v.42a1.18,1.18,0,0,1-.33.85A1.59,1.59,0,0,1,8216.84,3882.3Z" transform="translate(-8045.3 -3297.43)"/><path class="cls-2" d="M8229.75,3896.23a5.61,5.61,0,0,1-2.23-.42,4.51,4.51,0,0,1-1.65-1.2,5.47,5.47,0,0,1-1-1.87,7.5,7.5,0,0,1-.37-2.45,7.59,7.59,0,0,1,.37-2.45,5.42,5.42,0,0,1,1-1.88,4.51,4.51,0,0,1,1.65-1.2,5.73,5.73,0,0,1,2.21-.41,4.67,4.67,0,0,1,2.74.73A4.39,4.39,0,0,1,8234,3887l-1.6.88a2.81,2.81,0,0,0-1-1.32,3.26,3.26,0,0,0-4,.42,3.39,3.39,0,0,0-.81,2.33v1.93a3.37,3.37,0,0,0,.81,2.33,2.9,2.9,0,0,0,2.32.91,2.93,2.93,0,0,0,1.8-.52,3.7,3.7,0,0,0,1.14-1.4l1.48,1a4.54,4.54,0,0,1-1.61,1.93A4.94,4.94,0,0,1,8229.75,3896.23Z" transform="translate(-8045.3 -3297.43)"/><path class="cls-2" d="M8237.65,3894.27h3.85v-12.89h-3.85v-1.7h5.9v14.59h3.87V3896h-9.77Z" transform="translate(-8045.3 -3297.43)"/><path class="cls-2" d="M8256,3896.23a5.85,5.85,0,0,1-2.27-.42,4.74,4.74,0,0,1-1.71-1.19,5.29,5.29,0,0,1-1.06-1.86,8.05,8.05,0,0,1,0-4.92A5.36,5.36,0,0,1,8252,3886a4.63,4.63,0,0,1,1.66-1.2,5.43,5.43,0,0,1,2.13-.41,5.29,5.29,0,0,1,2.11.4,4.72,4.72,0,0,1,1.62,1.16,5.19,5.19,0,0,1,1,1.77,6.48,6.48,0,0,1,.37,2.25v.86h-8.28v.46a3.09,3.09,0,0,0,3.33,3.24,3.74,3.74,0,0,0,1.93-.49,3.45,3.45,0,0,0,1.28-1.37l1.38,1.08a4.33,4.33,0,0,1-1.72,1.81A5.55,5.55,0,0,1,8256,3896.23Zm-.14-10.26a3.06,3.06,0,0,0-1.27.25,3,3,0,0,0-1,.67,2.73,2.73,0,0,0-.66,1,3.46,3.46,0,0,0-.24,1.3v.17h6.14v-.24a3.25,3.25,0,0,0-.81-2.3A2.81,2.81,0,0,0,8255.82,3886Z" transform="translate(-8045.3 -3297.43)"/><path class="cls-2" d="M8264.21,3893.59l7.56-4.23v-.17l-7.56-4.25v-2.09l9.45,5.39v2l-9.45,5.39Z" transform="translate(-8045.3 -3297.43)"/><g class="cls-3"><rect class="cls-4" x="88.2" y="635.07" width="835" height="55"/><path class="cls-2" d="M8968,3933v54H8134v-54h834m1-1H8133v56h836v-56Z" transform="translate(-8045.3 -3297.43)"/></g><path class="cls-2" d="M8154.41,3960.48v-2l9.46-5.39v2.06l-7.57,4.23v.18l7.57,4.24v2.09Z" transform="translate(-8045.3 -3297.43)"/><path class="cls-2" d="M8176.58,3966.18a1.89,1.89,0,0,1-1.48-.52,2.4,2.4,0,0,1-.59-1.35h-.11a3.18,3.18,0,0,1-1.2,1.56,3.9,3.9,0,0,1-2.23.57,4.09,4.09,0,0,1-2.8-.91,3.17,3.17,0,0,1-1.05-2.52,2.88,2.88,0,0,1,1.19-2.48,6.39,6.39,0,0,1,3.74-.86h2.31v-1a2.34,2.34,0,0,0-.66-1.82,2.75,2.75,0,0,0-1.91-.6,3.61,3.61,0,0,0-1.84.42,3.34,3.34,0,0,0-1.16,1.2l-1.29-1a3.36,3.36,0,0,1,.61-.85,4.39,4.39,0,0,1,1-.72,5,5,0,0,1,1.27-.51,6.71,6.71,0,0,1,1.61-.19,4.84,4.84,0,0,1,3.27,1,3.58,3.58,0,0,1,1.2,2.89v6h1.51v1.69Zm-5.12-1.34a3.58,3.58,0,0,0,2.09-.57,1.72,1.72,0,0,0,.81-1.44v-1.75h-2.29a4.26,4.26,0,0,0-2.14.41,1.35,1.35,0,0,0-.7,1.21v.47a1.43,1.43,0,0,0,.6,1.25A2.77,2.77,0,0,0,8171.46,3964.84Z" transform="translate(-8045.3 -3297.43)"/><path class="cls-2" d="M8180.61,3964.49h3.19v-8h-3.19v-1.69h5.23v2.92h.14a4,4,0,0,1,1.31-2.15,3.71,3.71,0,0,1,2.47-.77h1.5v2h-2.2a3.2,3.2,0,0,0-2.35.85,2.91,2.91,0,0,0-.87,2.19v4.62h4.29v1.69h-9.52Z" transform="translate(-8045.3 -3297.43)"/><path class="cls-2" d="M8199.35,3966.18a2.55,2.55,0,0,1-2-.76,2.9,2.9,0,0,1-.66-2v-6.93H8193v-1.69h2.64a1.16,1.16,0,0,0,.84-.25,1.14,1.14,0,0,0,.26-.85v-2.91h1.93v4h5v1.69h-5v8h5v1.69Z" transform="translate(-8045.3 -3297.43)"/><path class="cls-2" d="M8207.62,3964.49h4v-8h-4v-1.69h6v9.66h3.74v1.69h-9.77Zm5-12a1.63,1.63,0,0,1-1.17-.34,1.18,1.18,0,0,1-.33-.85v-.42a1.22,1.22,0,0,1,.33-.86,2.13,2.13,0,0,1,2.34,0,1.22,1.22,0,0,1,.33.86v.42a1.18,1.18,0,0,1-.33.85A1.63,1.63,0,0,1,8212.64,3952.52Z" transform="translate(-8045.3 -3297.43)"/><path class="cls-2" d="M8225.55,3966.44a5.79,5.79,0,0,1-2.23-.41,4.51,4.51,0,0,1-1.65-1.2,5.47,5.47,0,0,1-1-1.87,8.3,8.3,0,0,1,0-4.9,5.42,5.42,0,0,1,1-1.88,4.51,4.51,0,0,1,1.65-1.2,5.55,5.55,0,0,1,2.21-.42,4.67,4.67,0,0,1,2.74.74,4.42,4.42,0,0,1,1.55,1.92l-1.6.89a2.67,2.67,0,0,0-2.69-1.81,2.88,2.88,0,0,0-2.28.91,3.4,3.4,0,0,0-.8,2.33v1.93a3.43,3.43,0,0,0,.8,2.33,3.41,3.41,0,0,0,4.13.39,3.78,3.78,0,0,0,1.14-1.4l1.48,1a4.54,4.54,0,0,1-1.61,1.93A4.93,4.93,0,0,1,8225.55,3966.44Z" transform="translate(-8045.3 -3297.43)"/><path class="cls-2" d="M8233.45,3964.49h3.85v-12.9h-3.85v-1.69h5.9v14.59h3.87v1.69h-9.77Z" transform="translate(-8045.3 -3297.43)"/><path class="cls-2" d="M8251.75,3966.44a6,6,0,0,1-2.26-.41,4.74,4.74,0,0,1-1.71-1.19,5.48,5.48,0,0,1-1.06-1.86,7.54,7.54,0,0,1-.38-2.45,7.36,7.36,0,0,1,.39-2.47,5.36,5.36,0,0,1,1.08-1.88,4.63,4.63,0,0,1,1.66-1.2,5.62,5.62,0,0,1,4.24,0,4.69,4.69,0,0,1,1.62,1.15,5.14,5.14,0,0,1,1,1.78,6.48,6.48,0,0,1,.37,2.25v.86h-8.27v.46a3.23,3.23,0,0,0,.87,2.33,3.29,3.29,0,0,0,2.45.91,3.62,3.62,0,0,0,1.93-.5,3.42,3.42,0,0,0,1.28-1.36l1.39,1.08a4.48,4.48,0,0,1-1.73,1.81A5.56,5.56,0,0,1,8251.75,3966.44Zm-.13-10.25a3.23,3.23,0,0,0-1.27.24,3,3,0,0,0-1,.67,2.85,2.85,0,0,0-.66,1,3.42,3.42,0,0,0-.23,1.3v.17h6.13v-.24a3.25,3.25,0,0,0-.81-2.3A2.81,2.81,0,0,0,8251.62,3956.19Z" transform="translate(-8045.3 -3297.43)"/><path class="cls-2" d="M8260,3963.8l7.57-4.22v-.18l-7.57-4.24v-2.09l9.46,5.39v2l-9.46,5.39Z" transform="translate(-8045.3 -3297.43)"/><path class="cls-2" d="M8286.87,3966.29a1.51,1.51,0,0,1-1.1-.33,1.11,1.11,0,0,1-.33-.82v-.7a1.1,1.1,0,0,1,.33-.81,1.51,1.51,0,0,1,1.1-.33,1.52,1.52,0,0,1,1.1.33,1.1,1.1,0,0,1,.33.81v.7a1.11,1.11,0,0,1-.33.82A1.52,1.52,0,0,1,8286.87,3966.29Zm4.26,0a1.52,1.52,0,0,1-1.1-.33,1.11,1.11,0,0,1-.33-.82v-.7a1.1,1.1,0,0,1,.33-.81,1.52,1.52,0,0,1,1.1-.33,1.51,1.51,0,0,1,1.1.33,1.1,1.1,0,0,1,.33.81v.7a1.11,1.11,0,0,1-.33.82A1.51,1.51,0,0,1,8291.13,3966.29Zm4.27,0a1.52,1.52,0,0,1-1.1-.33,1.11,1.11,0,0,1-.33-.82v-.7a1.1,1.1,0,0,1,.33-.81,1.52,1.52,0,0,1,1.1-.33,1.51,1.51,0,0,1,1.1.33,1.1,1.1,0,0,1,.33.81v.7a1.11,1.11,0,0,1-.33.82A1.51,1.51,0,0,1,8295.4,3966.29Z" transform="translate(-8045.3 -3297.43)"/><path class="cls-2" d="M8312.8,3960.48v-2l9.46-5.39v2.06l-7.56,4.23v.18l7.56,4.24v2.09Z" transform="translate(-8045.3 -3297.43)"/><path class="cls-2" d="M8326.05,3969.21l7.54-19.75h1.83l-7.55,19.75Z" transform="translate(-8045.3 -3297.43)"/><path class="cls-2" d="M8348.18,3966.18a1.91,1.91,0,0,1-1.49-.52,2.39,2.39,0,0,1-.58-1.35H8346a3.2,3.2,0,0,1-1.21,1.56,3.89,3.89,0,0,1-2.22.57,4.13,4.13,0,0,1-2.81-.91,3.19,3.19,0,0,1-1-2.52,2.88,2.88,0,0,1,1.19-2.48,6.39,6.39,0,0,1,3.74-.86H8346v-1a2.34,2.34,0,0,0-.66-1.82,2.76,2.76,0,0,0-1.92-.6,3.54,3.54,0,0,0-1.83.42,3.26,3.26,0,0,0-1.16,1.2l-1.3-1a3.68,3.68,0,0,1,.62-.85,4.33,4.33,0,0,1,.94-.72,5.11,5.11,0,0,1,1.28-.51,6.71,6.71,0,0,1,1.61-.19,4.81,4.81,0,0,1,3.26,1,3.58,3.58,0,0,1,1.2,2.89v6h1.52v1.69Zm-5.13-1.34a3.56,3.56,0,0,0,2.09-.57,1.7,1.7,0,0,0,.82-1.44v-1.75h-2.29a4.31,4.31,0,0,0-2.15.41,1.34,1.34,0,0,0-.69,1.21v.47a1.45,1.45,0,0,0,.59,1.25A2.79,2.79,0,0,0,8343.05,3964.84Z" transform="translate(-8045.3 -3297.43)"/><path class="cls-2" d="M8352.21,3964.49h3.18v-8h-3.18v-1.69h5.23v2.92h.13a4.08,4.08,0,0,1,1.31-2.15,3.74,3.74,0,0,1,2.48-.77h1.49v2h-2.2a3.19,3.19,0,0,0-2.34.85,2.91,2.91,0,0,0-.87,2.19v4.62h4.29v1.69h-9.52Z" transform="translate(-8045.3 -3297.43)"/><path class="cls-2" d="M8371,3966.18a2.56,2.56,0,0,1-2.05-.76,2.9,2.9,0,0,1-.66-2v-6.93h-3.63v-1.69h2.64a1.17,1.17,0,0,0,.85-.25,1.14,1.14,0,0,0,.25-.85v-2.91h1.94v4h5v1.69h-5v8h5v1.69Z" transform="translate(-8045.3 -3297.43)"/><path class="cls-2" d="M8379.22,3964.49h4v-8h-4v-1.69h6v9.66H8389v1.69h-9.77Zm5-12a1.63,1.63,0,0,1-1.17-.34,1.18,1.18,0,0,1-.33-.85v-.42a1.22,1.22,0,0,1,.33-.86,2.11,2.11,0,0,1,2.33,0,1.22,1.22,0,0,1,.33.86v.42a1.18,1.18,0,0,1-.33.85A1.62,1.62,0,0,1,8384.24,3952.52Z" transform="translate(-8045.3 -3297.43)"/><path class="cls-2" d="M8397.15,3966.44a5.76,5.76,0,0,1-2.23-.41,4.35,4.35,0,0,1-1.65-1.2,5.49,5.49,0,0,1-1-1.87,8.52,8.52,0,0,1,0-4.9,5.44,5.44,0,0,1,1-1.88,4.35,4.35,0,0,1,1.65-1.2,5.55,5.55,0,0,1,2.21-.42,4.67,4.67,0,0,1,2.74.74,4.49,4.49,0,0,1,1.55,1.92l-1.61.89a2.68,2.68,0,0,0-1-1.32,2.78,2.78,0,0,0-1.7-.49,2.87,2.87,0,0,0-2.28.91,3.4,3.4,0,0,0-.8,2.33v1.93a3.43,3.43,0,0,0,.8,2.33,3,3,0,0,0,2.32.91,3,3,0,0,0,1.81-.52,3.78,3.78,0,0,0,1.14-1.4l1.47,1a4.45,4.45,0,0,1-1.6,1.93A5,5,0,0,1,8397.15,3966.44Z" transform="translate(-8045.3 -3297.43)"/><path class="cls-2" d="M8405.05,3964.49h3.85v-12.9h-3.85v-1.69h5.89v14.59h3.88v1.69h-9.77Z" transform="translate(-8045.3 -3297.43)"/><path class="cls-2" d="M8423.35,3966.44a6,6,0,0,1-2.26-.41,4.66,4.66,0,0,1-1.71-1.19,5.5,5.5,0,0,1-1.07-1.86,7.55,7.55,0,0,1-.37-2.45,7.62,7.62,0,0,1,.38-2.47,5.68,5.68,0,0,1,1.08-1.88,4.72,4.72,0,0,1,1.66-1.2,5.65,5.65,0,0,1,4.25,0,4.69,4.69,0,0,1,1.62,1.15,5.3,5.3,0,0,1,1,1.78,6.72,6.72,0,0,1,.36,2.25v.86h-8.27v.46a3.2,3.2,0,0,0,.88,2.33,3.27,3.27,0,0,0,2.44.91,3.66,3.66,0,0,0,1.94-.5,3.49,3.49,0,0,0,1.28-1.36l1.38,1.08a4.41,4.41,0,0,1-1.73,1.81A5.5,5.5,0,0,1,8423.35,3966.44Zm-.13-10.25a3.12,3.12,0,0,0-2.28.91,3.14,3.14,0,0,0-.66,1,3.62,3.62,0,0,0-.23,1.3v.17h6.14v-.24a3.25,3.25,0,0,0-.81-2.3A2.84,2.84,0,0,0,8423.22,3956.19Z" transform="translate(-8045.3 -3297.43)"/><path class="cls-2" d="M8431.6,3963.8l7.57-4.22v-.18l-7.57-4.24v-2.09l9.46,5.39v2l-9.46,5.39Z" transform="translate(-8045.3 -3297.43)"/><g class="cls-3"><rect class="cls-4" x="88.2" y="711.07" width="835" height="55"/><path class="cls-2" d="M8968,4009v54H8134v-54h834m1-1H8133v56h836v-56Z" transform="translate(-8045.3 -3297.43)"/></g><path class="cls-2" d="M8154.41,4036.48v-2l9.46-5.39v2.06l-7.57,4.23v.18l7.57,4.24v2.09Z" transform="translate(-8045.3 -3297.43)"/><path class="cls-2" d="M8172.42,4042.44a7.49,7.49,0,0,1-3.12-.59,5.89,5.89,0,0,1-2.16-1.61l1.3-1.16a5.76,5.76,0,0,0,1.74,1.28,5.26,5.26,0,0,0,2.29.46,4.15,4.15,0,0,0,2-.44,1.5,1.5,0,0,0,.79-1.39,1.35,1.35,0,0,0-.16-.67,1.11,1.11,0,0,0-.42-.44,2.18,2.18,0,0,0-.6-.26l-.72-.15-1.78-.26c-.42-.06-.86-.15-1.32-.26a4.26,4.26,0,0,1-1.24-.51,3.06,3.06,0,0,1-.93-.93,2.71,2.71,0,0,1-.36-1.47,3,3,0,0,1,1.31-2.6,4.68,4.68,0,0,1,1.5-.66,8,8,0,0,1,1.9-.22,6.75,6.75,0,0,1,2.7.49,5.56,5.56,0,0,1,1.94,1.32l-1.25,1.23a4.05,4.05,0,0,0-.51-.5,4.56,4.56,0,0,0-.73-.45,5.12,5.12,0,0,0-1-.33,6,6,0,0,0-1.28-.13,3.5,3.5,0,0,0-1.92.43,1.38,1.38,0,0,0-.67,1.24,1.34,1.34,0,0,0,.15.68,1.29,1.29,0,0,0,.42.45,2.05,2.05,0,0,0,.6.26q.34.09.72.15l1.78.27a11.8,11.8,0,0,1,1.32.26,4.58,4.58,0,0,1,1.24.52,2.89,2.89,0,0,1,.93.91,2.71,2.71,0,0,1,.36,1.47,3.11,3.11,0,0,1-1.31,2.67A6,6,0,0,1,8172.42,4042.44Z" transform="translate(-8045.3 -3297.43)"/><path class="cls-2" d="M8185.76,4042.44a6.08,6.08,0,0,1-2.27-.41,4.7,4.7,0,0,1-1.7-1.19,5.34,5.34,0,0,1-1.07-1.86,7.54,7.54,0,0,1-.38-2.45,7.36,7.36,0,0,1,.39-2.47,5.68,5.68,0,0,1,1.08-1.88,4.63,4.63,0,0,1,1.66-1.2,5.62,5.62,0,0,1,4.24,0,4.69,4.69,0,0,1,1.62,1.15,5.32,5.32,0,0,1,1,1.78,6.72,6.72,0,0,1,.36,2.25v.86h-8.27v.46a3.2,3.2,0,0,0,.88,2.33,3.25,3.25,0,0,0,2.44.91,3.62,3.62,0,0,0,1.93-.5,3.42,3.42,0,0,0,1.28-1.36l1.39,1.08a4.48,4.48,0,0,1-1.73,1.81A5.53,5.53,0,0,1,8185.76,4042.44Zm-.14-10.25a3.23,3.23,0,0,0-1.27.24,3.14,3.14,0,0,0-1,.67,2.85,2.85,0,0,0-.66,1,3.42,3.42,0,0,0-.23,1.3v.17h6.13v-.24a3.25,3.25,0,0,0-.81-2.3A2.81,2.81,0,0,0,8185.62,4032.19Z" transform="translate(-8045.3 -3297.43)"/><path class="cls-2" d="M8199.15,4042.44a5.79,5.79,0,0,1-2.23-.41,4.51,4.51,0,0,1-1.65-1.2,5.47,5.47,0,0,1-1-1.87,8.3,8.3,0,0,1,0-4.9,5.42,5.42,0,0,1,1-1.88,4.51,4.51,0,0,1,1.65-1.2,5.55,5.55,0,0,1,2.21-.42,4.67,4.67,0,0,1,2.74.74,4.42,4.42,0,0,1,1.55,1.92l-1.6.89a2.74,2.74,0,0,0-1-1.32,2.81,2.81,0,0,0-1.71-.49,2.85,2.85,0,0,0-2.27.91,3.36,3.36,0,0,0-.81,2.33v1.93a3.39,3.39,0,0,0,.81,2.33,2.93,2.93,0,0,0,2.32.91,3,3,0,0,0,1.8-.52,3.78,3.78,0,0,0,1.14-1.4l1.48,1a4.47,4.47,0,0,1-1.61,1.93A4.93,4.93,0,0,1,8199.15,4042.44Z" transform="translate(-8045.3 -3297.43)"/><path class="cls-2" d="M8212.55,4042.18a2.55,2.55,0,0,1-2-.76,2.9,2.9,0,0,1-.66-2v-6.93h-3.63v-1.69h2.64a1.16,1.16,0,0,0,.84-.25,1.14,1.14,0,0,0,.26-.85v-2.91h1.93v4h5v1.69h-5v8h5v1.69Z" transform="translate(-8045.3 -3297.43)"/><path class="cls-2" d="M8220.82,4040.49h4v-8h-4v-1.69h6v9.66h3.74v1.69h-9.77Zm5-12a1.63,1.63,0,0,1-1.17-.34,1.18,1.18,0,0,1-.33-.85v-.42a1.22,1.22,0,0,1,.33-.86,2.13,2.13,0,0,1,2.34,0,1.22,1.22,0,0,1,.33.86v.42a1.18,1.18,0,0,1-.33.85A1.63,1.63,0,0,1,8225.84,4028.52Z" transform="translate(-8045.3 -3297.43)"/><path class="cls-2" d="M8238.34,4042.44a5.69,5.69,0,0,1-2.21-.41,4.65,4.65,0,0,1-1.64-1.19,5.26,5.26,0,0,1-1-1.87,8,8,0,0,1-.36-2.47,7.85,7.85,0,0,1,.36-2.46,5.17,5.17,0,0,1,1-1.87,4.65,4.65,0,0,1,1.64-1.19,5.95,5.95,0,0,1,4.39,0,4.68,4.68,0,0,1,1.67,1.19,5.3,5.3,0,0,1,1,1.87,7.85,7.85,0,0,1,.36,2.46,8,8,0,0,1-.36,2.47,5.39,5.39,0,0,1-1,1.87,4.68,4.68,0,0,1-1.67,1.19A5.65,5.65,0,0,1,8238.34,4042.44Zm0-1.69a3,3,0,0,0,2.24-.85,3.49,3.49,0,0,0,.84-2.56v-1.67a3.52,3.52,0,0,0-.84-2.57,3.42,3.42,0,0,0-4.49,0,3.52,3.52,0,0,0-.83,2.57v1.67a3.49,3.49,0,0,0,.83,2.56A3,3,0,0,0,8238.34,4040.75Z" transform="translate(-8045.3 -3297.43)"/><path class="cls-2" d="M8247,4042.18v-11.35h2v1.89h.09a4.62,4.62,0,0,1,.45-.81,3.38,3.38,0,0,1,.66-.7,3.19,3.19,0,0,1,.92-.47,3.8,3.8,0,0,1,1.23-.18,3.74,3.74,0,0,1,2.83,1.13,4.44,4.44,0,0,1,1.06,3.19v7.3h-2v-6.95c0-1.95-.85-2.93-2.53-2.93a3.93,3.93,0,0,0-1,.12,2.45,2.45,0,0,0-.85.39,1.9,1.9,0,0,0-.6.66,1.73,1.73,0,0,0-.24.92v7.79Z" transform="translate(-8045.3 -3297.43)"/><path class="cls-2" d="M8260,4039.8l7.57-4.22v-.18l-7.57-4.24v-2.09l9.46,5.39v2l-9.46,5.39Z" transform="translate(-8045.3 -3297.43)"/><path class="cls-2" d="M8286.87,4042.29a1.51,1.51,0,0,1-1.1-.33,1.11,1.11,0,0,1-.33-.82v-.7a1.1,1.1,0,0,1,.33-.81,1.51,1.51,0,0,1,1.1-.33,1.52,1.52,0,0,1,1.1.33,1.1,1.1,0,0,1,.33.81v.7a1.11,1.11,0,0,1-.33.82A1.52,1.52,0,0,1,8286.87,4042.29Zm4.26,0a1.52,1.52,0,0,1-1.1-.33,1.11,1.11,0,0,1-.33-.82v-.7a1.1,1.1,0,0,1,.33-.81,1.52,1.52,0,0,1,1.1-.33,1.51,1.51,0,0,1,1.1.33,1.1,1.1,0,0,1,.33.81v.7a1.11,1.11,0,0,1-.33.82A1.51,1.51,0,0,1,8291.13,4042.29Zm4.27,0a1.52,1.52,0,0,1-1.1-.33,1.11,1.11,0,0,1-.33-.82v-.7a1.1,1.1,0,0,1,.33-.81,1.52,1.52,0,0,1,1.1-.33,1.51,1.51,0,0,1,1.1.33,1.1,1.1,0,0,1,.33.81v.7a1.11,1.11,0,0,1-.33.82A1.51,1.51,0,0,1,8295.4,4042.29Z" transform="translate(-8045.3 -3297.43)"/><path class="cls-2" d="M8312.8,4036.48v-2l9.46-5.39v2.06l-7.56,4.23v.18l7.56,4.24v2.09Z" transform="translate(-8045.3 -3297.43)"/><path class="cls-2" d="M8326.05,4045.21l7.54-19.75h1.83l-7.55,19.75Z" transform="translate(-8045.3 -3297.43)"/><path class="cls-2" d="M8344.46,4042.44a7.49,7.49,0,0,1-3.12-.59,5.89,5.89,0,0,1-2.16-1.61l1.3-1.16a5.52,5.52,0,0,0,1.74,1.28,5.18,5.18,0,0,0,2.28.46,4.17,4.17,0,0,0,2-.44,1.49,1.49,0,0,0,.78-1.39,1.36,1.36,0,0,0-.15-.67,1.27,1.27,0,0,0-.42-.44,2.24,2.24,0,0,0-.61-.26l-.71-.15-1.78-.26a13.36,13.36,0,0,1-1.32-.26,4.32,4.32,0,0,1-1.25-.51,3,3,0,0,1-.92-.93,2.71,2.71,0,0,1-.36-1.47,3,3,0,0,1,1.31-2.6,4.52,4.52,0,0,1,1.49-.66,8.12,8.12,0,0,1,1.9-.22,6.76,6.76,0,0,1,2.71.49,5.66,5.66,0,0,1,1.94,1.32l-1.26,1.23a3.92,3.92,0,0,0-.5-.5,4.56,4.56,0,0,0-.73-.45,5.23,5.23,0,0,0-1-.33,5.91,5.91,0,0,0-1.27-.13,3.56,3.56,0,0,0-1.93.43,1.38,1.38,0,0,0-.67,1.24,1.34,1.34,0,0,0,.15.68,1.51,1.51,0,0,0,.42.45,2.24,2.24,0,0,0,.61.26,6.81,6.81,0,0,0,.71.15l1.79.27a11.22,11.22,0,0,1,1.31.26,4.64,4.64,0,0,1,1.25.52,2.86,2.86,0,0,1,.92.91,2.71,2.71,0,0,1,.36,1.47,3.1,3.1,0,0,1-1.3,2.67A6,6,0,0,1,8344.46,4042.44Z" transform="translate(-8045.3 -3297.43)"/><path class="cls-2" d="M8357.79,4042.44a6,6,0,0,1-2.26-.41,4.66,4.66,0,0,1-1.71-1.19,5.5,5.5,0,0,1-1.07-1.86,7.55,7.55,0,0,1-.37-2.45,7.36,7.36,0,0,1,.39-2.47,5.5,5.5,0,0,1,1.07-1.88,4.81,4.81,0,0,1,1.66-1.2,5.65,5.65,0,0,1,4.25,0,4.69,4.69,0,0,1,1.62,1.15,5.3,5.3,0,0,1,1,1.78,6.72,6.72,0,0,1,.36,2.25v.86h-8.27v.46a3.08,3.08,0,0,0,3.32,3.24,3.66,3.66,0,0,0,1.94-.5,3.49,3.49,0,0,0,1.28-1.36l1.38,1.08a4.38,4.38,0,0,1-1.72,1.81A5.56,5.56,0,0,1,8357.79,4042.44Zm-.13-10.25a3.32,3.32,0,0,0-1.28.24,3.25,3.25,0,0,0-1,.67,3.14,3.14,0,0,0-.66,1,3.62,3.62,0,0,0-.23,1.3v.17h6.14v-.24a3.25,3.25,0,0,0-.81-2.3A2.84,2.84,0,0,0,8357.66,4032.19Z" transform="translate(-8045.3 -3297.43)"/><path class="cls-2" d="M8371.19,4042.44a5.76,5.76,0,0,1-2.23-.41,4.35,4.35,0,0,1-1.65-1.2,5.66,5.66,0,0,1-1-1.87,8.52,8.52,0,0,1,0-4.9,5.61,5.61,0,0,1,1-1.88,4.35,4.35,0,0,1,1.65-1.2,5.55,5.55,0,0,1,2.21-.42,4.67,4.67,0,0,1,2.74.74,4.49,4.49,0,0,1,1.55,1.92l-1.61.89a2.68,2.68,0,0,0-1-1.32,2.76,2.76,0,0,0-1.7-.49,2.88,2.88,0,0,0-2.28.91,3.4,3.4,0,0,0-.8,2.33v1.93a3.43,3.43,0,0,0,.8,2.33,3,3,0,0,0,2.32.91,3,3,0,0,0,1.81-.52,3.78,3.78,0,0,0,1.14-1.4l1.47,1a4.45,4.45,0,0,1-1.6,1.93A5,5,0,0,1,8371.19,4042.44Z" transform="translate(-8045.3 -3297.43)"/><path class="cls-2" d="M8384.59,4042.18a2.56,2.56,0,0,1-2-.76,2.9,2.9,0,0,1-.66-2v-6.93h-3.63v-1.69h2.64a1.17,1.17,0,0,0,.85-.25,1.14,1.14,0,0,0,.25-.85v-2.91h1.94v4h5v1.69h-5v8h5v1.69Z" transform="translate(-8045.3 -3297.43)"/><path class="cls-2" d="M8392.86,4040.49h4v-8h-4v-1.69h6v9.66h3.74v1.69h-9.77Zm5-12a1.63,1.63,0,0,1-1.17-.34,1.18,1.18,0,0,1-.33-.85v-.42a1.22,1.22,0,0,1,.33-.86,2.11,2.11,0,0,1,2.33,0,1.22,1.22,0,0,1,.33.86v.42a1.18,1.18,0,0,1-.33.85A1.62,1.62,0,0,1,8397.88,4028.52Z" transform="translate(-8045.3 -3297.43)"/><path class="cls-2" d="M8410.37,4042.44a5.68,5.68,0,0,1-2.2-.41,4.78,4.78,0,0,1-1.65-1.19,5.39,5.39,0,0,1-1-1.87,7.67,7.67,0,0,1-.37-2.47,7.57,7.57,0,0,1,.37-2.46,5.3,5.3,0,0,1,1-1.87,4.78,4.78,0,0,1,1.65-1.19,5.95,5.95,0,0,1,4.39,0,4.64,4.64,0,0,1,1.66,1.19,5.32,5.32,0,0,1,1.05,1.87,7.85,7.85,0,0,1,.36,2.46,8,8,0,0,1-.36,2.47,5.41,5.41,0,0,1-1.05,1.87,4.64,4.64,0,0,1-1.66,1.19A5.66,5.66,0,0,1,8410.37,4042.44Zm0-1.69a3,3,0,0,0,2.25-.85,3.53,3.53,0,0,0,.83-2.56v-1.67a3.56,3.56,0,0,0-.83-2.57,3,3,0,0,0-2.25-.84,3,3,0,0,0-2.24.84,3.52,3.52,0,0,0-.84,2.57v1.67a3.49,3.49,0,0,0,.84,2.56A3,3,0,0,0,8410.37,4040.75Z" transform="translate(-8045.3 -3297.43)"/><path class="cls-2" d="M8419,4042.18v-11.35h2v1.89h.09a4.62,4.62,0,0,1,.45-.81,2.92,2.92,0,0,1,.66-.7,3.13,3.13,0,0,1,.91-.47,3.88,3.88,0,0,1,1.23-.18,3.71,3.71,0,0,1,2.83,1.13,4.44,4.44,0,0,1,1.07,3.19v7.3h-2.05v-6.95c0-1.95-.84-2.93-2.53-2.93a4,4,0,0,0-1,.12,2.49,2.49,0,0,0-.84.39,2,2,0,0,0-.61.66,1.82,1.82,0,0,0-.23.92v7.79Z" transform="translate(-8045.3 -3297.43)"/><path class="cls-2" d="M8432,4039.8l7.57-4.22v-.18l-7.57-4.24v-2.09l9.46,5.39v2l-9.46,5.39Z" transform="translate(-8045.3 -3297.43)"/><path class="cls-2" d="M8114.41,4097.48v-2l9.46-5.39v2.06l-7.57,4.23v.18l7.57,4.24v2.09Z" transform="translate(-8045.3 -3297.43)"/><path class="cls-2" d="M8127.65,4106.21l7.55-19.75H8137l-7.54,19.75Z" transform="translate(-8045.3 -3297.43)"/><path class="cls-2" d="M8140,4103.18v-11.35h1.83v1.38h.11a3.41,3.41,0,0,1,.75-1.16,1.87,1.87,0,0,1,1.41-.49,2,2,0,0,1,1.46.5,2.19,2.19,0,0,1,.63,1.31h.08a3.5,3.5,0,0,1,.87-1.29,2.28,2.28,0,0,1,1.58-.52,1.89,1.89,0,0,1,1.84,1,5.93,5.93,0,0,1,.51,2.75v7.92h-1.83v-7.64a4,4,0,0,0-.29-1.83,1.08,1.08,0,0,0-1-.52,1.4,1.4,0,0,0-1.05.43,1.74,1.74,0,0,0-.42,1.26v8.3h-1.83v-7.64a4,4,0,0,0-.29-1.83,1.06,1.06,0,0,0-1-.52,1.43,1.43,0,0,0-1.08.43,1.74,1.74,0,0,0-.42,1.26v8.3Z" transform="translate(-8045.3 -3297.43)"/><path class="cls-2" d="M8163,4103.18a1.89,1.89,0,0,1-1.48-.52,2.4,2.4,0,0,1-.59-1.35h-.11a3.2,3.2,0,0,1-1.21,1.56,3.84,3.84,0,0,1-2.22.57,4.09,4.09,0,0,1-2.8-.91,3.17,3.17,0,0,1-1-2.52,2.88,2.88,0,0,1,1.19-2.48,6.39,6.39,0,0,1,3.74-.86h2.31v-1a2.34,2.34,0,0,0-.66-1.82,2.75,2.75,0,0,0-1.91-.6,3.61,3.61,0,0,0-1.84.42,3.34,3.34,0,0,0-1.16,1.2l-1.29-1a3.36,3.36,0,0,1,.61-.85,4.39,4.39,0,0,1,.95-.72,4.88,4.88,0,0,1,1.27-.51,6.71,6.71,0,0,1,1.61-.19,4.84,4.84,0,0,1,3.27,1,3.58,3.58,0,0,1,1.2,2.89v6h1.51v1.69Zm-5.12-1.34a3.58,3.58,0,0,0,2.09-.57,1.72,1.72,0,0,0,.81-1.44v-1.75h-2.29a4.24,4.24,0,0,0-2.14.41,1.35,1.35,0,0,0-.7,1.21v.47a1.43,1.43,0,0,0,.6,1.25A2.77,2.77,0,0,0,8157.86,4101.84Z" transform="translate(-8045.3 -3297.43)"/><path class="cls-2" d="M8167.62,4101.49h4v-8h-4v-1.69h6v9.66h3.74v1.69h-9.77Zm5-12a1.63,1.63,0,0,1-1.17-.34,1.18,1.18,0,0,1-.33-.85v-.42a1.22,1.22,0,0,1,.33-.86,2.13,2.13,0,0,1,2.34,0,1.21,1.21,0,0,1,.32.86v.42a1.17,1.17,0,0,1-.32.85A1.63,1.63,0,0,1,8172.64,4089.52Z" transform="translate(-8045.3 -3297.43)"/><path class="cls-2" d="M8180.56,4103.18v-11.35h2v1.89h.08a4.62,4.62,0,0,1,.45-.81,3.38,3.38,0,0,1,.66-.7,3.19,3.19,0,0,1,.92-.47,3.8,3.8,0,0,1,1.23-.18,3.74,3.74,0,0,1,2.83,1.13,4.44,4.44,0,0,1,1.06,3.19v7.3h-2v-7c0-1.95-.85-2.93-2.53-2.93a3.93,3.93,0,0,0-1,.12,2.45,2.45,0,0,0-.85.39,1.9,1.9,0,0,0-.6.66,1.72,1.72,0,0,0-.23.92v7.79Z" transform="translate(-8045.3 -3297.43)"/><path class="cls-2" d="M8193.61,4100.8l7.56-4.22v-.18l-7.56-4.24v-2.09l9.45,5.39v2l-9.45,5.39Z" transform="translate(-8045.3 -3297.43)"/><path class="cls-2" d="M8152.69,3426.91v-2l9.46-5.39v2.07l-7.57,4.23v.17l7.57,4.25v2.09Z" transform="translate(-8045.3 -3297.43)"/><path class="cls-2" d="M8166.31,3430.91h4v-8h-4v-1.7h6v9.66h3.74v1.7h-9.77Zm5-12a1.58,1.58,0,0,1-1.16-.34,1.15,1.15,0,0,1-.33-.84v-.42a1.2,1.2,0,0,1,.33-.86,2.11,2.11,0,0,1,2.33,0,1.2,1.2,0,0,1,.33.86v.42a1.15,1.15,0,0,1-.33.84A1.59,1.59,0,0,1,8171.32,3418.94Z" transform="translate(-8045.3 -3297.43)"/><path class="cls-2" d="M8178.3,3432.61v-11.36h1.82v1.39h.11a3.56,3.56,0,0,1,.75-1.17,1.91,1.91,0,0,1,1.41-.48,2,2,0,0,1,1.46.49,2.11,2.11,0,0,1,.63,1.31h.09a3.31,3.31,0,0,1,.87-1.28,2.19,2.19,0,0,1,1.57-.52,1.92,1.92,0,0,1,1.85,1,5.92,5.92,0,0,1,.5,2.75v7.92h-1.82V3425a4,4,0,0,0-.3-1.84,1.09,1.09,0,0,0-1-.51,1.4,1.4,0,0,0-1.06.43,1.71,1.71,0,0,0-.42,1.26v8.3h-1.82V3425a4,4,0,0,0-.3-1.84,1.06,1.06,0,0,0-1-.51,1.43,1.43,0,0,0-1.08.43,1.71,1.71,0,0,0-.42,1.26v8.3Z" transform="translate(-8045.3 -3297.43)"/><path class="cls-2" d="M8202.85,3433.88a2.77,2.77,0,0,1-1.44,2.57,9.12,9.12,0,0,1-4.39.82,12.83,12.83,0,0,1-2.42-.19,4.74,4.74,0,0,1-1.61-.55,2.36,2.36,0,0,1-.9-.87,2.29,2.29,0,0,1-.28-1.16,2,2,0,0,1,.49-1.44,2.88,2.88,0,0,1,1.42-.76v-.24a2,2,0,0,1-.83-.61,1.61,1.61,0,0,1-.29-1,1.55,1.55,0,0,1,.57-1.31,4.16,4.16,0,0,1,1.47-.65v-.11a3.54,3.54,0,0,1-1.62-1.35,3.76,3.76,0,0,1-.58-2.12,4.07,4.07,0,0,1,.32-1.62,3.33,3.33,0,0,1,.92-1.24,4.2,4.2,0,0,1,1.41-.79,5.64,5.64,0,0,1,1.84-.29,5.17,5.17,0,0,1,2.2.42v-.29a1.75,1.75,0,0,1,.34-1.11,1.31,1.31,0,0,1,1.11-.45h2.07v1.74h-2.59v.66a3.34,3.34,0,0,1,1,1.26,4,4,0,0,1,.36,1.71,3.92,3.92,0,0,1-.33,1.63,3.49,3.49,0,0,1-.92,1.23,4.48,4.48,0,0,1-1.43.79,5.7,5.7,0,0,1-1.85.29c-.2,0-.41,0-.61,0a3.78,3.78,0,0,1-.6-.08,4.42,4.42,0,0,0-.48.15,2,2,0,0,0-.46.24,1.34,1.34,0,0,0-.36.35.92.92,0,0,0-.13.47.66.66,0,0,0,.51.68,4.64,4.64,0,0,0,1.3.15h2.5a5,5,0,0,1,3.25.84A2.76,2.76,0,0,1,8202.85,3433.88Zm-1.91.11a1.21,1.21,0,0,0-.52-1,3.16,3.16,0,0,0-1.82-.38h-3.91a1.45,1.45,0,0,0-1,1.4,1.54,1.54,0,0,0,.56,1.21,2.79,2.79,0,0,0,1.9.51h1.76a4.68,4.68,0,0,0,2.24-.44A1.41,1.41,0,0,0,8200.94,3434Zm-4-6.62a2.55,2.55,0,0,0,1.85-.58,2.06,2.06,0,0,0,.59-1.55v-.62a2,2,0,0,0-.59-1.55,2.55,2.55,0,0,0-1.85-.58,2.46,2.46,0,0,0-1.82.58,2.08,2.08,0,0,0-.58,1.55v.62a2.1,2.1,0,0,0,.58,1.55A2.46,2.46,0,0,0,8196.93,3427.37Z" transform="translate(-8045.3 -3297.43)"/><path class="cls-2" d="M8223.51,3432.87a7.67,7.67,0,0,1-3.13-.59,5.88,5.88,0,0,1-2.15-1.61l1.3-1.17a5.48,5.48,0,0,0,1.73,1.29,5.41,5.41,0,0,0,2.29.45,4.09,4.09,0,0,0,2-.44,1.47,1.47,0,0,0,.78-1.38,1.26,1.26,0,0,0-.16-.67,1.21,1.21,0,0,0-.42-.45,2.35,2.35,0,0,0-.6-.25q-.35-.09-.72-.15l-1.78-.27a11.68,11.68,0,0,1-1.32-.25,4,4,0,0,1-1.24-.52,2.89,2.89,0,0,1-.92-.92,2.63,2.63,0,0,1-.37-1.47,3.26,3.26,0,0,1,.34-1.51,3.06,3.06,0,0,1,1-1.09,4.68,4.68,0,0,1,1.5-.66,7.56,7.56,0,0,1,1.9-.22,7,7,0,0,1,2.71.48,5.8,5.8,0,0,1,1.93,1.32l-1.25,1.24a3.47,3.47,0,0,0-.51-.5,3.16,3.16,0,0,0-.72-.45,5.23,5.23,0,0,0-1-.33,5.42,5.42,0,0,0-1.28-.13,3.52,3.52,0,0,0-1.92.43,1.37,1.37,0,0,0-.67,1.24,1.34,1.34,0,0,0,.15.68,1.26,1.26,0,0,0,.42.44,2,2,0,0,0,.6.27c.23.05.47.11.72.15l1.78.26a11.05,11.05,0,0,1,1.32.27,4.45,4.45,0,0,1,1.24.52,2.56,2.56,0,0,1,1.29,2.38,3.09,3.09,0,0,1-1.31,2.66A6,6,0,0,1,8223.51,3432.87Z" transform="translate(-8045.3 -3297.43)"/><path class="cls-2" d="M8231.69,3430.91h3.19v-8h-3.19v-1.7h5.24v2.93h.13a4.09,4.09,0,0,1,1.31-2.16,3.78,3.78,0,0,1,2.47-.77h1.5v2h-2.2a3.27,3.27,0,0,0-2.35.84,3,3,0,0,0-.86,2.19v4.62h4.29v1.7h-9.53Z" transform="translate(-8045.3 -3297.43)"/><path class="cls-2" d="M8250.24,3432.87a5.66,5.66,0,0,1-2.24-.42,4.51,4.51,0,0,1-1.65-1.2,5.54,5.54,0,0,1-1-1.87,8.48,8.48,0,0,1,0-4.89,5.5,5.5,0,0,1,1-1.88,4.51,4.51,0,0,1,1.65-1.2,5.58,5.58,0,0,1,2.21-.42,4.65,4.65,0,0,1,2.74.73,4.38,4.38,0,0,1,1.55,1.93l-1.6.88a2.79,2.79,0,0,0-1-1.32,2.88,2.88,0,0,0-1.71-.48,2.85,2.85,0,0,0-2.27.91,3.36,3.36,0,0,0-.81,2.33v1.92a3.36,3.36,0,0,0,.81,2.33,2.91,2.91,0,0,0,2.32.91,3,3,0,0,0,1.8-.51,4,4,0,0,0,1.15-1.4l1.47,1a4.45,4.45,0,0,1-1.61,1.92A4.85,4.85,0,0,1,8250.24,3432.87Z" transform="translate(-8045.3 -3297.43)"/><path class="cls-2" d="M8257.78,3424.49v-1.74h10.47v1.74Zm0,4.51v-1.74h10.47V3429Z" transform="translate(-8045.3 -3297.43)"/><path class="cls-2" d="M8273.84,3416.33h1.65l-1.19,6.29h-3.08Zm5.35,0h1.65l-1.19,6.29h-3.08Z" transform="translate(-8045.3 -3297.43)"/><path class="cls-2" d="M8287,3416.33h1.65l-1.19,6.29h-3.08Zm5.35,0H8294l-1.19,6.29h-3.08Z" transform="translate(-8045.3 -3297.43)"/><path class="cls-2" d="M8311.5,3430.91h4v-8h-4v-1.7h6v9.66h3.74v1.7h-9.77Zm5-12a1.55,1.55,0,0,1-1.16-.34,1.12,1.12,0,0,1-.33-.84v-.42a1.16,1.16,0,0,1,.33-.86,1.54,1.54,0,0,1,1.16-.35,1.59,1.59,0,0,1,1.17.35,1.2,1.2,0,0,1,.33.86v.42a1.15,1.15,0,0,1-.33.84A1.59,1.59,0,0,1,8316.52,3418.94Z" transform="translate(-8045.3 -3297.43)"/><path class="cls-2" d="M8331.63,3430.71h-.11a3.75,3.75,0,0,1-1.36,1.61,4.2,4.2,0,0,1-5.33-1,8.79,8.79,0,0,1,0-8.8,4.2,4.2,0,0,1,5.33-1,3.75,3.75,0,0,1,1.36,1.61h.11v-6.82h2.05v16.28h-2.05Zm-2.75.42a4,4,0,0,0,1.05-.14,3.11,3.11,0,0,0,.88-.42,1.81,1.81,0,0,0,.6-.69,2,2,0,0,0,.22-1v-4a2,2,0,0,0-.22-1,2,2,0,0,0-.6-.69,2.89,2.89,0,0,0-.88-.43,4,4,0,0,0-1.05-.14,2.89,2.89,0,0,0-2.25.89,3.36,3.36,0,0,0-.8,2.36v1.9a3.36,3.36,0,0,0,.8,2.36A2.89,2.89,0,0,0,8328.88,3431.13Z" transform="translate(-8045.3 -3297.43)"/><path class="cls-2" d="M8337,3424.49v-1.74h10.47v1.74Zm0,4.51v-1.74h10.47V3429Z" transform="translate(-8045.3 -3297.43)"/><path class="cls-2" d="M8353,3416.33h1.65l-1.19,6.29h-3.08Zm5.35,0H8360l-1.19,6.29h-3.08Z" transform="translate(-8045.3 -3297.43)"/><path class="cls-2" d="M8363.73,3430.91h3.85V3418h-3.85v-1.69h5.9v14.58h3.87v1.7h-9.77Z" transform="translate(-8045.3 -3297.43)"/><path class="cls-2" d="M8381.82,3432.87a5.43,5.43,0,0,1-2.2-.42,4.61,4.61,0,0,1-1.66-1.19,5.22,5.22,0,0,1-1-1.87,8.59,8.59,0,0,1,0-4.92,5.22,5.22,0,0,1,1-1.87,4.61,4.61,0,0,1,1.66-1.19,5.92,5.92,0,0,1,4.38,0,4.56,4.56,0,0,1,1.67,1.19,5.22,5.22,0,0,1,1,1.87,8.58,8.58,0,0,1,0,4.92,5.22,5.22,0,0,1-1,1.87,4.56,4.56,0,0,1-1.67,1.19A5.47,5.47,0,0,1,8381.82,3432.87Zm0-1.69a3,3,0,0,0,2.24-.85,3.51,3.51,0,0,0,.84-2.56v-1.68a3.51,3.51,0,0,0-.84-2.56,3.39,3.39,0,0,0-4.49,0,3.51,3.51,0,0,0-.83,2.56v1.68a3.51,3.51,0,0,0,.83,2.56A3,3,0,0,0,8381.82,3431.18Z" transform="translate(-8045.3 -3297.43)"/><path class="cls-2" d="M8400.85,3433.88a2.78,2.78,0,0,1-1.45,2.57,9.08,9.08,0,0,1-4.38.82,12.69,12.69,0,0,1-2.42-.19,4.74,4.74,0,0,1-1.61-.55,2.36,2.36,0,0,1-.9-.87,2.29,2.29,0,0,1-.29-1.16,2,2,0,0,1,.5-1.44,2.89,2.89,0,0,1,1.41-.76v-.24a2,2,0,0,1-.82-.61,1.55,1.55,0,0,1-.3-1,1.53,1.53,0,0,1,.58-1.31,4.16,4.16,0,0,1,1.47-.65v-.11a3.57,3.57,0,0,1-1.63-1.35,3.84,3.84,0,0,1-.57-2.12,3.91,3.91,0,0,1,.32-1.62,3.42,3.42,0,0,1,.91-1.24,4.35,4.35,0,0,1,1.42-.79,5.59,5.59,0,0,1,1.84-.29,5.2,5.2,0,0,1,2.2.42v-.29a1.75,1.75,0,0,1,.34-1.11,1.31,1.31,0,0,1,1.11-.45h2.07v1.74h-2.6v.66a3.37,3.37,0,0,1,1.05,1.26,4,4,0,0,1,.36,1.71,3.92,3.92,0,0,1-.33,1.63,3.62,3.62,0,0,1-.92,1.23,4.59,4.59,0,0,1-1.43.79,5.74,5.74,0,0,1-1.85.29c-.21,0-.41,0-.62,0a3.81,3.81,0,0,1-.59-.08,4.58,4.58,0,0,0-.49.15,2.25,2.25,0,0,0-.46.24,1.29,1.29,0,0,0-.35.35.83.83,0,0,0-.13.47.66.66,0,0,0,.5.68,4.69,4.69,0,0,0,1.3.15h2.51a5,5,0,0,1,3.24.84A2.77,2.77,0,0,1,8400.85,3433.88Zm-1.92.11a1.19,1.19,0,0,0-.52-1,3.12,3.12,0,0,0-1.81-.38h-3.92a1.47,1.47,0,0,0-1,1.4,1.58,1.58,0,0,0,.56,1.21,2.82,2.82,0,0,0,1.9.51h1.76a4.75,4.75,0,0,0,2.25-.44A1.4,1.4,0,0,0,8398.93,3434Zm-4-6.62a2.57,2.57,0,0,0,1.85-.58,2.1,2.1,0,0,0,.59-1.55v-.62a2.09,2.09,0,0,0-.59-1.55,2.57,2.57,0,0,0-1.85-.58,2.47,2.47,0,0,0-1.83.58,2.12,2.12,0,0,0-.57,1.55v.62a2.13,2.13,0,0,0,.57,1.55A2.47,2.47,0,0,0,8394.93,3427.37Z" transform="translate(-8045.3 -3297.43)"/><path class="cls-2" d="M8408.21,3432.87a5.5,5.5,0,0,1-2.2-.42,4.53,4.53,0,0,1-1.64-1.19,5.09,5.09,0,0,1-1.05-1.87,8.59,8.59,0,0,1,0-4.92,5.09,5.09,0,0,1,1.05-1.87,4.53,4.53,0,0,1,1.64-1.19,5.95,5.95,0,0,1,4.39,0,4.44,4.44,0,0,1,1.66,1.19,5.09,5.09,0,0,1,1.05,1.87,8.59,8.59,0,0,1,0,4.92,5.09,5.09,0,0,1-1.05,1.87,4.44,4.44,0,0,1-1.66,1.19A5.48,5.48,0,0,1,8408.21,3432.87Zm0-1.69a3,3,0,0,0,2.25-.85,3.51,3.51,0,0,0,.83-2.56v-1.68a3.51,3.51,0,0,0-.83-2.56,3.39,3.39,0,0,0-4.49,0,3.51,3.51,0,0,0-.84,2.56v1.68a3.51,3.51,0,0,0,.84,2.56A3,3,0,0,0,8408.21,3431.18Z" transform="translate(-8045.3 -3297.43)"/><path class="cls-2" d="M8416.68,3430.23l7.57-4.22v-.18l-7.57-4.25v-2.09l9.46,5.39v2l-9.46,5.39Z" transform="translate(-8045.3 -3297.43)"/><g class="cls-3"><rect class="cls-4" x="87.2" y="168.07" width="836" height="48"/><path class="cls-2" d="M8968,3466v47H8133v-47h835m1-1H8132v49h837v-49Z" transform="translate(-8045.3 -3297.43)"/></g><path class="cls-2" d="M8152.41,3490.48v-2l9.46-5.39v2.06l-7.57,4.23v.18l7.57,4.24v2.09Z" transform="translate(-8045.3 -3297.43)"/><path class="cls-2" d="M8165.76,3496.18v-11.35h2.05v1.89h.08a4.1,4.1,0,0,1,.46-.81,2.92,2.92,0,0,1,.66-.7,3,3,0,0,1,.91-.47,3.8,3.8,0,0,1,1.23-.18,3.73,3.73,0,0,1,2.83,1.13,4.44,4.44,0,0,1,1.06,3.19v7.3h-2v-6.95c0-1.95-.85-2.93-2.53-2.93a3.93,3.93,0,0,0-1,.12,2.45,2.45,0,0,0-.85.39,1.9,1.9,0,0,0-.6.66,1.72,1.72,0,0,0-.23.92v7.79Z" transform="translate(-8045.3 -3297.43)"/><path class="cls-2" d="M8187.78,3496.18a1.89,1.89,0,0,1-1.48-.52,2.4,2.4,0,0,1-.59-1.35h-.11a3.2,3.2,0,0,1-1.21,1.56,3.84,3.84,0,0,1-2.22.57,4.09,4.09,0,0,1-2.8-.91,3.17,3.17,0,0,1-1.05-2.52,2.88,2.88,0,0,1,1.19-2.48,6.39,6.39,0,0,1,3.74-.86h2.31v-1a2.34,2.34,0,0,0-.66-1.82,2.75,2.75,0,0,0-1.91-.6,3.58,3.58,0,0,0-1.84.42,3.34,3.34,0,0,0-1.16,1.2l-1.29-1a3.36,3.36,0,0,1,.61-.85,4.39,4.39,0,0,1,.95-.72,4.88,4.88,0,0,1,1.27-.51,6.71,6.71,0,0,1,1.61-.19,4.84,4.84,0,0,1,3.27,1,3.58,3.58,0,0,1,1.2,2.89v6h1.51v1.69Zm-5.12-1.34a3.58,3.58,0,0,0,2.09-.57,1.72,1.72,0,0,0,.81-1.44v-1.75h-2.29a4.24,4.24,0,0,0-2.14.41,1.35,1.35,0,0,0-.7,1.21v.47a1.43,1.43,0,0,0,.6,1.25A2.77,2.77,0,0,0,8182.66,3494.84Z" transform="translate(-8045.3 -3297.43)"/><path class="cls-2" d="M8195.46,3496.18l-4.07-11.35h2.09l1.61,4.77,1.62,4.86h.11l1.63-4.86,1.59-4.77h2l-4.07,11.35Z" transform="translate(-8045.3 -3297.43)"/><path class="cls-2" d="M8205.21,3493.8l7.56-4.22v-.18l-7.56-4.24v-2.09l9.46,5.39v2l-9.46,5.39Z" transform="translate(-8045.3 -3297.43)"/><path class="cls-2" d="M8232.07,3496.29a1.51,1.51,0,0,1-1.1-.33,1.11,1.11,0,0,1-.33-.82v-.7a1.1,1.1,0,0,1,.33-.81,1.51,1.51,0,0,1,1.1-.33,1.52,1.52,0,0,1,1.1.33,1.1,1.1,0,0,1,.33.81v.7a1.11,1.11,0,0,1-.33.82A1.52,1.52,0,0,1,8232.07,3496.29Zm4.26,0a1.54,1.54,0,0,1-1.1-.33,1.11,1.11,0,0,1-.33-.82v-.7a1.1,1.1,0,0,1,.33-.81,2,2,0,0,1,2.21,0,1.13,1.13,0,0,1,.32.81v.7a1.14,1.14,0,0,1-.32.82A1.55,1.55,0,0,1,8236.33,3496.29Zm4.27,0a1.52,1.52,0,0,1-1.1-.33,1.11,1.11,0,0,1-.33-.82v-.7a1.1,1.1,0,0,1,.33-.81,1.52,1.52,0,0,1,1.1-.33,1.51,1.51,0,0,1,1.1.33,1.1,1.1,0,0,1,.33.81v.7a1.11,1.11,0,0,1-.33.82A1.51,1.51,0,0,1,8240.6,3496.29Z" transform="translate(-8045.3 -3297.43)"/><path class="cls-2" d="M8258,3490.48v-2l9.46-5.39v2.06l-7.56,4.23v.18l7.56,4.24v2.09Z" transform="translate(-8045.3 -3297.43)"/><path class="cls-2" d="M8271.25,3499.21l7.54-19.75h1.83l-7.55,19.75Z" transform="translate(-8045.3 -3297.43)"/><path class="cls-2" d="M8284.56,3496.18v-11.35h2v1.89h.09a4.62,4.62,0,0,1,.45-.81,3.38,3.38,0,0,1,.66-.7,3.07,3.07,0,0,1,.92-.47,3.8,3.8,0,0,1,1.23-.18,3.74,3.74,0,0,1,2.83,1.13,4.44,4.44,0,0,1,1.06,3.19v7.3h-2v-6.95c0-1.95-.85-2.93-2.53-2.93a3.93,3.93,0,0,0-1,.12,2.45,2.45,0,0,0-.85.39,2,2,0,0,0-.61.66,1.82,1.82,0,0,0-.23.92v7.79Z" transform="translate(-8045.3 -3297.43)"/><path class="cls-2" d="M8306.58,3496.18a1.91,1.91,0,0,1-1.49-.52,2.39,2.39,0,0,1-.58-1.35h-.11a3.2,3.2,0,0,1-1.21,1.56,3.89,3.89,0,0,1-2.22.57,4.13,4.13,0,0,1-2.81-.91,3.19,3.19,0,0,1-1-2.52,2.88,2.88,0,0,1,1.19-2.48,6.39,6.39,0,0,1,3.74-.86h2.31v-1a2.34,2.34,0,0,0-.66-1.82,2.76,2.76,0,0,0-1.92-.6,3.57,3.57,0,0,0-1.83.42,3.26,3.26,0,0,0-1.16,1.2l-1.3-1a3.68,3.68,0,0,1,.62-.85,4.33,4.33,0,0,1,.94-.72,5.11,5.11,0,0,1,1.28-.51,6.71,6.71,0,0,1,1.61-.19,4.86,4.86,0,0,1,3.27,1,3.6,3.6,0,0,1,1.19,2.89v6h1.52v1.69Zm-5.13-1.34a3.56,3.56,0,0,0,2.09-.57,1.7,1.7,0,0,0,.82-1.44v-1.75h-2.29a4.31,4.31,0,0,0-2.15.41,1.34,1.34,0,0,0-.69,1.21v.47a1.43,1.43,0,0,0,.6,1.25A2.74,2.74,0,0,0,8301.45,3494.84Z" transform="translate(-8045.3 -3297.43)"/><path class="cls-2" d="M8314.26,3496.18l-4.07-11.35h2.09l1.6,4.77,1.63,4.86h.11l1.63-4.86,1.58-4.77h2l-4.07,11.35Z" transform="translate(-8045.3 -3297.43)"/><path class="cls-2" d="M8324,3493.8l7.57-4.22v-.18l-7.57-4.24v-2.09l9.46,5.39v2l-9.46,5.39Z" transform="translate(-8045.3 -3297.43)"/><g class="cls-3"><rect class="cls-5" x="121.2" y="397.07" width="768" height="48"/><path class="cls-2" d="M8934,3695v47H8167v-47h767m1-1H8166v49h769v-49Z" transform="translate(-8045.3 -3297.43)"/></g><path class="cls-2" d="M8184.75,3719.48v-2l8.69-5.39v2.07l-7,4.22v.18l7,4.24v2.09Z" transform="translate(-8045.3 -3297.43)"/><path class="cls-2" d="M8197.42,3708.9h1.88v6.82h.08a4.45,4.45,0,0,1,.42-.81,2.89,2.89,0,0,1,.6-.7,2.86,2.86,0,0,1,.84-.47,3.58,3.58,0,0,1,3.73,1,4.7,4.7,0,0,1,1,3.19v7.3h-1.88v-6.95c0-1.95-.77-2.93-2.32-2.93a3.37,3.37,0,0,0-.9.12,2.2,2.2,0,0,0-.78.39,2,2,0,0,0-.56.66,1.92,1.92,0,0,0-.21.92v7.79h-1.88Z" transform="translate(-8045.3 -3297.43)"/><path class="cls-2" d="M8209.43,3725.18v-1.8h4v-12h-.14l-3.42,3.69-1.17-1.25,3.66-4h3v13.56H8219v1.8Z" transform="translate(-8045.3 -3297.43)"/><path class="cls-2" d="M8221.54,3722.8l6.95-4.22v-.18l-6.95-4.24v-2.09l8.69,5.39v2l-8.69,5.39Z" transform="translate(-8045.3 -3297.43)"/><path class="cls-2" d="M8252.7,3718.32h-5.13v6.86h-2v-15.36h2v6.69h5.13v-6.69h2v15.36h-2Z" transform="translate(-8045.3 -3297.43)"/><path class="cls-2" d="M8262.46,3725.44a5.18,5.18,0,0,1-2.08-.41,4.28,4.28,0,0,1-1.56-1.19,5.41,5.41,0,0,1-1-1.86,8.1,8.1,0,0,1-.35-2.45,7.92,7.92,0,0,1,.36-2.47,5.52,5.52,0,0,1,1-1.88,4.31,4.31,0,0,1,1.52-1.2,4.79,4.79,0,0,1,3.9,0,4.21,4.21,0,0,1,1.49,1.16,5.18,5.18,0,0,1,1,1.77,7.28,7.28,0,0,1,.33,2.25v.86h-7.6v.46a3.37,3.37,0,0,0,.81,2.33,2.88,2.88,0,0,0,2.25.91,3.12,3.12,0,0,0,1.77-.5,3.34,3.34,0,0,0,1.18-1.36l1.27,1.08a4.32,4.32,0,0,1-1.59,1.81A4.75,4.75,0,0,1,8262.46,3725.44Zm-.12-10.25a2.78,2.78,0,0,0-1.17.24,3.07,3.07,0,0,0-.92.67,3,3,0,0,0-.6,1,3.62,3.62,0,0,0-.22,1.3v.17h5.64v-.24a3.41,3.41,0,0,0-.75-2.3A2.46,2.46,0,0,0,8262.34,3715.19Z" transform="translate(-8045.3 -3297.43)"/><path class="cls-2" d="M8278.29,3725.18a1.66,1.66,0,0,1-1.36-.52,2.51,2.51,0,0,1-.54-1.35h-.1a3.2,3.2,0,0,1-1.11,1.56,3.34,3.34,0,0,1-2,.57,3.58,3.58,0,0,1-2.58-.91,3.32,3.32,0,0,1-1-2.52,3,3,0,0,1,1.09-2.48,5.51,5.51,0,0,1,3.44-.86h2.12v-1a2.44,2.44,0,0,0-.61-1.82,2.39,2.39,0,0,0-1.76-.6,3,3,0,0,0-1.68.43,3.07,3.07,0,0,0-1.06,1.19l-1.2-1a3.72,3.72,0,0,1,.57-.85,3.88,3.88,0,0,1,.87-.72,4.31,4.31,0,0,1,1.17-.51,5.7,5.7,0,0,1,1.48-.19,4.22,4.22,0,0,1,3,1,3.75,3.75,0,0,1,1.1,2.89v6h1.39v1.69Zm-4.71-1.34a3.08,3.08,0,0,0,1.92-.57,1.75,1.75,0,0,0,.75-1.43v-1.76h-2.1a3.64,3.64,0,0,0-2,.41,1.36,1.36,0,0,0-.64,1.21v.47a1.47,1.47,0,0,0,.55,1.25A2.38,2.38,0,0,0,8273.58,3723.84Z" transform="translate(-8045.3 -3297.43)"/><path class="cls-2" d="M8288.92,3723.29h-.1a3.73,3.73,0,0,1-1.25,1.6,3.29,3.29,0,0,1-1.94.55,3.42,3.42,0,0,1-3-1.54,9.5,9.5,0,0,1,0-8.8,3.44,3.44,0,0,1,3-1.54,3.36,3.36,0,0,1,1.94.55,3.82,3.82,0,0,1,1.25,1.61h.1v-6.82h1.88v16.28h-1.88Zm-2.52.42a3.11,3.11,0,0,0,1-.15,2.41,2.41,0,0,0,.81-.42,1.87,1.87,0,0,0,.55-.69,2.13,2.13,0,0,0,.2-1v-4a2,2,0,0,0-.2-.95,2.09,2.09,0,0,0-.55-.7,2.62,2.62,0,0,0-.81-.43,3.43,3.43,0,0,0-1-.14,2.58,2.58,0,0,0-2.08.89,3.63,3.63,0,0,0-.73,2.37v1.89a3.58,3.58,0,0,0,.73,2.36A2.56,2.56,0,0,0,8286.4,3723.71Z" transform="translate(-8045.3 -3297.43)"/><path class="cls-2" d="M8294.16,3723.49h3.54v-12.9h-3.54v-1.69h5.42v14.59h3.55v1.69h-9Z" transform="translate(-8045.3 -3297.43)"/><path class="cls-2" d="M8306.81,3723.49h3.66v-8h-3.66v-1.69h5.54v9.66h3.44v1.69h-9Zm4.61-12a1.41,1.41,0,0,1-1.07-.34,1.25,1.25,0,0,1-.31-.85v-.42a1.3,1.3,0,0,1,.31-.86,1.81,1.81,0,0,1,2.14,0,1.29,1.29,0,0,1,.3.86v.42a1.24,1.24,0,0,1-.3.85A1.41,1.41,0,0,1,8311.42,3711.52Z" transform="translate(-8045.3 -3297.43)"/><path class="cls-2" d="M8318.7,3725.18v-11.35h1.88v1.89h.08a3.86,3.86,0,0,1,.41-.81,2.93,2.93,0,0,1,.61-.7,2.62,2.62,0,0,1,.84-.47,3.23,3.23,0,0,1,1.13-.18,3.29,3.29,0,0,1,2.6,1.13,4.7,4.7,0,0,1,1,3.19v7.3h-1.88v-6.95c0-1.95-.78-2.93-2.33-2.93a3.37,3.37,0,0,0-.9.12,2.2,2.2,0,0,0-.78.39,2,2,0,0,0-.55.66,1.92,1.92,0,0,0-.21.92v7.79Z" transform="translate(-8045.3 -3297.43)"/><path class="cls-2" d="M8335.23,3725.44a5.15,5.15,0,0,1-2.08-.41,4.4,4.4,0,0,1-1.57-1.19,5.58,5.58,0,0,1-1-1.86,8.11,8.11,0,0,1-.34-2.45,8.23,8.23,0,0,1,.35-2.47,5.89,5.89,0,0,1,1-1.88,4.44,4.44,0,0,1,1.53-1.2,4.5,4.5,0,0,1,2-.42,4.55,4.55,0,0,1,1.94.41,4.18,4.18,0,0,1,1.48,1.16,5,5,0,0,1,.95,1.77,7,7,0,0,1,.34,2.25v.86h-7.6v.46a3.37,3.37,0,0,0,.81,2.33,2.84,2.84,0,0,0,2.24.91,3.15,3.15,0,0,0,1.78-.5,3.25,3.25,0,0,0,1.17-1.36l1.27,1.08a4.23,4.23,0,0,1-1.58,1.81A4.77,4.77,0,0,1,8335.23,3725.44Zm-.12-10.25a2.78,2.78,0,0,0-1.17.24,3.07,3.07,0,0,0-.92.67,2.88,2.88,0,0,0-.61,1,3.85,3.85,0,0,0-.21,1.3v.17h5.64v-.24a3.41,3.41,0,0,0-.75-2.3A2.49,2.49,0,0,0,8335.11,3715.19Z" transform="translate(-8045.3 -3297.43)"/><path class="cls-2" d="M8354.94,3719.48v-2l8.69-5.39v2.07l-6.95,4.22v.18l6.95,4.24v2.09Z" transform="translate(-8045.3 -3297.43)"/><path class="cls-2" d="M8367.1,3728.22l6.94-19.76h1.67l-6.93,19.76Z" transform="translate(-8045.3 -3297.43)"/><path class="cls-2" d="M8379.33,3708.9h1.88v6.82h.08a4.45,4.45,0,0,1,.42-.81,3.13,3.13,0,0,1,.6-.7,2.86,2.86,0,0,1,.84-.47,3.58,3.58,0,0,1,3.73,1,4.65,4.65,0,0,1,1,3.19v7.3H8386v-6.95c0-1.95-.77-2.93-2.32-2.93a3.37,3.37,0,0,0-.9.12,2.2,2.2,0,0,0-.78.39,1.87,1.87,0,0,0-.55.66,1.82,1.82,0,0,0-.22.92v7.79h-1.88Z" transform="translate(-8045.3 -3297.43)"/><path class="cls-2" d="M8391.34,3725.18v-1.8h4v-12h-.14l-3.42,3.69-1.17-1.25,3.66-4h3v13.56h3.58v1.8Z" transform="translate(-8045.3 -3297.43)"/><path class="cls-2" d="M8403.45,3722.8l6.95-4.22v-.18l-6.95-4.24v-2.09l8.69,5.39v2l-8.69,5.39Z" transform="translate(-8045.3 -3297.43)"/><g class="cls-3"><rect class="cls-5" x="121.2" y="455.07" width="768" height="48"/><path class="cls-2" d="M8934,3753v47H8167v-47h767m1-1H8166v49h769v-49Z" transform="translate(-8045.3 -3297.43)"/></g><path class="cls-2" d="M8184.75,3777.48v-2l8.69-5.39v2.07l-7,4.22v.18l7,4.24v2.09Z" transform="translate(-8045.3 -3297.43)"/><path class="cls-2" d="M8196.94,3771.83h1.88v1.89h.1a3.82,3.82,0,0,1,1.25-1.61,3.36,3.36,0,0,1,1.94-.55,3.43,3.43,0,0,1,3,1.54,9.5,9.5,0,0,1,0,8.8,3.41,3.41,0,0,1-3,1.54,3.29,3.29,0,0,1-1.94-.55,3.73,3.73,0,0,1-1.25-1.6h-.1v6.29h-1.88Zm4.4,9.88a2.56,2.56,0,0,0,2.08-.9,3.58,3.58,0,0,0,.73-2.36v-1.89a3.63,3.63,0,0,0-.73-2.37,2.58,2.58,0,0,0-2.08-.89,3.43,3.43,0,0,0-1,.14,2.62,2.62,0,0,0-.81.43,2.09,2.09,0,0,0-.55.7,2,2,0,0,0-.2.95v4a2.13,2.13,0,0,0,.2,1,1.87,1.87,0,0,0,.55.69,2.41,2.41,0,0,0,.81.42A3.11,3.11,0,0,0,8201.34,3781.71Z" transform="translate(-8045.3 -3297.43)"/><path class="cls-2" d="M8209,3780.8l7-4.22v-.18l-7-4.24v-2.09l8.7,5.39v2l-8.7,5.39Z" transform="translate(-8045.3 -3297.43)"/><path class="cls-2" d="M8233.87,3783.18v-15.36h2v13.56h6.56v1.8Z" transform="translate(-8045.3 -3297.43)"/><path class="cls-2" d="M8249.73,3783.44a4.83,4.83,0,0,1-2-.41,4.4,4.4,0,0,1-1.52-1.19,5.79,5.79,0,0,1-1-1.87,8.63,8.63,0,0,1-.33-2.47,8.51,8.51,0,0,1,.33-2.46,5.69,5.69,0,0,1,1-1.87,4.4,4.4,0,0,1,1.52-1.19,5,5,0,0,1,4,0,4.34,4.34,0,0,1,1.53,1.19,5.34,5.34,0,0,1,1,1.87,8.51,8.51,0,0,1,.33,2.46,8.63,8.63,0,0,1-.33,2.47,5.42,5.42,0,0,1-1,1.87,4.34,4.34,0,0,1-1.53,1.19A4.85,4.85,0,0,1,8249.73,3783.44Zm0-1.69a2.63,2.63,0,0,0,2.06-.85,3.66,3.66,0,0,0,.77-2.56v-1.67a3.69,3.69,0,0,0-.77-2.57,2.95,2.95,0,0,0-4.12,0,3.74,3.74,0,0,0-.77,2.57v1.67a3.71,3.71,0,0,0,.77,2.56A2.63,2.63,0,0,0,8249.73,3781.75Z" transform="translate(-8045.3 -3297.43)"/><path class="cls-2" d="M8257.33,3781.49h2.93v-8h-2.93v-1.69h4.81v2.92h.12a4.09,4.09,0,0,1,1.21-2.15,3.24,3.24,0,0,1,2.27-.77h1.38v2h-2a2.79,2.79,0,0,0-2.15.85,3.06,3.06,0,0,0-.8,2.19v4.62h3.94v1.69h-8.75Z" transform="translate(-8045.3 -3297.43)"/><path class="cls-2" d="M8274.19,3783.44a5.15,5.15,0,0,1-2.08-.41,4.31,4.31,0,0,1-1.57-1.19,5.58,5.58,0,0,1-1-1.86,8.11,8.11,0,0,1-.34-2.45,7.93,7.93,0,0,1,.35-2.47,5.89,5.89,0,0,1,1-1.88,4.26,4.26,0,0,1,1.53-1.2,4.5,4.5,0,0,1,2-.42,4.55,4.55,0,0,1,1.94.41,4.18,4.18,0,0,1,1.48,1.16,5.18,5.18,0,0,1,1,1.77,7,7,0,0,1,.34,2.25v.86h-7.6v.46a3.42,3.42,0,0,0,.8,2.33,2.88,2.88,0,0,0,2.25.91,3.15,3.15,0,0,0,1.78-.5,3.25,3.25,0,0,0,1.17-1.36l1.27,1.08a4.23,4.23,0,0,1-1.58,1.81A4.77,4.77,0,0,1,8274.19,3783.44Zm-.12-10.25a2.86,2.86,0,0,0-1.18.24,3,3,0,0,0-.91.67,2.88,2.88,0,0,0-.61,1,3.85,3.85,0,0,0-.21,1.3v.17h5.64v-.24a3.41,3.41,0,0,0-.75-2.3A2.49,2.49,0,0,0,8274.07,3773.19Z" transform="translate(-8045.3 -3297.43)"/><path class="cls-2" d="M8281,3783.18v-11.35h1.68v1.38h.1a3.28,3.28,0,0,1,.69-1.16,1.66,1.66,0,0,1,1.29-.49,1.76,1.76,0,0,1,1.34.5,2.24,2.24,0,0,1,.58,1.31h.08a3.58,3.58,0,0,1,.8-1.29,2,2,0,0,1,1.44-.52,1.72,1.72,0,0,1,1.7,1,6.42,6.42,0,0,1,.47,2.75v7.92h-1.68v-7.63a4.36,4.36,0,0,0-.27-1.84,1,1,0,0,0-.94-.52,1.23,1.23,0,0,0-1,.43,1.84,1.84,0,0,0-.39,1.27v8.29h-1.67v-7.63a4.32,4.32,0,0,0-.28-1.84,1,1,0,0,0-.92-.52,1.27,1.27,0,0,0-1,.43,1.89,1.89,0,0,0-.38,1.27v8.29Z" transform="translate(-8045.3 -3297.43)"/><path class="cls-2" d="M8307.78,3767.82v9.31c0,.7,0,1.33,0,1.89a4.61,4.61,0,0,0,.3,1.42,1.84,1.84,0,0,0,.78.89,2.86,2.86,0,0,0,1.46.31,2.81,2.81,0,0,0,1.45-.31,1.84,1.84,0,0,0,.78-.89,4.32,4.32,0,0,0,.31-1.42c0-.56,0-1.19,0-1.89v-9.31h2v8.87a25.25,25.25,0,0,1-.16,3,5.53,5.53,0,0,1-.66,2.1,3.09,3.09,0,0,1-1.39,1.26,5.34,5.34,0,0,1-2.34.43,5.42,5.42,0,0,1-2.35-.43,3.12,3.12,0,0,1-1.38-1.26,5.53,5.53,0,0,1-.66-2.1,25.25,25.25,0,0,1-.16-3v-8.87Z" transform="translate(-8045.3 -3297.43)"/><path class="cls-2" d="M8318.21,3771.83h1.88v1.89h.1a3.76,3.76,0,0,1,1.26-1.61,3.34,3.34,0,0,1,1.94-.55,3.44,3.44,0,0,1,3,1.54,9.5,9.5,0,0,1,0,8.8,3.42,3.42,0,0,1-3,1.54,3.27,3.27,0,0,1-1.94-.55,3.67,3.67,0,0,1-1.26-1.6h-.1v6.29h-1.88Zm4.41,9.88a2.52,2.52,0,0,0,2.07-.9,3.58,3.58,0,0,0,.74-2.36v-1.89a3.63,3.63,0,0,0-.74-2.37,2.54,2.54,0,0,0-2.07-.89,3.32,3.32,0,0,0-1,.14,2.42,2.42,0,0,0-.81.43,2.12,2.12,0,0,0-.56.7,2.18,2.18,0,0,0-.2.95v4a2.27,2.27,0,0,0,.2,1,1.9,1.9,0,0,0,.56.69,2.23,2.23,0,0,0,.81.42A3,3,0,0,0,8322.62,3781.71Z" transform="translate(-8045.3 -3297.43)"/><path class="cls-2" d="M8334.71,3783.44a6.44,6.44,0,0,1-2.88-.59,5.58,5.58,0,0,1-2-1.61l1.2-1.16a5.19,5.19,0,0,0,1.59,1.28,4.53,4.53,0,0,0,2.11.46,3.59,3.59,0,0,0,1.87-.44,1.53,1.53,0,0,0,.71-1.39,1.38,1.38,0,0,0-.14-.67,1.16,1.16,0,0,0-.38-.44,1.78,1.78,0,0,0-.56-.25l-.66-.16-1.63-.26c-.39-.06-.8-.15-1.22-.25a4.21,4.21,0,0,1-1.14-.52,2.69,2.69,0,0,1-1.18-2.4,3.45,3.45,0,0,1,.31-1.51,3.13,3.13,0,0,1,.89-1.09,4.11,4.11,0,0,1,1.38-.66,6.81,6.81,0,0,1,1.75-.22,5.93,5.93,0,0,1,2.48.49,5.12,5.12,0,0,1,1.78,1.32l-1.15,1.23a3.55,3.55,0,0,0-.47-.5,4.23,4.23,0,0,0-.66-.45,4.86,4.86,0,0,0-.89-.33,5.13,5.13,0,0,0-1.18-.13,3,3,0,0,0-1.76.43,1.41,1.41,0,0,0-.62,1.24,1.54,1.54,0,0,0,.14.69,1.33,1.33,0,0,0,.38.44,2.05,2.05,0,0,0,.56.26,6.38,6.38,0,0,0,.66.15l1.63.27a9.9,9.9,0,0,1,1.22.26,4,4,0,0,1,1.14.52,2.75,2.75,0,0,1,.85.91,2.92,2.92,0,0,1,.33,1.48,3.2,3.2,0,0,1-1.2,2.66A5.18,5.18,0,0,1,8334.71,3783.44Z" transform="translate(-8045.3 -3297.43)"/><path class="cls-2" d="M8349.08,3781.29H8349a4,4,0,0,1-.42.82,2.83,2.83,0,0,1-.61.68,2.64,2.64,0,0,1-.84.48,3.49,3.49,0,0,1-1.13.17,3.26,3.26,0,0,1-2.59-1.12,4.67,4.67,0,0,1-1-3.19v-7.3h1.88v7c0,1.95.77,2.93,2.32,2.93a3,3,0,0,0,.9-.13,2.18,2.18,0,0,0,.78-.38,2.07,2.07,0,0,0,.55-.66,1.92,1.92,0,0,0,.22-.92v-7.79H8351v11.35h-1.88Z" transform="translate(-8045.3 -3297.43)"/><path class="cls-2" d="M8353.8,3783.18v-11.35h1.68v1.38h.1a3.44,3.44,0,0,1,.69-1.16,1.69,1.69,0,0,1,1.29-.49,1.8,1.8,0,0,1,1.35.5,2.24,2.24,0,0,1,.58,1.31h.08a3.43,3.43,0,0,1,.79-1.29,2,2,0,0,1,1.45-.52,1.73,1.73,0,0,1,1.7,1,6.44,6.44,0,0,1,.46,2.75v7.92h-1.68v-7.63a4.36,4.36,0,0,0-.27-1.84,1,1,0,0,0-.94-.52,1.24,1.24,0,0,0-1,.43,1.89,1.89,0,0,0-.38,1.27v8.29h-1.68v-7.63a4.36,4.36,0,0,0-.27-1.84,1,1,0,0,0-.92-.52,1.24,1.24,0,0,0-1,.43,1.84,1.84,0,0,0-.39,1.27v8.29Z" transform="translate(-8045.3 -3297.43)"/><path class="cls-2" d="M8397.67,3781.29h-.1a3.67,3.67,0,0,1-1.26,1.6,3.27,3.27,0,0,1-1.94.55,3.42,3.42,0,0,1-3-1.54,9.5,9.5,0,0,1,0-8.8,3.44,3.44,0,0,1,3-1.54,3.34,3.34,0,0,1,1.94.55,3.76,3.76,0,0,1,1.26,1.61h.1v-6.82h1.88v16.28h-1.88Zm-2.53.42a3,3,0,0,0,1-.15,2.41,2.41,0,0,0,.81-.42,1.87,1.87,0,0,0,.55-.69,2.13,2.13,0,0,0,.21-1v-4a2,2,0,0,0-.21-.95,2.09,2.09,0,0,0-.55-.7,2.62,2.62,0,0,0-.81-.43,3.32,3.32,0,0,0-1-.14,2.54,2.54,0,0,0-2.07.89,3.63,3.63,0,0,0-.74,2.37v1.89a3.58,3.58,0,0,0,.74,2.36A2.52,2.52,0,0,0,8395.14,3781.71Z" transform="translate(-8045.3 -3297.43)"/><path class="cls-2" d="M8407.39,3783.44a4.79,4.79,0,0,1-2-.41,4.31,4.31,0,0,1-1.52-1.19,5.42,5.42,0,0,1-1-1.87,8.63,8.63,0,0,1-.33-2.47,8.51,8.51,0,0,1,.33-2.46,5.34,5.34,0,0,1,1-1.87,4.31,4.31,0,0,1,1.52-1.19,4.65,4.65,0,0,1,2-.42,4.7,4.7,0,0,1,2,.42,4.34,4.34,0,0,1,1.53,1.19,5.69,5.69,0,0,1,1,1.87,8.51,8.51,0,0,1,.33,2.46,8.63,8.63,0,0,1-.33,2.47,5.79,5.79,0,0,1-1,1.87,4.34,4.34,0,0,1-1.53,1.19A4.85,4.85,0,0,1,8407.39,3783.44Zm0-1.69a2.63,2.63,0,0,0,2.06-.85,3.71,3.71,0,0,0,.77-2.56v-1.67a3.74,3.74,0,0,0-.77-2.57,2.95,2.95,0,0,0-4.12,0,3.69,3.69,0,0,0-.77,2.57v1.67a3.66,3.66,0,0,0,.77,2.56A2.63,2.63,0,0,0,8407.39,3781.75Z" transform="translate(-8045.3 -3297.43)"/><path class="cls-2" d="M8415,3781.49h3.54v-12.9H8415v-1.69h5.42v14.59H8424v1.69h-9Z" transform="translate(-8045.3 -3297.43)"/><path class="cls-2" d="M8431.64,3783.44a4.83,4.83,0,0,1-2-.41,4.27,4.27,0,0,1-1.51-1.19,5.42,5.42,0,0,1-1-1.87,8.29,8.29,0,0,1-.34-2.47,8.17,8.17,0,0,1,.34-2.46,5.34,5.34,0,0,1,1-1.87,4.27,4.27,0,0,1,1.51-1.19,5,5,0,0,1,4,0,4.34,4.34,0,0,1,1.53,1.19,5.34,5.34,0,0,1,1,1.87,8.51,8.51,0,0,1,.33,2.46,8.63,8.63,0,0,1-.33,2.47,5.42,5.42,0,0,1-1,1.87,4.34,4.34,0,0,1-1.53,1.19A4.85,4.85,0,0,1,8431.64,3783.44Zm0-1.69a2.65,2.65,0,0,0,2.07-.85,3.71,3.71,0,0,0,.76-2.56v-1.67a3.74,3.74,0,0,0-.76-2.57,3,3,0,0,0-4.13,0,3.74,3.74,0,0,0-.77,2.57v1.67a3.71,3.71,0,0,0,.77,2.56A2.63,2.63,0,0,0,8431.64,3781.75Z" transform="translate(-8045.3 -3297.43)"/><path class="cls-2" d="M8439.24,3781.49h2.93v-8h-2.93v-1.69h4.81v2.92h.13a4,4,0,0,1,1.2-2.15,3.24,3.24,0,0,1,2.27-.77H8449v2h-2a2.79,2.79,0,0,0-2.15.85,3.06,3.06,0,0,0-.8,2.19v4.62h4v1.69h-8.76Z" transform="translate(-8045.3 -3297.43)"/><path class="cls-2" d="M8463,3783.18v-11.35h1.68v1.38h.1a3.28,3.28,0,0,1,.69-1.16,1.67,1.67,0,0,1,1.29-.49,1.8,1.8,0,0,1,1.35.5,2.29,2.29,0,0,1,.57,1.31h.08a3.58,3.58,0,0,1,.8-1.29,2,2,0,0,1,1.45-.52,1.71,1.71,0,0,1,1.69,1,6.42,6.42,0,0,1,.47,2.75v7.92h-1.68v-7.63a4.36,4.36,0,0,0-.27-1.84,1,1,0,0,0-.94-.52,1.23,1.23,0,0,0-1,.43,1.84,1.84,0,0,0-.38,1.27v8.29h-1.68v-7.63a4.17,4.17,0,0,0-.28-1.84.94.94,0,0,0-.92-.52,1.27,1.27,0,0,0-1,.43,1.89,1.89,0,0,0-.38,1.27v8.29Z" transform="translate(-8045.3 -3297.43)"/><path class="cls-2" d="M8480.36,3783.44a5.2,5.2,0,0,1-2.09-.41,4.28,4.28,0,0,1-1.56-1.19,5.41,5.41,0,0,1-1-1.86,8.1,8.1,0,0,1-.35-2.45,7.92,7.92,0,0,1,.36-2.47,5.52,5.52,0,0,1,1-1.88,4.31,4.31,0,0,1,1.52-1.2,4.79,4.79,0,0,1,3.9,0,4.21,4.21,0,0,1,1.49,1.16,5.18,5.18,0,0,1,1,1.77,7.28,7.28,0,0,1,.33,2.25v.86h-7.6v.46a3.37,3.37,0,0,0,.81,2.33,2.88,2.88,0,0,0,2.25.91,3.12,3.12,0,0,0,1.77-.5,3.34,3.34,0,0,0,1.18-1.36l1.27,1.08a4.32,4.32,0,0,1-1.59,1.81A4.74,4.74,0,0,1,8480.36,3783.44Zm-.13-10.25a2.78,2.78,0,0,0-1.17.24,3.07,3.07,0,0,0-.92.67,3,3,0,0,0-.6,1,3.62,3.62,0,0,0-.22,1.3v.17H8483v-.24a3.41,3.41,0,0,0-.75-2.3A2.46,2.46,0,0,0,8480.23,3773.19Z" transform="translate(-8045.3 -3297.43)"/><path class="cls-2" d="M8492.85,3783.18a2.24,2.24,0,0,1-1.88-.76,3,3,0,0,1-.61-2v-6.93H8487v-1.69h2.42a1.07,1.07,0,0,0,.78-.24,1.28,1.28,0,0,0,.23-.86v-2.91h1.78v4h4.63v1.69h-4.63v8h4.63v1.69Z" transform="translate(-8045.3 -3297.43)"/><path class="cls-2" d="M8520.44,3783.18a1.68,1.68,0,0,1-1.37-.52,2.43,2.43,0,0,1-.53-1.35h-.1a3.16,3.16,0,0,1-1.12,1.56,3.34,3.34,0,0,1-2,.57,3.56,3.56,0,0,1-2.57-.91,3.28,3.28,0,0,1-1-2.52,3,3,0,0,1,1.09-2.48,5.47,5.47,0,0,1,3.43-.86h2.12v-1a2.48,2.48,0,0,0-.6-1.82,2.41,2.41,0,0,0-1.76-.6,3,3,0,0,0-1.69.43,3.07,3.07,0,0,0-1.06,1.19l-1.19-1a3.37,3.37,0,0,1,.56-.85,4.28,4.28,0,0,1,2.05-1.23,5.57,5.57,0,0,1,1.47-.19,4.19,4.19,0,0,1,3,1,3.72,3.72,0,0,1,1.11,2.89v6h1.39v1.69Zm-4.71-1.34a3.08,3.08,0,0,0,1.92-.57,1.74,1.74,0,0,0,.74-1.43v-1.76h-2.1a3.66,3.66,0,0,0-2,.41,1.37,1.37,0,0,0-.63,1.21v.47a1.49,1.49,0,0,0,.54,1.25A2.41,2.41,0,0,0,8515.73,3781.84Z" transform="translate(-8045.3 -3297.43)"/><path class="cls-2" d="M8523.59,3783.18v-11.35h1.68v1.38h.1a3.28,3.28,0,0,1,.69-1.16,1.66,1.66,0,0,1,1.29-.49,1.76,1.76,0,0,1,1.34.5,2.24,2.24,0,0,1,.58,1.31h.08a3.44,3.44,0,0,1,.8-1.29,2,2,0,0,1,1.44-.52,1.72,1.72,0,0,1,1.7,1,6.42,6.42,0,0,1,.47,2.75v7.92h-1.68v-7.63a4.36,4.36,0,0,0-.27-1.84,1,1,0,0,0-.94-.52,1.21,1.21,0,0,0-1,.43,1.84,1.84,0,0,0-.39,1.27v8.29h-1.68v-7.63a4.36,4.36,0,0,0-.27-1.84,1,1,0,0,0-.92-.52,1.27,1.27,0,0,0-1,.43,1.84,1.84,0,0,0-.38,1.27v8.29Z" transform="translate(-8045.3 -3297.43)"/><path class="cls-2" d="M8541,3783.44a5.15,5.15,0,0,1-2.08-.41,4.4,4.4,0,0,1-1.57-1.19,5.58,5.58,0,0,1-1-1.86,8.11,8.11,0,0,1-.34-2.45,8.23,8.23,0,0,1,.35-2.47,5.89,5.89,0,0,1,1-1.88,4.44,4.44,0,0,1,1.53-1.2,4.79,4.79,0,0,1,3.9,0,4.21,4.21,0,0,1,1.49,1.16,5.35,5.35,0,0,1,.95,1.77,7.28,7.28,0,0,1,.33,2.25v.86H8538v.46a3.37,3.37,0,0,0,.81,2.33,2.87,2.87,0,0,0,2.24.91,3.15,3.15,0,0,0,1.78-.5,3.25,3.25,0,0,0,1.17-1.36l1.28,1.08a4.32,4.32,0,0,1-1.59,1.81A4.77,4.77,0,0,1,8541,3783.44Zm-.12-10.25a2.78,2.78,0,0,0-1.17.24,3.07,3.07,0,0,0-.92.67,3,3,0,0,0-.61,1,3.85,3.85,0,0,0-.21,1.3v.17h5.64v-.24a3.41,3.41,0,0,0-.75-2.3A2.49,2.49,0,0,0,8540.87,3773.19Z" transform="translate(-8045.3 -3297.43)"/><path class="cls-2" d="M8553.48,3783.18a2.26,2.26,0,0,1-1.88-.76,3.07,3.07,0,0,1-.6-2v-6.93h-3.34v-1.69h2.43a1.07,1.07,0,0,0,.78-.24,1.28,1.28,0,0,0,.23-.86v-2.91h1.78v4h4.63v1.69h-4.63v8h4.63v1.69Z" transform="translate(-8045.3 -3297.43)"/><path class="cls-2" d="M8572.83,3777.48v-2l8.69-5.39v2.07l-7,4.22v.18l7,4.24v2.09Z" transform="translate(-8045.3 -3297.43)"/><path class="cls-2" d="M8585,3786.22l6.93-19.76h1.68l-6.94,19.76Z" transform="translate(-8045.3 -3297.43)"/><path class="cls-2" d="M8597.14,3771.83H8599v1.89h.1a3.76,3.76,0,0,1,1.26-1.61,3.34,3.34,0,0,1,1.94-.55,3.44,3.44,0,0,1,3,1.54,9.5,9.5,0,0,1,0,8.8,3.42,3.42,0,0,1-3,1.54,3.27,3.27,0,0,1-1.94-.55,3.67,3.67,0,0,1-1.26-1.6h-.1v6.29h-1.88Zm4.41,9.88a2.52,2.52,0,0,0,2.07-.9,3.58,3.58,0,0,0,.74-2.36v-1.89a3.63,3.63,0,0,0-.74-2.37,2.54,2.54,0,0,0-2.07-.89,3.32,3.32,0,0,0-1,.14,2.62,2.62,0,0,0-.81.43,2.12,2.12,0,0,0-.56.7,2.18,2.18,0,0,0-.2.95v4a2.27,2.27,0,0,0,.2,1,1.9,1.9,0,0,0,.56.69,2.41,2.41,0,0,0,.81.42A3,3,0,0,0,8601.55,3781.71Z" transform="translate(-8045.3 -3297.43)"/><path class="cls-2" d="M8609.21,3780.8l7-4.22v-.18l-7-4.24v-2.09l8.69,5.39v2l-8.69,5.39Z" transform="translate(-8045.3 -3297.43)"/><g class="cls-3"><rect class="cls-5" x="121.2" y="513.07" width="768" height="48"/><path class="cls-2" d="M8934,3811v47H8167v-47h767m1-1H8166v49h769v-49Z" transform="translate(-8045.3 -3297.43)"/></g><path class="cls-2" d="M8184.75,3835.48v-2l8.69-5.39v2.07l-7,4.22v.18l7,4.24v2.09Z" transform="translate(-8045.3 -3297.43)"/><path class="cls-2" d="M8205.12,3841.18a1.66,1.66,0,0,1-1.36-.52,2.51,2.51,0,0,1-.54-1.35h-.1a3.2,3.2,0,0,1-1.11,1.56,3.34,3.34,0,0,1-2,.57,3.58,3.58,0,0,1-2.58-.91,3.32,3.32,0,0,1-1-2.52,3,3,0,0,1,1.09-2.48,5.53,5.53,0,0,1,3.44-.86h2.12v-1a2.44,2.44,0,0,0-.61-1.82,2.38,2.38,0,0,0-1.75-.6,3,3,0,0,0-1.69.43,3.07,3.07,0,0,0-1.06,1.19l-1.19-1a3.37,3.37,0,0,1,.56-.85,3.88,3.88,0,0,1,.87-.72,4.45,4.45,0,0,1,1.17-.51,5.7,5.7,0,0,1,1.48-.19,4.22,4.22,0,0,1,3,1,3.75,3.75,0,0,1,1.1,2.89v6h1.4v1.69Zm-4.71-1.34a3.06,3.06,0,0,0,1.92-.57,1.75,1.75,0,0,0,.75-1.43v-1.76H8201a3.64,3.64,0,0,0-2,.41,1.36,1.36,0,0,0-.64,1.21v.47a1.47,1.47,0,0,0,.55,1.25A2.38,2.38,0,0,0,8200.41,3839.84Z" transform="translate(-8045.3 -3297.43)"/><path class="cls-2" d="M8221.27,3824.9h1.88v6.82h.08a4.45,4.45,0,0,1,.42-.81,3.13,3.13,0,0,1,.6-.7,2.86,2.86,0,0,1,.84-.47,3.58,3.58,0,0,1,3.73,1,4.65,4.65,0,0,1,1,3.19v7.3h-1.88v-6.95c0-1.95-.77-2.93-2.32-2.93a3.37,3.37,0,0,0-.9.12,2.2,2.2,0,0,0-.78.39,1.87,1.87,0,0,0-.55.66,1.82,1.82,0,0,0-.22.92v7.79h-1.88Z" transform="translate(-8045.3 -3297.43)"/><path class="cls-2" d="M8233.08,3839.49H8236v-8h-2.93v-1.69h4.81v2.92h.12a4.15,4.15,0,0,1,1.2-2.15,3.25,3.25,0,0,1,2.28-.77h1.37v2h-2a2.79,2.79,0,0,0-2.15.85,3,3,0,0,0-.8,2.19v4.62h3.94v1.69h-8.75Z" transform="translate(-8045.3 -3297.43)"/><path class="cls-2" d="M8249.93,3841.44a5.18,5.18,0,0,1-2.08-.41,4.28,4.28,0,0,1-1.56-1.19,5.42,5.42,0,0,1-1-1.86,8.43,8.43,0,0,1-.34-2.45,7.92,7.92,0,0,1,.36-2.47,5.52,5.52,0,0,1,1-1.88,4.31,4.31,0,0,1,1.52-1.2,4.79,4.79,0,0,1,3.9,0,4.21,4.21,0,0,1,1.49,1.16,5.18,5.18,0,0,1,1,1.77,7.28,7.28,0,0,1,.33,2.25v.86h-7.6v.46a3.37,3.37,0,0,0,.81,2.33,2.87,2.87,0,0,0,2.24.91,3.15,3.15,0,0,0,1.78-.5,3.34,3.34,0,0,0,1.18-1.36l1.27,1.08a4.32,4.32,0,0,1-1.59,1.81A4.77,4.77,0,0,1,8249.93,3841.44Zm-.12-10.25a2.78,2.78,0,0,0-1.17.24,3.07,3.07,0,0,0-.92.67,3.2,3.2,0,0,0-.61,1,3.85,3.85,0,0,0-.21,1.3v.17h5.64v-.24a3.41,3.41,0,0,0-.75-2.3A2.49,2.49,0,0,0,8249.81,3831.19Z" transform="translate(-8045.3 -3297.43)"/><path class="cls-2" d="M8257.43,3839.49h3.42v-8h-3.62v-1.69h3.62v-2.2a3,3,0,0,1,.61-2,2.24,2.24,0,0,1,1.87-.76h3.5v1.69h-4.1v3.24h4.1v1.69h-4.1v8h3.64v1.69h-8.94Z" transform="translate(-8045.3 -3297.43)"/><path class="cls-2" d="M8269.18,3833.06v-1.74h9.62v1.74Zm0,4.51v-1.74h9.62v1.74Z" transform="translate(-8045.3 -3297.43)"/><path class="cls-2" d="M8283.93,3824.9h1.52l-1.09,6.29h-2.83Zm4.91,0h1.52l-1.09,6.29h-2.83Z" transform="translate(-8045.3 -3297.43)"/><path class="cls-2" d="M8303.6,3842.46a2.8,2.8,0,0,1-1.33,2.56,7.76,7.76,0,0,1-4,.82,11.63,11.63,0,0,1-2.22-.18,4.54,4.54,0,0,1-1.48-.55,2.45,2.45,0,0,1-.83-.87,2.58,2.58,0,0,1-.26-1.17,2.09,2.09,0,0,1,.46-1.44,2.63,2.63,0,0,1,1.3-.76v-.24a1.86,1.86,0,0,1-.76-.61,1.64,1.64,0,0,1-.27-1,1.58,1.58,0,0,1,.52-1.31,3.45,3.45,0,0,1,1.36-.65V3837a3.36,3.36,0,0,1-1.5-1.36,4.09,4.09,0,0,1-.52-2.12,4.32,4.32,0,0,1,.29-1.62,3.37,3.37,0,0,1,.84-1.24,3.88,3.88,0,0,1,1.3-.79,4.79,4.79,0,0,1,1.69-.29,4.41,4.41,0,0,1,2,.42v-.28a1.9,1.9,0,0,1,.32-1.12,1.13,1.13,0,0,1,1-.45h1.9v1.74H8301v.66a3.27,3.27,0,0,1,1,1.27,4.56,4.56,0,0,1,0,3.33,3.44,3.44,0,0,1-.85,1.23,3.82,3.82,0,0,1-1.31.79,4.85,4.85,0,0,1-1.7.29l-.57,0a4.68,4.68,0,0,1-.54-.09,4,4,0,0,0-.45.15,1.66,1.66,0,0,0-.42.25,1.17,1.17,0,0,0-.32.35.85.85,0,0,0-.12.46.64.64,0,0,0,.46.68,3.93,3.93,0,0,0,1.19.16h2.31a4.37,4.37,0,0,1,3,.83A2.91,2.91,0,0,1,8303.6,3842.46Zm-1.76.11a1.25,1.25,0,0,0-.48-1,2.73,2.73,0,0,0-1.66-.38h-3.6a1.46,1.46,0,0,0-.93,1.41,1.65,1.65,0,0,0,.51,1.21,2.51,2.51,0,0,0,1.75.5h1.62a3.92,3.92,0,0,0,2.06-.44A1.4,1.4,0,0,0,8301.84,3842.57Zm-3.68-6.63a2.23,2.23,0,0,0,1.7-.58,2.18,2.18,0,0,0,.54-1.55v-.62a2.2,2.2,0,0,0-.54-1.55,2.23,2.23,0,0,0-1.7-.58,2.15,2.15,0,0,0-1.68.58,2.24,2.24,0,0,0-.52,1.55v.62a2.22,2.22,0,0,0,.52,1.55A2.15,2.15,0,0,0,8298.16,3835.94Z" transform="translate(-8045.3 -3297.43)"/><path class="cls-2" d="M8310.37,3841.44a4.79,4.79,0,0,1-2-.41,4.31,4.31,0,0,1-1.52-1.19,5.42,5.42,0,0,1-1-1.87,8.63,8.63,0,0,1-.33-2.47,8.51,8.51,0,0,1,.33-2.46,5.34,5.34,0,0,1,1-1.87,4.31,4.31,0,0,1,1.52-1.19,4.65,4.65,0,0,1,2-.42,4.7,4.7,0,0,1,2,.42,4.34,4.34,0,0,1,1.53,1.19,5.69,5.69,0,0,1,1,1.87,8.51,8.51,0,0,1,.33,2.46,8.63,8.63,0,0,1-.33,2.47,5.79,5.79,0,0,1-1,1.87,4.34,4.34,0,0,1-1.53,1.19A4.85,4.85,0,0,1,8310.37,3841.44Zm0-1.69a2.63,2.63,0,0,0,2.06-.85,3.71,3.71,0,0,0,.77-2.56v-1.67a3.74,3.74,0,0,0-.77-2.57,2.95,2.95,0,0,0-4.12,0,3.69,3.69,0,0,0-.77,2.57v1.67a3.66,3.66,0,0,0,.77,2.56A2.63,2.63,0,0,0,8310.37,3839.75Z" transform="translate(-8045.3 -3297.43)"/><path class="cls-2" d="M8322.5,3841.44a4.87,4.87,0,0,1-2-.41,4.36,4.36,0,0,1-1.51-1.19,5.42,5.42,0,0,1-1-1.87,8.63,8.63,0,0,1-.33-2.47,8.51,8.51,0,0,1,.33-2.46,5.34,5.34,0,0,1,1-1.87,4.36,4.36,0,0,1,1.51-1.19,5.07,5.07,0,0,1,4,0,4.22,4.22,0,0,1,1.52,1.19,5.34,5.34,0,0,1,1,1.87,8.17,8.17,0,0,1,.34,2.46,8.29,8.29,0,0,1-.34,2.47,5.42,5.42,0,0,1-1,1.87,4.22,4.22,0,0,1-1.52,1.19A4.85,4.85,0,0,1,8322.5,3841.44Zm0-1.69a2.63,2.63,0,0,0,2.06-.85,3.71,3.71,0,0,0,.77-2.56v-1.67a3.74,3.74,0,0,0-.77-2.57,3,3,0,0,0-4.13,0,3.74,3.74,0,0,0-.76,2.57v1.67a3.71,3.71,0,0,0,.76,2.56A2.65,2.65,0,0,0,8322.5,3839.75Z" transform="translate(-8045.3 -3297.43)"/><path class="cls-2" d="M8340,3842.46a2.81,2.81,0,0,1-1.32,2.56,7.82,7.82,0,0,1-4,.82,11.7,11.7,0,0,1-2.22-.18,4.54,4.54,0,0,1-1.48-.55,2.33,2.33,0,0,1-.82-.87,2.46,2.46,0,0,1-.27-1.17,2.09,2.09,0,0,1,.46-1.44,2.68,2.68,0,0,1,1.3-.76v-.24a1.92,1.92,0,0,1-.76-.61,1.64,1.64,0,0,1-.27-1,1.58,1.58,0,0,1,.53-1.31,3.4,3.4,0,0,1,1.35-.65V3837a3.28,3.28,0,0,1-1.49-1.36,4,4,0,0,1-.53-2.12,4.52,4.52,0,0,1,.29-1.62,3.49,3.49,0,0,1,.84-1.24,3.92,3.92,0,0,1,1.31-.79,4.7,4.7,0,0,1,1.68-.29,4.41,4.41,0,0,1,2,.42v-.28a1.9,1.9,0,0,1,.32-1.12,1.16,1.16,0,0,1,1-.45h1.9v1.74h-2.39v.66a3.27,3.27,0,0,1,1,1.27,4.43,4.43,0,0,1,0,3.33,3.44,3.44,0,0,1-.85,1.23,3.82,3.82,0,0,1-1.31.79,4.85,4.85,0,0,1-1.7.29l-.56,0a4.85,4.85,0,0,1-.55-.09,3.26,3.26,0,0,0-.44.15,1.72,1.72,0,0,0-.43.25,1.32,1.32,0,0,0-.32.35.85.85,0,0,0-.12.46.64.64,0,0,0,.46.68,4,4,0,0,0,1.2.16h2.3a4.35,4.35,0,0,1,3,.83A2.91,2.91,0,0,1,8340,3842.46Zm-1.76.11a1.27,1.27,0,0,0-.47-1,2.79,2.79,0,0,0-1.67-.38h-3.6a1.46,1.46,0,0,0-.93,1.41,1.62,1.62,0,0,0,.52,1.21,2.47,2.47,0,0,0,1.75.5h1.61a3.92,3.92,0,0,0,2.06-.44A1.4,1.4,0,0,0,8338.22,3842.57Zm-3.68-6.63a2.22,2.22,0,0,0,1.7-.58,2.19,2.19,0,0,0,.55-1.55v-.62a2,2,0,0,0-2.25-2.13,2.14,2.14,0,0,0-1.67.58,2.2,2.2,0,0,0-.53,1.55v.62a2.18,2.18,0,0,0,.53,1.55A2.14,2.14,0,0,0,8334.54,3835.94Z" transform="translate(-8045.3 -3297.43)"/><path class="cls-2" d="M8342.26,3839.49h3.54v-12.9h-3.54v-1.69h5.42v14.59h3.56v1.69h-9Z" transform="translate(-8045.3 -3297.43)"/><path class="cls-2" d="M8359.08,3841.44a5.15,5.15,0,0,1-2.08-.41,4.4,4.4,0,0,1-1.57-1.19,5.58,5.58,0,0,1-1-1.86,8.11,8.11,0,0,1-.34-2.45,8.23,8.23,0,0,1,.35-2.47,5.89,5.89,0,0,1,1-1.88,4.44,4.44,0,0,1,1.53-1.2,4.5,4.5,0,0,1,2-.42,4.55,4.55,0,0,1,1.94.41,4.3,4.3,0,0,1,1.49,1.16,5.35,5.35,0,0,1,.95,1.77,7.28,7.28,0,0,1,.33,2.25v.86h-7.6v.46a3.37,3.37,0,0,0,.81,2.33,2.86,2.86,0,0,0,2.24.91,3.15,3.15,0,0,0,1.78-.5,3.25,3.25,0,0,0,1.17-1.36l1.28,1.08a4.32,4.32,0,0,1-1.59,1.81A4.77,4.77,0,0,1,8359.08,3841.44Zm-.12-10.25a2.78,2.78,0,0,0-1.17.24,3.07,3.07,0,0,0-.92.67,3,3,0,0,0-.61,1,3.85,3.85,0,0,0-.21,1.3v.17h5.64v-.24a3.41,3.41,0,0,0-.75-2.3A2.49,2.49,0,0,0,8359,3831.19Z" transform="translate(-8045.3 -3297.43)"/><path class="cls-2" d="M8371,3841.4a1.61,1.61,0,0,1-1.26-.42,1.49,1.49,0,0,1-.36-1v-.46a1.44,1.44,0,0,1,.36-1,1.64,1.64,0,0,1,1.26-.41,1.62,1.62,0,0,1,1.25.41,1.44,1.44,0,0,1,.36,1v.46a1.49,1.49,0,0,1-.36,1A1.58,1.58,0,0,1,8371,3841.4Z" transform="translate(-8045.3 -3297.43)"/><path class="cls-2" d="M8383.52,3841.44a4.94,4.94,0,0,1-2.05-.41,4.14,4.14,0,0,1-1.52-1.2,5.68,5.68,0,0,1-1-1.87,9.26,9.26,0,0,1,0-4.9,5.64,5.64,0,0,1,1-1.88,4.14,4.14,0,0,1,1.52-1.2,4.72,4.72,0,0,1,2-.42,4,4,0,0,1,2.51.74,4.36,4.36,0,0,1,1.43,1.93l-1.48.88a2.74,2.74,0,0,0-.9-1.32,2.41,2.41,0,0,0-1.56-.49,2.51,2.51,0,0,0-2.09.91,3.54,3.54,0,0,0-.74,2.33v1.93a3.54,3.54,0,0,0,.74,2.33,2.6,2.6,0,0,0,2.13.91,2.63,2.63,0,0,0,1.66-.52,3.8,3.8,0,0,0,1-1.4l1.35,1a4.39,4.39,0,0,1-1.48,1.93A4.24,4.24,0,0,1,8383.52,3841.44Z" transform="translate(-8045.3 -3297.43)"/><path class="cls-2" d="M8395.26,3841.44a4.83,4.83,0,0,1-2-.41,4.4,4.4,0,0,1-1.52-1.19,5.79,5.79,0,0,1-1-1.87,8.63,8.63,0,0,1-.33-2.47,8.51,8.51,0,0,1,.33-2.46,5.69,5.69,0,0,1,1-1.87,4.4,4.4,0,0,1,1.52-1.19,5,5,0,0,1,4,0,4.34,4.34,0,0,1,1.53,1.19,5.34,5.34,0,0,1,1,1.87,8.51,8.51,0,0,1,.33,2.46,8.63,8.63,0,0,1-.33,2.47,5.42,5.42,0,0,1-1,1.87,4.34,4.34,0,0,1-1.53,1.19A4.85,4.85,0,0,1,8395.26,3841.44Zm0-1.69a2.63,2.63,0,0,0,2.06-.85,3.71,3.71,0,0,0,.77-2.56v-1.67a3.74,3.74,0,0,0-.77-2.57,2.95,2.95,0,0,0-4.12,0,3.74,3.74,0,0,0-.77,2.57v1.67a3.71,3.71,0,0,0,.77,2.56A2.63,2.63,0,0,0,8395.26,3839.75Z" transform="translate(-8045.3 -3297.43)"/><path class="cls-2" d="M8402.31,3841.18v-11.35H8404v1.38h.1a3.44,3.44,0,0,1,.69-1.16,1.69,1.69,0,0,1,1.29-.49,1.8,1.8,0,0,1,1.35.5,2.24,2.24,0,0,1,.58,1.31h.08a3.43,3.43,0,0,1,.79-1.29,2,2,0,0,1,1.45-.52,1.73,1.73,0,0,1,1.7,1,6.44,6.44,0,0,1,.46,2.75v7.92h-1.68v-7.63a4.36,4.36,0,0,0-.27-1.84,1,1,0,0,0-.94-.52,1.24,1.24,0,0,0-1,.43,1.89,1.89,0,0,0-.38,1.27v8.29h-1.68v-7.63a4.36,4.36,0,0,0-.27-1.84,1,1,0,0,0-.92-.52,1.24,1.24,0,0,0-1,.43,1.84,1.84,0,0,0-.39,1.27v8.29Z" transform="translate(-8045.3 -3297.43)"/><path class="cls-2" d="M8417.33,3824.9h1.52l-1.09,6.29h-2.83Zm4.91,0h1.52l-1.09,6.29h-2.83Z" transform="translate(-8045.3 -3297.43)"/><path class="cls-2" d="M8427.3,3838.8l7-4.22v-.18l-7-4.24v-2.09l8.69,5.39v2l-8.69,5.39Z" transform="translate(-8045.3 -3297.43)"/><path class="cls-2" d="M8451.61,3841.18v-15.36h8.76v1.81h-6.8v4.86h6.57v1.8h-6.57v5.09h6.8v1.8Z" transform="translate(-8045.3 -3297.43)"/><path class="cls-2" d="M8464.06,3839.49h3.66v-8h-3.66v-1.69h5.54v9.66H8473v1.69h-9Zm4.61-12a1.41,1.41,0,0,1-1.07-.34,1.24,1.24,0,0,1-.3-.85v-.42a1.29,1.29,0,0,1,.3-.86,1.81,1.81,0,0,1,2.14,0,1.25,1.25,0,0,1,.31.86v.42a1.2,1.2,0,0,1-.31.85A1.41,1.41,0,0,1,8468.67,3827.52Z" transform="translate(-8045.3 -3297.43)"/><path class="cls-2" d="M8476,3841.18v-11.35h1.88v1.89h.08a5.13,5.13,0,0,1,.41-.81,2.93,2.93,0,0,1,.61-.7,2.86,2.86,0,0,1,.84-.47,3.23,3.23,0,0,1,1.13-.18,3.29,3.29,0,0,1,2.6,1.13,4.7,4.7,0,0,1,1,3.19v7.3h-1.88v-6.95c0-1.95-.78-2.93-2.33-2.93a3.24,3.24,0,0,0-.89.12,2.12,2.12,0,0,0-.78.39,1.9,1.9,0,0,0-.56.66,1.92,1.92,0,0,0-.21.92v7.79Z" transform="translate(-8045.3 -3297.43)"/><path class="cls-2" d="M8500.67,3841.18v-15.36h2v13.56h6.57v1.8Z" transform="translate(-8045.3 -3297.43)"/><path class="cls-2" d="M8512.57,3839.49h3.66v-8h-3.66v-1.69h5.54v9.66h3.44v1.69h-9Zm4.61-12a1.41,1.41,0,0,1-1.07-.34,1.24,1.24,0,0,1-.3-.85v-.42a1.29,1.29,0,0,1,.3-.86,1.81,1.81,0,0,1,2.14,0,1.25,1.25,0,0,1,.31.86v.42a1.2,1.2,0,0,1-.31.85A1.41,1.41,0,0,1,8517.18,3827.52Z" transform="translate(-8045.3 -3297.43)"/><path class="cls-2" d="M8524.46,3841.18v-11.35h1.88v1.89h.08a5.13,5.13,0,0,1,.41-.81,2.93,2.93,0,0,1,.61-.7,2.86,2.86,0,0,1,.84-.47,3.23,3.23,0,0,1,1.13-.18,3.29,3.29,0,0,1,2.6,1.13,4.7,4.7,0,0,1,1,3.19v7.3h-1.88v-6.95c0-1.95-.78-2.93-2.33-2.93a3.37,3.37,0,0,0-.9.12,2.16,2.16,0,0,0-.77.39,1.9,1.9,0,0,0-.56.66,1.92,1.92,0,0,0-.21.92v7.79Z" transform="translate(-8045.3 -3297.43)"/><path class="cls-2" d="M8536.69,3824.9h1.88V3835h.1l1.74-1.85,3.23-3.3h2.24l-4.26,4.44,4.77,6.91h-2.31l-3.86-5.72-1.65,1.65v4.07h-1.88Z" transform="translate(-8045.3 -3297.43)"/><path class="cls-2" d="M8560.7,3835.48v-2l8.69-5.39v2.07l-6.95,4.22v.18l6.95,4.24v2.09Z" transform="translate(-8045.3 -3297.43)"/><path class="cls-2" d="M8572.87,3844.22l6.93-19.76h1.68l-6.93,19.76Z" transform="translate(-8045.3 -3297.43)"/><path class="cls-2" d="M8593.2,3841.18a1.66,1.66,0,0,1-1.36-.52,2.51,2.51,0,0,1-.54-1.35h-.1a3.2,3.2,0,0,1-1.11,1.56,3.34,3.34,0,0,1-2,.57,3.58,3.58,0,0,1-2.58-.91,3.32,3.32,0,0,1-1-2.52,3,3,0,0,1,1.09-2.48,5.51,5.51,0,0,1,3.44-.86h2.12v-1a2.44,2.44,0,0,0-.61-1.82,2.39,2.39,0,0,0-1.76-.6,3,3,0,0,0-1.68.43,3.07,3.07,0,0,0-1.06,1.19l-1.2-1a3.72,3.72,0,0,1,.57-.85,3.88,3.88,0,0,1,.87-.72,4.31,4.31,0,0,1,1.17-.51,5.7,5.7,0,0,1,1.48-.19,4.22,4.22,0,0,1,3,1,3.75,3.75,0,0,1,1.1,2.89v6h1.39v1.69Zm-4.71-1.34a3.08,3.08,0,0,0,1.92-.57,1.75,1.75,0,0,0,.75-1.43v-1.76h-2.1a3.64,3.64,0,0,0-2,.41,1.36,1.36,0,0,0-.64,1.21v.47a1.47,1.47,0,0,0,.55,1.25A2.38,2.38,0,0,0,8588.49,3839.84Z" transform="translate(-8045.3 -3297.43)"/><path class="cls-2" d="M8597.08,3838.8l7-4.22v-.18l-7-4.24v-2.09l8.69,5.39v2l-8.69,5.39Z" transform="translate(-8045.3 -3297.43)"/><path class="cls-2" d="M8114.69,3537.91v-2l9.46-5.39v2.07l-7.57,4.23v.17l7.57,4.25v2.09Z" transform="translate(-8045.3 -3297.43)"/><path class="cls-2" d="M8127.93,3546.64l7.55-19.75h1.83l-7.55,19.75Z" transform="translate(-8045.3 -3297.43)"/><path class="cls-2" d="M8141.24,3527.33h2.05v6.82h.09a4.42,4.42,0,0,1,.45-.82,3.08,3.08,0,0,1,.66-.69,2.9,2.9,0,0,1,.91-.47,3.8,3.8,0,0,1,1.23-.18,3.71,3.71,0,0,1,2.83,1.12,4.46,4.46,0,0,1,1.07,3.19v7.31h-2.05v-7c0-2-.84-2.92-2.53-2.92a4,4,0,0,0-1,.12,2.84,2.84,0,0,0-.85.38,2.23,2.23,0,0,0-.6.66,1.89,1.89,0,0,0-.23.93v7.79h-2.05Z" transform="translate(-8045.3 -3297.43)"/><path class="cls-2" d="M8159.24,3543.87a5.89,5.89,0,0,1-2.27-.42,4.59,4.59,0,0,1-1.7-1.19,5.31,5.31,0,0,1-1.07-1.86,7.46,7.46,0,0,1-.37-2.45,7.56,7.56,0,0,1,.38-2.46,5.58,5.58,0,0,1,1.08-1.88,4.72,4.72,0,0,1,1.66-1.2,5.65,5.65,0,0,1,4.25,0,4.44,4.44,0,0,1,1.61,1.15,5.21,5.21,0,0,1,1,1.77,6.78,6.78,0,0,1,.36,2.26v.86h-8.27v.45a3.18,3.18,0,0,0,.88,2.33,3.23,3.23,0,0,0,2.44.91,3.68,3.68,0,0,0,1.94-.49,3.36,3.36,0,0,0,1.27-1.37l1.39,1.08a4.35,4.35,0,0,1-1.73,1.81A5.53,5.53,0,0,1,8159.24,3543.87Zm-.13-10.25a3.12,3.12,0,0,0-2.28.91,2.89,2.89,0,0,0-.66,1,3.66,3.66,0,0,0-.23,1.3v.18h6.14v-.24a3.19,3.19,0,0,0-.82-2.3A2.8,2.8,0,0,0,8159.11,3533.62Z" transform="translate(-8045.3 -3297.43)"/><path class="cls-2" d="M8176.46,3543.61a1.93,1.93,0,0,1-1.48-.52,2.39,2.39,0,0,1-.58-1.35h-.11a3.26,3.26,0,0,1-1.21,1.56,3.89,3.89,0,0,1-2.22.57,4.11,4.11,0,0,1-2.81-.91,3.16,3.16,0,0,1-1-2.52,2.87,2.87,0,0,1,1.18-2.49,6.49,6.49,0,0,1,3.74-.86h2.31v-1a2.34,2.34,0,0,0-.66-1.81,2.69,2.69,0,0,0-1.91-.61,3.51,3.51,0,0,0-1.84.43,3.32,3.32,0,0,0-1.15,1.2l-1.3-1a3.24,3.24,0,0,1,.62-.85,4.43,4.43,0,0,1,.94-.73,5,5,0,0,1,1.28-.5,6.16,6.16,0,0,1,1.6-.19,4.89,4.89,0,0,1,3.27,1,3.61,3.61,0,0,1,1.2,2.9v6h1.52v1.7Zm-5.12-1.35a3.56,3.56,0,0,0,2.09-.57,1.7,1.7,0,0,0,.81-1.43v-1.76H8172a4.27,4.27,0,0,0-2.15.42,1.33,1.33,0,0,0-.69,1.21v.46a1.43,1.43,0,0,0,.59,1.26A2.87,2.87,0,0,0,8171.34,3542.26Z" transform="translate(-8045.3 -3297.43)"/><path class="cls-2" d="M8188,3541.71h-.11a3.84,3.84,0,0,1-1.37,1.61,4.2,4.2,0,0,1-5.33-1,8.79,8.79,0,0,1,0-8.8,3.88,3.88,0,0,1,6.7.62h.11v-6.82h2v16.28h-2Zm-2.75.42a4,4,0,0,0,1-.14,3,3,0,0,0,.88-.42,1.93,1.93,0,0,0,.61-.69,2.13,2.13,0,0,0,.22-1v-4a2.06,2.06,0,0,0-.22-1,2.11,2.11,0,0,0-.61-.69,2.78,2.78,0,0,0-.88-.43,4,4,0,0,0-1-.14,2.91,2.91,0,0,0-2.26.89,3.41,3.41,0,0,0-.8,2.36v1.9a3.41,3.41,0,0,0,.8,2.36A2.91,2.91,0,0,0,8185.29,3542.13Z" transform="translate(-8045.3 -3297.43)"/><path class="cls-2" d="M8198.84,3543.87a5.89,5.89,0,0,1-2.27-.42,4.59,4.59,0,0,1-1.7-1.19,5.31,5.31,0,0,1-1.07-1.86,7.46,7.46,0,0,1-.37-2.45,7.3,7.3,0,0,1,.38-2.46,5.58,5.58,0,0,1,1.08-1.88,4.63,4.63,0,0,1,1.66-1.2,5.65,5.65,0,0,1,4.25,0,4.44,4.44,0,0,1,1.61,1.15,5.21,5.21,0,0,1,1,1.77,6.78,6.78,0,0,1,.36,2.26v.86h-8.27v.45a3.08,3.08,0,0,0,3.32,3.24,3.68,3.68,0,0,0,1.94-.49,3.43,3.43,0,0,0,1.27-1.37l1.39,1.08a4.35,4.35,0,0,1-1.73,1.81A5.53,5.53,0,0,1,8198.84,3543.87Zm-.13-10.25a3.28,3.28,0,0,0-1.28.24,3.14,3.14,0,0,0-1,.67,2.89,2.89,0,0,0-.66,1,3.66,3.66,0,0,0-.23,1.3v.18h6.14v-.24a3.23,3.23,0,0,0-.82-2.3A2.8,2.8,0,0,0,8198.71,3533.62Z" transform="translate(-8045.3 -3297.43)"/><path class="cls-2" d="M8206.89,3541.91h3.19v-8h-3.19v-1.7h5.24v2.93h.13a4.09,4.09,0,0,1,1.31-2.16,3.78,3.78,0,0,1,2.47-.77h1.5v2h-2.2a3.21,3.21,0,0,0-2.34.84,2.94,2.94,0,0,0-.87,2.19v4.62h4.29v1.7h-9.53Z" transform="translate(-8045.3 -3297.43)"/><path class="cls-2" d="M8220.29,3541.23l7.57-4.22v-.18l-7.57-4.25v-2.09l9.46,5.39v2l-9.46,5.39Z" transform="translate(-8045.3 -3297.43)"/><rect class="cls-1" x="48.98" y="861" width="913" height="162.57"/><path class="cls-2" d="M9006.28,4159.43V4320h-911V4159.43h911m2-2h-915V4322h915V4157.43Z" transform="translate(-8045.3 -3297.43)"/><path class="cls-2" d="M8114.69,4183.91v-2l9.46-5.39v2.07l-7.57,4.23v.17l7.57,4.25v2.09Z" transform="translate(-8045.3 -3297.43)"/><path class="cls-2" d="M8127.8,4187.91h3.72v-8h-3.94v-1.7h3.94v-2.2a2.91,2.91,0,0,1,.66-2,2.59,2.59,0,0,1,2-.75h3.8V4175h-4.46v3.23H8138v1.7h-4.46v8h4v1.7h-9.73Z" transform="translate(-8045.3 -3297.43)"/><path class="cls-2" d="M8145.82,4189.87a5.5,5.5,0,0,1-2.2-.42,4.48,4.48,0,0,1-1.65-1.19,5.39,5.39,0,0,1-1.05-1.87,8.58,8.58,0,0,1,0-4.92,5.39,5.39,0,0,1,1.05-1.87,4.48,4.48,0,0,1,1.65-1.19,5.95,5.95,0,0,1,4.39,0,4.61,4.61,0,0,1,1.66,1.19,5.22,5.22,0,0,1,1,1.87,8.36,8.36,0,0,1,0,4.92,5.22,5.22,0,0,1-1,1.87,4.61,4.61,0,0,1-1.66,1.19A5.48,5.48,0,0,1,8145.82,4189.87Zm0-1.69a3,3,0,0,0,2.24-.85,3.51,3.51,0,0,0,.84-2.56v-1.68a3.51,3.51,0,0,0-.84-2.56,3.38,3.38,0,0,0-4.48,0,3.51,3.51,0,0,0-.84,2.56v1.68a3.51,3.51,0,0,0,.84,2.56A3,3,0,0,0,8145.82,4188.18Z" transform="translate(-8045.3 -3297.43)"/><path class="cls-2" d="M8159,4189.87a5.46,5.46,0,0,1-2.2-.42,4.48,4.48,0,0,1-1.65-1.19,5.23,5.23,0,0,1-1.05-1.87,8.58,8.58,0,0,1,0-4.92,5.23,5.23,0,0,1,1.05-1.87,4.48,4.48,0,0,1,1.65-1.19,5.95,5.95,0,0,1,4.39,0,4.61,4.61,0,0,1,1.66,1.19,5.22,5.22,0,0,1,1,1.87,8.36,8.36,0,0,1,0,4.92,5.22,5.22,0,0,1-1,1.87,4.61,4.61,0,0,1-1.66,1.19A5.48,5.48,0,0,1,8159,4189.87Zm0-1.69a3,3,0,0,0,2.24-.85,3.51,3.51,0,0,0,.84-2.56v-1.68a3.51,3.51,0,0,0-.84-2.56,3.38,3.38,0,0,0-4.48,0,3.51,3.51,0,0,0-.84,2.56v1.68a3.51,3.51,0,0,0,.84,2.56A3,3,0,0,0,8159,4188.18Z" transform="translate(-8045.3 -3297.43)"/><path class="cls-2" d="M8172.83,4189.61a2.58,2.58,0,0,1-2-.76,2.91,2.91,0,0,1-.66-2V4180h-3.63v-1.7h2.64a.92.92,0,0,0,1.1-1.1v-2.9h1.94v4h5v1.7h-5v8h5v1.7Z" transform="translate(-8045.3 -3297.43)"/><path class="cls-2" d="M8185.64,4189.87a5.89,5.89,0,0,1-2.27-.42,4.59,4.59,0,0,1-1.7-1.19,5.31,5.31,0,0,1-1.07-1.86,7.46,7.46,0,0,1-.37-2.45,7.56,7.56,0,0,1,.38-2.46,5.58,5.58,0,0,1,1.08-1.88,4.72,4.72,0,0,1,1.66-1.2,5.65,5.65,0,0,1,4.25,0,4.44,4.44,0,0,1,1.61,1.15,5.21,5.21,0,0,1,1,1.77,6.78,6.78,0,0,1,.36,2.26v.86h-8.27v.45a3.08,3.08,0,0,0,3.32,3.24,3.68,3.68,0,0,0,1.94-.49,3.43,3.43,0,0,0,1.27-1.37l1.39,1.08a4.35,4.35,0,0,1-1.73,1.81A5.53,5.53,0,0,1,8185.64,4189.87Zm-.13-10.25a3.12,3.12,0,0,0-2.28.91,2.89,2.89,0,0,0-.66,1,3.66,3.66,0,0,0-.23,1.3v.18h6.14v-.24a3.19,3.19,0,0,0-.82-2.3A2.8,2.8,0,0,0,8185.51,4179.62Z" transform="translate(-8045.3 -3297.43)"/><path class="cls-2" d="M8193.69,4187.91h3.19v-8h-3.19v-1.7h5.24v2.93h.13a4.09,4.09,0,0,1,1.31-2.16,3.78,3.78,0,0,1,2.47-.77h1.5v2h-2.2a3.27,3.27,0,0,0-2.35.84,3,3,0,0,0-.86,2.19v4.62h4.29v1.7h-9.53Z" transform="translate(-8045.3 -3297.43)"/><path class="cls-2" d="M8207.09,4187.23l7.57-4.22v-.18l-7.57-4.25v-2.09l9.46,5.39v2l-9.46,5.39Z" transform="translate(-8045.3 -3297.43)"/><g class="cls-3"><rect class="cls-4" x="87.2" y="917.07" width="836" height="48"/><path class="cls-2" d="M8968,4215v47H8133v-47h835m1-1H8132v49h837v-49Z" transform="translate(-8045.3 -3297.43)"/></g><path class="cls-2" d="M8152.41,4241.48v-2l9.46-5.39v2.06l-7.57,4.23v.18l7.57,4.24v2.09Z" transform="translate(-8045.3 -3297.43)"/><path class="cls-2" d="M8165.76,4247.18v-11.35h2.05v1.89h.08a4.1,4.1,0,0,1,.46-.81,2.92,2.92,0,0,1,.66-.7,3,3,0,0,1,.91-.47,3.8,3.8,0,0,1,1.23-.18,3.73,3.73,0,0,1,2.83,1.13,4.44,4.44,0,0,1,1.06,3.19v7.3h-2v-7c0-1.95-.85-2.93-2.53-2.93a3.93,3.93,0,0,0-1,.12,2.45,2.45,0,0,0-.85.39,1.9,1.9,0,0,0-.6.66,1.72,1.72,0,0,0-.23.92v7.79Z" transform="translate(-8045.3 -3297.43)"/><path class="cls-2" d="M8187.78,4247.18a1.89,1.89,0,0,1-1.48-.52,2.4,2.4,0,0,1-.59-1.35h-.11a3.2,3.2,0,0,1-1.21,1.56,3.84,3.84,0,0,1-2.22.57,4.09,4.09,0,0,1-2.8-.91,3.17,3.17,0,0,1-1.05-2.52,2.88,2.88,0,0,1,1.19-2.48,6.39,6.39,0,0,1,3.74-.86h2.31v-1a2.34,2.34,0,0,0-.66-1.82,2.75,2.75,0,0,0-1.91-.6,3.58,3.58,0,0,0-1.84.42,3.34,3.34,0,0,0-1.16,1.2l-1.29-1a3.36,3.36,0,0,1,.61-.85,4.39,4.39,0,0,1,.95-.72,4.88,4.88,0,0,1,1.27-.51,6.71,6.71,0,0,1,1.61-.19,4.84,4.84,0,0,1,3.27,1,3.58,3.58,0,0,1,1.2,2.89v6h1.51v1.69Zm-5.12-1.34a3.58,3.58,0,0,0,2.09-.57,1.72,1.72,0,0,0,.81-1.44v-1.75h-2.29a4.24,4.24,0,0,0-2.14.41,1.35,1.35,0,0,0-.7,1.21v.47a1.43,1.43,0,0,0,.6,1.25A2.77,2.77,0,0,0,8182.66,4245.84Z" transform="translate(-8045.3 -3297.43)"/><path class="cls-2" d="M8195.46,4247.18l-4.07-11.35h2.09l1.61,4.77,1.62,4.86h.11l1.63-4.86,1.59-4.77h2l-4.07,11.35Z" transform="translate(-8045.3 -3297.43)"/><path class="cls-2" d="M8205.21,4244.8l7.56-4.22v-.18l-7.56-4.24v-2.09l9.46,5.39v2l-9.46,5.39Z" transform="translate(-8045.3 -3297.43)"/><path class="cls-2" d="M8232.07,4247.29a1.51,1.51,0,0,1-1.1-.33,1.11,1.11,0,0,1-.33-.82v-.7a1.1,1.1,0,0,1,.33-.81,1.51,1.51,0,0,1,1.1-.33,1.52,1.52,0,0,1,1.1.33,1.1,1.1,0,0,1,.33.81v.7a1.11,1.11,0,0,1-.33.82A1.52,1.52,0,0,1,8232.07,4247.29Zm4.26,0a1.54,1.54,0,0,1-1.1-.33,1.11,1.11,0,0,1-.33-.82v-.7a1.1,1.1,0,0,1,.33-.81,2,2,0,0,1,2.21,0,1.13,1.13,0,0,1,.32.81v.7a1.14,1.14,0,0,1-.32.82A1.55,1.55,0,0,1,8236.33,4247.29Zm4.27,0a1.52,1.52,0,0,1-1.1-.33,1.11,1.11,0,0,1-.33-.82v-.7a1.1,1.1,0,0,1,.33-.81,1.52,1.52,0,0,1,1.1-.33,1.51,1.51,0,0,1,1.1.33,1.1,1.1,0,0,1,.33.81v.7a1.11,1.11,0,0,1-.33.82A1.51,1.51,0,0,1,8240.6,4247.29Z" transform="translate(-8045.3 -3297.43)"/><path class="cls-2" d="M8258,4241.48v-2l9.46-5.39v2.06l-7.56,4.23v.18l7.56,4.24v2.09Z" transform="translate(-8045.3 -3297.43)"/><path class="cls-2" d="M8271.25,4250.21l7.54-19.75h1.83l-7.55,19.75Z" transform="translate(-8045.3 -3297.43)"/><path class="cls-2" d="M8284.56,4247.18v-11.35h2v1.89h.09a4.62,4.62,0,0,1,.45-.81,3.38,3.38,0,0,1,.66-.7,3.07,3.07,0,0,1,.92-.47,3.8,3.8,0,0,1,1.23-.18,3.74,3.74,0,0,1,2.83,1.13,4.44,4.44,0,0,1,1.06,3.19v7.3h-2v-7c0-1.95-.85-2.93-2.53-2.93a3.93,3.93,0,0,0-1,.12,2.45,2.45,0,0,0-.85.39,2,2,0,0,0-.61.66,1.82,1.82,0,0,0-.23.92v7.79Z" transform="translate(-8045.3 -3297.43)"/><path class="cls-2" d="M8306.58,4247.18a1.91,1.91,0,0,1-1.49-.52,2.39,2.39,0,0,1-.58-1.35h-.11a3.2,3.2,0,0,1-1.21,1.56,3.89,3.89,0,0,1-2.22.57,4.13,4.13,0,0,1-2.81-.91,3.19,3.19,0,0,1-1-2.52,2.88,2.88,0,0,1,1.19-2.48,6.39,6.39,0,0,1,3.74-.86h2.31v-1a2.34,2.34,0,0,0-.66-1.82,2.76,2.76,0,0,0-1.92-.6,3.57,3.57,0,0,0-1.83.42,3.26,3.26,0,0,0-1.16,1.2l-1.3-1a3.68,3.68,0,0,1,.62-.85,4.33,4.33,0,0,1,.94-.72,5.11,5.11,0,0,1,1.28-.51,6.71,6.71,0,0,1,1.61-.19,4.86,4.86,0,0,1,3.27,1,3.6,3.6,0,0,1,1.19,2.89v6h1.52v1.69Zm-5.13-1.34a3.56,3.56,0,0,0,2.09-.57,1.7,1.7,0,0,0,.82-1.44v-1.75h-2.29a4.31,4.31,0,0,0-2.15.41,1.34,1.34,0,0,0-.69,1.21v.47a1.43,1.43,0,0,0,.6,1.25A2.74,2.74,0,0,0,8301.45,4245.84Z" transform="translate(-8045.3 -3297.43)"/><path class="cls-2" d="M8314.26,4247.18l-4.07-11.35h2.09l1.6,4.77,1.63,4.86h.11l1.63-4.86,1.58-4.77h2l-4.07,11.35Z" transform="translate(-8045.3 -3297.43)"/><path class="cls-2" d="M8324,4244.8l7.57-4.22v-.18l-7.57-4.24v-2.09l9.46,5.39v2l-9.46,5.39Z" transform="translate(-8045.3 -3297.43)"/><path class="cls-2" d="M8114.69,4297.91v-2l9.46-5.39v2.07l-7.57,4.23v.17l7.57,4.25v2.09Z" transform="translate(-8045.3 -3297.43)"/><path class="cls-2" d="M8127.93,4306.64l7.55-19.75h1.83l-7.55,19.75Z" transform="translate(-8045.3 -3297.43)"/><path class="cls-2" d="M8141,4301.91h3.72v-8h-3.94v-1.7h3.94v-2.2a2.91,2.91,0,0,1,.66-2,2.59,2.59,0,0,1,2.05-.75h3.8V4289h-4.46v3.23h4.46v1.7h-4.46v8h4v1.7H8141Z" transform="translate(-8045.3 -3297.43)"/><path class="cls-2" d="M8159,4303.87a5.46,5.46,0,0,1-2.2-.42,4.48,4.48,0,0,1-1.65-1.19,5.23,5.23,0,0,1-1.05-1.87,8.58,8.58,0,0,1,0-4.92,5.23,5.23,0,0,1,1.05-1.87,4.48,4.48,0,0,1,1.65-1.19,5.95,5.95,0,0,1,4.39,0,4.61,4.61,0,0,1,1.66,1.19,5.22,5.22,0,0,1,1,1.87,8.36,8.36,0,0,1,0,4.92,5.22,5.22,0,0,1-1,1.87,4.61,4.61,0,0,1-1.66,1.19A5.48,5.48,0,0,1,8159,4303.87Zm0-1.69a3,3,0,0,0,2.24-.85,3.51,3.51,0,0,0,.84-2.56v-1.68a3.51,3.51,0,0,0-.84-2.56,3.38,3.38,0,0,0-4.48,0,3.51,3.51,0,0,0-.84,2.56v1.68a3.51,3.51,0,0,0,.84,2.56A3,3,0,0,0,8159,4302.18Z" transform="translate(-8045.3 -3297.43)"/><path class="cls-2" d="M8172.22,4303.87a5.46,5.46,0,0,1-2.2-.42,4.48,4.48,0,0,1-1.65-1.19,5.23,5.23,0,0,1-1.05-1.87,8.58,8.58,0,0,1,0-4.92,5.23,5.23,0,0,1,1.05-1.87,4.48,4.48,0,0,1,1.65-1.19,5.95,5.95,0,0,1,4.39,0,4.61,4.61,0,0,1,1.66,1.19,5.22,5.22,0,0,1,1,1.87,8.36,8.36,0,0,1,0,4.92,5.22,5.22,0,0,1-1,1.87,4.61,4.61,0,0,1-1.66,1.19A5.48,5.48,0,0,1,8172.22,4303.87Zm0-1.69a3,3,0,0,0,2.24-.85,3.51,3.51,0,0,0,.84-2.56v-1.68a3.51,3.51,0,0,0-.84-2.56,3,3,0,0,0-2.24-.85,3,3,0,0,0-2.25.85,3.55,3.55,0,0,0-.83,2.56v1.68a3.55,3.55,0,0,0,.83,2.56A3,3,0,0,0,8172.22,4302.18Z" transform="translate(-8045.3 -3297.43)"/><path class="cls-2" d="M8186,4303.61a2.59,2.59,0,0,1-2.05-.76,2.91,2.91,0,0,1-.66-2V4294h-3.63v-1.7h2.64a1.23,1.23,0,0,0,.85-.24,1.21,1.21,0,0,0,.25-.86v-2.9h1.94v4h5v1.7h-5v8h5v1.7Z" transform="translate(-8045.3 -3297.43)"/><path class="cls-2" d="M8198.84,4303.87a5.89,5.89,0,0,1-2.27-.42,4.59,4.59,0,0,1-1.7-1.19,5.31,5.31,0,0,1-1.07-1.86,7.46,7.46,0,0,1-.37-2.45,7.3,7.3,0,0,1,.38-2.46,5.58,5.58,0,0,1,1.08-1.88,4.63,4.63,0,0,1,1.66-1.2,5.65,5.65,0,0,1,4.25,0,4.44,4.44,0,0,1,1.61,1.15,5.21,5.21,0,0,1,1,1.77,6.78,6.78,0,0,1,.36,2.26v.86h-8.27v.45a3.08,3.08,0,0,0,3.32,3.24,3.68,3.68,0,0,0,1.94-.49,3.43,3.43,0,0,0,1.27-1.37l1.39,1.08a4.35,4.35,0,0,1-1.73,1.81A5.53,5.53,0,0,1,8198.84,4303.87Zm-.13-10.25a3.28,3.28,0,0,0-1.28.24,3.14,3.14,0,0,0-1,.67,2.89,2.89,0,0,0-.66,1,3.66,3.66,0,0,0-.23,1.3v.18h6.14v-.24a3.23,3.23,0,0,0-.82-2.3A2.8,2.8,0,0,0,8198.71,4293.62Z" transform="translate(-8045.3 -3297.43)"/><path class="cls-2" d="M8206.89,4301.91h3.19v-8h-3.19v-1.7h5.24v2.93h.13a4.09,4.09,0,0,1,1.31-2.16,3.78,3.78,0,0,1,2.47-.77h1.5v2h-2.2a3.21,3.21,0,0,0-2.34.84,2.94,2.94,0,0,0-.87,2.19v4.62h4.29v1.7h-9.53Z" transform="translate(-8045.3 -3297.43)"/><path class="cls-2" d="M8220.29,4301.23l7.57-4.22v-.18l-7.57-4.25v-2.09l9.46,5.39v2l-9.46,5.39Z" transform="translate(-8045.3 -3297.43)"/><path class="cls-2" d="M8068.69,4370.91v-2l9.46-5.39v2.07l-7.57,4.23v.17l7.57,4.25v2.09Z" transform="translate(-8045.3 -3297.43)"/><path class="cls-2" d="M8081.93,4379.64l7.55-19.75h1.83l-7.55,19.75Z" transform="translate(-8045.3 -3297.43)"/><path class="cls-2" d="M8095.16,4360.33h2v6.82h.11a3.57,3.57,0,0,1,3.48-2.16,3.82,3.82,0,0,1,3.22,1.54,8.79,8.79,0,0,1,0,8.8,4.2,4.2,0,0,1-5.33,1,3.77,3.77,0,0,1-1.37-1.61h-.11v1.9h-2Zm4.79,14.8a2.91,2.91,0,0,0,2.26-.89,3.41,3.41,0,0,0,.8-2.36V4370a3.41,3.41,0,0,0-.8-2.36,2.91,2.91,0,0,0-2.26-.89,3.9,3.9,0,0,0-1,.14,2.78,2.78,0,0,0-.88.43,2.11,2.11,0,0,0-.61.69,2.06,2.06,0,0,0-.22,1v4a2.13,2.13,0,0,0,.22,1,1.93,1.93,0,0,0,.61.69,3,3,0,0,0,.88.42A3.9,3.9,0,0,0,8100,4375.13Z" transform="translate(-8045.3 -3297.43)"/><path class="cls-2" d="M8113,4376.87a5.46,5.46,0,0,1-2.2-.42,4.48,4.48,0,0,1-1.65-1.19,5.23,5.23,0,0,1-1.05-1.87,8.58,8.58,0,0,1,0-4.92,5.23,5.23,0,0,1,1.05-1.87,4.48,4.48,0,0,1,1.65-1.19,5.95,5.95,0,0,1,4.39,0,4.61,4.61,0,0,1,1.66,1.19,5.22,5.22,0,0,1,1,1.87,8.36,8.36,0,0,1,0,4.92,5.22,5.22,0,0,1-1,1.87,4.61,4.61,0,0,1-1.66,1.19A5.48,5.48,0,0,1,8113,4376.87Zm0-1.69a3,3,0,0,0,2.24-.85,3.51,3.51,0,0,0,.84-2.56v-1.68a3.51,3.51,0,0,0-.84-2.56,3.38,3.38,0,0,0-4.48,0,3.51,3.51,0,0,0-.84,2.56v1.68a3.51,3.51,0,0,0,.84,2.56A3,3,0,0,0,8113,4375.18Z" transform="translate(-8045.3 -3297.43)"/><path class="cls-2" d="M8128.84,4374.71h-.11a3.57,3.57,0,0,1-3.48,2.16,3.82,3.82,0,0,1-3.22-1.54,8.79,8.79,0,0,1,0-8.8,4.2,4.2,0,0,1,5.33-1,3.77,3.77,0,0,1,1.37,1.61h.11v-6.82h2v16.28h-2Zm-2.75.42a4,4,0,0,0,1-.14,3,3,0,0,0,.88-.42,1.93,1.93,0,0,0,.61-.69,2.13,2.13,0,0,0,.22-1v-4a2.06,2.06,0,0,0-.22-1,2.11,2.11,0,0,0-.61-.69,2.78,2.78,0,0,0-.88-.43,4,4,0,0,0-1-.14,2.91,2.91,0,0,0-2.26.89,3.41,3.41,0,0,0-.8,2.36v1.9a3.41,3.41,0,0,0,.8,2.36A2.91,2.91,0,0,0,8126.09,4375.13Z" transform="translate(-8045.3 -3297.43)"/><path class="cls-2" d="M8142.94,4365.25H8145l-5.59,13.71a4.62,4.62,0,0,1-.45.89,2.38,2.38,0,0,1-1.44,1,4.36,4.36,0,0,1-1.15.14h-1.78v-1.7h2.64l1.17-2.9-4.58-11.16H8136l1.87,4.76,1.57,4.11h.11l1.56-4.11Z" transform="translate(-8045.3 -3297.43)"/><path class="cls-2" d="M8147.89,4374.23l7.57-4.22v-.18l-7.57-4.25v-2.09l9.46,5.39v2l-9.46,5.39Z" transform="translate(-8045.3 -3297.43)"/></g></g></svg>