<svg xmlns="http://www.w3.org/2000/svg" viewBox="0 0 1010.96 688"><defs><style>.cls-1{fill:#000234;}.cls-2,.cls-5{fill:#f15a24;}.cls-3{opacity:0.9;}.cls-4{fill:#1b1464;}.cls-5{font-size:22px;font-family:IBMPlexMono-Text, IBM Plex Mono;}.cls-6{fill:#00064c;}.cls-7{letter-spacing:0.02em;}</style></defs><g id="Ebene_2" data-name="Ebene 2"><g id="Ebene_1-2" data-name="Ebene 1"><rect class="cls-1" x="2" y="2" width="1006.96" height="684"/><path class="cls-2" d="M1007,4V684H4V4H1007m4-4H0V688H1011V0Z"/><rect class="cls-1" x="48.98" y="57" width="913" height="149"/><path class="cls-2" d="M961,58V205H50V58H961m2-2H48V207H963V56Z"/><g class="cls-3"><rect class="cls-4" x="87.48" y="107.5" width="836" height="48"/><path class="cls-2" d="M923,108v47H88V108H923m1-1H87v49H924V107Z"/></g><g class="cls-3"><rect class="cls-1" x="48.48" y="245.5" width="914" height="376"/><path class="cls-2" d="M962,246V621H49V246H962m1-1H48V622H963V245Z"/></g><g class="cls-3"><rect class="cls-4" x="87.48" y="298.5" width="836" height="271"/><path class="cls-2" d="M923,299V569H88V299H923m1-1H87V570H924V298Z"/></g><text class="cls-5" transform="translate(21.52 35.18)">&lt;html&gt;</text><text class="cls-5" transform="translate(67.52 88.18)">&lt;head&gt;</text><text class="cls-5" transform="translate(67.52 275.18)">&lt;body&gt;</text><text class="cls-5" transform="translate(67.52 605.18)">&lt;/body&gt;</text><text class="cls-5" transform="translate(105.52 138.18)">&lt;title&gt; Seitentitel &lt;/title&gt;</text><g class="cls-3"><rect class="cls-6" x="121.48" y="350.5" width="768" height="48"/><path class="cls-2" d="M889,351v47H122V351H889m1-1H121v49H890V350Z"/></g><text class="cls-5" transform="translate(138.01 381.18) scale(0.92 1)"><tspan class="cls-7">&lt;</tspan><tspan x="13.64" y="0">h1&gt; Headline &lt;/h1&gt;</tspan></text><g class="cls-3"><rect class="cls-6" x="121.48" y="415.5" width="768" height="48"/><path class="cls-2" d="M889,416v47H122V416H889m1-1H121v49H890V415Z"/></g><text class="cls-5" transform="translate(138.01 446.18) scale(0.92 1)"><tspan xml:space="preserve">&lt;p&gt; Lorem Upsum  dolor met amet &lt;/p&gt;</tspan></text><g class="cls-3"><rect class="cls-6" x="121.48" y="480.5" width="768" height="48"/><path class="cls-2" d="M889,481v47H122V481H889m1-1H121v49H890V480Z"/></g><text class="cls-5" transform="translate(138.01 511.18) scale(0.92 1)">&lt;a href=“google.com“&gt; Ein Link &lt;/a&gt;</text><text class="cls-5" transform="translate(67.52 188.18)">&lt;/head&gt;</text><text class="cls-5" transform="translate(21.52 665.18)">&lt;/html&gt;</text></g></g></svg>