<svg xmlns="http://www.w3.org/2000/svg" viewBox="0 0 1617.13 1112.82"><defs><style>.cls-1{opacity:0.8;}.cls-2{fill:#f15a24;}.cls-3{opacity:0.3;}.cls-4{fill:#fff;}.cls-5{fill:#2a53df;}.cls-6{fill:#2e6aec;}.cls-7{fill:#eaeaea;}.cls-8{fill:#fafbff;}.cls-9{fill:#e14e30;}.cls-10{fill:#ee6534;}.cls-11{opacity:0.2;}</style></defs><g id="Ebene_2" data-name="Ebene 2"><g id="Ebene_1-2" data-name="Ebene 1"><g class="cls-1"><path class="cls-2" d="M611,656.82c0-143.31,66.11-271.18,169.5-354.77A454.09,454.09,0,0,0,494,200.82c-251.84,0-456,204.16-456,456s204.16,456,456,456a454.09,454.09,0,0,0,286.5-101.23C677.11,928,611,800.13,611,656.82Z"/></g><g class="cls-3"><path class="cls-4" d="M1067,200.82A454.09,454.09,0,0,0,780.5,302.05C883.89,385.64,950,513.51,950,656.82S883.89,928,780.5,1011.59A454.09,454.09,0,0,0,1067,1112.82c251.84,0,456-204.16,456-456S1318.84,200.82,1067,200.82Z"/></g><g id="layer1"><g id="g3013"><polygon id="polygon2989" class="cls-5" points="1617.13 80.5 1590.69 376.65 1471.86 409.6 1353.35 376.7 1326.94 80.5 1617.13 80.5"/><polygon id="polygon2991" class="cls-6" points="1568.06 357.8 1590.65 104.72 1472.04 104.72 1472.04 384.42 1568.06 357.8"/><polygon id="polygon2993" class="cls-7" points="1387.48 214.57 1390.74 250.9 1472.04 250.9 1472.04 214.57 1387.48 214.57"/><polygon id="polygon2995" class="cls-7" points="1472.04 141.04 1471.91 141.04 1380.94 141.04 1384.24 177.37 1472.04 177.37 1472.04 141.04"/><polygon id="polygon2997" class="cls-7" points="1472.04 346.72 1472.04 308.92 1471.88 308.96 1431.42 298.04 1428.83 269.07 1409.17 269.07 1392.36 269.07 1397.45 326.11 1471.87 346.77 1472.04 346.72"/><path id="path2999" class="cls-8" d="M1395.24,0h44V18.4h-25.6V36.8h25.6V55.2h-44Z"/><path id="path3001" class="cls-8" d="M1448,0h44V16h-25.6v3.2H1492V56h-44V39.2h25.6V36H1448Z"/><path id="path3003" class="cls-8" d="M1500.84,0h44V16h-25.6v3.2h25.6V56h-44V39.2h25.6V36h-25.6Z"/><polygon id="polygon3005" class="cls-4" points="1516.64 250.9 1512.43 298.02 1471.91 308.95 1471.91 346.75 1546.38 326.11 1546.93 319.97 1555.47 224.33 1556.36 214.57 1562.91 141.04 1471.91 141.04 1471.91 177.37 1523.1 177.37 1519.8 214.57 1471.91 214.57 1471.91 250.9 1516.64 250.9"/></g></g><path class="cls-4" d="M24.36,40.65H40.93V57.08H56.21V40.65H72.78V90.37H56.21V73.8H41.07V90.37H24.36M94.69,57.22H80.06V40.65H126V57.22h-14.7V90.37H94.69m38.55-49.72h17.37l10.66,17.51,10.67-17.51H189.3V90.37H172.73V65.73L161.13,83.6l-11.6-17.87V90.37H133.24m64.28-49.72h16.57V73.94h23.49V90.37H197.52"/><path class="cls-9" d="M23.78,380.06,0,113.14H261.44L237.66,379.91,130.5,409.6"/><path class="cls-10" d="M130.72,386.9V135.05H237.58L217.19,362.76"/><path class="cls-7" d="M48.57,167.69h82.15v32.72H84.46l3,33.51h43.24v32.64H57.5M59,283H91.81l2.3,26.16,36.61,9.8V353.1L63.56,334.37"/><path class="cls-4" d="M212.58,167.69h-82v32.72h79m-3,33.51h-76v32.71h40.36l-3.82,42.52L130.57,319v34l67-18.59"/><g class="cls-11"><path class="cls-2" d="M780,301.82c267,223,185,570,1,710C542,821.82,567,472.82,780,301.82Z"/></g><path class="cls-4" d="M211.26,586.47h-.18a8.17,8.17,0,0,1-3.74,4.77,14.1,14.1,0,0,1-7.7,1.9,16.92,16.92,0,0,1-6.93-1.39,14.47,14.47,0,0,1-5.4-4.07A19.33,19.33,0,0,1,183.8,581a30.17,30.17,0,0,1-1.27-9.18,30.51,30.51,0,0,1,1.24-9.11,18.37,18.37,0,0,1,3.54-6.67,15.16,15.16,0,0,1,5.54-4.1,17.93,17.93,0,0,1,7.2-1.42,16.48,16.48,0,0,1,9.26,2.45,16.3,16.3,0,0,1,5.73,6.52L211,562a11.31,11.31,0,0,0-10.92-7.08,12.33,12.33,0,0,0-5,1,11.31,11.31,0,0,0-3.86,2.75,12.45,12.45,0,0,0-2.51,4.26,16.52,16.52,0,0,0-.88,5.57v6.69a16.77,16.77,0,0,0,.88,5.59,12.45,12.45,0,0,0,2.51,4.3,11,11,0,0,0,4,2.75,13.84,13.84,0,0,0,5.31,1,14,14,0,0,0,4-.56,10,10,0,0,0,3.37-1.69,7.9,7.9,0,0,0,2.27-2.81,9,9,0,0,0,.82-4v-4.09h-9.08v-4.37h13.92v21.18h-4.6Z"/><path class="cls-4" d="M227.49,554.85a2.9,2.9,0,0,1-2.22-.74,2.73,2.73,0,0,1-.68-1.92v-.76a2.73,2.73,0,0,1,.68-1.92,3.69,3.69,0,0,1,4.43,0,2.73,2.73,0,0,1,.68,1.92v.76a2.73,2.73,0,0,1-.68,1.92A2.89,2.89,0,0,1,227.49,554.85ZM225.12,562h4.73v30.44h-4.73Z"/><path class="cls-4" d="M239.88,548.77h4.72v18.12h.23a8.62,8.62,0,0,1,3.45-4.24,10.44,10.44,0,0,1,5.46-1.37,11.63,11.63,0,0,1,5.13,1.12,11.2,11.2,0,0,1,3.93,3.19,14.68,14.68,0,0,1,2.47,5,25.83,25.83,0,0,1,0,13.22,14.5,14.5,0,0,1-2.47,5,11.2,11.2,0,0,1-3.93,3.19,11.5,11.5,0,0,1-5.13,1.12,9.22,9.22,0,0,1-8.91-5.61h-.23v4.9h-4.72ZM252.44,589a8.1,8.1,0,0,0,6.31-2.52,9.39,9.39,0,0,0,2.31-6.61V574.6a9.39,9.39,0,0,0-2.31-6.61,8.1,8.1,0,0,0-6.31-2.52,10.21,10.21,0,0,0-3,.45,8.31,8.31,0,0,0-2.5,1.21,5.91,5.91,0,0,0-1.69,1.87,4.7,4.7,0,0,0-.61,2.34v11.39a5.52,5.52,0,0,0,.61,2.63,5.9,5.9,0,0,0,1.69,2,7.67,7.67,0,0,0,2.5,1.22A11.27,11.27,0,0,0,252.44,589Z"/><path class="cls-4" d="M280.47,592.43a4.84,4.84,0,0,1-3.75-1.38,5.13,5.13,0,0,1-1.27-3.62V566.18h-5V562h2.83a2.77,2.77,0,0,0,2.09-.62,3.17,3.17,0,0,0,.56-2.15v-5.67h4.25V562h6.67v4.19h-6.67v22.06h6.2v4.19Z"/><path class="cls-4" d="M321.24,593.14a20.71,20.71,0,0,1-9.21-1.86,21.14,21.14,0,0,1-6.43-4.81l5.9-6a13.31,13.31,0,0,0,10.33,4.68,7.43,7.43,0,0,0,4.89-1.35,4.43,4.43,0,0,0,1.6-3.57,4.28,4.28,0,0,0-.95-2.83c-.63-.76-1.91-1.28-3.83-1.55l-4.07-.53q-6.56-.83-9.59-4a11.45,11.45,0,0,1-3-8.33A11.94,11.94,0,0,1,307.9,558a11.19,11.19,0,0,1,3-4,14.22,14.22,0,0,1,4.84-2.57,23.5,23.5,0,0,1,14.72.56,16.8,16.8,0,0,1,6.08,4.31l-6,6a12.06,12.06,0,0,0-3.57-2.77,11.49,11.49,0,0,0-5.28-1.08,7.77,7.77,0,0,0-4.49,1,3.38,3.38,0,0,0-1.47,2.92,3.7,3.7,0,0,0,1.15,3,8,8,0,0,0,3.74,1.34l4.08.65q6.36,1,9.44,3.93t3.06,8.29a13.68,13.68,0,0,1-1.06,5.44,11.65,11.65,0,0,1-3.1,4.25,14.27,14.27,0,0,1-5,2.75A22.2,22.2,0,0,1,321.24,593.14Z"/><path class="cls-4" d="M354.81,592.43c-3,0-5.32-.76-6.88-2.3s-2.33-3.77-2.33-6.72V568.24h-4.36v-6.78h2.18a2.88,2.88,0,0,0,2.42-.86,4,4,0,0,0,.65-2.45v-5.07h7.84v8.38h6.14v6.78h-6.14v17.41H360v6.78Z"/><path class="cls-4" d="M366.55,592.43v-31h8.73v6.72h.29a9.8,9.8,0,0,1,.83-2.5,7.74,7.74,0,0,1,1.56-2.16,7.3,7.3,0,0,1,2.33-1.5,8.23,8.23,0,0,1,3.19-.56H385v8.14h-2.18a12.4,12.4,0,0,0-5.69,1,3.84,3.84,0,0,0-1.86,3.72v18.11Z"/><path class="cls-4" d="M408.67,587.24h-.29a11,11,0,0,1-1.09,2.24,7.77,7.77,0,0,1-1.74,1.89,8.4,8.4,0,0,1-2.51,1.3,10.88,10.88,0,0,1-3.33.47q-4.79,0-7.23-3.16T390,580.93V561.46h8.73v18.7a8.07,8.07,0,0,0,1,4.37,3.79,3.79,0,0,0,3.43,1.53,7.33,7.33,0,0,0,2-.29,5.83,5.83,0,0,0,1.77-.86,4.25,4.25,0,0,0,1.24-1.39,3.79,3.79,0,0,0,.47-1.94V561.46h8.74v31h-8.74Z"/><path class="cls-4" d="M425.55,548.77h8.73v25.79h.35l3.84-5.73,6.19-7.37h9.68L444,573.32l11.51,19.11H445.14l-7-13.09-3.89,4.36v8.73h-8.73Z"/><path class="cls-4" d="M469.86,592.43c-3,0-5.32-.76-6.88-2.3s-2.33-3.77-2.33-6.72V568.24h-4.36v-6.78h2.18a2.88,2.88,0,0,0,2.42-.86,4,4,0,0,0,.65-2.45v-5.07h7.84v8.38h6.14v6.78h-6.14v17.41h5.67v6.78Z"/><path class="cls-4" d="M499.89,587.24h-.3a10.54,10.54,0,0,1-1.09,2.24,7.4,7.4,0,0,1-1.74,1.89,8.28,8.28,0,0,1-2.51,1.3,10.84,10.84,0,0,1-3.33.47q-4.79,0-7.23-3.16t-2.45-9.05V561.46H490v18.7a8,8,0,0,0,1,4.37,3.78,3.78,0,0,0,3.42,1.53,7.34,7.34,0,0,0,2-.29,5.83,5.83,0,0,0,1.77-.86,4.36,4.36,0,0,0,1.24-1.39,3.9,3.9,0,0,0,.47-1.94V561.46h8.73v31h-8.73Z"/><path class="cls-4" d="M516.76,592.43v-31h8.73v6.72h.3a9.77,9.77,0,0,1,.82-2.5,7.77,7.77,0,0,1,1.57-2.16,7.19,7.19,0,0,1,2.33-1.5,8.14,8.14,0,0,1,3.18-.56h1.54v8.14h-2.18a12.45,12.45,0,0,0-5.7,1,3.84,3.84,0,0,0-1.86,3.72v18.11Z"/><path class="cls-4" d="M202.88,658.33h-.23a15.27,15.27,0,0,1-1.15,2.08,8,8,0,0,1-1.69,1.81,7.84,7.84,0,0,1-2.41,1.25,10.66,10.66,0,0,1-3.31.47,9.62,9.62,0,0,1-7.49-3q-2.78-3-2.77-8.58V632.79h4.72v18.74q0,8.22,7,8.22a10.83,10.83,0,0,0,2.74-.35,7.48,7.48,0,0,0,2.36-1.07,5.27,5.27,0,0,0,1.65-1.8,5.2,5.2,0,0,0,.62-2.63V632.79h4.72v30.44h-4.72Z"/><path class="cls-4" d="M217.63,663.23V632.79h4.72v4.9h.24a9.86,9.86,0,0,1,3.16-4.09,8.9,8.9,0,0,1,5.45-1.52,9.55,9.55,0,0,1,7.47,3q2.75,3,2.74,8.58v19.53h-4.72V644.49q0-8.22-6.9-8.22a10.91,10.91,0,0,0-2.75.35,8.23,8.23,0,0,0-2.39,1.07,5.26,5.26,0,0,0-1.68,1.8,5.17,5.17,0,0,0-.62,2.57v21.17Z"/><path class="cls-4" d="M270.61,658.33h-.23a9.3,9.3,0,0,1-8.91,5.61,11.5,11.5,0,0,1-5.13-1.12,11.11,11.11,0,0,1-3.93-3.19,14.51,14.51,0,0,1-2.48-5,26.13,26.13,0,0,1,0-13.22,14.69,14.69,0,0,1,2.48-5,11.11,11.11,0,0,1,3.93-3.19,11.63,11.63,0,0,1,5.13-1.12,10.44,10.44,0,0,1,5.46,1.37,8.62,8.62,0,0,1,3.45,4.24h.23V619.57h4.72v43.66h-4.72Zm-7.84,1.42a11.27,11.27,0,0,0,3-.41,7.77,7.77,0,0,0,2.5-1.22,5.76,5.76,0,0,0,1.68-2,5.41,5.41,0,0,0,.62-2.63V642.14a4.61,4.61,0,0,0-.62-2.34,5.76,5.76,0,0,0-1.68-1.87,8.42,8.42,0,0,0-2.5-1.21,10.21,10.21,0,0,0-3-.45,8.14,8.14,0,0,0-6.32,2.52,9.43,9.43,0,0,0-2.3,6.61v5.22a9.43,9.43,0,0,0,2.3,6.61A8.14,8.14,0,0,0,262.77,659.75Z"/><path class="cls-4" d="M297.22,663.23v-7.14h5.31v-26.9h-5.31v-7.14h19.59v7.14H311.5v26.9h5.31v7.14Z"/><path class="cls-4" d="M323.83,663.23v-31h8.73v5.25h.36a9.48,9.48,0,0,1,2.89-4.19,8.49,8.49,0,0,1,5.72-1.77c3.19,0,5.59,1.06,7.23,3.19s2.45,5.15,2.45,9.08v19.41h-8.74v-18.7a8.26,8.26,0,0,0-.94-4.45,3.7,3.7,0,0,0-3.36-1.45,8.39,8.39,0,0,0-2.07.26,5.36,5.36,0,0,0-1.8.86A4.53,4.53,0,0,0,333,641.2a4.07,4.07,0,0,0-.47,2v20.06Z"/><path class="cls-4" d="M359,619.57h8.74v17.94h.35a9.48,9.48,0,0,1,2.89-4.19,8.51,8.51,0,0,1,5.72-1.77q4.79,0,7.23,3.19t2.45,9.08v19.41h-8.73v-18.7a8.25,8.25,0,0,0-.95-4.45,3.7,3.7,0,0,0-3.36-1.45,8.25,8.25,0,0,0-2.06.26,5.36,5.36,0,0,0-1.8.86,4.41,4.41,0,0,0-1.27,1.45,4,4,0,0,0-.47,2v20.06H359Z"/><path class="cls-4" d="M417.05,663.23a5.5,5.5,0,0,1-3.92-1.47,6.73,6.73,0,0,1-2-4h-.35a7.21,7.21,0,0,1-3.13,4.57,10.77,10.77,0,0,1-6,1.56q-4.66,0-7.14-2.47a8.82,8.82,0,0,1-2.48-6.53,8.13,8.13,0,0,1,3.57-7.26q3.57-2.38,9.71-2.38h4.89v-1.95a5.18,5.18,0,0,0-1.18-3.57c-.78-.89-2.1-1.33-3.95-1.33a6.9,6.9,0,0,0-4.13,1.12,11.33,11.33,0,0,0-2.54,2.54l-5.19-4.63a13.57,13.57,0,0,1,4.75-4.36,16.18,16.18,0,0,1,7.76-1.57q6.62,0,9.91,2.89t3.31,8.44v13.57h2.89v6.78ZM405,657.86a7.18,7.18,0,0,0,3.74-.93,3.29,3.29,0,0,0,1.56-3v-3.63H406q-5.14,0-5.14,3.46v.88a2.87,2.87,0,0,0,1.07,2.48A4.93,4.93,0,0,0,405,657.86Z"/><path class="cls-4" d="M436.4,663.23c-3,0-5.18-.72-6.58-2.18a8.78,8.78,0,0,1-2.09-6.31V619.57h8.73v36.88h3.89v6.78Z"/><path class="cls-4" d="M456.17,663.23c-3,0-5.32-.76-6.88-2.3s-2.33-3.77-2.33-6.72V639H442.6v-6.78h2.18a2.88,2.88,0,0,0,2.42-.86,4,4,0,0,0,.65-2.45v-5.07h7.85v8.38h6.13V639H455.7v17.41h5.66v6.78Z"/><path class="cls-4" d="M502.25,658.33H502a9.3,9.3,0,0,1-8.91,5.61,11.5,11.5,0,0,1-5.13-1.12,11.2,11.2,0,0,1-3.93-3.19,14.5,14.5,0,0,1-2.47-5,25.83,25.83,0,0,1,0-13.22,14.68,14.68,0,0,1,2.47-5A11.2,11.2,0,0,1,488,633.2a11.63,11.63,0,0,1,5.13-1.12,10.44,10.44,0,0,1,5.46,1.37,8.62,8.62,0,0,1,3.45,4.24h.24V619.57H507v43.66h-4.72Zm-7.85,1.42a11.27,11.27,0,0,0,3-.41,7.67,7.67,0,0,0,2.5-1.22,5.9,5.9,0,0,0,1.69-2,5.52,5.52,0,0,0,.62-2.63V642.14a4.71,4.71,0,0,0-.62-2.34,5.91,5.91,0,0,0-1.69-1.87,8.31,8.31,0,0,0-2.5-1.21,10.21,10.21,0,0,0-3-.45,8.1,8.1,0,0,0-6.31,2.52,9.39,9.39,0,0,0-2.3,6.61v5.22a9.39,9.39,0,0,0,2.3,6.61A8.1,8.1,0,0,0,494.4,659.75Z"/><path class="cls-4" d="M528.44,663.94a13.61,13.61,0,0,1-5.63-1.12,12.09,12.09,0,0,1-4.31-3.22,14.65,14.65,0,0,1-2.77-5,22.48,22.48,0,0,1,0-13.13,14.7,14.7,0,0,1,2.77-5,12.09,12.09,0,0,1,4.31-3.22,13.77,13.77,0,0,1,5.63-1.12,12.89,12.89,0,0,1,5.49,1.12,12,12,0,0,1,4.13,3.09,13.74,13.74,0,0,1,2.62,4.67,18.41,18.41,0,0,1,.92,5.94v2.23H519.71v1.42a10.48,10.48,0,0,0,.62,3.63,8.57,8.57,0,0,0,1.77,2.92,8.15,8.15,0,0,0,2.83,1.94,9.59,9.59,0,0,0,3.81.71,9.23,9.23,0,0,0,5-1.36,8.8,8.8,0,0,0,3.33-3.89l3.37,2.44a11.83,11.83,0,0,1-4.61,5.07A13.82,13.82,0,0,1,528.44,663.94Zm0-27.91a9,9,0,0,0-3.54.68,7.89,7.89,0,0,0-2.74,1.9,8.81,8.81,0,0,0-1.8,2.91,9.85,9.85,0,0,0-.65,3.66v.41h16.81V645a9.23,9.23,0,0,0-2.21-6.48A7.55,7.55,0,0,0,528.44,636Z"/><path class="cls-4" d="M549.38,663.23V632.79h4.73v5.6h.29a9.17,9.17,0,0,1,3-3.89,9.07,9.07,0,0,1,5.84-1.71H565v4.72h-2.77a10.67,10.67,0,0,0-6,1.44,4.27,4.27,0,0,0-2.15,3.63v20.65Z"/><path class="cls-4" d="M190.32,734l-10-41.18h5.25L190,712.68l3.42,15.39h.12l3.84-15.39,5.19-19.83h5.66l5,19.83L217,728h.18l3.54-15.34,4.66-19.83h5.07L219.93,734h-5.48l-5.37-20.53-3.78-15.1h-.12l-3.89,15.1L195.8,734Z"/><path class="cls-4" d="M247.25,734.74a13.61,13.61,0,0,1-5.63-1.12,12.09,12.09,0,0,1-4.31-3.22,14.49,14.49,0,0,1-2.77-5,22.48,22.48,0,0,1,0-13.13,14.54,14.54,0,0,1,2.77-5,12.09,12.09,0,0,1,4.31-3.22,13.77,13.77,0,0,1,5.63-1.12,12.92,12.92,0,0,1,5.49,1.12,12,12,0,0,1,4.13,3.09,13.74,13.74,0,0,1,2.62,4.67,18.41,18.41,0,0,1,.92,5.94v2.23H238.52v1.42a10.25,10.25,0,0,0,.62,3.63,8.57,8.57,0,0,0,1.77,2.92,8.06,8.06,0,0,0,2.83,1.94,9.57,9.57,0,0,0,3.8.71,9.32,9.32,0,0,0,5.05-1.35,8.88,8.88,0,0,0,3.33-3.9l3.37,2.44a11.77,11.77,0,0,1-4.61,5.07A13.82,13.82,0,0,1,247.25,734.74Zm0-27.91a9,9,0,0,0-3.54.68,7.89,7.89,0,0,0-2.74,1.9,8.92,8.92,0,0,0-1.8,2.91,9.85,9.85,0,0,0-.65,3.66v.41h16.81v-.64a9.23,9.23,0,0,0-2.21-6.48A7.55,7.55,0,0,0,247.25,706.83Z"/><path class="cls-4" d="M268.19,690.37h4.73v18.12h.23a8.62,8.62,0,0,1,3.45-4.24,10.44,10.44,0,0,1,5.46-1.37,11.63,11.63,0,0,1,5.13,1.12,11.2,11.2,0,0,1,3.93,3.19,14.68,14.68,0,0,1,2.47,5,25.83,25.83,0,0,1,0,13.22,14.5,14.5,0,0,1-2.47,5,11.2,11.2,0,0,1-3.93,3.19,11.5,11.5,0,0,1-5.13,1.12,9.22,9.22,0,0,1-8.91-5.61h-.23V734h-4.73Zm12.57,40.18a8.1,8.1,0,0,0,6.31-2.52,9.39,9.39,0,0,0,2.31-6.61V716.2a9.39,9.39,0,0,0-2.31-6.61,8.1,8.1,0,0,0-6.31-2.52,10.21,10.21,0,0,0-3,.45,8.31,8.31,0,0,0-2.5,1.21,6,6,0,0,0-1.69,1.87,4.7,4.7,0,0,0-.61,2.34v11.39a5.58,5.58,0,0,0,.61,2.64,6,6,0,0,0,1.69,1.95,7.48,7.48,0,0,0,2.5,1.22A11.27,11.27,0,0,0,280.76,730.55Z"/><path class="cls-4" d="M311.56,734.74a14.27,14.27,0,0,1-7.11-1.62,16.18,16.18,0,0,1-4.93-4.34l3.37-2.71a13.28,13.28,0,0,0,3.95,3.45,10.22,10.22,0,0,0,5.07,1.21,7.47,7.47,0,0,0,4.69-1.3,4.72,4.72,0,0,0,.53-6.7A7.06,7.06,0,0,0,313,721l-2.41-.35a20.66,20.66,0,0,1-3.9-.91,11.06,11.06,0,0,1-3.1-1.66,7.06,7.06,0,0,1-2.06-2.56,8.41,8.41,0,0,1-.74-3.66,8.77,8.77,0,0,1,.83-3.92,7.88,7.88,0,0,1,2.27-2.81,10.1,10.1,0,0,1,3.45-1.68,16.1,16.1,0,0,1,4.31-.56,13.35,13.35,0,0,1,6.22,1.3,14,14,0,0,1,4.4,3.6l-3.13,2.83a9.47,9.47,0,0,0-2.95-2.57,9.58,9.58,0,0,0-4.9-1.15,6.79,6.79,0,0,0-4.45,1.27,4.3,4.3,0,0,0-1.51,3.45,3.63,3.63,0,0,0,1.51,3.25,11.13,11.13,0,0,0,4.34,1.47l2.36.36q5.07.76,7.19,2.92a7.65,7.65,0,0,1,2.13,5.63,8.63,8.63,0,0,1-3,7C317.81,733.9,315.06,734.74,311.56,734.74Z"/><path class="cls-4" d="M342.59,734.74a13.61,13.61,0,0,1-5.63-1.12,12.18,12.18,0,0,1-4.31-3.22,14.65,14.65,0,0,1-2.77-5,22.7,22.7,0,0,1,0-13.13,14.7,14.7,0,0,1,2.77-5A12.18,12.18,0,0,1,337,704a13.77,13.77,0,0,1,5.63-1.12,12.86,12.86,0,0,1,5.49,1.12,12,12,0,0,1,4.13,3.09,13.74,13.74,0,0,1,2.62,4.67,18.41,18.41,0,0,1,.92,5.94v2.23H333.86v1.42a10.48,10.48,0,0,0,.62,3.63,8.57,8.57,0,0,0,1.77,2.92,8.15,8.15,0,0,0,2.83,1.94,9.59,9.59,0,0,0,3.81.71,9.29,9.29,0,0,0,5-1.35,9,9,0,0,0,3.34-3.9l3.36,2.44a11.75,11.75,0,0,1-4.6,5.07A13.88,13.88,0,0,1,342.59,734.74Zm0-27.91a9,9,0,0,0-3.54.68,8,8,0,0,0-2.74,1.9,8.92,8.92,0,0,0-1.8,2.91,10.05,10.05,0,0,0-.65,3.66v.41h16.82v-.64a9.24,9.24,0,0,0-2.22-6.48A7.55,7.55,0,0,0,342.59,706.83Z"/><path class="cls-4" d="M365.9,696.45a2.87,2.87,0,0,1-2.22-.74,2.72,2.72,0,0,1-.67-1.91V693a2.72,2.72,0,0,1,.67-1.92,3.69,3.69,0,0,1,4.43,0,2.73,2.73,0,0,1,.68,1.92v.77a2.72,2.72,0,0,1-.68,1.91A2.85,2.85,0,0,1,365.9,696.45Zm-2.36,7.14h4.72V734h-4.72Z"/><path class="cls-4" d="M385,734a4.82,4.82,0,0,1-3.74-1.38A5.13,5.13,0,0,1,380,729V707.78h-5v-4.19h2.84a2.77,2.77,0,0,0,2.09-.62,3.23,3.23,0,0,0,.56-2.15v-5.67h4.25v8.44h6.67v4.19h-6.67v22.06h6.19V734Z"/><path class="cls-4" d="M410.21,734.74a13.62,13.62,0,0,1-5.64-1.12,12.18,12.18,0,0,1-4.31-3.22,14.65,14.65,0,0,1-2.77-5,22.7,22.7,0,0,1,0-13.13,14.7,14.7,0,0,1,2.77-5,12.18,12.18,0,0,1,4.31-3.22,13.78,13.78,0,0,1,5.64-1.12,12.84,12.84,0,0,1,5.48,1.12,11.93,11.93,0,0,1,4.13,3.09,13.76,13.76,0,0,1,2.63,4.67,18.41,18.41,0,0,1,.91,5.94v2.23H401.47v1.42a10.48,10.48,0,0,0,.62,3.63,8.89,8.89,0,0,0,1.77,2.92,8.1,8.1,0,0,0,2.84,1.94,9.54,9.54,0,0,0,3.8.71,9.32,9.32,0,0,0,5.05-1.35,9,9,0,0,0,3.33-3.9l3.36,2.44a11.75,11.75,0,0,1-4.6,5.07A13.84,13.84,0,0,1,410.21,734.74Zm0-27.91a9,9,0,0,0-3.54.68,7.93,7.93,0,0,0-2.75,1.9,9.27,9.27,0,0,0-1.8,2.91,10.05,10.05,0,0,0-.65,3.66v.41h16.82v-.64a9.28,9.28,0,0,0-2.21-6.48A7.58,7.58,0,0,0,410.21,706.83Z"/><path class="cls-4" d="M467.2,734a4.66,4.66,0,0,1-3.81-1.41,7.06,7.06,0,0,1-1.44-3.54h-.3a7.91,7.91,0,0,1-3.3,4.25,10.28,10.28,0,0,1-5.49,1.41c-3.22,0-5.73-.82-7.52-2.48a8.69,8.69,0,0,1-2.68-6.72,7.69,7.69,0,0,1,3.15-6.61q3.17-2.29,9.83-2.3h6v-3a6.61,6.61,0,0,0-1.77-5q-1.77-1.71-5.42-1.71a8.25,8.25,0,0,0-4.64,1.24,10.14,10.14,0,0,0-3.09,3.31l-2.84-2.66a10.81,10.81,0,0,1,4-4.22,12.45,12.45,0,0,1,6.84-1.74q5.55,0,8.62,2.71a9.54,9.54,0,0,1,3.06,7.54v16.71h3.48V734Zm-13.57-3.3a12.3,12.3,0,0,0,3.25-.41,8.1,8.1,0,0,0,2.53-1.18,5.75,5.75,0,0,0,1.65-1.77,4.19,4.19,0,0,0,.59-2.19v-5H455.4q-4.06,0-5.93,1.18a3.82,3.82,0,0,0-1.86,3.42V726a4.13,4.13,0,0,0,1.62,3.48A7.07,7.07,0,0,0,453.63,730.73Z"/><path class="cls-4" d="M476.58,734V703.59h4.72v4.9h.24a9.92,9.92,0,0,1,3.15-4.09,9,9,0,0,1,5.46-1.52,9.51,9.51,0,0,1,7.46,3q2.75,3,2.75,8.58V734h-4.72V715.29q0-8.22-6.91-8.22a10.46,10.46,0,0,0-2.74.36,8,8,0,0,0-2.39,1.06,5,5,0,0,0-2.3,4.38V734Z"/><path class="cls-4" d="M513.1,734.74a3.52,3.52,0,0,1-2.74-.94,3.56,3.56,0,0,1-.86-2.48v-.77a3.6,3.6,0,1,1,7.2,0v.77a3.56,3.56,0,0,1-.86,2.48A3.52,3.52,0,0,1,513.1,734.74Z"/><path class="cls-4" d="M1037.69,521.74h-.3l-3.48,6.9-9.85,17.94-9.85-17.94-3.48-6.9h-.3v34.69h-4.84V515.25h6.61l11.8,22.18h.3l11.85-22.18h6.38v41.18h-4.84Z"/><path class="cls-4" d="M1064.53,557.14a13.66,13.66,0,0,1-5.6-1.12,12.11,12.11,0,0,1-4.34-3.22,15,15,0,0,1-2.8-5,22,22,0,0,1,0-13.13,15.1,15.1,0,0,1,2.8-5,12.11,12.11,0,0,1,4.34-3.22,13.83,13.83,0,0,1,5.6-1.12,13.63,13.63,0,0,1,5.58,1.12,12.47,12.47,0,0,1,4.34,3.22,15,15,0,0,1,2.83,5,22,22,0,0,1,0,13.13,14.93,14.93,0,0,1-2.83,5,12.47,12.47,0,0,1-4.34,3.22A13.47,13.47,0,0,1,1064.53,557.14Zm0-4.19a8.57,8.57,0,0,0,6.26-2.36q2.42-2.36,2.42-7.2V539q0-4.85-2.42-7.2a9.47,9.47,0,0,0-12.51,0q-2.41,2.35-2.42,7.2v4.36q0,4.85,2.42,7.2A8.55,8.55,0,0,0,1064.53,553Z"/><path class="cls-4" d="M1105.54,551.53h-.24a9.3,9.3,0,0,1-8.91,5.61,11.53,11.53,0,0,1-5.13-1.12,11.16,11.16,0,0,1-3.92-3.19,14.34,14.34,0,0,1-2.48-5,25.83,25.83,0,0,1,0-13.22,14.52,14.52,0,0,1,2.48-5,11.16,11.16,0,0,1,3.92-3.19,11.66,11.66,0,0,1,5.13-1.12,10.39,10.39,0,0,1,5.46,1.37,8.52,8.52,0,0,1,3.45,4.24h.24V512.77h4.72v43.66h-4.72Zm-7.85,1.42a11.21,11.21,0,0,0,3-.41,7.83,7.83,0,0,0,2.51-1.22,5.76,5.76,0,0,0,1.68-2,5.52,5.52,0,0,0,.62-2.63V535.34a4.71,4.71,0,0,0-.62-2.34,5.76,5.76,0,0,0-1.68-1.87,8.48,8.48,0,0,0-2.51-1.21,10.17,10.17,0,0,0-3-.45,8.12,8.12,0,0,0-6.31,2.52,9.39,9.39,0,0,0-2.3,6.61v5.22a9.39,9.39,0,0,0,2.3,6.61A8.12,8.12,0,0,0,1097.69,553Z"/><path class="cls-4" d="M1122.65,518.85a2.91,2.91,0,0,1-2.22-.74,2.72,2.72,0,0,1-.67-1.92v-.76a2.72,2.72,0,0,1,.67-1.92,3.69,3.69,0,0,1,4.43,0,2.73,2.73,0,0,1,.68,1.92v.76a2.73,2.73,0,0,1-.68,1.92A2.89,2.89,0,0,1,1122.65,518.85Zm-2.36,7.14H1125v30.44h-4.72Z"/><path class="cls-4" d="M1136.69,530.18h-5V526h5v-6.14a7.67,7.67,0,0,1,1.65-5.13,6.21,6.21,0,0,1,5-2h4.6V517h-6.55v9h17v30.44h-4.72V530.18h-12.33v26.25h-4.72Zm19.41-11.33a2.89,2.89,0,0,1-2.21-.74,2.73,2.73,0,0,1-.68-1.92v-.76a2.73,2.73,0,0,1,.68-1.92,3.67,3.67,0,0,1,4.42,0,2.73,2.73,0,0,1,.68,1.92v.76a2.73,2.73,0,0,1-.68,1.92A2.89,2.89,0,0,1,1156.1,518.85Z"/><path class="cls-4" d="M1165.42,556.43v-4l17.29-22.24H1166V526h22.48v3.6l-17.64,22.65h18.11v4.19Z"/><path class="cls-4" d="M1198.22,518.85a2.89,2.89,0,0,1-2.21-.74,2.73,2.73,0,0,1-.68-1.92v-.76a2.73,2.73,0,0,1,.68-1.92,3.69,3.69,0,0,1,4.43,0,2.73,2.73,0,0,1,.68,1.92v.76a2.73,2.73,0,0,1-.68,1.92A2.91,2.91,0,0,1,1198.22,518.85Zm-2.36,7.14h4.72v30.44h-4.72Z"/><path class="cls-4" d="M1222.06,557.14a13.61,13.61,0,0,1-5.63-1.12,12.09,12.09,0,0,1-4.31-3.22,14.65,14.65,0,0,1-2.77-5,22.48,22.48,0,0,1,0-13.13,14.7,14.7,0,0,1,2.77-5,12.09,12.09,0,0,1,4.31-3.22,13.77,13.77,0,0,1,5.63-1.12,12.89,12.89,0,0,1,5.49,1.12,12,12,0,0,1,4.13,3.09,13.74,13.74,0,0,1,2.62,4.67,18.41,18.41,0,0,1,.92,5.94v2.23h-21.89v1.42a10.48,10.48,0,0,0,.62,3.63,8.57,8.57,0,0,0,1.77,2.92,8.15,8.15,0,0,0,2.83,1.94,9.59,9.59,0,0,0,3.81.71,9.31,9.31,0,0,0,5-1.35,8.88,8.88,0,0,0,3.33-3.9l3.37,2.44a11.77,11.77,0,0,1-4.61,5.07A13.82,13.82,0,0,1,1222.06,557.14Zm0-27.91a9,9,0,0,0-3.54.68,7.89,7.89,0,0,0-2.74,1.9,8.92,8.92,0,0,0-1.8,2.91,9.85,9.85,0,0,0-.65,3.66v.41h16.81v-.64a9.23,9.23,0,0,0-2.21-6.48A7.55,7.55,0,0,0,1222.06,529.23Z"/><path class="cls-4" d="M1243,556.43V526h4.73v5.6h.29a9.17,9.17,0,0,1,3-3.89,9.07,9.07,0,0,1,5.84-1.71h1.83v4.72h-2.77a10.67,10.67,0,0,0-6,1.44,4.27,4.27,0,0,0-2.15,3.63v20.65Z"/><path class="cls-4" d="M1271.62,556.43a4.86,4.86,0,0,1-3.75-1.38,5.17,5.17,0,0,1-1.27-3.62V530.18h-5V526h2.83a2.82,2.82,0,0,0,2.1-.62,3.23,3.23,0,0,0,.56-2.15v-5.67h4.25V526H1278v4.19h-6.66v22.06h6.19v4.19Z"/><path class="cls-4" d="M1004.65,586.05h15.52a20.38,20.38,0,0,1,7.43,1.3,14.91,14.91,0,0,1,5.72,3.86,17.53,17.53,0,0,1,3.66,6.43,31.8,31.8,0,0,1,0,18,17.45,17.45,0,0,1-3.66,6.43,14.91,14.91,0,0,1-5.72,3.86,20.38,20.38,0,0,1-7.43,1.3h-15.52Zm15.52,33.22a8.69,8.69,0,0,0,6.31-2.24q2.3-2.25,2.3-7.2v-6.37q0-5-2.3-7.2a8.65,8.65,0,0,0-6.31-2.24h-6.55v25.25Z"/><path class="cls-4" d="M1058.22,627.94a16.25,16.25,0,0,1-6.31-1.15,13.05,13.05,0,0,1-4.69-3.24,13.55,13.55,0,0,1-2.89-5.11,23.6,23.6,0,0,1,0-13.36,14,14,0,0,1,2.8-5.11,12.51,12.51,0,0,1,4.57-3.27,15.69,15.69,0,0,1,6.2-1.15,15.16,15.16,0,0,1,6.57,1.3,12.32,12.32,0,0,1,4.49,3.48,14,14,0,0,1,2.53,5,21.93,21.93,0,0,1,.8,6V614h-19.88v.47a6.83,6.83,0,0,0,1.65,4.82q1.65,1.79,5.19,1.79a8.19,8.19,0,0,0,4.43-1.08,17.38,17.38,0,0,0,3.18-2.61l4.37,5.44a13.83,13.83,0,0,1-5.4,3.79A19.85,19.85,0,0,1,1058.22,627.94Zm-.18-26a5.22,5.22,0,0,0-4.16,1.74,6.86,6.86,0,0,0-1.5,4.63v.47h10.85v-.53a7.63,7.63,0,0,0-1.26-4.57A4.55,4.55,0,0,0,1058,602Z"/><path class="cls-4" d="M1089,627.94a17.68,17.68,0,0,1-7.55-1.44,17.51,17.51,0,0,1-5.49-4.11l5.13-5.19a13.12,13.12,0,0,0,3.66,2.89,9.54,9.54,0,0,0,4.54,1.07,6,6,0,0,0,3.6-.8,2.61,2.61,0,0,0,1-2.15c0-1.46-1-2.32-3.13-2.6l-3.36-.41q-10.45-1.31-10.45-9.56a9.68,9.68,0,0,1,.86-4.1,9.11,9.11,0,0,1,2.42-3.19,11.31,11.31,0,0,1,3.77-2.06,15.81,15.81,0,0,1,5-.74,25.85,25.85,0,0,1,4.28.32,15.13,15.13,0,0,1,3.3,1,12.69,12.69,0,0,1,2.66,1.53,27.47,27.47,0,0,1,2.38,2l-5,5.13a11.44,11.44,0,0,0-3.33-2.33,9,9,0,0,0-3.81-.86,5.43,5.43,0,0,0-3.18.71,2.26,2.26,0,0,0-1,1.89,2.6,2.6,0,0,0,.68,1.92,4.7,4.7,0,0,0,2.57,1l3.48.47q10.2,1.37,10.2,9.33a9.11,9.11,0,0,1-.94,4.13,9.76,9.76,0,0,1-2.68,3.27,13,13,0,0,1-4.19,2.15A18.33,18.33,0,0,1,1089,627.94Z"/><path class="cls-4" d="M1112.56,593a5.3,5.3,0,0,1-3.87-1.21,4.18,4.18,0,0,1-1.2-3.09v-1.3a4.22,4.22,0,0,1,1.2-3.1,6.78,6.78,0,0,1,7.73,0,4.19,4.19,0,0,1,1.21,3.1v1.3a4.15,4.15,0,0,1-1.21,3.09A5.25,5.25,0,0,1,1112.56,593Zm-4.37,3.31h8.73v31h-8.73Z"/><path class="cls-4" d="M1153.74,629.47a10.49,10.49,0,0,1-.85,4.37,7.81,7.81,0,0,1-2.81,3.22,14.44,14.44,0,0,1-5.16,2,39.34,39.34,0,0,1-7.93.68,39.92,39.92,0,0,1-6.82-.5,16,16,0,0,1-4.54-1.42,6.19,6.19,0,0,1-2.54-2.24,5.8,5.8,0,0,1-.8-3,5.35,5.35,0,0,1,1.54-4.07,7.35,7.35,0,0,1,4.25-1.83V626a5.12,5.12,0,0,1-3.37-1.92,5.75,5.75,0,0,1-1.12-3.51,4.48,4.48,0,0,1,.5-2.16,5.71,5.71,0,0,1,1.3-1.59,6.12,6.12,0,0,1,1.86-1.09,14.74,14.74,0,0,1,2.12-.66v-.23a9.16,9.16,0,0,1-4.18-3.57,10,10,0,0,1-1.36-5.28,9.57,9.57,0,0,1,3.27-7.57q3.29-2.86,10-2.86a20.43,20.43,0,0,1,5.25.59V595a4.63,4.63,0,0,1,1.21-3.57,5,5,0,0,1,3.45-1.09h4.9v6.49h-6.84v.35a8.91,8.91,0,0,1,4,3.57,10.54,10.54,0,0,1,1.3,5.28,9.33,9.33,0,0,1-3.28,7.47q-3.27,2.79-10,2.8a21.73,21.73,0,0,1-5.48-.65,2.8,2.8,0,0,0-1.36,2.48,2,2,0,0,0,.85,1.74,5.07,5.07,0,0,0,2.87.62h9c3.78,0,6.52.78,8.23,2.36A8.56,8.56,0,0,1,1153.74,629.47Zm-8.2,1.18a2.32,2.32,0,0,0-1.06-2.06,7.11,7.11,0,0,0-3.72-.71h-10.62a3.52,3.52,0,0,0-.85,1.33,4.16,4.16,0,0,0-.27,1.44,2.64,2.64,0,0,0,1.48,2.51,11.31,11.31,0,0,0,5,.8h3.54a11.4,11.4,0,0,0,5-.8A2.65,2.65,0,0,0,1145.54,630.65Zm-8.44-20.17a5.82,5.82,0,0,0,3.87-1.09,3.91,3.91,0,0,0,1.27-3.13v-.71a3.9,3.9,0,0,0-1.27-3.13,7.4,7.4,0,0,0-7.73,0,3.87,3.87,0,0,0-1.27,3.13v.71a3.88,3.88,0,0,0,1.27,3.13A5.77,5.77,0,0,0,1137.1,610.48Z"/><path class="cls-4" d="M1157.63,627.23v-31h8.74v5.25h.35a9.48,9.48,0,0,1,2.89-4.19,8.53,8.53,0,0,1,5.72-1.77q4.79,0,7.23,3.19t2.45,9.08v19.41h-8.73v-18.7a8.25,8.25,0,0,0-1-4.45,3.69,3.69,0,0,0-3.36-1.45,8.31,8.31,0,0,0-2.06.26,5.36,5.36,0,0,0-1.8.86,4.41,4.41,0,0,0-1.27,1.45,4,4,0,0,0-.47,2v20.06Z"/><path class="cls-4" d="M1226.43,622.33h-.24a14.26,14.26,0,0,1-1.15,2.08,7.77,7.77,0,0,1-1.68,1.81,7.89,7.89,0,0,1-2.42,1.25,10.55,10.55,0,0,1-3.3.47,9.64,9.64,0,0,1-7.5-3q-2.78-3-2.77-8.58V596.79h4.72v18.74q0,8.22,7,8.22a10.91,10.91,0,0,0,2.75-.35,7.59,7.59,0,0,0,2.36-1.07,5.37,5.37,0,0,0,1.65-1.8,5.3,5.3,0,0,0,.62-2.63V596.79h4.72v30.44h-4.72Z"/><path class="cls-4" d="M1241.18,627.23V596.79h4.72v4.9h.23a9.94,9.94,0,0,1,3.16-4.09,9,9,0,0,1,5.46-1.52,9.54,9.54,0,0,1,7.46,3q2.74,3,2.75,8.58v19.53h-4.72V608.49q0-8.22-6.91-8.22a10.83,10.83,0,0,0-2.74.35,8.11,8.11,0,0,0-2.39,1.07,5.17,5.17,0,0,0-1.68,1.8,5.07,5.07,0,0,0-.62,2.57v21.17Z"/><path class="cls-4" d="M1294.16,622.33h-.24a9.29,9.29,0,0,1-8.91,5.61,11.56,11.56,0,0,1-5.13-1.12,11.16,11.16,0,0,1-3.92-3.19,14.51,14.51,0,0,1-2.48-5,25.83,25.83,0,0,1,0-13.22,14.69,14.69,0,0,1,2.48-5,11.16,11.16,0,0,1,3.92-3.19,11.7,11.7,0,0,1,5.13-1.12,10.39,10.39,0,0,1,5.46,1.37,8.52,8.52,0,0,1,3.45,4.24h.24V583.57h4.72v43.66h-4.72Zm-7.85,1.42a11.16,11.16,0,0,0,3-.41,7.83,7.83,0,0,0,2.51-1.22,5.76,5.76,0,0,0,1.68-2,5.52,5.52,0,0,0,.62-2.63V606.14a4.71,4.71,0,0,0-.62-2.34,5.76,5.76,0,0,0-1.68-1.87,8.48,8.48,0,0,0-2.51-1.21,10.12,10.12,0,0,0-3-.45,8.12,8.12,0,0,0-6.31,2.52,9.43,9.43,0,0,0-2.3,6.61v5.22a9.43,9.43,0,0,0,2.3,6.61A8.12,8.12,0,0,0,1286.31,623.75Z"/><path class="cls-4" d="M1004.65,656.85h15.52a20.38,20.38,0,0,1,7.43,1.3,15,15,0,0,1,5.72,3.86,17.53,17.53,0,0,1,3.66,6.43,31.8,31.8,0,0,1,0,18,17.45,17.45,0,0,1-3.66,6.43,15,15,0,0,1-5.72,3.87,20.59,20.59,0,0,1-7.43,1.29h-15.52Zm15.52,33.22a8.69,8.69,0,0,0,6.31-2.24q2.3-2.25,2.3-7.2v-6.37q0-5-2.3-7.2a8.65,8.65,0,0,0-6.31-2.24h-6.55v25.25Z"/><path class="cls-4" d="M1068.19,698a5.5,5.5,0,0,1-3.92-1.47,6.76,6.76,0,0,1-2-3.95h-.35a7.21,7.21,0,0,1-3.13,4.57,10.77,10.77,0,0,1-6,1.56q-4.66,0-7.14-2.47a8.81,8.81,0,0,1-2.48-6.53,8.13,8.13,0,0,1,3.57-7.26q3.57-2.38,9.71-2.38h4.9v-2a5.23,5.23,0,0,0-1.18-3.57,5.11,5.11,0,0,0-4-1.33,6.92,6.92,0,0,0-4.13,1.12,11.08,11.08,0,0,0-2.53,2.54l-5.2-4.63a13.66,13.66,0,0,1,4.75-4.36,16.3,16.3,0,0,1,7.76-1.57q6.61,0,9.91,2.89t3.31,8.44v13.57H1073V698Zm-12.09-5.37a7.18,7.18,0,0,0,3.74-.93,3.29,3.29,0,0,0,1.57-3.05v-3.63h-4.25c-3.42,0-5.14,1.16-5.14,3.46v.88a2.87,2.87,0,0,0,1.07,2.48A4.93,4.93,0,0,0,1056.1,692.66Z"/><path class="cls-4" d="M1078.87,698v-31h8.73v6.72h.3a9.4,9.4,0,0,1,.82-2.5,7.58,7.58,0,0,1,1.57-2.16,7.08,7.08,0,0,1,2.33-1.5,8.33,8.33,0,0,1,3.18-.56h1.54v8.14h-2.19a12.57,12.57,0,0,0-5.69,1,3.84,3.84,0,0,0-1.86,3.72V698Z"/><path class="cls-4" d="M1113.21,698.74a17.68,17.68,0,0,1-7.55-1.44,17.47,17.47,0,0,1-5.49-4.1l5.13-5.2a13.12,13.12,0,0,0,3.66,2.89,9.54,9.54,0,0,0,4.54,1.07,6,6,0,0,0,3.6-.8,2.6,2.6,0,0,0,1-2.15c0-1.46-1-2.32-3.12-2.6l-3.37-.41q-10.44-1.31-10.44-9.56a9.71,9.71,0,0,1,.86-4.1,9.11,9.11,0,0,1,2.42-3.19,11.31,11.31,0,0,1,3.77-2.06,15.81,15.81,0,0,1,5-.74,24.54,24.54,0,0,1,4.27.33,14.85,14.85,0,0,1,3.31.94,12.37,12.37,0,0,1,2.65,1.53,26.15,26.15,0,0,1,2.39,2l-5,5.13a11.62,11.62,0,0,0-3.34-2.33,9,9,0,0,0-3.8-.85,5.47,5.47,0,0,0-3.19.7,2.26,2.26,0,0,0-.94,1.89,2.56,2.56,0,0,0,.68,1.92,4.66,4.66,0,0,0,2.56,1l3.48.47q10.21,1.36,10.21,9.33a9.11,9.11,0,0,1-.94,4.13,9.67,9.67,0,0,1-2.69,3.27,12.56,12.56,0,0,1-4.19,2.15A17.9,17.9,0,0,1,1113.21,698.74Z"/><path class="cls-4" d="M1142.83,698c-3,0-5.33-.76-6.88-2.3s-2.33-3.77-2.33-6.72V673.84h-4.36v-6.78h2.18a2.89,2.89,0,0,0,2.42-.86,4,4,0,0,0,.65-2.45v-5.07h7.84v8.38h6.14v6.78h-6.14v17.41H1148V698Z"/><path class="cls-4" d="M1167.25,698.74a16.28,16.28,0,0,1-6.31-1.15,13.14,13.14,0,0,1-4.69-3.24,13.55,13.55,0,0,1-2.89-5.11,23.6,23.6,0,0,1,0-13.36,14,14,0,0,1,2.8-5.1,12.42,12.42,0,0,1,4.57-3.28,15.72,15.72,0,0,1,6.2-1.15,15.23,15.23,0,0,1,6.58,1.3,12.48,12.48,0,0,1,4.48,3.48,14.26,14.26,0,0,1,2.54,5,22.32,22.32,0,0,1,.79,6v2.6h-19.88v.47a6.81,6.81,0,0,0,1.65,4.82q1.65,1.79,5.19,1.79a8.19,8.19,0,0,0,4.43-1.08,17.78,17.78,0,0,0,3.19-2.61l4.36,5.45a13.91,13.91,0,0,1-5.4,3.78A19.85,19.85,0,0,1,1167.25,698.74Zm-.18-26a5.22,5.22,0,0,0-4.16,1.74,6.86,6.86,0,0,0-1.5,4.63v.48h10.86v-.54a7.63,7.63,0,0,0-1.27-4.57A4.55,4.55,0,0,0,1167.07,672.78Z"/><path class="cls-4" d="M1196.16,698c-3,0-5.18-.72-6.58-2.18a8.78,8.78,0,0,1-2.09-6.31V654.37h8.73v36.88h3.89V698Z"/><path class="cls-4" d="M1213.57,698c-3,0-5.19-.72-6.58-2.18s-2.1-3.56-2.1-6.31V654.37h8.73v36.88h3.9V698Z"/><path class="cls-4" d="M1241.06,692.84h-.29a10.83,10.83,0,0,1-1.1,2.24,7.4,7.4,0,0,1-1.74,1.89,8,8,0,0,1-2.5,1.3,11,11,0,0,1-3.34.47q-4.77,0-7.23-3.15t-2.44-9.06V667.06h8.73v18.7a8,8,0,0,0,1,4.37,3.78,3.78,0,0,0,3.42,1.53,7.34,7.34,0,0,0,2-.29,5.61,5.61,0,0,0,1.77-.86,4.36,4.36,0,0,0,1.24-1.39,3.87,3.87,0,0,0,.47-1.94V667.06h8.73v31h-8.73Z"/><path class="cls-4" d="M1257.93,698v-31h8.74v5.25h.35a9.48,9.48,0,0,1,2.89-4.19,8.53,8.53,0,0,1,5.72-1.77q4.78,0,7.23,3.19t2.45,9.08V698h-8.73v-18.7a8.25,8.25,0,0,0-.95-4.45,3.7,3.7,0,0,0-3.36-1.45,7.87,7.87,0,0,0-2.06.27,5.15,5.15,0,0,0-1.8.85,4.51,4.51,0,0,0-1.27,1.45,4,4,0,0,0-.47,2V698Z"/><path class="cls-4" d="M1321.77,700.28a10.47,10.47,0,0,1-.85,4.36,7.81,7.81,0,0,1-2.81,3.22,14.44,14.44,0,0,1-5.16,2,39.34,39.34,0,0,1-7.93.68,39.92,39.92,0,0,1-6.82-.5,15.69,15.69,0,0,1-4.54-1.42,6.19,6.19,0,0,1-2.54-2.24,5.79,5.79,0,0,1-.79-3,5.4,5.4,0,0,1,1.53-4.07,7.35,7.35,0,0,1,4.25-1.83v-.65a5.12,5.12,0,0,1-3.37-1.92,5.75,5.75,0,0,1-1.12-3.51,4.48,4.48,0,0,1,.5-2.16,5.71,5.71,0,0,1,1.3-1.59,6.33,6.33,0,0,1,1.86-1.09,14.48,14.48,0,0,1,2.13-.66v-.23a9.08,9.08,0,0,1-4.19-3.57,10,10,0,0,1-1.36-5.27,9.57,9.57,0,0,1,3.27-7.58q3.28-2.87,10-2.86a20.56,20.56,0,0,1,5.26.59v-1.18a4.63,4.63,0,0,1,1.2-3.57,5,5,0,0,1,3.46-1.09h4.89v6.49h-6.84v.35a8.85,8.85,0,0,1,4,3.57,10.44,10.44,0,0,1,1.3,5.28,9.33,9.33,0,0,1-3.28,7.47q-3.27,2.81-10,2.8a21.73,21.73,0,0,1-5.48-.65,2.8,2.8,0,0,0-1.36,2.48,2,2,0,0,0,.86,1.74,5,5,0,0,0,2.86.62h9c3.77,0,6.52.79,8.23,2.36A8.59,8.59,0,0,1,1321.77,700.28Zm-8.2,1.18a2.32,2.32,0,0,0-1.06-2.07,7.11,7.11,0,0,0-3.72-.71h-10.62a3.59,3.59,0,0,0-.85,1.33,4.17,4.17,0,0,0-.27,1.45,2.64,2.64,0,0,0,1.48,2.5,11.31,11.31,0,0,0,5,.8h3.54a11.4,11.4,0,0,0,5-.8A2.65,2.65,0,0,0,1313.57,701.46Zm-8.44-20.18a5.82,5.82,0,0,0,3.87-1.09,3.9,3.9,0,0,0,1.27-3.13v-.71a3.91,3.91,0,0,0-1.27-3.13,7.4,7.4,0,0,0-7.73,0,3.88,3.88,0,0,0-1.27,3.13v.71a3.87,3.87,0,0,0,1.27,3.13A5.79,5.79,0,0,0,1305.13,681.28Z"/><path class="cls-4" d="M1347.26,698l-10.68-30.44h4.72l5.31,15.1,3.31,10.39h.29l3.3-10.39,5.43-15.1h4.54L1352.75,698Z"/><path class="cls-4" d="M1380.59,698.74a13.66,13.66,0,0,1-5.6-1.12,12.11,12.11,0,0,1-4.34-3.22,15,15,0,0,1-2.8-5,22,22,0,0,1,0-13.13,15.1,15.1,0,0,1,2.8-5A12.11,12.11,0,0,1,1375,668a13.83,13.83,0,0,1,5.6-1.12,13.63,13.63,0,0,1,5.58,1.12,12.47,12.47,0,0,1,4.34,3.22,15,15,0,0,1,2.83,5,22,22,0,0,1,0,13.13,14.93,14.93,0,0,1-2.83,5,12.47,12.47,0,0,1-4.34,3.22A13.47,13.47,0,0,1,1380.59,698.74Zm0-4.19a8.56,8.56,0,0,0,6.26-2.36q2.42-2.36,2.42-7.2v-4.36q0-4.85-2.42-7.2a9.47,9.47,0,0,0-12.51,0q-2.41,2.36-2.42,7.2V685q0,4.85,2.42,7.2A8.55,8.55,0,0,0,1380.59,694.55Z"/><path class="cls-4" d="M1402.13,698V667.59h4.72v4.9h.23a9.94,9.94,0,0,1,3.16-4.09,9,9,0,0,1,5.46-1.52,9.53,9.53,0,0,1,7.46,3q2.74,3,2.75,8.58V698h-4.72V679.29q0-8.22-6.91-8.22a10.4,10.4,0,0,0-2.74.36,7.85,7.85,0,0,0-2.39,1.06,5,5,0,0,0-2.3,4.38V698Z"/><path class="cls-4" d="M1031.38,750.19h-20.83v18.64h-5V727.65h5v18.17h20.83V727.65h4.95v41.18h-4.95Z"/><path class="cls-4" d="M1061.17,732v36.81h-5V732h-13.09v-4.37h31.15V732Z"/><path class="cls-4" d="M1113.15,734.14h-.3l-3.48,6.9L1099.52,759,1089.67,741l-3.49-6.9h-.29v34.69h-4.84V727.65h6.61l11.8,22.19h.29l11.86-22.19H1118v41.18h-4.84Z"/><path class="cls-4" d="M1129,768.83V727.65h5v36.82h17.52v4.36Z"/><path class="cls-4" d="M1172.44,768.83V727.65h25.14V732H1177.4v13.8h19v4.37h-19v14.28h20.18v4.36Z"/><path class="cls-4" d="M1211.38,768.83a4.86,4.86,0,0,1-3.75-1.38,5,5,0,0,1-1.26-3.51V725.17h4.72v39.47h4.48v4.19Z"/><path class="cls-4" d="M1233.86,769.54a13.65,13.65,0,0,1-5.64-1.12,12.14,12.14,0,0,1-4.3-3.22,14.67,14.67,0,0,1-2.78-5,22.7,22.7,0,0,1,0-13.13,14.72,14.72,0,0,1,2.78-5,12.14,12.14,0,0,1,4.3-3.22,13.82,13.82,0,0,1,5.64-1.12,12.92,12.92,0,0,1,5.49,1.12,12.12,12.12,0,0,1,4.13,3.09,13.74,13.74,0,0,1,2.62,4.67,18.41,18.41,0,0,1,.92,5.94v2.23h-21.89v1.42a10.25,10.25,0,0,0,.62,3.63,8.57,8.57,0,0,0,1.77,2.92,8.06,8.06,0,0,0,2.83,1.94,9.57,9.57,0,0,0,3.8.71,9.32,9.32,0,0,0,5-1.35,8.94,8.94,0,0,0,3.33-3.9l3.37,2.44a11.77,11.77,0,0,1-4.61,5.07A13.82,13.82,0,0,1,1233.86,769.54Zm0-27.91a9,9,0,0,0-3.54.68,7.89,7.89,0,0,0-2.74,1.9,8.92,8.92,0,0,0-1.8,2.91,9.85,9.85,0,0,0-.65,3.66v.41h16.81v-.64a9.23,9.23,0,0,0-2.21-6.48A7.57,7.57,0,0,0,1233.86,741.63Z"/><path class="cls-4" d="M1254.8,768.83V738.39h4.72v4.9h.24a15.38,15.38,0,0,1,1.21-2.19,7.35,7.35,0,0,1,1.65-1.78,7.56,7.56,0,0,1,2.27-1.2,9.71,9.71,0,0,1,3.07-.44,11.14,11.14,0,0,1,5.55,1.43,8.67,8.67,0,0,1,3.77,4.71h.12a9.31,9.31,0,0,1,3.1-4.3,9.54,9.54,0,0,1,6.16-1.84,9.11,9.11,0,0,1,7.29,3q2.63,3,2.63,8.58v19.53h-4.72V750.09q0-4.08-1.6-6.15t-5.07-2.07a10.28,10.28,0,0,0-2.69.35,7.53,7.53,0,0,0-2.27,1.07,5.11,5.11,0,0,0-1.59,1.8,5.4,5.4,0,0,0-.59,2.58v21.16h-4.72V750.09q0-4.08-1.59-6.15a5.88,5.88,0,0,0-5-2.07,10.48,10.48,0,0,0-2.71.35,7.27,7.27,0,0,0-2.3,1.07,5.53,5.53,0,0,0-1.63,1.8,5.19,5.19,0,0,0-.62,2.58v21.16Z"/><path class="cls-4" d="M1317.76,769.54a13.62,13.62,0,0,1-5.64-1.12,12.18,12.18,0,0,1-4.31-3.22,14.65,14.65,0,0,1-2.77-5,22.7,22.7,0,0,1,0-13.13,14.7,14.7,0,0,1,2.77-5,12.18,12.18,0,0,1,4.31-3.22,13.78,13.78,0,0,1,5.64-1.12,12.84,12.84,0,0,1,5.48,1.12,11.93,11.93,0,0,1,4.13,3.09,13.76,13.76,0,0,1,2.63,4.67,18.41,18.41,0,0,1,.91,5.94v2.23H1309v1.42a10.48,10.48,0,0,0,.62,3.63,8.89,8.89,0,0,0,1.77,2.92,8.1,8.1,0,0,0,2.84,1.94,9.54,9.54,0,0,0,3.8.71,9.32,9.32,0,0,0,5-1.35,9,9,0,0,0,3.33-3.9l3.36,2.44a11.75,11.75,0,0,1-4.6,5.07A13.84,13.84,0,0,1,1317.76,769.54Zm0-27.91a9,9,0,0,0-3.54.68,7.93,7.93,0,0,0-2.75,1.9,9.27,9.27,0,0,0-1.8,2.91,10.05,10.05,0,0,0-.65,3.66v.41h16.82v-.64a9.28,9.28,0,0,0-2.21-6.48A7.58,7.58,0,0,0,1317.76,741.63Z"/><path class="cls-4" d="M1338.7,768.83V738.39h4.72v4.9h.24a9.92,9.92,0,0,1,3.15-4.09,9,9,0,0,1,5.46-1.52,9.51,9.51,0,0,1,7.46,3q2.74,3,2.75,8.58v19.53h-4.72V750.09q0-8.22-6.91-8.22a10.89,10.89,0,0,0-2.74.35,8.23,8.23,0,0,0-2.39,1.07,5,5,0,0,0-2.3,4.38v21.16Z"/><path class="cls-4" d="M1378.94,768.83a4.86,4.86,0,0,1-3.75-1.38,5.17,5.17,0,0,1-1.27-3.62V742.58h-5v-4.19h2.83a2.77,2.77,0,0,0,2.09-.62,3.17,3.17,0,0,0,.57-2.15V730h4.24v8.44h6.67v4.19h-6.67v22.06h6.2v4.19Z"/><path class="cls-4" d="M1404.13,769.54a13.61,13.61,0,0,1-5.63-1.12,12.09,12.09,0,0,1-4.31-3.22,14.65,14.65,0,0,1-2.77-5,22.48,22.48,0,0,1,0-13.13,14.7,14.7,0,0,1,2.77-5,12.09,12.09,0,0,1,4.31-3.22,13.77,13.77,0,0,1,5.63-1.12,12.89,12.89,0,0,1,5.49,1.12,12,12,0,0,1,4.13,3.09,13.74,13.74,0,0,1,2.62,4.67,18.41,18.41,0,0,1,.92,5.94v2.23H1395.4v1.42a10.48,10.48,0,0,0,.62,3.63,8.57,8.57,0,0,0,1.77,2.92,8.15,8.15,0,0,0,2.83,1.94,9.59,9.59,0,0,0,3.81.71,9.31,9.31,0,0,0,5-1.35,8.88,8.88,0,0,0,3.33-3.9l3.37,2.44a11.77,11.77,0,0,1-4.61,5.07A13.82,13.82,0,0,1,1404.13,769.54Zm0-27.91a9,9,0,0,0-3.54.68,7.89,7.89,0,0,0-2.74,1.9,8.92,8.92,0,0,0-1.8,2.91,9.85,9.85,0,0,0-.65,3.66v.41h16.81v-.64a9.23,9.23,0,0,0-2.21-6.48A7.55,7.55,0,0,0,1404.13,741.63Z"/><path class="cls-4" d="M1425.08,768.83V738.39h4.72v4.9h.23a9.94,9.94,0,0,1,3.16-4.09,8.91,8.91,0,0,1,5.46-1.52,9.54,9.54,0,0,1,7.46,3q2.75,3,2.74,8.58v19.53h-4.72V750.09q0-8.22-6.9-8.22a10.83,10.83,0,0,0-2.74.35,8,8,0,0,0-2.39,1.07,5.17,5.17,0,0,0-1.68,1.8,5.08,5.08,0,0,0-.62,2.58v21.16Z"/><path class="cls-4" d="M682,597.65l-3.73,4.51v8H672V581.5h6.23v13.61h.25l4.06-5.54L689,581.5h7l-9.63,11.76,10.49,16.85h-7.33Z"/><path class="cls-4" d="M707.91,610.61a10.9,10.9,0,0,1-4.24-.78,8.53,8.53,0,0,1-3.16-2.26,10.13,10.13,0,0,1-2-3.57,15.93,15.93,0,0,1,0-9.34,10,10,0,0,1,2-3.55,8.57,8.57,0,0,1,3.16-2.23,11.94,11.94,0,0,1,8.49,0,8.57,8.57,0,0,1,3.16,2.23,10,10,0,0,1,2,3.55,15.93,15.93,0,0,1,0,9.34,10.13,10.13,0,0,1-2,3.57,8.53,8.53,0,0,1-3.16,2.26A11,11,0,0,1,707.91,610.61Zm0-4.8a3.52,3.52,0,0,0,2.79-1.11,4.59,4.59,0,0,0,1-3.16v-4.38a4.59,4.59,0,0,0-1-3.16,4,4,0,0,0-5.57,0,4.59,4.59,0,0,0-1,3.16v4.38a4.59,4.59,0,0,0,1,3.16A3.51,3.51,0,0,0,707.91,605.81Z"/><path class="cls-4" d="M722.31,610.11V588.59h6.06v3.65h.25a6.5,6.5,0,0,1,2-2.93,5.6,5.6,0,0,1,3.81-1.21,6.38,6.38,0,0,1,3.77,1.1,6.22,6.22,0,0,1,2.26,3.24h.12a5.86,5.86,0,0,1,.88-1.7,5.79,5.79,0,0,1,1.46-1.37,7.77,7.77,0,0,1,1.92-.93,7.48,7.48,0,0,1,2.3-.34,5.6,5.6,0,0,1,4.78,2.21,10.42,10.42,0,0,1,1.66,6.31v13.49h-6.07v-13c0-2.74-1-4.1-3-4.1a4.18,4.18,0,0,0-2.46.78,2.69,2.69,0,0,0-1.11,2.37v13.94h-6.07v-13c0-2.74-1-4.1-2.95-4.1a4.67,4.67,0,0,0-1.29.18,3.23,3.23,0,0,0-2,1.6,3,3,0,0,0-.31,1.37v13.94Z"/><path class="cls-4" d="M759,588.59H765v3.61h.2a5,5,0,0,1,2.07-3A6.29,6.29,0,0,1,771,588.1a7.17,7.17,0,0,1,6.2,2.87q2.09,2.87,2.09,8.36t-2.09,8.39a7.18,7.18,0,0,1-6.2,2.89,6.61,6.61,0,0,1-2-.31,6.32,6.32,0,0,1-1.7-.86,5.94,5.94,0,0,1-1.29-1.31,5.76,5.76,0,0,1-.78-1.62H765v11.8H759Zm10,17.1a3.75,3.75,0,0,0,2.85-1.21,4.57,4.57,0,0,0,1.13-3.26v-3.73a4.54,4.54,0,0,0-1.13-3.26A3.71,3.71,0,0,0,769,593a4.62,4.62,0,0,0-2.84.84,2.7,2.7,0,0,0-1.13,2.31v6.36a2.72,2.72,0,0,0,1.13,2.32A4.62,4.62,0,0,0,769,605.69Z"/><path class="cls-4" d="M789.92,610.11a5.25,5.25,0,0,1-6-5.9V579.77H790V605.4h2.7v4.71Z"/><path class="cls-4" d="M805.29,610.61a11.45,11.45,0,0,1-4.39-.8,9.22,9.22,0,0,1-3.26-2.26,9.43,9.43,0,0,1-2-3.55,15.14,15.14,0,0,1-.67-4.67,15.47,15.47,0,0,1,.65-4.61,9.93,9.93,0,0,1,1.95-3.55,8.61,8.61,0,0,1,3.18-2.27,10.81,10.81,0,0,1,4.3-.8,10.69,10.69,0,0,1,4.58.9,8.65,8.65,0,0,1,3.11,2.42,9.71,9.71,0,0,1,1.76,3.5,15.47,15.47,0,0,1,.56,4.16v1.81H801.23v.32a4.74,4.74,0,0,0,1.15,3.36,4.69,4.69,0,0,0,3.61,1.24,5.68,5.68,0,0,0,3.07-.75,12.57,12.57,0,0,0,2.22-1.81l3,3.78a9.65,9.65,0,0,1-3.75,2.63A13.87,13.87,0,0,1,805.29,610.61Zm-.12-18a3.62,3.62,0,0,0-2.89,1.2,4.75,4.75,0,0,0-1,3.22v.33h7.54V597a5.27,5.27,0,0,0-.88-3.18A3.15,3.15,0,0,0,805.17,592.57Z"/><path class="cls-4" d="M826.9,610.11a6.55,6.55,0,0,1-4.78-1.59,6.31,6.31,0,0,1-1.62-4.68V593.3h-3v-4.71H819a2,2,0,0,0,1.68-.6,2.75,2.75,0,0,0,.46-1.7v-3.52h5.45v5.82h4.26v4.71h-4.26v12.1h3.93v4.71Z"/><path class="cls-4" d="M842.39,610.11a6.54,6.54,0,0,1-4.77-1.59,6.31,6.31,0,0,1-1.62-4.68V593.3h-3v-4.71h1.52a2,2,0,0,0,1.68-.6,2.75,2.75,0,0,0,.45-1.7v-3.52h5.46v5.82h4.26v4.71h-4.26v12.1H846v4.71Z"/><path class="cls-4" d="M859.37,610.61a11.45,11.45,0,0,1-4.39-.8,9.22,9.22,0,0,1-3.26-2.26,9.43,9.43,0,0,1-2-3.55,16.64,16.64,0,0,1,0-9.28,9.93,9.93,0,0,1,1.95-3.55,8.61,8.61,0,0,1,3.18-2.27,10.78,10.78,0,0,1,4.3-.8,10.61,10.61,0,0,1,4.57.9,8.69,8.69,0,0,1,3.12,2.42,9.71,9.71,0,0,1,1.76,3.5,15.47,15.47,0,0,1,.56,4.16v1.81H855.31v.32a4.74,4.74,0,0,0,1.15,3.36,4.69,4.69,0,0,0,3.61,1.24,5.68,5.68,0,0,0,3.07-.75,12.16,12.16,0,0,0,2.21-1.81l3,3.78a9.65,9.65,0,0,1-3.75,2.63A13.87,13.87,0,0,1,859.37,610.61Zm-.12-18a3.62,3.62,0,0,0-2.89,1.2,4.75,4.75,0,0,0-1.05,3.22v.33h7.54V597a5.27,5.27,0,0,0-.88-3.18A3.15,3.15,0,0,0,859.25,592.57Z"/><path class="cls-4" d="M880.73,610.61a12.26,12.26,0,0,1-5.25-1,12.13,12.13,0,0,1-3.81-2.85l3.57-3.61a9.09,9.09,0,0,0,2.54,2,6.66,6.66,0,0,0,3.15.74,4.19,4.19,0,0,0,2.51-.55,1.82,1.82,0,0,0,.69-1.5c0-1-.72-1.61-2.17-1.8l-2.34-.29q-7.26-.9-7.25-6.64a6.67,6.67,0,0,1,.59-2.85,6.53,6.53,0,0,1,1.68-2.22,8,8,0,0,1,2.62-1.43,11,11,0,0,1,3.47-.51,17.48,17.48,0,0,1,3,.22,10.22,10.22,0,0,1,2.3.66,9,9,0,0,1,1.84,1.06,19.55,19.55,0,0,1,1.66,1.42L886,595a7.84,7.84,0,0,0-2.32-1.62,6.2,6.2,0,0,0-2.64-.6,3.87,3.87,0,0,0-2.22.49,1.58,1.58,0,0,0-.65,1.32,1.79,1.79,0,0,0,.47,1.33,3.26,3.26,0,0,0,1.78.67l2.42.33q7.1.94,7.09,6.48a6.27,6.27,0,0,1-.65,2.87,6.79,6.79,0,0,1-1.87,2.28,8.69,8.69,0,0,1-2.91,1.49A12.48,12.48,0,0,1,880.73,610.61Z"/><path class="cls-4" d="M744.71,659.31l-6.48-28.61h6.15l2.71,13.73,1.52,8h.12l1.8-8,3.16-13.73h6.81l3.19,13.73,1.77,8h.12l1.52-8,2.74-13.73h5.91l-6.64,28.61H762l-3.6-15.49-1.4-6.28h-.12l-1.44,6.28-3.61,15.49Z"/><path class="cls-4" d="M787.72,659.81a11.45,11.45,0,0,1-4.39-.8,9.22,9.22,0,0,1-3.26-2.26,9.71,9.71,0,0,1-2-3.55,15.14,15.14,0,0,1-.67-4.67,15.47,15.47,0,0,1,.65-4.61,9.93,9.93,0,0,1,2-3.55,8.61,8.61,0,0,1,3.18-2.27,10.81,10.81,0,0,1,4.3-.8,10.69,10.69,0,0,1,4.58.9,8.57,8.57,0,0,1,3.11,2.42,9.55,9.55,0,0,1,1.76,3.5,15.47,15.47,0,0,1,.56,4.16v1.81H783.66v.32a4.74,4.74,0,0,0,1.15,3.36,4.69,4.69,0,0,0,3.61,1.24,5.68,5.68,0,0,0,3.07-.75,12.57,12.57,0,0,0,2.22-1.81l3,3.78a9.65,9.65,0,0,1-3.75,2.63A13.87,13.87,0,0,1,787.72,659.81Zm-.12-18a3.62,3.62,0,0,0-2.89,1.2,4.75,4.75,0,0,0-1.05,3.22v.33h7.55v-.37a5.28,5.28,0,0,0-.89-3.18A3.14,3.14,0,0,0,787.6,641.77Z"/><path class="cls-4" d="M801.78,629h6.07V641.4h.21a5,5,0,0,1,2.07-3,6.27,6.27,0,0,1,3.71-1.14,7.16,7.16,0,0,1,6.19,2.87q2.09,2.87,2.09,8.36T820,656.92a7.18,7.18,0,0,1-6.19,2.89,6.61,6.61,0,0,1-2-.31,6,6,0,0,1-1.7-.86,5.77,5.77,0,0,1-1.3-1.31,5.47,5.47,0,0,1-.77-1.62h-.21v3.6h-6.07Zm10.05,25.92a3.75,3.75,0,0,0,2.85-1.21,4.61,4.61,0,0,0,1.12-3.26v-3.73a4.58,4.58,0,0,0-1.12-3.26,3.71,3.71,0,0,0-2.85-1.21,4.63,4.63,0,0,0-2.85.84,2.73,2.73,0,0,0-1.13,2.31v6.36a2.75,2.75,0,0,0,1.13,2.32A4.63,4.63,0,0,0,811.83,654.89Z"/><path class="cls-4" d="M692.19,708.51v-5h3.69V684.86h-3.69v-5H705.8v5h-3.69v18.69h3.69v5Z"/><path class="cls-4" d="M710.68,708.51V687h6.07v3.65H717a6.62,6.62,0,0,1,2-2.91,6.91,6.91,0,0,1,9,1,10.15,10.15,0,0,1,1.71,6.31v13.49h-6.07v-13a5.74,5.74,0,0,0-.66-3.1,2.59,2.59,0,0,0-2.34-1,5.66,5.66,0,0,0-1.43.18,3.6,3.6,0,0,0-1.25.59,3.15,3.15,0,0,0-.88,1,2.78,2.78,0,0,0-.33,1.37v13.94Z"/><path class="cls-4" d="M742.66,708.51a6.53,6.53,0,0,1-4.78-1.6,6.27,6.27,0,0,1-1.62-4.67V691.7h-3V687h1.52a2,2,0,0,0,1.68-.6,2.75,2.75,0,0,0,.45-1.7v-3.52h5.45V687h4.27v4.71h-4.27v12.1h3.94v4.71Z"/><path class="cls-4" d="M759.63,709a11.4,11.4,0,0,1-4.38-.8A9.13,9.13,0,0,1,752,706a9.43,9.43,0,0,1-2-3.55,16.4,16.4,0,0,1,0-9.28,9.93,9.93,0,0,1,1.95-3.55,8.66,8.66,0,0,1,3.17-2.27,10.86,10.86,0,0,1,4.31-.8,10.61,10.61,0,0,1,4.57.9,8.69,8.69,0,0,1,3.12,2.42,9.87,9.87,0,0,1,1.76,3.5,15.47,15.47,0,0,1,.55,4.16v1.81H755.58v.32a4.78,4.78,0,0,0,1.14,3.36,4.7,4.7,0,0,0,3.61,1.24,5.71,5.71,0,0,0,3.08-.75,12.59,12.59,0,0,0,2.21-1.81l3,3.78a9.62,9.62,0,0,1-3.76,2.63A13.83,13.83,0,0,1,759.63,709Zm-.12-18a3.64,3.64,0,0,0-2.89,1.2,4.74,4.74,0,0,0-1,3.22v.33h7.54v-.37a5.27,5.27,0,0,0-.88-3.18A3.17,3.17,0,0,0,759.51,691Z"/><path class="cls-4" d="M773.7,708.51V687h6.07v4.67h.2a6.82,6.82,0,0,1,.57-1.74,5.55,5.55,0,0,1,1.09-1.5,5.18,5.18,0,0,1,1.62-1,5.78,5.78,0,0,1,2.21-.39h1.07v5.66H785a8.7,8.7,0,0,0-4,.69,2.68,2.68,0,0,0-1.29,2.59v12.58Z"/><path class="cls-4" d="M791.7,691.7h-3V687h3v-2.54a6.21,6.21,0,0,1,1.64-4.7,6.65,6.65,0,0,1,4.79-1.58h3.94v4.72h-4.31V687h4.31v4.71h-4.31v16.81H791.7Z"/><path class="cls-4" d="M821.34,708.51a3.85,3.85,0,0,1-2.73-1,4.72,4.72,0,0,1-1.37-2.75H817a5,5,0,0,1-2.17,3.18,7.51,7.51,0,0,1-4.14,1.09,6.75,6.75,0,0,1-5-1.72,6.13,6.13,0,0,1-1.72-4.54,5.65,5.65,0,0,1,2.48-5,12,12,0,0,1,6.74-1.65h3.4V694.7a3.57,3.57,0,0,0-.82-2.48,3.49,3.49,0,0,0-2.74-.93,4.74,4.74,0,0,0-2.87.78,7.82,7.82,0,0,0-1.77,1.77l-3.6-3.22a9.38,9.38,0,0,1,3.3-3,11.2,11.2,0,0,1,5.39-1.09c3.06,0,5.35.67,6.89,2a7.37,7.37,0,0,1,2.29,5.86v9.43h2v4.71Zm-8.41-3.73a5,5,0,0,0,2.61-.65,2.27,2.27,0,0,0,1.08-2.11v-2.53h-3q-3.57,0-3.57,2.4v.61a2,2,0,0,0,.74,1.73A3.42,3.42,0,0,0,812.93,704.78Z"/><path class="cls-4" d="M837.45,709a11,11,0,0,1-4.3-.8A8.66,8.66,0,0,1,830,706a9.72,9.72,0,0,1-1.93-3.55,15.46,15.46,0,0,1-.65-4.67,15.28,15.28,0,0,1,.65-4.65,10,10,0,0,1,1.93-3.55,8.33,8.33,0,0,1,3.16-2.26,11.33,11.33,0,0,1,4.3-.77,9.6,9.6,0,0,1,5.47,1.47,8.1,8.1,0,0,1,3.14,4.14l-4.92,2.14a4.18,4.18,0,0,0-1.19-2.1,3.48,3.48,0,0,0-2.5-.86,3.34,3.34,0,0,0-2.79,1.21,5.18,5.18,0,0,0-.94,3.26v4a5.06,5.06,0,0,0,.94,3.24,3.36,3.36,0,0,0,2.79,1.19,3.74,3.74,0,0,0,2.6-.88,5.1,5.1,0,0,0,1.42-2.32l4.71,2a8.39,8.39,0,0,1-3.3,4.51A9.82,9.82,0,0,1,837.45,709Z"/><path class="cls-4" d="M858.73,709a11.45,11.45,0,0,1-4.39-.8,9.22,9.22,0,0,1-3.26-2.26,9.55,9.55,0,0,1-2-3.55,14.84,14.84,0,0,1-.68-4.67,15.47,15.47,0,0,1,.65-4.61,9.93,9.93,0,0,1,2-3.55,8.61,8.61,0,0,1,3.18-2.27,10.81,10.81,0,0,1,4.3-.8,10.66,10.66,0,0,1,4.58.9,8.57,8.57,0,0,1,3.11,2.42,9.73,9.73,0,0,1,1.77,3.5,15.87,15.87,0,0,1,.55,4.16v1.81H854.67v.32a4.74,4.74,0,0,0,1.15,3.36,4.69,4.69,0,0,0,3.61,1.24,5.68,5.68,0,0,0,3.07-.75,13,13,0,0,0,2.22-1.81l3,3.78a9.65,9.65,0,0,1-3.75,2.63A13.83,13.83,0,0,1,858.73,709Zm-.12-18a3.62,3.62,0,0,0-2.89,1.2,4.75,4.75,0,0,0-1.05,3.22v.33h7.55v-.37a5.28,5.28,0,0,0-.89-3.18A3.14,3.14,0,0,0,858.61,691Z"/></g></g></svg>