<svg xmlns="http://www.w3.org/2000/svg" viewBox="0 0 709.76 189.59"><defs><style>.cls-1{fill:#f15a24;}.cls-2{fill:none;stroke:#f15a24;stroke-miterlimit:10;}</style></defs><g id="Ebene_2" data-name="Ebene 2"><g id="Ebene_1-2" data-name="Ebene 1"><path class="cls-1" d="M16.25,98.48v-2l8.69-5.39v2.07l-7,4.22v.18l7,4.25v2.09Z"/><path class="cls-1" d="M36.62,104.17a1.69,1.69,0,0,1-1.36-.51,2.58,2.58,0,0,1-.54-1.36h-.1a3.28,3.28,0,0,1-1.11,1.57,3.34,3.34,0,0,1-2,.57,3.59,3.59,0,0,1-2.58-.92,3.28,3.28,0,0,1-1-2.51A3,3,0,0,1,29,98.52a5.59,5.59,0,0,1,3.44-.86h2.12v-1a2.5,2.5,0,0,0-.6-1.82,2.41,2.41,0,0,0-1.76-.6,3,3,0,0,0-1.69.43,3.11,3.11,0,0,0-1.06,1.2l-1.19-1a3.33,3.33,0,0,1,.56-.84,3.92,3.92,0,0,1,.87-.73,4.44,4.44,0,0,1,1.17-.5,5.31,5.31,0,0,1,1.48-.19,4.23,4.23,0,0,1,3,1,3.77,3.77,0,0,1,1.1,2.89v6h1.4v1.69Zm-4.71-1.34a3,3,0,0,0,1.92-.57,1.73,1.73,0,0,0,.75-1.43V99.07h-2.1a3.63,3.63,0,0,0-2,.42,1.35,1.35,0,0,0-.64,1.21v.46a1.45,1.45,0,0,0,.55,1.25A2.38,2.38,0,0,0,31.91,102.83Z"/><path class="cls-1" d="M53.18,87.89h1.88v6.82h.08a4.74,4.74,0,0,1,.41-.81,3.08,3.08,0,0,1,.61-.69,2.64,2.64,0,0,1,.84-.48,3.49,3.49,0,0,1,1.13-.17,3.28,3.28,0,0,1,2.6,1.12,4.72,4.72,0,0,1,1,3.19v7.3H59.83v-7c0-2-.78-2.92-2.33-2.92a3.37,3.37,0,0,0-.9.12,2.22,2.22,0,0,0-.77.38,2.1,2.1,0,0,0-.56.66,2,2,0,0,0-.21.93v7.78H53.18Z"/><path class="cls-1" d="M65,102.48h2.93v-8H65v-1.7h4.81v2.93h.12a4.12,4.12,0,0,1,1.21-2.16,3.29,3.29,0,0,1,2.27-.77h1.37v2h-2a2.83,2.83,0,0,0-2.15.85,3.09,3.09,0,0,0-.8,2.19v4.62h3.94v1.69H65Z"/><path class="cls-1" d="M81.84,104.44a5,5,0,0,1-2.08-.42,4.28,4.28,0,0,1-1.57-1.19,5.49,5.49,0,0,1-1-1.86,8.06,8.06,0,0,1-.34-2.45,7.86,7.86,0,0,1,.35-2.46,6,6,0,0,1,1-1.89A4.13,4.13,0,0,1,79.74,93a4.5,4.5,0,0,1,2-.42,4.55,4.55,0,0,1,1.94.4,4.29,4.29,0,0,1,1.48,1.16,5.37,5.37,0,0,1,.95,1.77,7.29,7.29,0,0,1,.34,2.26V99h-7.6v.46a3.36,3.36,0,0,0,.81,2.33,2.81,2.81,0,0,0,2.24.91,3.15,3.15,0,0,0,1.78-.49,3.34,3.34,0,0,0,1.17-1.37l1.27,1.08a4.17,4.17,0,0,1-1.58,1.81A4.77,4.77,0,0,1,81.84,104.44Zm-.12-10.25a2.86,2.86,0,0,0-1.18.24,2.72,2.72,0,0,0-.91.67,2.83,2.83,0,0,0-.61,1,3.9,3.9,0,0,0-.21,1.3v.18h5.64v-.25a3.41,3.41,0,0,0-.75-2.3A2.51,2.51,0,0,0,81.72,94.19Z"/><path class="cls-1" d="M89.34,102.48h3.41v-8H89.13v-1.7h3.62v-2.2a3.11,3.11,0,0,1,.61-2,2.27,2.27,0,0,1,1.88-.76h3.5v1.7H94.63v3.23h4.11v1.7H94.63v8h3.64v1.69H89.34Z"/><path class="cls-1" d="M101.08,96.06V94.32h9.62v1.74Zm0,4.51V98.83h9.62v1.74Z"/><path class="cls-1" d="M115.84,87.89h1.51l-1.09,6.3h-2.83Zm4.91,0h1.51l-1.09,6.3h-2.83Z"/><path class="cls-1" d="M125.94,87.89h1.88v6.82h.08a4.81,4.81,0,0,1,.42-.81,3.31,3.31,0,0,1,.6-.69,2.88,2.88,0,0,1,.84-.48,3.53,3.53,0,0,1,1.13-.17,3.27,3.27,0,0,1,2.6,1.12,4.72,4.72,0,0,1,1,3.19v7.3h-1.88v-7c0-2-.77-2.92-2.32-2.92a3.37,3.37,0,0,0-.9.12,2.36,2.36,0,0,0-.78.38,2.24,2.24,0,0,0-.56.66,2,2,0,0,0-.21.93v7.78h-1.88Z"/><path class="cls-1" d="M142.84,104.17a2.27,2.27,0,0,1-1.88-.75,3.11,3.11,0,0,1-.61-2V94.52H137v-1.7h2.42a1,1,0,0,0,.78-.24,1.21,1.21,0,0,0,.24-.86v-2.9h1.77v4h4.63v1.7h-4.63v8h4.63v1.69Z"/><path class="cls-1" d="M155,104.17a2.27,2.27,0,0,1-1.88-.75,3,3,0,0,1-.61-2V94.52h-3.33v-1.7h2.42a1.06,1.06,0,0,0,.78-.24,1.27,1.27,0,0,0,.23-.86v-2.9h1.78v4H159v1.7h-4.63v8H159v1.69Z"/><path class="cls-1" d="M162.24,92.82h1.88v1.89h.1a3.67,3.67,0,0,1,1.26-1.6,3.27,3.27,0,0,1,1.94-.55,3.42,3.42,0,0,1,3,1.54,9.5,9.5,0,0,1,0,8.8,3.44,3.44,0,0,1-3,1.54,3.34,3.34,0,0,1-1.94-.55,3.7,3.7,0,0,1-1.26-1.61h-.1v6.29h-1.88Zm4.41,9.88a2.54,2.54,0,0,0,2.07-.89,3.61,3.61,0,0,0,.74-2.37V97.55a3.58,3.58,0,0,0-.74-2.36,2.52,2.52,0,0,0-2.07-.89,3,3,0,0,0-1,.14,2.43,2.43,0,0,0-.81.43,2.06,2.06,0,0,0-.76,1.65v4a2.16,2.16,0,0,0,.21,1,2,2,0,0,0,.55.69,2.83,2.83,0,0,0,.81.42A3.32,3.32,0,0,0,166.65,102.7Z"/><path class="cls-1" d="M178.74,104.44a6.39,6.39,0,0,1-2.87-.6,5.39,5.39,0,0,1-2-1.6l1.19-1.17a5,5,0,0,0,1.6,1.29,4.58,4.58,0,0,0,2.1.45,3.59,3.59,0,0,0,1.87-.44,1.51,1.51,0,0,0,.72-1.39,1.41,1.41,0,0,0-.15-.67,1.16,1.16,0,0,0-.38-.44,1.91,1.91,0,0,0-.56-.25,6.19,6.19,0,0,0-.65-.15L178,99.2a11.33,11.33,0,0,1-1.21-.25,3.63,3.63,0,0,1-1.15-.52,2.76,2.76,0,0,1-.84-.92,2.82,2.82,0,0,1-.34-1.48,3.38,3.38,0,0,1,.32-1.5,2.84,2.84,0,0,1,.88-1.09,3.85,3.85,0,0,1,1.38-.66,6.4,6.4,0,0,1,1.75-.22,5.93,5.93,0,0,1,2.48.48A5.12,5.12,0,0,1,183,94.36l-1.15,1.23a4.08,4.08,0,0,0-.46-.49,3.27,3.27,0,0,0-.67-.45,4.36,4.36,0,0,0-2.06-.46,3,3,0,0,0-1.77.43,1.42,1.42,0,0,0-.62,1.24,1.49,1.49,0,0,0,.14.68,1.38,1.38,0,0,0,.39.44,1.47,1.47,0,0,0,.55.26l.66.16,1.64.26a9.85,9.85,0,0,1,1.21.27,3.93,3.93,0,0,1,1.14.51,2.69,2.69,0,0,1,.85.92,2.91,2.91,0,0,1,.33,1.47,3.2,3.2,0,0,1-1.2,2.66A5.16,5.16,0,0,1,178.74,104.44Z"/><path class="cls-1" d="M190.78,95.92a1.62,1.62,0,0,1-1.25-.41,1.51,1.51,0,0,1-.36-1V94a1.46,1.46,0,0,1,.36-1,1.62,1.62,0,0,1,1.25-.41A1.64,1.64,0,0,1,192,93a1.46,1.46,0,0,1,.36,1v.46a1.51,1.51,0,0,1-.36,1A1.64,1.64,0,0,1,190.78,95.92Zm0,8.47a1.62,1.62,0,0,1-1.25-.41,1.51,1.51,0,0,1-.36-1v-.46a1.46,1.46,0,0,1,.36-1,1.62,1.62,0,0,1,1.25-.41,1.64,1.64,0,0,1,1.26.41,1.46,1.46,0,0,1,.36,1V103a1.51,1.51,0,0,1-.36,1A1.64,1.64,0,0,1,190.78,104.39Z"/><path class="cls-1" d="M198.61,107.21l6.93-19.76h1.68l-6.94,19.76Z"/><path class="cls-1" d="M210.73,107.21l6.94-19.76h1.67l-6.93,19.76Z"/><path class="cls-1" d="M232.52,105.45A2.8,2.8,0,0,1,231.2,108a7.77,7.77,0,0,1-4,.83,10.9,10.9,0,0,1-2.23-.19,4.26,4.26,0,0,1-1.47-.55,2.22,2.22,0,0,1-.83-.87,2.42,2.42,0,0,1-.26-1.16,2.15,2.15,0,0,1,.45-1.45,2.67,2.67,0,0,1,1.3-.75v-.25a1.73,1.73,0,0,1-.75-.6,1.87,1.87,0,0,1,.25-2.29,3.69,3.69,0,0,1,1.35-.65V100a3.43,3.43,0,0,1-1.49-1.35A4.12,4.12,0,0,1,223,96.5a4.45,4.45,0,0,1,.29-1.62,3.41,3.41,0,0,1,.84-1.24,3.94,3.94,0,0,1,1.31-.8,4.7,4.7,0,0,1,1.68-.28,4.48,4.48,0,0,1,2,.42v-.29a1.9,1.9,0,0,1,.31-1.12,1.18,1.18,0,0,1,1-.44h1.9v1.74H230v.66a3.44,3.44,0,0,1,1,1.26,4.27,4.27,0,0,1,.33,1.71,4.18,4.18,0,0,1-.3,1.62,3.65,3.65,0,0,1-.85,1.24,4.14,4.14,0,0,1-1.32.79,4.81,4.81,0,0,1-1.7.28,5.33,5.33,0,0,1-.56,0,2.53,2.53,0,0,1-.55-.09l-.44.16a2,2,0,0,0-.43.24,1.32,1.32,0,0,0-.32.35.88.88,0,0,0-.12.46.65.65,0,0,0,.47.69,3.88,3.88,0,0,0,1.19.15h2.3a4.33,4.33,0,0,1,3,.84A2.87,2.87,0,0,1,232.52,105.45Zm-1.76.11a1.22,1.22,0,0,0-.47-1,2.69,2.69,0,0,0-1.67-.39H225a1.48,1.48,0,0,0-.93,1.41,1.66,1.66,0,0,0,.52,1.21,2.44,2.44,0,0,0,1.75.51H228a4.08,4.08,0,0,0,2.07-.44A1.44,1.44,0,0,0,230.76,105.56Zm-3.68-6.62a2.22,2.22,0,0,0,1.7-.59,2.13,2.13,0,0,0,.55-1.55v-.61a2.15,2.15,0,0,0-.55-1.55,2.22,2.22,0,0,0-1.7-.59,2.15,2.15,0,0,0-1.67.59,2.22,2.22,0,0,0-.53,1.55v.61a2.21,2.21,0,0,0,.53,1.55A2.15,2.15,0,0,0,227.08,98.94Z"/><path class="cls-1" d="M239.29,104.44a4.71,4.71,0,0,1-2-.42,4.16,4.16,0,0,1-1.51-1.19,5.25,5.25,0,0,1-1-1.87,8.17,8.17,0,0,1-.34-2.46A8.29,8.29,0,0,1,234.8,96a5.42,5.42,0,0,1,1-1.87A4.14,4.14,0,0,1,237.27,93a5,5,0,0,1,4,0,4.2,4.2,0,0,1,1.53,1.18,5.42,5.42,0,0,1,1,1.87,8.63,8.63,0,0,1,.33,2.47,8.51,8.51,0,0,1-.33,2.46,5.25,5.25,0,0,1-1,1.87A4.23,4.23,0,0,1,241.3,104,4.66,4.66,0,0,1,239.29,104.44Zm0-1.7a2.68,2.68,0,0,0,2.07-.84,3.74,3.74,0,0,0,.76-2.57V97.66a3.71,3.71,0,0,0-.76-2.56,2.93,2.93,0,0,0-4.13,0,3.71,3.71,0,0,0-.77,2.56v1.67a3.74,3.74,0,0,0,.77,2.57A2.65,2.65,0,0,0,239.29,102.74Z"/><path class="cls-1" d="M251.42,104.44a4.68,4.68,0,0,1-2-.42,4.28,4.28,0,0,1-1.52-1.19,5.59,5.59,0,0,1-1-1.87,8.51,8.51,0,0,1-.33-2.46,8.63,8.63,0,0,1,.33-2.47,5.79,5.79,0,0,1,1-1.87A4.26,4.26,0,0,1,249.4,93a5,5,0,0,1,4,0A4.2,4.2,0,0,1,255,94.16a5.42,5.42,0,0,1,1,1.87,8.63,8.63,0,0,1,.33,2.47,8.51,8.51,0,0,1-.33,2.46,5.25,5.25,0,0,1-1,1.87,4.23,4.23,0,0,1-1.53,1.19A4.7,4.7,0,0,1,251.42,104.44Zm0-1.7a2.65,2.65,0,0,0,2.06-.84,3.74,3.74,0,0,0,.77-2.57V97.66a3.71,3.71,0,0,0-.77-2.56,2.92,2.92,0,0,0-4.12,0,3.71,3.71,0,0,0-.77,2.56v1.67a3.74,3.74,0,0,0,.77,2.57A2.65,2.65,0,0,0,251.42,102.74Z"/><path class="cls-1" d="M268.9,105.45a2.8,2.8,0,0,1-1.32,2.56,7.77,7.77,0,0,1-4,.83,10.9,10.9,0,0,1-2.23-.19,4.34,4.34,0,0,1-1.47-.55,2.29,2.29,0,0,1-.83-.87,2.54,2.54,0,0,1-.26-1.16,2.15,2.15,0,0,1,.45-1.45,2.7,2.7,0,0,1,1.31-.75v-.25a1.7,1.7,0,0,1-.76-.6,1.67,1.67,0,0,1-.27-1,1.59,1.59,0,0,1,.52-1.31,3.67,3.67,0,0,1,1.36-.65V100a3.4,3.4,0,0,1-1.5-1.35,4.12,4.12,0,0,1-.53-2.12,4.25,4.25,0,0,1,.3-1.62,3.18,3.18,0,0,1,.84-1.24,3.8,3.8,0,0,1,1.3-.8,4.79,4.79,0,0,1,1.69-.28,4.44,4.44,0,0,1,2,.42v-.29a1.9,1.9,0,0,1,.31-1.12,1.18,1.18,0,0,1,1-.44h1.9v1.74h-2.38v.66a3.34,3.34,0,0,1,1,1.26,4.27,4.27,0,0,1,.33,1.71,4.18,4.18,0,0,1-.3,1.62,3.51,3.51,0,0,1-.85,1.24,4,4,0,0,1-1.31.79,4.89,4.89,0,0,1-1.7.28,5.43,5.43,0,0,1-.57,0,2.34,2.34,0,0,1-.54-.09l-.45.16a1.76,1.76,0,0,0-.42.24,1.21,1.21,0,0,0-.33.35.88.88,0,0,0-.12.46.66.66,0,0,0,.47.69,3.92,3.92,0,0,0,1.19.15H265a4.33,4.33,0,0,1,3,.84A2.84,2.84,0,0,1,268.9,105.45Zm-1.75.11a1.23,1.23,0,0,0-.48-1,2.69,2.69,0,0,0-1.67-.39h-3.59a1.48,1.48,0,0,0-.93,1.41,1.65,1.65,0,0,0,.51,1.21,2.44,2.44,0,0,0,1.75.51h1.62a4,4,0,0,0,2.06-.44A1.45,1.45,0,0,0,267.15,105.56Zm-3.68-6.62a2.23,2.23,0,0,0,1.7-.59,2.17,2.17,0,0,0,.54-1.55v-.61a2.18,2.18,0,0,0-.54-1.55,2.23,2.23,0,0,0-1.7-.59,2.15,2.15,0,0,0-1.68.59,2.22,2.22,0,0,0-.53,1.55v.61a2.21,2.21,0,0,0,.53,1.55A2.15,2.15,0,0,0,263.47,98.94Z"/><path class="cls-1" d="M271.19,102.48h3.54V89.59h-3.54v-1.7h5.42v14.59h3.55v1.69h-9Z"/><path class="cls-1" d="M288,104.44a5,5,0,0,1-2.09-.42,4.17,4.17,0,0,1-1.56-1.19,5.32,5.32,0,0,1-1-1.86,8.05,8.05,0,0,1-.35-2.45,7.85,7.85,0,0,1,.36-2.46,5.57,5.57,0,0,1,1-1.89A4.17,4.17,0,0,1,285.9,93a4.57,4.57,0,0,1,2-.42,4.52,4.52,0,0,1,1.94.4,4.33,4.33,0,0,1,1.49,1.16,5.37,5.37,0,0,1,.95,1.77,7.3,7.3,0,0,1,.33,2.26V99H285v.46a3.36,3.36,0,0,0,.81,2.33,2.85,2.85,0,0,0,2.25.91,3.11,3.11,0,0,0,1.77-.49,3.44,3.44,0,0,0,1.18-1.37l1.27,1.08a4.26,4.26,0,0,1-1.59,1.81A4.74,4.74,0,0,1,288,104.44Zm-.13-10.25a2.75,2.75,0,0,0-2.09.91,3,3,0,0,0-.6,1,3.66,3.66,0,0,0-.22,1.3v.18h5.64v-.25a3.45,3.45,0,0,0-.74-2.3A2.52,2.52,0,0,0,287.88,94.19Z"/><path class="cls-1" d="M299.93,104.39a1.62,1.62,0,0,1-1.25-.41,1.47,1.47,0,0,1-.37-1v-.46a1.42,1.42,0,0,1,.37-1,2.11,2.11,0,0,1,2.5,0,1.42,1.42,0,0,1,.37,1V103a1.47,1.47,0,0,1-.37,1A1.62,1.62,0,0,1,299.93,104.39Z"/><path class="cls-1" d="M312.44,104.44a4.78,4.78,0,0,1-2.05-.42,4.11,4.11,0,0,1-1.51-1.2,5.6,5.6,0,0,1-1-1.87,9.22,9.22,0,0,1,0-4.89,5.71,5.71,0,0,1,1-1.89A4,4,0,0,1,310.39,93a4.76,4.76,0,0,1,2-.42,4,4,0,0,1,2.52.73,4.4,4.4,0,0,1,1.42,1.93l-1.47.88a2.74,2.74,0,0,0-.9-1.32,2.49,2.49,0,0,0-1.57-.48,2.55,2.55,0,0,0-2.09.9,3.62,3.62,0,0,0-.74,2.34v1.92a3.57,3.57,0,0,0,.74,2.33,2.57,2.57,0,0,0,2.13.91,2.54,2.54,0,0,0,1.66-.52,3.76,3.76,0,0,0,1.05-1.39l1.36,1a4.54,4.54,0,0,1-1.48,1.93A4.19,4.19,0,0,1,312.44,104.44Z"/><path class="cls-1" d="M324.19,104.44a4.72,4.72,0,0,1-2-.42,4.25,4.25,0,0,1-1.51-1.19,5.25,5.25,0,0,1-1-1.87,8.5,8.5,0,0,1-.34-2.46,8.62,8.62,0,0,1,.34-2.47,5.42,5.42,0,0,1,1-1.87A4.22,4.22,0,0,1,322.16,93a5.07,5.07,0,0,1,4,0,4.17,4.17,0,0,1,1.52,1.18,5.42,5.42,0,0,1,1,1.87A8.29,8.29,0,0,1,329,98.5a8.17,8.17,0,0,1-.34,2.46,5.25,5.25,0,0,1-1,1.87A4.2,4.2,0,0,1,326.2,104,4.7,4.7,0,0,1,324.19,104.44Zm0-1.7a2.67,2.67,0,0,0,2.06-.84,3.74,3.74,0,0,0,.77-2.57V97.66a3.71,3.71,0,0,0-.77-2.56,2.93,2.93,0,0,0-4.13,0,3.71,3.71,0,0,0-.76,2.56v1.67a3.74,3.74,0,0,0,.76,2.57A2.68,2.68,0,0,0,324.19,102.74Z"/><path class="cls-1" d="M331.24,104.17V92.82h1.68v1.39h.1a3.24,3.24,0,0,1,.69-1.17,1.65,1.65,0,0,1,1.29-.48,1.75,1.75,0,0,1,1.34.49,2.24,2.24,0,0,1,.58,1.31H337a3.53,3.53,0,0,1,.8-1.28,1.91,1.91,0,0,1,1.44-.52,1.71,1.71,0,0,1,1.7.94,6.42,6.42,0,0,1,.47,2.75v7.92h-1.68V96.54a4.39,4.39,0,0,0-.27-1.84,1,1,0,0,0-.94-.51,1.23,1.23,0,0,0-1,.43,1.79,1.79,0,0,0-.39,1.26v8.29h-1.68V96.54a4.39,4.39,0,0,0-.27-1.84,1,1,0,0,0-.92-.51,1.27,1.27,0,0,0-1,.43,1.79,1.79,0,0,0-.38,1.26v8.29Z"/><path class="cls-1" d="M346.26,87.89h1.51l-1.09,6.3h-2.83Zm4.91,0h1.52l-1.1,6.3h-2.83Z"/><path class="cls-1" d="M373.08,104.44A4.78,4.78,0,0,1,371,104a4.14,4.14,0,0,1-1.52-1.2,5.59,5.59,0,0,1-.95-1.87,9.22,9.22,0,0,1,0-4.89,5.69,5.69,0,0,1,.95-1.89A4,4,0,0,1,371,93a4.72,4.72,0,0,1,2-.42,4,4,0,0,1,2.52.73A4.47,4.47,0,0,1,377,95.22l-1.47.88a2.74,2.74,0,0,0-.9-1.32,2.51,2.51,0,0,0-1.57-.48,2.55,2.55,0,0,0-2.09.9,3.57,3.57,0,0,0-.74,2.34v1.92a3.52,3.52,0,0,0,.74,2.33,2.93,2.93,0,0,0,3.79.39,3.76,3.76,0,0,0,1.05-1.39l1.35,1a4.44,4.44,0,0,1-1.47,1.93A4.23,4.23,0,0,1,373.08,104.44Z"/><path class="cls-1" d="M380.34,102.48h3.53V89.59h-3.53v-1.7h5.41v14.59h3.56v1.69h-9Z"/><path class="cls-1" d="M400.85,104.17a1.69,1.69,0,0,1-1.36-.51,2.58,2.58,0,0,1-.54-1.36h-.1a3.28,3.28,0,0,1-1.11,1.57,3.36,3.36,0,0,1-2,.57,3.59,3.59,0,0,1-2.58-.92,3.28,3.28,0,0,1-1-2.51,3,3,0,0,1,1.09-2.49,5.57,5.57,0,0,1,3.44-.86h2.12v-1a2.46,2.46,0,0,0-.61-1.82,2.39,2.39,0,0,0-1.76-.6,3,3,0,0,0-1.68.43,3,3,0,0,0-1.06,1.2l-1.2-1a3.67,3.67,0,0,1,.57-.84,3.92,3.92,0,0,1,.87-.73,4.3,4.3,0,0,1,1.17-.5,5.26,5.26,0,0,1,1.48-.19,4.26,4.26,0,0,1,3,1,3.77,3.77,0,0,1,1.1,2.89v6h1.39v1.69Zm-4.71-1.34a3.08,3.08,0,0,0,1.92-.57,1.73,1.73,0,0,0,.75-1.43V99.07h-2.1a3.63,3.63,0,0,0-2,.42,1.35,1.35,0,0,0-.64,1.21v.46a1.45,1.45,0,0,0,.55,1.25A2.38,2.38,0,0,0,396.14,102.83Z"/><path class="cls-1" d="M409.16,104.44a6.39,6.39,0,0,1-2.87-.6,5.39,5.39,0,0,1-2-1.6l1.19-1.17a5,5,0,0,0,1.6,1.29,4.58,4.58,0,0,0,2.1.45,3.57,3.57,0,0,0,1.87-.44,1.51,1.51,0,0,0,.72-1.39,1.41,1.41,0,0,0-.15-.67,1.16,1.16,0,0,0-.38-.44,1.91,1.91,0,0,0-.56-.25,6.19,6.19,0,0,0-.65-.15l-1.64-.27A11.33,11.33,0,0,1,407.2,99a3.63,3.63,0,0,1-1.15-.52,2.76,2.76,0,0,1-.84-.92,2.82,2.82,0,0,1-.34-1.48,3.38,3.38,0,0,1,.32-1.5,2.77,2.77,0,0,1,.89-1.09,3.72,3.72,0,0,1,1.37-.66,6.4,6.4,0,0,1,1.75-.22,5.93,5.93,0,0,1,2.48.48,5.12,5.12,0,0,1,1.78,1.32l-1.15,1.23a4.08,4.08,0,0,0-.46-.49,3.27,3.27,0,0,0-.67-.45,4.36,4.36,0,0,0-2.06-.46,3,3,0,0,0-1.77.43,1.42,1.42,0,0,0-.62,1.24,1.49,1.49,0,0,0,.14.68,1.38,1.38,0,0,0,.39.44,1.47,1.47,0,0,0,.55.26l.66.16,1.64.26a9.85,9.85,0,0,1,1.21.27,3.93,3.93,0,0,1,1.14.51,2.6,2.6,0,0,1,.85.92,2.91,2.91,0,0,1,.33,1.47,3.2,3.2,0,0,1-1.2,2.66A5.18,5.18,0,0,1,409.16,104.44Z"/><path class="cls-1" d="M421.28,104.44a6.42,6.42,0,0,1-2.87-.6,5.56,5.56,0,0,1-2-1.6l1.2-1.17a5.08,5.08,0,0,0,1.59,1.29,4.65,4.65,0,0,0,2.11.45,3.53,3.53,0,0,0,1.86-.44,1.51,1.51,0,0,0,.72-1.39,1.54,1.54,0,0,0-.14-.67,1.16,1.16,0,0,0-.38-.44,2,2,0,0,0-.56-.25,6.38,6.38,0,0,0-.66-.15l-1.63-.27a12,12,0,0,1-1.22-.25,3.68,3.68,0,0,1-1.14-.52,2.79,2.79,0,0,1-.85-.92A2.92,2.92,0,0,1,417,96a3.38,3.38,0,0,1,.31-1.5,3,3,0,0,1,.89-1.09,3.77,3.77,0,0,1,1.38-.66,6.4,6.4,0,0,1,1.75-.22,5.93,5.93,0,0,1,2.48.48,5.21,5.21,0,0,1,1.78,1.32l-1.15,1.23a3.52,3.52,0,0,0-.47-.49,3.19,3.19,0,0,0-.66-.45,4.86,4.86,0,0,0-.89-.33,4.63,4.63,0,0,0-1.18-.13,3,3,0,0,0-1.76.43,1.39,1.39,0,0,0-.62,1.24,1.49,1.49,0,0,0,.14.68,1.24,1.24,0,0,0,.38.44,1.6,1.6,0,0,0,.56.26l.66.16,1.63.26a9.6,9.6,0,0,1,1.22.27,4.05,4.05,0,0,1,1.14.51,2.69,2.69,0,0,1,.85.92,2.91,2.91,0,0,1,.33,1.47,3.2,3.2,0,0,1-1.2,2.66A5.19,5.19,0,0,1,421.28,104.44Z"/><path class="cls-1" d="M428.52,96.06V94.32h9.62v1.74Zm0,4.51V98.83h9.62v1.74Z"/><path class="cls-1" d="M443.27,87.89h1.52l-1.09,6.3h-2.83Zm4.92,0h1.51l-1.09,6.3h-2.83Z"/><path class="cls-1" d="M453.1,102.48h3.53V89.59H453.1v-1.7h5.41v14.59h3.56v1.69h-9Z"/><path class="cls-1" d="M465.75,102.48h3.66v-8h-3.66v-1.7h5.54v9.66h3.43v1.69h-9Zm4.61-12a1.37,1.37,0,0,1-1.07-.34,1.2,1.2,0,0,1-.31-.85v-.41a1.23,1.23,0,0,1,.31-.86,1.81,1.81,0,0,1,2.14,0,1.27,1.27,0,0,1,.3.86v.41a1.24,1.24,0,0,1-.3.85A1.37,1.37,0,0,1,470.36,90.51Z"/><path class="cls-1" d="M477.63,104.17V92.82h1.88v1.89h.08a4.81,4.81,0,0,1,.42-.81,3.08,3.08,0,0,1,.61-.69,2.7,2.7,0,0,1,.83-.48,3.55,3.55,0,0,1,1.14-.17,3.26,3.26,0,0,1,2.59,1.12,4.67,4.67,0,0,1,1,3.19v7.3h-1.88v-7c0-2-.77-2.92-2.32-2.92a3.37,3.37,0,0,0-.9.12,2.36,2.36,0,0,0-.78.38,2.07,2.07,0,0,0-.55.66,1.85,1.85,0,0,0-.22.93v7.78Z"/><path class="cls-1" d="M489.86,87.89h1.88V98h.1l1.74-1.85,3.24-3.3h2.24l-4.27,4.45,4.77,6.9h-2.3l-3.86-5.72-1.66,1.65v4.07h-1.88Z"/><path class="cls-1" d="M503.91,87.89h1.51l-1.09,6.3H501.5Zm4.91,0h1.52l-1.09,6.3h-2.83Z"/><path class="cls-1" d="M513.87,101.8l7-4.23V97.4l-7-4.25V91.06l8.69,5.39v2l-8.69,5.39Z"/><path class="cls-1" d="M538.19,104.17V88.82h8.75v1.8h-6.79v4.86h6.57v1.81h-6.57v5.08h6.79v1.8Z"/><path class="cls-1" d="M550.64,102.48h3.66v-8h-3.66v-1.7h5.54v9.66h3.43v1.69h-9Zm4.61-12a1.36,1.36,0,0,1-1.07-.34,1.2,1.2,0,0,1-.31-.85v-.41a1.23,1.23,0,0,1,.31-.86,1.32,1.32,0,0,1,1.07-.35,1.34,1.34,0,0,1,1.07.35,1.27,1.27,0,0,1,.3.86v.41a1.24,1.24,0,0,1-.3.85A1.37,1.37,0,0,1,555.25,90.51Z"/><path class="cls-1" d="M562.52,104.17V92.82h1.88v1.89h.08a4.81,4.81,0,0,1,.42-.81,3.31,3.31,0,0,1,.6-.69,2.88,2.88,0,0,1,.84-.48,3.53,3.53,0,0,1,1.13-.17,3.27,3.27,0,0,1,2.6,1.12,4.67,4.67,0,0,1,1,3.19v7.3h-1.88v-7c0-2-.77-2.92-2.32-2.92a3.37,3.37,0,0,0-.9.12,2.36,2.36,0,0,0-.78.38,2.24,2.24,0,0,0-.56.66,2,2,0,0,0-.21.93v7.78Z"/><path class="cls-1" d="M587.24,104.17V88.82h2v13.55h6.57v1.8Z"/><path class="cls-1" d="M599.15,102.48h3.65v-8h-3.65v-1.7h5.53v9.66h3.44v1.69h-9Zm4.6-12a1.39,1.39,0,0,1-1.07-.34,1.24,1.24,0,0,1-.3-.85v-.41a1.27,1.27,0,0,1,.3-.86,1.83,1.83,0,0,1,2.15,0,1.27,1.27,0,0,1,.3.86v.41a1.24,1.24,0,0,1-.3.85A1.4,1.4,0,0,1,603.75,90.51Z"/><path class="cls-1" d="M611,104.17V92.82h1.88v1.89H613a4.81,4.81,0,0,1,.42-.81,3,3,0,0,1,.6-.69,2.88,2.88,0,0,1,.84-.48,3.49,3.49,0,0,1,1.13-.17,3.27,3.27,0,0,1,2.6,1.12,4.72,4.72,0,0,1,1,3.19v7.3h-1.88v-7c0-2-.77-2.92-2.32-2.92a3.37,3.37,0,0,0-.9.12,2.36,2.36,0,0,0-.78.38,2.1,2.1,0,0,0-.56.66,2,2,0,0,0-.21.93v7.78Z"/><path class="cls-1" d="M623.26,87.89h1.88V98h.1L627,96.12l3.23-3.3h2.25l-4.27,4.45,4.77,6.9h-2.3l-3.86-5.72-1.66,1.65v4.07h-1.88Z"/><path class="cls-1" d="M647.27,98.48v-2L656,91.06v2.07l-7,4.22v.18l7,4.25v2.09Z"/><path class="cls-1" d="M659.44,107.21l6.93-19.76h1.68l-6.93,19.76Z"/><path class="cls-1" d="M679.77,104.17a1.69,1.69,0,0,1-1.36-.51,2.58,2.58,0,0,1-.54-1.36h-.1a3.28,3.28,0,0,1-1.11,1.57,3.36,3.36,0,0,1-2,.57,3.59,3.59,0,0,1-2.58-.92,3.28,3.28,0,0,1-1-2.51,3,3,0,0,1,1.09-2.49,5.57,5.57,0,0,1,3.44-.86h2.12v-1a2.46,2.46,0,0,0-.61-1.82,2.39,2.39,0,0,0-1.76-.6,3,3,0,0,0-1.68.43,3,3,0,0,0-1.06,1.2l-1.2-1A3.67,3.67,0,0,1,672,94a3.92,3.92,0,0,1,.87-.73,4.17,4.17,0,0,1,1.17-.5,5.26,5.26,0,0,1,1.48-.19,4.26,4.26,0,0,1,3,1,3.77,3.77,0,0,1,1.1,2.89v6H681v1.69Zm-4.71-1.34a3.08,3.08,0,0,0,1.92-.57,1.73,1.73,0,0,0,.75-1.43V99.07h-2.1a3.63,3.63,0,0,0-2,.42,1.35,1.35,0,0,0-.64,1.21v.46a1.45,1.45,0,0,0,.55,1.25A2.38,2.38,0,0,0,675.06,102.83Z"/><path class="cls-1" d="M683.65,101.8l7-4.23V97.4l-7-4.25V91.06l8.69,5.39v2l-8.69,5.39Z"/><polyline class="cls-2" points="0.5 87.99 0.5 32.99 520.5 32.99 520.5 75.99"/><polyline class="cls-2" points="47.5 81.99 47.5 68.99 103.5 68.99 103.5 82.49"/><polyline class="cls-2" points="45.5 104.99 45.5 124.99 349.5 124.99 349.5 115.39"/><polyline class="cls-2" points="700.5 111.84 700.5 153.99 0.5 153.99 0.5 110.99"/><path class="cls-1" d="M101.24,16.59a5.78,5.78,0,0,1-2.49-.52,5,5,0,0,1-1.89-1.52,6.93,6.93,0,0,1-1.22-2.48,12.6,12.6,0,0,1-.42-3.42,12.55,12.55,0,0,1,.42-3.42,7.07,7.07,0,0,1,1.22-2.49,5.14,5.14,0,0,1,1.89-1.52,6.22,6.22,0,0,1,5,0,5.25,5.25,0,0,1,1.9,1.52,7.23,7.23,0,0,1,1.21,2.49,12.55,12.55,0,0,1,.42,3.42,12.6,12.6,0,0,1-.42,3.42,7.09,7.09,0,0,1-1.21,2.48,5.15,5.15,0,0,1-1.9,1.52A5.75,5.75,0,0,1,101.24,16.59Zm0-1.89a3.85,3.85,0,0,0,1.6-.33,3.55,3.55,0,0,0,1.24-1,4.52,4.52,0,0,0,.8-1.51,6.47,6.47,0,0,0,.28-2V7.39a6.47,6.47,0,0,0-.28-2,4.62,4.62,0,0,0-.8-1.51,3.41,3.41,0,0,0-1.24-1,4.07,4.07,0,0,0-3.21,0,3.55,3.55,0,0,0-1.23,1,4.62,4.62,0,0,0-.8,1.51,6.47,6.47,0,0,0-.28,2V9.9a6.47,6.47,0,0,0,.28,2,4.52,4.52,0,0,0,.8,1.51,3.7,3.7,0,0,0,1.23,1A3.83,3.83,0,0,0,101.24,14.7Z"/><path class="cls-1" d="M110.05,4.93h1.88V6.78H112a3.07,3.07,0,0,1,1.15-1.58A3.17,3.17,0,0,1,115,4.66a3.72,3.72,0,0,1,1.76.41,3.76,3.76,0,0,1,1.33,1.19A5.89,5.89,0,0,1,119,8.14a9.92,9.92,0,0,1,.28,2.49,9.9,9.9,0,0,1-.28,2.48,5.79,5.79,0,0,1-.83,1.88,3.76,3.76,0,0,1-1.33,1.19,3.72,3.72,0,0,1-1.76.41,3.17,3.17,0,0,1-1.87-.54A3.09,3.09,0,0,1,112,14.48h-.08v6.24h-1.88Zm4.43,9.9a2.48,2.48,0,0,0,2-.89,3.55,3.55,0,0,0,.74-2.34V9.65a3.55,3.55,0,0,0-.74-2.34,2.48,2.48,0,0,0-2-.89,3.21,3.21,0,0,0-1,.16,2.44,2.44,0,0,0-.81.44,2.12,2.12,0,0,0-.54.66,1.76,1.76,0,0,0-.21.85v4.2a1.69,1.69,0,0,0,.21.84,2.12,2.12,0,0,0,.54.66,2.44,2.44,0,0,0,.81.44A2.94,2.94,0,0,0,114.48,14.83Z"/><path class="cls-1" d="M125.88,16.59A4.32,4.32,0,0,1,122.41,15a5.68,5.68,0,0,1-1-1.87,8.51,8.51,0,0,1-.33-2.46,8.61,8.61,0,0,1,.33-2.46,5.73,5.73,0,0,1,1-1.88,4.38,4.38,0,0,1,1.5-1.2,4.52,4.52,0,0,1,2-.43,4.37,4.37,0,0,1,2,.43,4.46,4.46,0,0,1,1.45,1.17A5.41,5.41,0,0,1,130.17,8a7.92,7.92,0,0,1,.3,2.21v.86h-7.38v.46a3.54,3.54,0,0,0,.77,2.35,2.71,2.71,0,0,0,2.18.91,2.89,2.89,0,0,0,1.7-.49A3.33,3.33,0,0,0,128.87,13l1.21,1.13a4.29,4.29,0,0,1-1.63,1.8A4.81,4.81,0,0,1,125.88,16.59Zm0-10.28a2.62,2.62,0,0,0-1.12.24,2.79,2.79,0,0,0-.89.67,3.09,3.09,0,0,0-.58,1,4.06,4.06,0,0,0-.2,1.29v.15h5.38V9.46a3.47,3.47,0,0,0-.7-2.28A2.29,2.29,0,0,0,125.88,6.31Z"/><path class="cls-1" d="M133,16.32V4.93h1.88V6.78h.1a3.6,3.6,0,0,1,1.06-1.53A2.83,2.83,0,0,1,138,4.66a3.08,3.08,0,0,1,2.53,1.15A5,5,0,0,1,141.42,9v7.28h-1.88v-7c0-1.94-.73-2.91-2.2-2.91a3,3,0,0,0-.9.14,2.36,2.36,0,0,0-.78.38,1.85,1.85,0,0,0-.54.64,1.89,1.89,0,0,0-.2.92v7.82Z"/><path class="cls-1" d="M145.57,2.55a1.08,1.08,0,0,1-.86-.31,1.17,1.17,0,0,1-.27-.81V1.12a1.18,1.18,0,0,1,.27-.81,1.08,1.08,0,0,1,.86-.31,1.09,1.09,0,0,1,.86.31,1.18,1.18,0,0,1,.27.81v.31a1.17,1.17,0,0,1-.27.81A1.09,1.09,0,0,1,145.57,2.55Zm-.95,2.38h1.88V16.32h-1.88Z"/><path class="cls-1" d="M149.81,16.32V4.93h1.88V6.78h.1a3.79,3.79,0,0,1,1.06-1.53,2.87,2.87,0,0,1,1.89-.59,3.09,3.09,0,0,1,2.54,1.15A5,5,0,0,1,158.2,9v7.28h-1.88v-7c0-1.94-.73-2.91-2.2-2.91a3,3,0,0,0-.9.14,2.36,2.36,0,0,0-.78.38,2,2,0,0,0-.55.64,2,2,0,0,0-.2.92v7.82Z"/><path class="cls-1" d="M170.39,17.48a3,3,0,0,1-1.26,2.65,7.17,7.17,0,0,1-3.94.86,6.58,6.58,0,0,1-3.58-.73,2.31,2.31,0,0,1-1.09-2.05,2.17,2.17,0,0,1,.46-1.45,2.48,2.48,0,0,1,1.26-.75v-.24a1.68,1.68,0,0,1-1-1.68,1.68,1.68,0,0,1,.53-1.33A3,3,0,0,1,163,12.1V12a3.38,3.38,0,0,1-1.43-1.37,4.07,4.07,0,0,1-.51-2.07A4.27,4.27,0,0,1,161.37,7a3.63,3.63,0,0,1,.8-1.24,3.67,3.67,0,0,1,1.27-.8,4.68,4.68,0,0,1,1.69-.29,4.78,4.78,0,0,1,1,.11,5.71,5.71,0,0,1,.91.29V4.82a1.85,1.85,0,0,1,.31-1.13,1.09,1.09,0,0,1,1-.43h1.59V5h-2.06v.62a3.58,3.58,0,0,1,1.32,3,4.27,4.27,0,0,1-.29,1.58,3.34,3.34,0,0,1-.81,1.23,3.8,3.8,0,0,1-1.27.79,4.74,4.74,0,0,1-1.7.28l-.6,0a4.49,4.49,0,0,1-.57-.1,2.75,2.75,0,0,0-.83.44.93.93,0,0,0-.36.77.67.67,0,0,0,.41.68,2.88,2.88,0,0,0,1.12.18h2.39a4,4,0,0,1,2.82.83A2.93,2.93,0,0,1,170.39,17.48Zm-1.76.21a1.24,1.24,0,0,0-.46-1,2.48,2.48,0,0,0-1.6-.39h-3.52a1.65,1.65,0,0,0-.33,2.65,2.47,2.47,0,0,0,1.75.5h1.41a4,4,0,0,0,2-.43A1.45,1.45,0,0,0,168.63,17.69Zm-3.48-6.78a2.35,2.35,0,0,0,1.59-.5,2,2,0,0,0,.58-1.56V8.28a2,2,0,0,0-.58-1.55,2.76,2.76,0,0,0-3.17,0A1.94,1.94,0,0,0,163,8.28v.57a2,2,0,0,0,.58,1.56A2.34,2.34,0,0,0,165.15,10.91Z"/><path class="cls-1" d="M182.07,2.86V16.32h-2V2.86h-4.36V1h10.69V2.86Z"/><path class="cls-1" d="M194.76,16.32a1.6,1.6,0,0,1-1.3-.52,2.56,2.56,0,0,1-.53-1.37h-.11A2.87,2.87,0,0,1,191.71,16a3.3,3.3,0,0,1-1.92.55,3.41,3.41,0,0,1-2.54-.92,3.35,3.35,0,0,1-.91-2.49,3,3,0,0,1,1.1-2.52,5.36,5.36,0,0,1,3.36-.87h2v-1A2.53,2.53,0,0,0,192.22,7a2.3,2.3,0,0,0-1.76-.62,2.56,2.56,0,0,0-1.55.45,3.56,3.56,0,0,0-1,1.18l-1.13-1.12a4.23,4.23,0,0,1,1.41-1.58,4.11,4.11,0,0,1,2.39-.65,4.17,4.17,0,0,1,3,1,3.77,3.77,0,0,1,1.07,2.88v6h1.18v1.76Zm-4.54-1.38a3,3,0,0,0,1.84-.55,1.71,1.71,0,0,0,.72-1.41V11.22h-2a3.35,3.35,0,0,0-1.89.42,1.4,1.4,0,0,0-.59,1.21v.44a1.51,1.51,0,0,0,.51,1.22A2.18,2.18,0,0,0,190.22,14.94Z"/><path class="cls-1" d="M207.07,17.48a3,3,0,0,1-1.26,2.65,7.11,7.11,0,0,1-3.93.86,6.62,6.62,0,0,1-3.59-.73,2.33,2.33,0,0,1-1.08-2.05,2.12,2.12,0,0,1,.46-1.45,2.48,2.48,0,0,1,1.26-.75v-.24a1.67,1.67,0,0,1-1-1.68,1.68,1.68,0,0,1,.52-1.33,3,3,0,0,1,1.3-.66V12a3.46,3.46,0,0,1-1.44-1.37,4.07,4.07,0,0,1-.5-2.07A4.27,4.27,0,0,1,198.06,7a3.49,3.49,0,0,1,.8-1.24,3.53,3.53,0,0,1,1.26-.8,4.77,4.77,0,0,1,1.7-.29,4.85,4.85,0,0,1,1,.11,6.06,6.06,0,0,1,.91.29V4.82a1.91,1.91,0,0,1,.3-1.13,1.1,1.1,0,0,1,1-.43h1.6V5h-2.06v.62a3.6,3.6,0,0,1,1.31,3,4.27,4.27,0,0,1-.28,1.58,3.47,3.47,0,0,1-.81,1.23,3.9,3.9,0,0,1-1.27.79,4.77,4.77,0,0,1-1.7.28c-.2,0-.41,0-.61,0a4.32,4.32,0,0,1-.56-.1,2.64,2.64,0,0,0-.83.44.94.94,0,0,0-.37.77.67.67,0,0,0,.42.68,2.84,2.84,0,0,0,1.12.18h2.39a4,4,0,0,1,2.81.83A2.93,2.93,0,0,1,207.07,17.48Zm-1.75.21a1.27,1.27,0,0,0-.46-1,2.51,2.51,0,0,0-1.61-.39h-3.51a1.56,1.56,0,0,0-.85,1.45,1.61,1.61,0,0,0,.51,1.2,2.51,2.51,0,0,0,1.75.5h1.42a4,4,0,0,0,2-.43A1.45,1.45,0,0,0,205.32,17.69Zm-3.48-6.78a2.38,2.38,0,0,0,1.59-.5A2,2,0,0,0,204,8.85V8.28a2,2,0,0,0-.57-1.55,2.78,2.78,0,0,0-3.18,0,2,2,0,0,0-.57,1.55v.57a2,2,0,0,0,.57,1.56A2.38,2.38,0,0,0,201.84,10.91Z"/><polyline class="cls-2" points="639.5 87.99 639.5 60.99 700.5 60.99 700.5 82.1"/><path class="cls-1" d="M613,38.59a5,5,0,0,1-4.26-2,9.61,9.61,0,0,1-1.54-5.9,9.66,9.66,0,0,1,1.54-5.91A5.55,5.55,0,0,1,616,23.57,5.65,5.65,0,0,1,618,26.09l-1.62,1a4,4,0,0,0-1.22-1.82A3.11,3.11,0,0,0,613,24.6a3.2,3.2,0,0,0-2.72,1.3,5.85,5.85,0,0,0-1,3.58v2.34a5.82,5.82,0,0,0,1,3.57,3.51,3.51,0,0,0,4.89.57A4.3,4.3,0,0,0,616.46,34l1.57,1a6,6,0,0,1-1.95,2.58A5,5,0,0,1,613,38.59Z"/><path class="cls-1" d="M622.38,38.32a1.84,1.84,0,0,1-1.47-.57,2.22,2.22,0,0,1-.49-1.52V22h1.88V36.56h1.49v1.76Z"/><path class="cls-1" d="M630.06,38.59a4.43,4.43,0,0,1-1.95-.42A4.28,4.28,0,0,1,626.6,37a5.67,5.67,0,0,1-1-1.88,8.17,8.17,0,0,1-.34-2.46,8.29,8.29,0,0,1,.34-2.47,5.67,5.67,0,0,1,1-1.88,4.28,4.28,0,0,1,1.51-1.2,4.43,4.43,0,0,1,1.95-.42,4.49,4.49,0,0,1,2,.42,4.24,4.24,0,0,1,1.5,1.2,5.67,5.67,0,0,1,1,1.88,8.28,8.28,0,0,1,.35,2.47,8.16,8.16,0,0,1-.35,2.46,5.67,5.67,0,0,1-1,1.88,4.24,4.24,0,0,1-1.5,1.2A4.49,4.49,0,0,1,630.06,38.59Zm0-1.76a2.58,2.58,0,0,0,2-.84,3.61,3.61,0,0,0,.77-2.51V31.77a3.61,3.61,0,0,0-.77-2.51,2.8,2.8,0,0,0-4,0,3.56,3.56,0,0,0-.77,2.51v1.71a3.56,3.56,0,0,0,.77,2.51A2.58,2.58,0,0,0,630.06,36.83Z"/><path class="cls-1" d="M640.61,38.59a4.72,4.72,0,0,1-2.46-.6,5.82,5.82,0,0,1-1.73-1.6l1.28-1.19A4.44,4.44,0,0,0,639,36.45a3.2,3.2,0,0,0,1.71.44,2.32,2.32,0,0,0,1.54-.45,1.54,1.54,0,0,0,.52-1.24,1.63,1.63,0,0,0-.35-1.06,2.2,2.2,0,0,0-1.33-.57l-.89-.15a7,7,0,0,1-1.37-.35,3.54,3.54,0,0,1-1.07-.64,2.84,2.84,0,0,1-.7-1,3.34,3.34,0,0,1-.25-1.36,3.67,3.67,0,0,1,.28-1.49,3,3,0,0,1,.79-1.08,3.65,3.65,0,0,1,1.2-.65,5.33,5.33,0,0,1,1.53-.22,4.61,4.61,0,0,1,2.22.49,5,5,0,0,1,1.56,1.34l-1.19,1.23a3.59,3.59,0,0,0-1.05-.95,2.89,2.89,0,0,0-1.6-.41,2,2,0,0,0-1.45.44,1.52,1.52,0,0,0-.47,1.16,1.35,1.35,0,0,0,.45,1.13,3.15,3.15,0,0,0,1.37.5l.89.16a4.19,4.19,0,0,1,2.49,1.1,3,3,0,0,1,.76,2.13,3.41,3.41,0,0,1-1.07,2.64A4.18,4.18,0,0,1,640.61,38.59Z"/><path class="cls-1" d="M648.25,24.55a1.08,1.08,0,0,1-.86-.31,1.17,1.17,0,0,1-.27-.81v-.31a1.18,1.18,0,0,1,.27-.81,1.35,1.35,0,0,1,1.72,0,1.18,1.18,0,0,1,.27.81v.31a1.17,1.17,0,0,1-.27.81A1.08,1.08,0,0,1,648.25,24.55Zm-1,2.38h1.88V38.32H647.3Z"/><path class="cls-1" d="M652.49,38.32V26.93h1.88v1.85h.1a3.71,3.71,0,0,1,1.07-1.53,2.82,2.82,0,0,1,1.88-.59A3.09,3.09,0,0,1,660,27.81a5,5,0,0,1,.92,3.23v7.28H659v-7c0-1.94-.73-2.91-2.2-2.91a3,3,0,0,0-.9.14,2.36,2.36,0,0,0-.78.38,1.85,1.85,0,0,0-.54.64,1.89,1.89,0,0,0-.21.92v7.82Z"/><path class="cls-1" d="M673.07,39.48a3,3,0,0,1-1.26,2.65,7.16,7.16,0,0,1-3.93.86,6.6,6.6,0,0,1-3.59-.73,2.33,2.33,0,0,1-1.08-2,2.17,2.17,0,0,1,.45-1.45,2.48,2.48,0,0,1,1.26-.75v-.24a1.9,1.9,0,0,1-.5-3,3,3,0,0,1,1.29-.66V34a3.38,3.38,0,0,1-1.43-1.37,4.07,4.07,0,0,1-.51-2.07,4.27,4.27,0,0,1,.29-1.58,3.47,3.47,0,0,1,.79-1.24,3.67,3.67,0,0,1,1.27-.8,4.71,4.71,0,0,1,1.69-.29,5,5,0,0,1,1,.11,5.93,5.93,0,0,1,.9.29v-.24a1.92,1.92,0,0,1,.31-1.13,1.09,1.09,0,0,1,1-.43h1.6V27h-2.07v.62a3.58,3.58,0,0,1,1.32,3,4.27,4.27,0,0,1-.29,1.58,3.32,3.32,0,0,1-.8,1.23,3.84,3.84,0,0,1-1.28.79,4.74,4.74,0,0,1-1.7.28l-.6,0a4.82,4.82,0,0,1-.57-.1,2.75,2.75,0,0,0-.83.44.93.93,0,0,0-.36.77.67.67,0,0,0,.41.68,2.9,2.9,0,0,0,1.13.18h2.38a4,4,0,0,1,2.82.83A2.93,2.93,0,0,1,673.07,39.48Zm-1.76.21a1.26,1.26,0,0,0-.45-1,2.53,2.53,0,0,0-1.61-.39h-3.52a1.58,1.58,0,0,0-.85,1.45,1.62,1.62,0,0,0,.52,1.2,2.49,2.49,0,0,0,1.75.5h1.41a4,4,0,0,0,2-.43A1.43,1.43,0,0,0,671.31,39.69Zm-3.48-6.78a2.35,2.35,0,0,0,1.59-.5,2,2,0,0,0,.58-1.56v-.57a1.94,1.94,0,0,0-.58-1.55,2.76,2.76,0,0,0-3.17,0,1.94,1.94,0,0,0-.58,1.55v.57a2,2,0,0,0,.58,1.56A2.34,2.34,0,0,0,667.83,32.91Z"/><path class="cls-1" d="M684.75,24.86V38.32h-2V24.86h-4.36V23h10.69v1.89Z"/><path class="cls-1" d="M697.45,38.32a1.61,1.61,0,0,1-1.31-.52,2.56,2.56,0,0,1-.53-1.37h-.1A2.94,2.94,0,0,1,694.39,38a3.3,3.3,0,0,1-1.92.55,3.41,3.41,0,0,1-2.54-.92,3.35,3.35,0,0,1-.91-2.49,3,3,0,0,1,1.1-2.52,5.39,5.39,0,0,1,3.37-.87h2v-1A2.48,2.48,0,0,0,694.9,29a2.28,2.28,0,0,0-1.76-.62,2.58,2.58,0,0,0-1.55.45,3.56,3.56,0,0,0-1,1.18l-1.13-1.12a4.23,4.23,0,0,1,1.41-1.58,4.11,4.11,0,0,1,2.39-.65,4.17,4.17,0,0,1,3,1,3.77,3.77,0,0,1,1.08,2.88v6h1.17v1.76Zm-4.55-1.38a3,3,0,0,0,1.84-.55,1.72,1.72,0,0,0,.73-1.41V33.22h-2a3.29,3.29,0,0,0-1.88.42,1.38,1.38,0,0,0-.6,1.21v.44a1.51,1.51,0,0,0,.51,1.22A2.2,2.2,0,0,0,692.9,36.94Z"/><path class="cls-1" d="M709.76,39.48a3,3,0,0,1-1.27,2.65,7.11,7.11,0,0,1-3.93.86,6.62,6.62,0,0,1-3.59-.73,2.33,2.33,0,0,1-1.08-2,2.12,2.12,0,0,1,.46-1.45,2.48,2.48,0,0,1,1.26-.75v-.24a1.91,1.91,0,0,1-.51-3,3.14,3.14,0,0,1,1.3-.66V34A3.46,3.46,0,0,1,701,32.64a4.17,4.17,0,0,1-.5-2.07,4.27,4.27,0,0,1,.28-1.58,3.63,3.63,0,0,1,.8-1.24,3.53,3.53,0,0,1,1.26-.8,4.77,4.77,0,0,1,1.7-.29,4.85,4.85,0,0,1,1,.11,6.06,6.06,0,0,1,.91.29v-.24a1.91,1.91,0,0,1,.3-1.13,1.11,1.11,0,0,1,1-.43h1.6V27h-2.06v.62a3.58,3.58,0,0,1,1.31,3,4.27,4.27,0,0,1-.28,1.58,3.47,3.47,0,0,1-.81,1.23,3.8,3.8,0,0,1-1.27.79,4.77,4.77,0,0,1-1.7.28l-.61,0a4.32,4.32,0,0,1-.56-.1,2.64,2.64,0,0,0-.83.44.93.93,0,0,0-.36.77.66.66,0,0,0,.41.68,2.88,2.88,0,0,0,1.12.18h2.39a4,4,0,0,1,2.82.83A3,3,0,0,1,709.76,39.48Zm-1.76.21a1.24,1.24,0,0,0-.46-1,2.5,2.5,0,0,0-1.6-.39h-3.52a1.56,1.56,0,0,0-.85,1.45,1.61,1.61,0,0,0,.51,1.2,2.51,2.51,0,0,0,1.75.5h1.42a4,4,0,0,0,2-.43A1.45,1.45,0,0,0,708,39.69Zm-3.48-6.78a2.38,2.38,0,0,0,1.59-.5,2,2,0,0,0,.57-1.56v-.57a2,2,0,0,0-.57-1.55,2.78,2.78,0,0,0-3.18,0,2,2,0,0,0-.57,1.55v.57a2,2,0,0,0,.57,1.56A2.38,2.38,0,0,0,704.52,32.91Z"/><path class="cls-1" d="M24.32,58.14l-.91-3H19.66l-.92,3H17.39l3.33-10.47h1.69l3.32,10.47ZM21.56,49H21.5L20,53.9h3.1Z"/><path class="cls-1" d="M28.81,58.14a1.26,1.26,0,0,1-1-.39,1.58,1.58,0,0,1-.35-1.07V51.57H26.32V50.38H27a.63.63,0,0,0,.5-.17.88.88,0,0,0,.14-.56V48.23h1.16v2.15h1.52v1.19H28.75v5.37h1.41v1.2Z"/><path class="cls-1" d="M33.62,58.14a1.26,1.26,0,0,1-1-.39,1.58,1.58,0,0,1-.35-1.07V51.57H31.13V50.38h.63a.63.63,0,0,0,.5-.17.88.88,0,0,0,.14-.56V48.23h1.16v2.15h1.52v1.19H33.56v5.37H35v1.2Z"/><path class="cls-1" d="M36.79,58.14V50.38h1.29v1.48h.06a2.53,2.53,0,0,1,.25-.56,1.87,1.87,0,0,1,.42-.47,2,2,0,0,1,1.35-.45h.42v1.39H40a2.34,2.34,0,0,0-1.38.35,1.09,1.09,0,0,0-.49.92v5.1Z"/><path class="cls-1" d="M42.61,48.75a.76.76,0,0,1-.59-.21.81.81,0,0,1-.18-.55v-.21a.84.84,0,0,1,.18-.56.93.93,0,0,1,1.18,0,.84.84,0,0,1,.18.56V48a.81.81,0,0,1-.18.55A.76.76,0,0,1,42.61,48.75ZM42,50.38h1.28v7.76H42Z"/><path class="cls-1" d="M45.5,47h1.29v4.59h.05a2.13,2.13,0,0,1,.78-1.07,2.21,2.21,0,0,1,1.27-.37,2.63,2.63,0,0,1,1.21.28,2.66,2.66,0,0,1,.9.81,4,4,0,0,1,.57,1.28,6.8,6.8,0,0,1,.19,1.7A6.66,6.66,0,0,1,51.57,56,3.91,3.91,0,0,1,51,57.24a2.66,2.66,0,0,1-.9.81,2.63,2.63,0,0,1-1.21.27A2.21,2.21,0,0,1,47.62,58a2.11,2.11,0,0,1-.78-1.08h-.05v1.26H45.5Zm3,10.08a1.68,1.68,0,0,0,1.37-.6,2.38,2.38,0,0,0,.51-1.6V53.6a2.38,2.38,0,0,0-.51-1.6,1.69,1.69,0,0,0-1.37-.61,2.09,2.09,0,0,0-.67.11,1.65,1.65,0,0,0-.93.75,1.24,1.24,0,0,0-.13.58v2.86a1.2,1.2,0,0,0,.13.57,1.53,1.53,0,0,0,.38.46,1.62,1.62,0,0,0,.55.3A2.09,2.09,0,0,0,48.52,57.12Z"/><path class="cls-1" d="M57.93,56.88h-.06a3.06,3.06,0,0,1-.26.55,2.17,2.17,0,0,1-.4.46,2,2,0,0,1-.57.32,2.27,2.27,0,0,1-.77.11,2.11,2.11,0,0,1-1.74-.78,3.41,3.41,0,0,1-.63-2.2v-5h1.28v4.76c0,1.32.5,2,1.51,2a2,2,0,0,0,.6-.08,1.38,1.38,0,0,0,.53-.26,1.49,1.49,0,0,0,.37-.45,1.27,1.27,0,0,0,.14-.63V50.38h1.29v7.76H57.93Z"/><path class="cls-1" d="M63.23,58.14a1.28,1.28,0,0,1-1-.39,1.58,1.58,0,0,1-.34-1.07V51.57H60.73V50.38h.64a.62.62,0,0,0,.49-.17.88.88,0,0,0,.14-.56V48.23h1.16v2.15h1.53v1.19H63.16v5.37h1.42v1.2Z"/><path class="cls-1" d="M69.07,58.32A3,3,0,0,1,67.72,58a3,3,0,0,1-1-.82,3.55,3.55,0,0,1-.65-1.27,6.21,6.21,0,0,1,0-3.35,3.56,3.56,0,0,1,.65-1.29,3,3,0,0,1,1-.81,3,3,0,0,1,1.35-.3,2.89,2.89,0,0,1,1.33.3,2.73,2.73,0,0,1,1,.8A3.45,3.45,0,0,1,72,52.5,5.2,5.2,0,0,1,72.2,54v.58h-5v.31a2.39,2.39,0,0,0,.52,1.6,1.83,1.83,0,0,0,1.49.62,2,2,0,0,0,1.16-.33,2.3,2.3,0,0,0,.77-.93l.83.77a2.83,2.83,0,0,1-1.12,1.23A3.24,3.24,0,0,1,69.07,58.32Zm0-7a1.73,1.73,0,0,0-1.37.62,2.12,2.12,0,0,0-.4.69,2.75,2.75,0,0,0-.13.88v.1h3.66v-.14a2.44,2.44,0,0,0-.47-1.56A1.59,1.59,0,0,0,69.07,51.32Z"/><path class="cls-1" d="M80,52.41l-1.32-2.62h0v8.35h-1.3V47.67H78.8L82,53.4,83.28,56h0V47.67h1.29V58.14H83.13Z"/><path class="cls-1" d="M92.18,58.14a1.08,1.08,0,0,1-.89-.36,1.78,1.78,0,0,1-.37-.93h-.06A2,2,0,0,1,90.1,58a2.24,2.24,0,0,1-1.31.37,2.33,2.33,0,0,1-1.74-.62,2.31,2.31,0,0,1-.62-1.7,2.07,2.07,0,0,1,.75-1.72,3.72,3.72,0,0,1,2.3-.59h1.35V53a1.7,1.7,0,0,0-.39-1.2,1.53,1.53,0,0,0-1.2-.42,1.76,1.76,0,0,0-1,.31,2.59,2.59,0,0,0-.7.8l-.77-.76a2.78,2.78,0,0,1,2.59-1.52,2.91,2.91,0,0,1,2.07.7,2.57,2.57,0,0,1,.73,2v4.08h.8v1.2Zm-3.1-.94a2,2,0,0,0,1.25-.38,1.16,1.16,0,0,0,.5-1v-1.2H89.46a2.26,2.26,0,0,0-1.28.29.92.92,0,0,0-.41.82v.3a1.06,1.06,0,0,0,.35.84A1.47,1.47,0,0,0,89.08,57.2Z"/><path class="cls-1" d="M94.44,58.14V50.38h1.28v1.25h.07a2.65,2.65,0,0,1,.71-1,1.74,1.74,0,0,1,1.19-.43,2.36,2.36,0,0,1,1.3.38,2.11,2.11,0,0,1,.86,1.18h0a2.39,2.39,0,0,1,.74-1.09,2.13,2.13,0,0,1,1.44-.47,2,2,0,0,1,1.68.78,3.5,3.5,0,0,1,.61,2.21v5h-1.28V53.38a2.54,2.54,0,0,0-.36-1.49,1.23,1.23,0,0,0-1.09-.5,2,2,0,0,0-.6.09,1.42,1.42,0,0,0-.5.27,1.13,1.13,0,0,0-.35.43,1.39,1.39,0,0,0-.14.63v5.33H98.75V53.38c0-1.32-.48-2-1.43-2a2,2,0,0,0-.59.09,1.38,1.38,0,0,0-.51.27,1.26,1.26,0,0,0-.36.43,1.39,1.39,0,0,0-.14.63v5.33Z"/><path class="cls-1" d="M109.25,58.32a3,3,0,0,1-1.34-.29,2.89,2.89,0,0,1-1-.82,3.72,3.72,0,0,1-.65-1.27,6.21,6.21,0,0,1,0-3.35,3.73,3.73,0,0,1,.65-1.29,3,3,0,0,1,2.36-1.11,2.9,2.9,0,0,1,2.32,1.1,3.43,3.43,0,0,1,.6,1.21,5.2,5.2,0,0,1,.21,1.51v.58h-5v.31a2.39,2.39,0,0,0,.53,1.6,1.8,1.8,0,0,0,1.48.62,2,2,0,0,0,1.16-.33,2.3,2.3,0,0,0,.77-.93l.83.77A2.83,2.83,0,0,1,111,57.86,3.22,3.22,0,0,1,109.25,58.32Zm0-7a1.76,1.76,0,0,0-.76.16,1.73,1.73,0,0,0-.61.46,1.94,1.94,0,0,0-.39.69,2.75,2.75,0,0,0-.14.88v.1H111v-.14a2.38,2.38,0,0,0-.48-1.56A1.59,1.59,0,0,0,109.25,51.32Z"/><polyline class="cls-2" points="123 82.49 123 69.49 343.5 69.49 343.5 82.99"/><path class="cls-1" d="M180.82,58.64l-.91-3h-3.75l-.92,3h-1.35l3.33-10.47h1.69l3.32,10.47Zm-2.76-9.13H178l-1.52,4.89h3.1Z"/><path class="cls-1" d="M185.31,58.64a1.26,1.26,0,0,1-1-.39,1.58,1.58,0,0,1-.35-1.07V52.07h-1.14V50.88h.63a.63.63,0,0,0,.5-.17.88.88,0,0,0,.14-.56V48.73h1.16v2.15h1.52v1.19h-1.52v5.37h1.41v1.2Z"/><path class="cls-1" d="M190.12,58.64a1.26,1.26,0,0,1-1-.39,1.58,1.58,0,0,1-.35-1.07V52.07h-1.14V50.88h.63a.63.63,0,0,0,.5-.17.88.88,0,0,0,.14-.56V48.73h1.16v2.15h1.52v1.19h-1.52v5.37h1.41v1.2Z"/><path class="cls-1" d="M193.29,58.64V50.88h1.29v1.48h.06a2.53,2.53,0,0,1,.25-.56,1.87,1.87,0,0,1,.42-.47,2,2,0,0,1,1.35-.45h.42v1.39h-.63a2.34,2.34,0,0,0-1.38.35,1.09,1.09,0,0,0-.49.92v5.1Z"/><path class="cls-1" d="M199.11,49.25a.76.76,0,0,1-.59-.21.81.81,0,0,1-.18-.55v-.21a.84.84,0,0,1,.18-.56.93.93,0,0,1,1.18,0,.84.84,0,0,1,.18.56v.21a.81.81,0,0,1-.18.55A.76.76,0,0,1,199.11,49.25Zm-.65,1.63h1.28v7.76h-1.28Z"/><path class="cls-1" d="M202,47.54h1.29v4.59h.05a2.13,2.13,0,0,1,.78-1.07,2.21,2.21,0,0,1,1.27-.37,2.63,2.63,0,0,1,1.21.28,2.66,2.66,0,0,1,.9.81,4,4,0,0,1,.57,1.28,6.8,6.8,0,0,1,.19,1.7,6.66,6.66,0,0,1-.19,1.69,3.91,3.91,0,0,1-.57,1.29,2.66,2.66,0,0,1-.9.81,2.63,2.63,0,0,1-1.21.27,2.21,2.21,0,0,1-1.27-.36,2.11,2.11,0,0,1-.78-1.08h-.05v1.26H202Zm3,10.08a1.68,1.68,0,0,0,1.37-.6,2.38,2.38,0,0,0,.51-1.6V54.1a2.38,2.38,0,0,0-.51-1.6,1.69,1.69,0,0,0-1.37-.61,2.09,2.09,0,0,0-.67.11,1.65,1.65,0,0,0-.93.75,1.24,1.24,0,0,0-.13.58v2.86a1.2,1.2,0,0,0,.13.57,1.53,1.53,0,0,0,.38.46,1.62,1.62,0,0,0,.55.3A2.09,2.09,0,0,0,205,57.62Z"/><path class="cls-1" d="M214.43,57.38h-.06a3.06,3.06,0,0,1-.26.55,2.17,2.17,0,0,1-.4.46,2,2,0,0,1-.57.32,2.27,2.27,0,0,1-.77.11,2.11,2.11,0,0,1-1.74-.78,3.41,3.41,0,0,1-.63-2.2v-5h1.28v4.76c0,1.32.5,2,1.51,2a2,2,0,0,0,.6-.08,1.38,1.38,0,0,0,.53-.26,1.49,1.49,0,0,0,.37-.45,1.27,1.27,0,0,0,.14-.63V50.88h1.29v7.76h-1.29Z"/><path class="cls-1" d="M219.73,58.64a1.28,1.28,0,0,1-1-.39,1.58,1.58,0,0,1-.34-1.07V52.07h-1.15V50.88h.64a.62.62,0,0,0,.49-.17.88.88,0,0,0,.14-.56V48.73h1.16v2.15h1.53v1.19h-1.53v5.37h1.42v1.2Z"/><path class="cls-1" d="M225.57,58.82a3,3,0,0,1-1.35-.29,3,3,0,0,1-1-.82,3.55,3.55,0,0,1-.65-1.27,6.21,6.21,0,0,1,0-3.35,3.56,3.56,0,0,1,.65-1.29,3,3,0,0,1,1-.81,3,3,0,0,1,1.35-.3,2.89,2.89,0,0,1,1.33.3,2.73,2.73,0,0,1,1,.8,3.45,3.45,0,0,1,.61,1.21,5.2,5.2,0,0,1,.21,1.51v.58h-5v.31a2.39,2.39,0,0,0,.52,1.6,1.83,1.83,0,0,0,1.49.62,2,2,0,0,0,1.16-.33,2.3,2.3,0,0,0,.77-.93l.83.77a2.83,2.83,0,0,1-1.12,1.23A3.24,3.24,0,0,1,225.57,58.82Zm0-7a1.73,1.73,0,0,0-1.37.62,2.12,2.12,0,0,0-.4.69,2.75,2.75,0,0,0-.13.88v.1h3.66V54a2.44,2.44,0,0,0-.47-1.56A1.59,1.59,0,0,0,225.57,51.82Z"/><path class="cls-1" d="M236,58.64l-3.18-10.47h1.41l1.55,5.24,1,3.81h.07l1-3.81,1.56-5.24h1.36L237.6,58.64Z"/><path class="cls-1" d="M247,58.64a1.08,1.08,0,0,1-.89-.36,1.78,1.78,0,0,1-.37-.93h-.07a2,2,0,0,1-.75,1.1,2.24,2.24,0,0,1-1.31.37,2.15,2.15,0,0,1-2.36-2.32,2.07,2.07,0,0,1,.75-1.72,3.72,3.72,0,0,1,2.3-.59h1.35v-.71a1.7,1.7,0,0,0-.39-1.2,1.56,1.56,0,0,0-1.2-.42,1.76,1.76,0,0,0-1.05.31,2.59,2.59,0,0,0-.7.8l-.77-.76a2.79,2.79,0,0,1,1-1.07,2.75,2.75,0,0,1,1.63-.45,2.91,2.91,0,0,1,2.07.7,2.57,2.57,0,0,1,.73,2v4.08h.8v1.2Zm-3.1-.94a2,2,0,0,0,1.25-.38,1.16,1.16,0,0,0,.5-1v-1.2h-1.37a2.28,2.28,0,0,0-1.29.29.93.93,0,0,0-.4.82v.3a1.06,1.06,0,0,0,.35.84A1.47,1.47,0,0,0,243.86,57.7Z"/><path class="cls-1" d="M250.55,58.64a1.26,1.26,0,0,1-1-.39,1.53,1.53,0,0,1-.33-1V47.54h1.28v9.9h1v1.2Z"/><path class="cls-1" d="M257.42,57.38h-.07a3.06,3.06,0,0,1-.26.55,1.92,1.92,0,0,1-.4.46,2,2,0,0,1-.57.32,2.27,2.27,0,0,1-.77.11,2.13,2.13,0,0,1-1.74-.78,3.41,3.41,0,0,1-.63-2.2v-5h1.28v4.76c0,1.32.51,2,1.52,2a2.06,2.06,0,0,0,.6-.08,1.41,1.41,0,0,0,.52-.26,1.36,1.36,0,0,0,.37-.45,1.28,1.28,0,0,0,.15-.63V50.88h1.28v7.76h-1.28Z"/><path class="cls-1" d="M263.69,58.82a3,3,0,0,1-1.35-.29,2.89,2.89,0,0,1-1-.82,3.7,3.7,0,0,1-.64-1.27,6.21,6.21,0,0,1,0-3.35,3.71,3.71,0,0,1,.64-1.29,3,3,0,0,1,2.37-1.11A2.89,2.89,0,0,1,265,51a2.73,2.73,0,0,1,1,.8,3.45,3.45,0,0,1,.61,1.21,5.2,5.2,0,0,1,.21,1.51v.58h-5v.31a2.39,2.39,0,0,0,.52,1.6,1.82,1.82,0,0,0,1.49.62,2,2,0,0,0,1.16-.33,2.38,2.38,0,0,0,.77-.93l.82.77a2.81,2.81,0,0,1-1.11,1.23A3.24,3.24,0,0,1,263.69,58.82Zm0-7a1.73,1.73,0,0,0-1.37.62,2,2,0,0,0-.4.69,2.75,2.75,0,0,0-.13.88v.1h3.66V54a2.44,2.44,0,0,0-.47-1.56A1.59,1.59,0,0,0,263.69,51.82Z"/><path class="cls-1" d="M168.32,143.14l-.91-2.95h-3.75l-.92,2.95h-1.35l3.33-10.47h1.69l3.32,10.47ZM165.56,134h-.06L164,138.9h3.1Z"/><path class="cls-1" d="M172.81,143.14a1.26,1.26,0,0,1-1-.39,1.58,1.58,0,0,1-.35-1.07v-5.11h-1.14v-1.19H171a.63.63,0,0,0,.5-.17.88.88,0,0,0,.14-.56v-1.42h1.16v2.15h1.52v1.19h-1.52v5.37h1.41v1.2Z"/><path class="cls-1" d="M177.62,143.14a1.26,1.26,0,0,1-1-.39,1.58,1.58,0,0,1-.35-1.07v-5.11h-1.14v-1.19h.63a.63.63,0,0,0,.5-.17.88.88,0,0,0,.14-.56v-1.42h1.16v2.15h1.52v1.19h-1.52v5.37H179v1.2Z"/><path class="cls-1" d="M180.79,143.14v-7.76h1.29v1.48h.06a2.53,2.53,0,0,1,.25-.56,1.87,1.87,0,0,1,.42-.47,2,2,0,0,1,1.35-.45h.42v1.39H184a2.34,2.34,0,0,0-1.38.35,1.09,1.09,0,0,0-.49.92v5.1Z"/><path class="cls-1" d="M186.61,133.75a.76.76,0,0,1-.59-.21.81.81,0,0,1-.18-.55v-.21a.84.84,0,0,1,.18-.56.93.93,0,0,1,1.18,0,.84.84,0,0,1,.18.56V133a.81.81,0,0,1-.18.55A.76.76,0,0,1,186.61,133.75Zm-.65,1.63h1.28v7.76H186Z"/><path class="cls-1" d="M189.5,132h1.29v4.59h.05a2.13,2.13,0,0,1,.78-1.07,2.21,2.21,0,0,1,1.27-.37,2.63,2.63,0,0,1,1.21.28,2.66,2.66,0,0,1,.9.81,4,4,0,0,1,.57,1.28,6.8,6.8,0,0,1,.19,1.7,6.66,6.66,0,0,1-.19,1.69,3.91,3.91,0,0,1-.57,1.29,2.66,2.66,0,0,1-.9.81,2.63,2.63,0,0,1-1.21.27,2.21,2.21,0,0,1-1.27-.36,2.11,2.11,0,0,1-.78-1.08h-.05v1.26H189.5Zm3,10.08a1.68,1.68,0,0,0,1.37-.6,2.38,2.38,0,0,0,.51-1.6V138.6a2.38,2.38,0,0,0-.51-1.6,1.69,1.69,0,0,0-1.37-.61,2.09,2.09,0,0,0-.67.11,1.65,1.65,0,0,0-.93.75,1.24,1.24,0,0,0-.13.58v2.86a1.2,1.2,0,0,0,.13.57,1.53,1.53,0,0,0,.38.46,1.62,1.62,0,0,0,.55.3A2.09,2.09,0,0,0,192.52,142.12Z"/><path class="cls-1" d="M201.93,141.88h-.06a3.06,3.06,0,0,1-.26.55,2.17,2.17,0,0,1-.4.46,2,2,0,0,1-.57.32,2.27,2.27,0,0,1-.77.11,2.11,2.11,0,0,1-1.74-.78,3.41,3.41,0,0,1-.63-2.2v-5h1.28v4.76c0,1.32.5,2,1.51,2a2,2,0,0,0,.6-.08,1.38,1.38,0,0,0,.53-.26,1.49,1.49,0,0,0,.37-.45,1.27,1.27,0,0,0,.14-.63v-5.32h1.29v7.76h-1.29Z"/><path class="cls-1" d="M207.23,143.14a1.28,1.28,0,0,1-1-.39,1.58,1.58,0,0,1-.34-1.07v-5.11h-1.15v-1.19h.64a.62.62,0,0,0,.49-.17.88.88,0,0,0,.14-.56v-1.42h1.16v2.15h1.53v1.19h-1.53v5.37h1.42v1.2Z"/><path class="cls-1" d="M213.07,143.32a3,3,0,0,1-1.35-.29,3,3,0,0,1-1-.82,3.55,3.55,0,0,1-.65-1.27,6.21,6.21,0,0,1,0-3.35,3.56,3.56,0,0,1,.65-1.29,3,3,0,0,1,1-.81,3,3,0,0,1,1.35-.3,2.89,2.89,0,0,1,1.33.3,2.73,2.73,0,0,1,1,.8,3.45,3.45,0,0,1,.61,1.21,5.2,5.2,0,0,1,.21,1.51v.58h-5v.31a2.39,2.39,0,0,0,.52,1.6,1.83,1.83,0,0,0,1.49.62,2,2,0,0,0,1.16-.33,2.3,2.3,0,0,0,.77-.93l.83.77a2.83,2.83,0,0,1-1.12,1.23A3.24,3.24,0,0,1,213.07,143.32Zm0-7a1.73,1.73,0,0,0-1.37.62,2.12,2.12,0,0,0-.4.69,2.75,2.75,0,0,0-.13.88v.1h3.66v-.14a2.44,2.44,0,0,0-.47-1.56A1.59,1.59,0,0,0,213.07,136.32Z"/><path class="cls-1" d="M350.91,189.32V174h8.79v1.89h-6.83v4.75h6.32v1.89h-6.32v4.93h6.83v1.89Z"/><path class="cls-1" d="M364.59,189.32a1.84,1.84,0,0,1-1.47-.57,2.22,2.22,0,0,1-.49-1.52V173h1.88v14.52H366v1.76Z"/><path class="cls-1" d="M372.25,189.59a4.32,4.32,0,0,1-3.47-1.63,5.68,5.68,0,0,1-.95-1.87,8.51,8.51,0,0,1-.33-2.46,8.61,8.61,0,0,1,.33-2.46,5.73,5.73,0,0,1,.95-1.88,4.38,4.38,0,0,1,1.5-1.2,4.52,4.52,0,0,1,2-.43,4.37,4.37,0,0,1,1.95.43,4.46,4.46,0,0,1,1.45,1.17,5.21,5.21,0,0,1,.88,1.78,7.57,7.57,0,0,1,.31,2.21v.86h-7.38v.46a3.54,3.54,0,0,0,.77,2.35,2.71,2.71,0,0,0,2.18.91,2.89,2.89,0,0,0,1.7-.49,3.33,3.33,0,0,0,1.13-1.36l1.21,1.13a4.29,4.29,0,0,1-1.63,1.8A4.81,4.81,0,0,1,372.25,189.59Zm0-10.28a2.59,2.59,0,0,0-1.12.24,2.68,2.68,0,0,0-.89.67,3.09,3.09,0,0,0-.58,1,4.06,4.06,0,0,0-.2,1.29v.15h5.38v-.22a3.53,3.53,0,0,0-.7-2.28A2.31,2.31,0,0,0,372.25,179.31Z"/><path class="cls-1" d="M379.4,189.32V177.93h1.88v1.85h.11a3.7,3.7,0,0,1,1-1.49,2.48,2.48,0,0,1,1.74-.63,3.49,3.49,0,0,1,1.91.55,3.12,3.12,0,0,1,1.27,1.74h0a3.46,3.46,0,0,1,1.08-1.6,3.12,3.12,0,0,1,2.11-.69,3,3,0,0,1,2.47,1.15,5.17,5.17,0,0,1,.89,3.23v7.28h-1.88v-7a3.73,3.73,0,0,0-.52-2.18,1.84,1.84,0,0,0-1.6-.73,2.8,2.8,0,0,0-.88.14,2.08,2.08,0,0,0-.74.38,1.91,1.91,0,0,0-.52.64,2,2,0,0,0-.19.92v7.82h-1.88v-7q0-2.91-2.1-2.91a2.83,2.83,0,0,0-.87.14,2.21,2.21,0,0,0-.75.38,2,2,0,0,0-.52.64,1.89,1.89,0,0,0-.21.92v7.82Z"/><path class="cls-1" d="M401.13,189.59a4.28,4.28,0,0,1-3.46-1.63,5.49,5.49,0,0,1-.95-1.87,8.17,8.17,0,0,1-.34-2.46,8.27,8.27,0,0,1,.34-2.46,5.54,5.54,0,0,1,.95-1.88,4.44,4.44,0,0,1,1.49-1.2,4.55,4.55,0,0,1,2-.43,4.37,4.37,0,0,1,1.95.43,4.26,4.26,0,0,1,1.45,1.17,5.22,5.22,0,0,1,.89,1.78,7.92,7.92,0,0,1,.3,2.21v.86h-7.38v.46a3.54,3.54,0,0,0,.77,2.35,2.71,2.71,0,0,0,2.18.91,2.87,2.87,0,0,0,1.7-.49,3.42,3.42,0,0,0,1.14-1.36l1.21,1.13a4.31,4.31,0,0,1-1.64,1.8A4.78,4.78,0,0,1,401.13,189.59Zm0-10.28a2.65,2.65,0,0,0-1.12.24,2.79,2.79,0,0,0-.89.67,2.9,2.9,0,0,0-.57,1,3.79,3.79,0,0,0-.21,1.29v.15h5.38v-.22a3.47,3.47,0,0,0-.7-2.28A2.28,2.28,0,0,0,401.13,179.31Z"/><path class="cls-1" d="M408.29,189.32V177.93h1.88v1.85h.1a3.69,3.69,0,0,1,1.06-1.53,2.83,2.83,0,0,1,1.89-.59,3.1,3.1,0,0,1,2.54,1.15,5,5,0,0,1,.92,3.23v7.28H414.8v-7c0-1.94-.74-2.91-2.21-2.91a3,3,0,0,0-.9.14,2.22,2.22,0,0,0-.77.38,1.88,1.88,0,0,0-.55.64,2,2,0,0,0-.2.92v7.82Z"/><path class="cls-1" d="M422.44,189.32a1.85,1.85,0,0,1-1.48-.58,2.35,2.35,0,0,1-.5-1.57v-7.48h-1.68v-1.76h.93a.93.93,0,0,0,.73-.24,1.33,1.33,0,0,0,.2-.82v-2.09h1.7v3.15h2.24v1.76h-2.24v7.87h2.08v1.76Z"/></g></g></svg>