<svg xmlns="http://www.w3.org/2000/svg" viewBox="0 0 1010.96 688"><defs><style>.cls-1{fill:#000234;}.cls-2{fill:#f15a24;}.cls-3{opacity:0.9;}.cls-4{fill:#1b1464;}.cls-5{fill:#00064c;}</style></defs><g id="Ebene_2" data-name="Ebene 2"><g id="Ebene_1-2" data-name="Ebene 1"><rect class="cls-1" x="2" y="2" width="1006.96" height="684"/><path class="cls-2" d="M1007,4V684H4V4H1007m4-4H0V688H1011V0Z"/><rect class="cls-1" x="48.98" y="57" width="913" height="149"/><path class="cls-2" d="M961,58V205H50V58H961m2-2H48V207H963V56Z"/><g class="cls-3"><rect class="cls-4" x="87.48" y="107.5" width="836" height="48"/><path class="cls-2" d="M923,108v47H88V108H923m1-1H87v49H924V107Z"/></g><g class="cls-3"><rect class="cls-1" x="48.48" y="245.5" width="914" height="376"/><path class="cls-2" d="M962,246V621H49V246H962m1-1H48V622H963V245Z"/></g><g class="cls-3"><rect class="cls-4" x="87.48" y="298.5" width="836" height="271"/><path class="cls-2" d="M923,299V569H88V299H923m1-1H87V570H924V298Z"/></g><path class="cls-2" d="M23.39,29.48v-2l9.46-5.39v2.06l-7.57,4.23v.18l7.57,4.24v2.09Z"/><path class="cls-2" d="M36.74,18.9h2v6.82h.09a3.61,3.61,0,0,1,.45-.81,2.92,2.92,0,0,1,.66-.7,3,3,0,0,1,.91-.47,3.8,3.8,0,0,1,1.23-.18A3.73,3.73,0,0,1,45,24.69,4.44,4.44,0,0,1,46,27.88v7.3H44V28.23c0-1.95-.84-2.93-2.53-2.93a4,4,0,0,0-1,.12,2.45,2.45,0,0,0-.85.39,1.9,1.9,0,0,0-.6.66,1.72,1.72,0,0,0-.23.92v7.79h-2Z"/><path class="cls-2" d="M55.13,35.18a2.55,2.55,0,0,1-2-.76,2.9,2.9,0,0,1-.66-2V25.52H48.8V23.83h2.64a.93.93,0,0,0,1.1-1.1V19.82h1.93v4h5v1.69h-5v8h5v1.69Z"/><path class="cls-2" d="M62.19,35.18V23.83H64v1.38h.11a3.41,3.41,0,0,1,.75-1.16,1.87,1.87,0,0,1,1.41-.49,2,2,0,0,1,1.46.5,2.19,2.19,0,0,1,.63,1.31h.08a3.5,3.5,0,0,1,.87-1.29,2.28,2.28,0,0,1,1.58-.52,1.89,1.89,0,0,1,1.84,1,5.93,5.93,0,0,1,.51,2.75v7.92H71.43V27.54a4,4,0,0,0-.29-1.83,1.08,1.08,0,0,0-1-.52,1.4,1.4,0,0,0-1,.43,1.74,1.74,0,0,0-.42,1.26v8.3H66.82V27.54a4,4,0,0,0-.3-1.83,1.05,1.05,0,0,0-1-.52,1.43,1.43,0,0,0-1.08.43A1.74,1.74,0,0,0,64,26.88v8.3Z"/><path class="cls-2" d="M76,33.49h3.85V20.59H76V18.9h5.9V33.49H85.8v1.69H76Z"/><path class="cls-2" d="M89.39,32.8,97,28.58V28.4l-7.56-4.24V22.07l9.46,5.39v2l-9.46,5.39Z"/><path class="cls-2" d="M69.39,82.48v-2l9.46-5.39v2.06l-7.57,4.23v.18l7.57,4.24v2.09Z"/><path class="cls-2" d="M82.74,71.9h2.05v6.82h.09a3.61,3.61,0,0,1,.45-.81,2.92,2.92,0,0,1,.66-.7,3,3,0,0,1,.91-.47,3.8,3.8,0,0,1,1.23-.18A3.73,3.73,0,0,1,91,77.69,4.44,4.44,0,0,1,92,80.88v7.3H90v-7c0-2-.84-2.93-2.53-2.93a4,4,0,0,0-1,.12,2.45,2.45,0,0,0-.85.39,1.9,1.9,0,0,0-.6.66,1.72,1.72,0,0,0-.23.92v7.79H82.74Z"/><path class="cls-2" d="M100.74,88.44A6.08,6.08,0,0,1,98.47,88a4.7,4.7,0,0,1-1.7-1.19A5.34,5.34,0,0,1,95.7,85a7.55,7.55,0,0,1-.37-2.45,7.36,7.36,0,0,1,.38-2.47,5.68,5.68,0,0,1,1.08-1.88A4.63,4.63,0,0,1,98.45,77a5.62,5.62,0,0,1,4.24,0,4.6,4.6,0,0,1,1.62,1.15,5.32,5.32,0,0,1,1,1.78,6.72,6.72,0,0,1,.36,2.25V83H97.44v.46a3.2,3.2,0,0,0,.88,2.33,3.25,3.25,0,0,0,2.44.91,3.62,3.62,0,0,0,1.93-.5A3.42,3.42,0,0,0,104,84.85l1.39,1.08a4.48,4.48,0,0,1-1.73,1.81A5.53,5.53,0,0,1,100.74,88.44Zm-.13-10.25a3.28,3.28,0,0,0-1.28.24,3.14,3.14,0,0,0-1,.67,2.85,2.85,0,0,0-.66,1,3.42,3.42,0,0,0-.23,1.3v.17h6.14v-.24a3.25,3.25,0,0,0-.82-2.3A2.8,2.8,0,0,0,100.61,78.19Z"/><path class="cls-2" d="M118,88.18a1.89,1.89,0,0,1-1.48-.52,2.4,2.4,0,0,1-.59-1.35h-.11a3.14,3.14,0,0,1-1.21,1.56,3.84,3.84,0,0,1-2.22.57,4.09,4.09,0,0,1-2.8-.91,3.17,3.17,0,0,1-1-2.52,2.88,2.88,0,0,1,1.19-2.48,6.39,6.39,0,0,1,3.74-.86h2.31v-1a2.34,2.34,0,0,0-.66-1.82,2.75,2.75,0,0,0-1.91-.6,3.61,3.61,0,0,0-1.84.42,3.34,3.34,0,0,0-1.16,1.2l-1.29-1a3.36,3.36,0,0,1,.61-.85,4.39,4.39,0,0,1,1-.72,5,5,0,0,1,1.27-.51,6.71,6.71,0,0,1,1.61-.19,4.84,4.84,0,0,1,3.27,1,3.58,3.58,0,0,1,1.2,2.89v6h1.51v1.69Zm-5.12-1.34a3.58,3.58,0,0,0,2.09-.57,1.72,1.72,0,0,0,.81-1.44V83.08h-2.29a4.24,4.24,0,0,0-2.14.41,1.35,1.35,0,0,0-.7,1.21v.47a1.43,1.43,0,0,0,.6,1.25A2.77,2.77,0,0,0,112.84,86.84Z"/><path class="cls-2" d="M129.53,86.29h-.11a3.72,3.72,0,0,1-1.36,1.6,4.2,4.2,0,0,1-5.33-1,7.07,7.07,0,0,1-1.18-4.4,7.11,7.11,0,0,1,1.18-4.4A3.83,3.83,0,0,1,126,76.56a3.9,3.9,0,0,1,2.11.55,3.81,3.81,0,0,1,1.36,1.61h.11V71.9h2.05V88.18h-2.05Zm-2.75.42a3.6,3.6,0,0,0,1-.15,2.65,2.65,0,0,0,.88-.42,1.81,1.81,0,0,0,.6-.69,2,2,0,0,0,.22-1v-4a2,2,0,0,0-.82-1.65,2.89,2.89,0,0,0-.88-.43,4,4,0,0,0-1-.14,2.89,2.89,0,0,0-2.25.89,3.39,3.39,0,0,0-.8,2.37v1.89a3.36,3.36,0,0,0,.8,2.36A2.86,2.86,0,0,0,126.78,86.71Z"/><path class="cls-2" d="M135.39,85.8,143,81.58V81.4l-7.56-4.24V75.07l9.46,5.39v2l-9.46,5.39Z"/><path class="cls-2" d="M69.39,269.48v-2l9.46-5.39v2.06l-7.57,4.23v.18l7.57,4.24v2.09Z"/><path class="cls-2" d="M82.65,258.9h2v6.82h.11a3.88,3.88,0,0,1,1.36-1.61,3.93,3.93,0,0,1,2.12-.55,3.86,3.86,0,0,1,3.22,1.54,8.79,8.79,0,0,1,0,8.8,4.22,4.22,0,0,1-5.34,1,3.79,3.79,0,0,1-1.36-1.6H84.7v1.89h-2Zm4.8,14.81a2.84,2.84,0,0,0,2.25-.9,3.37,3.37,0,0,0,.81-2.36v-1.89a3.39,3.39,0,0,0-.81-2.37,2.87,2.87,0,0,0-2.25-.89,4,4,0,0,0-1,.14,2.89,2.89,0,0,0-.88.43,2.13,2.13,0,0,0-.6.7,1.93,1.93,0,0,0-.22.95v4a2,2,0,0,0,.82,1.66,2.65,2.65,0,0,0,.88.42A3.6,3.6,0,0,0,87.45,273.71Z"/><path class="cls-2" d="M100.52,275.44a5.64,5.64,0,0,1-2.2-.41,4.6,4.6,0,0,1-1.65-1.19,5.26,5.26,0,0,1-1-1.87,8,8,0,0,1-.36-2.47,7.85,7.85,0,0,1,.36-2.46,5.17,5.17,0,0,1,1-1.87A4.6,4.6,0,0,1,98.32,264a5.46,5.46,0,0,1,2.2-.42,5.55,5.55,0,0,1,2.19.42,4.73,4.73,0,0,1,1.66,1.19,5.3,5.3,0,0,1,1,1.87,7.85,7.85,0,0,1,.37,2.46,8,8,0,0,1-.37,2.47,5.39,5.39,0,0,1-1,1.87,4.73,4.73,0,0,1-1.66,1.19A5.73,5.73,0,0,1,100.52,275.44Zm0-1.69a3,3,0,0,0,2.24-.85,3.49,3.49,0,0,0,.84-2.56v-1.67a3.52,3.52,0,0,0-.84-2.57,3.42,3.42,0,0,0-4.49,0,3.56,3.56,0,0,0-.83,2.57v1.67a3.53,3.53,0,0,0,.83,2.56A3,3,0,0,0,100.52,273.75Z"/><path class="cls-2" d="M116.33,273.29h-.11a3.72,3.72,0,0,1-1.36,1.6,4.2,4.2,0,0,1-5.33-1,8.79,8.79,0,0,1,0-8.8,3.83,3.83,0,0,1,3.22-1.54,3.9,3.9,0,0,1,2.11.55,3.81,3.81,0,0,1,1.36,1.61h.11V258.9h2v16.28h-2Zm-2.75.42a3.6,3.6,0,0,0,1-.15,2.65,2.65,0,0,0,.88-.42,1.81,1.81,0,0,0,.6-.69,2,2,0,0,0,.22-1v-4a2,2,0,0,0-.82-1.65,2.89,2.89,0,0,0-.88-.43,4,4,0,0,0-1-.14,2.89,2.89,0,0,0-2.25.89,3.39,3.39,0,0,0-.8,2.37v1.89a3.36,3.36,0,0,0,.8,2.36A2.86,2.86,0,0,0,113.58,273.71Z"/><path class="cls-2" d="M130.44,263.83h2.06l-5.58,13.7a5.67,5.67,0,0,1-.45.89,2.43,2.43,0,0,1-1.45,1,4.26,4.26,0,0,1-1.14.13H122.1v-1.7h2.64l1.16-2.9-4.57-11.15h2.13l1.87,4.75,1.56,4.11H127l1.57-4.11Z"/><path class="cls-2" d="M135.39,272.8l7.56-4.22v-.18l-7.56-4.24v-2.09l9.46,5.39v2l-9.46,5.39Z"/><path class="cls-2" d="M69.39,599.48v-2l9.46-5.39v2.06l-7.57,4.23v.18l7.57,4.24v2.09Z"/><path class="cls-2" d="M82.63,608.21l7.55-19.75H92l-7.54,19.75Z"/><path class="cls-2" d="M95.85,588.9H97.9v6.82H98a4,4,0,0,1,6.7-.62,8.86,8.86,0,0,1,0,8.8,4.22,4.22,0,0,1-5.34,1,3.79,3.79,0,0,1-1.36-1.6H97.9v1.89H95.85Zm4.8,14.81a2.84,2.84,0,0,0,2.25-.9,3.37,3.37,0,0,0,.81-2.36v-1.89a3.39,3.39,0,0,0-.81-2.37,2.87,2.87,0,0,0-2.25-.89,4,4,0,0,0-1.05.14,2.89,2.89,0,0,0-.88.43,2.13,2.13,0,0,0-.6.7,1.93,1.93,0,0,0-.22.95v4a2,2,0,0,0,.82,1.66,2.65,2.65,0,0,0,.88.42A3.6,3.6,0,0,0,100.65,603.71Z"/><path class="cls-2" d="M113.72,605.44a5.64,5.64,0,0,1-2.2-.41,4.6,4.6,0,0,1-1.65-1.19,5.26,5.26,0,0,1-1.05-1.87,8,8,0,0,1-.36-2.47,7.85,7.85,0,0,1,.36-2.46,5.17,5.17,0,0,1,1.05-1.87,4.6,4.6,0,0,1,1.65-1.19,5.46,5.46,0,0,1,2.2-.42,5.55,5.55,0,0,1,2.19.42,4.73,4.73,0,0,1,1.66,1.19,5.3,5.3,0,0,1,1,1.87,7.85,7.85,0,0,1,.36,2.46,8,8,0,0,1-.36,2.47,5.39,5.39,0,0,1-1,1.87,4.73,4.73,0,0,1-1.66,1.19A5.73,5.73,0,0,1,113.72,605.44Zm0-1.69a3,3,0,0,0,2.24-.85,3.49,3.49,0,0,0,.84-2.56v-1.67a3.52,3.52,0,0,0-.84-2.57,3.42,3.42,0,0,0-4.49,0,3.56,3.56,0,0,0-.83,2.57v1.67a3.53,3.53,0,0,0,.83,2.56A3,3,0,0,0,113.72,603.75Z"/><path class="cls-2" d="M129.53,603.29h-.11a3.72,3.72,0,0,1-1.36,1.6,4.2,4.2,0,0,1-5.33-1,8.79,8.79,0,0,1,0-8.8,3.83,3.83,0,0,1,3.22-1.54,3.9,3.9,0,0,1,2.11.55,3.81,3.81,0,0,1,1.36,1.61h.11V588.9h2.05v16.28h-2.05Zm-2.75.42a3.6,3.6,0,0,0,1-.15,2.65,2.65,0,0,0,.88-.42,1.81,1.81,0,0,0,.6-.69,2,2,0,0,0,.22-1v-4a2,2,0,0,0-.82-1.65,2.89,2.89,0,0,0-.88-.43,4,4,0,0,0-1-.14,2.89,2.89,0,0,0-2.25.89,3.39,3.39,0,0,0-.8,2.37v1.89a3.36,3.36,0,0,0,.8,2.36A2.86,2.86,0,0,0,126.78,603.71Z"/><path class="cls-2" d="M143.64,593.83h2.06l-5.58,13.7a5.67,5.67,0,0,1-.45.89,2.43,2.43,0,0,1-1.45,1,4.26,4.26,0,0,1-1.14.13H135.3v-1.7h2.64l1.16-2.9-4.57-11.15h2.13l1.87,4.75,1.56,4.11h.11l1.57-4.11Z"/><path class="cls-2" d="M148.59,602.8l7.56-4.22v-.18l-7.56-4.24v-2.09l9.46,5.39v2l-9.46,5.39Z"/><path class="cls-2" d="M107.39,132.48v-2l9.46-5.39v2.06l-7.57,4.23v.18l7.57,4.24v2.09Z"/><path class="cls-2" d="M125.93,138.18a2.55,2.55,0,0,1-2-.76,2.9,2.9,0,0,1-.66-2v-6.93H119.6v-1.69h2.64a.93.93,0,0,0,1.1-1.1v-2.91h1.93v4h5v1.69h-5v8h5v1.69Z"/><path class="cls-2" d="M134.21,136.49h4v-8h-4v-1.69h6v9.66H144v1.69h-9.76Zm5-12a1.61,1.61,0,0,1-1.16-.34,1.18,1.18,0,0,1-.33-.85v-.42a1.22,1.22,0,0,1,.33-.86,1.56,1.56,0,0,1,1.16-.35,1.59,1.59,0,0,1,1.17.35,1.22,1.22,0,0,1,.33.86v.42a1.18,1.18,0,0,1-.33.85A1.63,1.63,0,0,1,139.22,124.52Z"/><path class="cls-2" d="M152.33,138.18a2.55,2.55,0,0,1-2-.76,2.9,2.9,0,0,1-.66-2v-6.93H146v-1.69h2.64a.93.93,0,0,0,1.1-1.1v-2.91h1.93v4h5v1.69h-5v8h5v1.69Z"/><path class="cls-2" d="M160,136.49h3.85v-12.9H160V121.9h5.9v14.59h3.87v1.69H160Z"/><path class="cls-2" d="M178.34,138.44a6,6,0,0,1-2.27-.41,4.7,4.7,0,0,1-1.7-1.19A5.34,5.34,0,0,1,173.3,135a7.54,7.54,0,0,1-.38-2.45,7.36,7.36,0,0,1,.39-2.47,5.68,5.68,0,0,1,1.08-1.88,4.63,4.63,0,0,1,1.66-1.2,5.62,5.62,0,0,1,4.24,0,4.69,4.69,0,0,1,1.62,1.15,5.32,5.32,0,0,1,1,1.78,6.72,6.72,0,0,1,.36,2.25V133H175v.46a3.2,3.2,0,0,0,.88,2.33,3.25,3.25,0,0,0,2.44.91,3.62,3.62,0,0,0,1.93-.5,3.42,3.42,0,0,0,1.28-1.36l1.39,1.08a4.48,4.48,0,0,1-1.73,1.81A5.55,5.55,0,0,1,178.34,138.44Zm-.14-10.25a3.23,3.23,0,0,0-1.27.24,3.14,3.14,0,0,0-1,.67,2.85,2.85,0,0,0-.66,1,3.42,3.42,0,0,0-.23,1.3v.17h6.13v-.24a3.25,3.25,0,0,0-.81-2.3A2.81,2.81,0,0,0,178.2,128.19Z"/><path class="cls-2" d="M186.59,135.8l7.56-4.22v-.18l-7.56-4.24v-2.09l9.46,5.39v2l-9.46,5.39Z"/><path class="cls-2" d="M217.63,138.44a7,7,0,0,1-3.37-.73A7.08,7.08,0,0,1,212,135.8l1.45-1.29a6.19,6.19,0,0,0,1.9,1.61,5,5,0,0,0,2.33.52,3.55,3.55,0,0,0,2.4-.72,2.53,2.53,0,0,0,.83-2,2.18,2.18,0,0,0-.61-1.65,3.82,3.82,0,0,0-2.1-.84l-1.69-.28a5.7,5.7,0,0,1-1.88-.59,4,4,0,0,1-1.22-1,3.43,3.43,0,0,1-.66-1.25,5.15,5.15,0,0,1-.2-1.43,3.84,3.84,0,0,1,1.4-3.23,6,6,0,0,1,3.81-1.1,7.31,7.31,0,0,1,3.11.6,5.22,5.22,0,0,1,2,1.69l-1.41,1.32a5,5,0,0,0-1.51-1.31,4.57,4.57,0,0,0-2.25-.5,3.57,3.57,0,0,0-2.25.62,2.22,2.22,0,0,0-.78,1.85,2.14,2.14,0,0,0,.59,1.59,3.86,3.86,0,0,0,2.13.87l1.65.29a6.64,6.64,0,0,1,1.84.58,4,4,0,0,1,1.24.94,3.19,3.19,0,0,1,.7,1.24,5,5,0,0,1,.21,1.46,4.31,4.31,0,0,1-1.42,3.4A6,6,0,0,1,217.63,138.44Z"/><path class="cls-2" d="M231.13,138.44a6,6,0,0,1-2.26-.41,4.74,4.74,0,0,1-1.71-1.19A5.48,5.48,0,0,1,226.1,135a7.54,7.54,0,0,1-.38-2.45,7.36,7.36,0,0,1,.39-2.47,5.36,5.36,0,0,1,1.08-1.88,4.63,4.63,0,0,1,1.66-1.2,5.62,5.62,0,0,1,4.24,0,4.69,4.69,0,0,1,1.62,1.15,5.14,5.14,0,0,1,1,1.78,6.48,6.48,0,0,1,.37,2.25V133h-8.27v.46a3.23,3.23,0,0,0,.87,2.33,3.29,3.29,0,0,0,2.45.91,3.65,3.65,0,0,0,1.93-.5,3.42,3.42,0,0,0,1.28-1.36l1.38,1.08a4.38,4.38,0,0,1-1.72,1.81A5.56,5.56,0,0,1,231.13,138.44ZM231,128.19a3.23,3.23,0,0,0-1.27.24,3.14,3.14,0,0,0-1,.67,2.85,2.85,0,0,0-.66,1,3.42,3.42,0,0,0-.23,1.3v.17H234v-.24a3.25,3.25,0,0,0-.81-2.3A2.81,2.81,0,0,0,231,128.19Z"/><path class="cls-2" d="M239.8,136.49h4v-8h-4v-1.69h6v9.66h3.74v1.69H239.8Zm5-12a1.63,1.63,0,0,1-1.17-.34,1.18,1.18,0,0,1-.33-.85v-.42a1.22,1.22,0,0,1,.33-.86,1.59,1.59,0,0,1,1.17-.35,1.56,1.56,0,0,1,1.16.35,1.22,1.22,0,0,1,.33.86v.42a1.18,1.18,0,0,1-.33.85A1.61,1.61,0,0,1,244.82,124.52Z"/><path class="cls-2" d="M257.93,138.18a2.57,2.57,0,0,1-2.05-.76,2.9,2.9,0,0,1-.66-2v-6.93h-3.63v-1.69h2.64a1.17,1.17,0,0,0,.85-.25,1.14,1.14,0,0,0,.25-.85v-2.91h1.94v4h5v1.69h-5v8h5v1.69Z"/><path class="cls-2" d="M270.73,138.44a6,6,0,0,1-2.26-.41,4.74,4.74,0,0,1-1.71-1.19A5.48,5.48,0,0,1,265.7,135a7.54,7.54,0,0,1-.38-2.45,7.36,7.36,0,0,1,.39-2.47,5.36,5.36,0,0,1,1.08-1.88,4.63,4.63,0,0,1,1.66-1.2,5.62,5.62,0,0,1,4.24,0,4.69,4.69,0,0,1,1.62,1.15,5.14,5.14,0,0,1,1,1.78,6.48,6.48,0,0,1,.37,2.25V133h-8.28v.46a3.24,3.24,0,0,0,.88,2.33,3.27,3.27,0,0,0,2.45.91,3.65,3.65,0,0,0,1.93-.5,3.49,3.49,0,0,0,1.28-1.36l1.38,1.08a4.38,4.38,0,0,1-1.72,1.81A5.56,5.56,0,0,1,270.73,138.44Zm-.13-10.25a3.23,3.23,0,0,0-1.27.24,3,3,0,0,0-1,.67,2.85,2.85,0,0,0-.66,1,3.42,3.42,0,0,0-.24,1.3v.17h6.14v-.24a3.25,3.25,0,0,0-.81-2.3A2.81,2.81,0,0,0,270.6,128.19Z"/><path class="cls-2" d="M279.14,138.18V126.83h2v1.89h.09a4.62,4.62,0,0,1,.45-.81,3.38,3.38,0,0,1,.66-.7,3.07,3.07,0,0,1,.92-.47,3.8,3.8,0,0,1,1.23-.18,3.74,3.74,0,0,1,2.83,1.13,4.44,4.44,0,0,1,1.06,3.19v7.3h-2v-7c0-1.95-.85-2.93-2.53-2.93a3.93,3.93,0,0,0-1,.12,2.45,2.45,0,0,0-.85.39,2,2,0,0,0-.61.66,1.82,1.82,0,0,0-.23.92v7.79Z"/><path class="cls-2" d="M297.53,138.18a2.57,2.57,0,0,1-2-.76,2.9,2.9,0,0,1-.66-2v-6.93h-3.63v-1.69h2.64a1.17,1.17,0,0,0,.85-.25,1.14,1.14,0,0,0,.25-.85v-2.91h1.94v4h5v1.69h-5v8h5v1.69Z"/><path class="cls-2" d="M305.8,136.49h4v-8h-4v-1.69h6v9.66h3.74v1.69H305.8Zm5-12a1.63,1.63,0,0,1-1.17-.34,1.18,1.18,0,0,1-.33-.85v-.42a1.22,1.22,0,0,1,.33-.86,2.11,2.11,0,0,1,2.33,0,1.22,1.22,0,0,1,.33.86v.42a1.18,1.18,0,0,1-.33.85A1.62,1.62,0,0,1,310.82,124.52Z"/><path class="cls-2" d="M323.93,138.18a2.56,2.56,0,0,1-2.05-.76,2.9,2.9,0,0,1-.66-2v-6.93h-3.63v-1.69h2.64a1.17,1.17,0,0,0,.85-.25,1.14,1.14,0,0,0,.25-.85v-2.91h1.94v4h5v1.69h-5v8h5v1.69Z"/><path class="cls-2" d="M336.73,138.44a6,6,0,0,1-2.26-.41,4.66,4.66,0,0,1-1.71-1.19,5.5,5.5,0,0,1-1.07-1.86,7.55,7.55,0,0,1-.37-2.45,7.36,7.36,0,0,1,.39-2.47,5.5,5.5,0,0,1,1.07-1.88,4.81,4.81,0,0,1,1.66-1.2,5.65,5.65,0,0,1,4.25,0,4.69,4.69,0,0,1,1.62,1.15,5.3,5.3,0,0,1,1,1.78,6.72,6.72,0,0,1,.36,2.25V133h-8.27v.46a3.08,3.08,0,0,0,3.32,3.24,3.66,3.66,0,0,0,1.94-.5,3.49,3.49,0,0,0,1.28-1.36l1.38,1.08a4.38,4.38,0,0,1-1.72,1.81A5.56,5.56,0,0,1,336.73,138.44Zm-.13-10.25a3.32,3.32,0,0,0-1.28.24,3.25,3.25,0,0,0-1,.67,3.14,3.14,0,0,0-.66,1,3.62,3.62,0,0,0-.23,1.3v.17h6.14v-.24a3.25,3.25,0,0,0-.81-2.3A2.83,2.83,0,0,0,336.6,128.19Z"/><path class="cls-2" d="M344.83,136.49h3.85v-12.9h-3.85V121.9h5.89v14.59h3.88v1.69h-9.77Z"/><path class="cls-2" d="M371.38,132.48v-2l9.46-5.39v2.06l-7.57,4.23v.18l7.57,4.24v2.09Z"/><path class="cls-2" d="M384.63,141.21l7.54-19.75H394l-7.55,19.75Z"/><path class="cls-2" d="M403.13,138.18a2.56,2.56,0,0,1-2.05-.76,2.9,2.9,0,0,1-.66-2v-6.93h-3.63v-1.69h2.64a1.17,1.17,0,0,0,.85-.25,1.14,1.14,0,0,0,.25-.85v-2.91h1.94v4h5v1.69h-5v8h5v1.69Z"/><path class="cls-2" d="M411.4,136.49h4v-8h-4v-1.69h6v9.66h3.74v1.69H411.4Zm5-12a1.63,1.63,0,0,1-1.17-.34,1.18,1.18,0,0,1-.33-.85v-.42a1.22,1.22,0,0,1,.33-.86,2.11,2.11,0,0,1,2.33,0,1.22,1.22,0,0,1,.33.86v.42a1.18,1.18,0,0,1-.33.85A1.62,1.62,0,0,1,416.42,124.52Z"/><path class="cls-2" d="M429.53,138.18a2.56,2.56,0,0,1-2-.76,2.9,2.9,0,0,1-.66-2v-6.93h-3.63v-1.69h2.64a1.17,1.17,0,0,0,.85-.25,1.14,1.14,0,0,0,.25-.85v-2.91h1.94v4h5v1.69h-5v8h5v1.69Z"/><path class="cls-2" d="M437.23,136.49h3.85v-12.9h-3.85V121.9h5.89v14.59H447v1.69h-9.76Z"/><path class="cls-2" d="M455.53,138.44a6.08,6.08,0,0,1-2.27-.41,4.7,4.7,0,0,1-1.7-1.19,5.5,5.5,0,0,1-1.07-1.86,7.55,7.55,0,0,1-.37-2.45,7.62,7.62,0,0,1,.38-2.47,5.68,5.68,0,0,1,1.08-1.88,4.72,4.72,0,0,1,1.66-1.2,5.65,5.65,0,0,1,4.25,0,4.69,4.69,0,0,1,1.62,1.15,5.3,5.3,0,0,1,1,1.78,6.72,6.72,0,0,1,.36,2.25V133h-8.27v.46a3.2,3.2,0,0,0,.88,2.33,3.27,3.27,0,0,0,2.44.91,3.66,3.66,0,0,0,1.94-.5,3.4,3.4,0,0,0,1.27-1.36l1.39,1.08a4.41,4.41,0,0,1-1.73,1.81A5.53,5.53,0,0,1,455.53,138.44Zm-.13-10.25a3.12,3.12,0,0,0-2.28.91,3,3,0,0,0-.66,1,3.62,3.62,0,0,0-.23,1.3v.17h6.14v-.24a3.21,3.21,0,0,0-.82-2.3A2.8,2.8,0,0,0,455.4,128.19Z"/><path class="cls-2" d="M463.78,135.8l7.57-4.22v-.18l-7.57-4.24v-2.09l9.46,5.39v2l-9.46,5.39Z"/><g class="cls-3"><rect class="cls-5" x="121.48" y="350.5" width="768" height="48"/><path class="cls-2" d="M889,351v47H122V351H889m1-1H121v49H890V350Z"/></g><path class="cls-2" d="M139.73,375.48v-2l8.69-5.39v2.07l-6.95,4.22v.18l6.95,4.24v2.09Z"/><path class="cls-2" d="M152.4,364.9h1.88v6.82h.08a4.45,4.45,0,0,1,.42-.81,3.13,3.13,0,0,1,.6-.7,2.86,2.86,0,0,1,.84-.47,3.58,3.58,0,0,1,3.73.95,4.65,4.65,0,0,1,1,3.19v7.3h-1.88v-6.95c0-2-.77-2.93-2.32-2.93a3.37,3.37,0,0,0-.9.12,2.2,2.2,0,0,0-.78.39,2,2,0,0,0-.56.66,1.92,1.92,0,0,0-.21.92v7.79H152.4Z"/><path class="cls-2" d="M164.41,381.18v-1.8h4v-12h-.14l-3.42,3.69-1.17-1.25,3.66-4h3v13.56H174v1.8Z"/><path class="cls-2" d="M176.52,378.8l6.95-4.22v-.18l-6.95-4.24v-2.09l8.69,5.39v2l-8.69,5.39Z"/><path class="cls-2" d="M207.68,374.32h-5.13v6.86h-2V365.82h2v6.69h5.13v-6.69h2v15.36h-2Z"/><path class="cls-2" d="M217.45,381.44a5.2,5.2,0,0,1-2.09-.41,4.28,4.28,0,0,1-1.56-1.19,5.41,5.41,0,0,1-1-1.86,8.1,8.1,0,0,1-.35-2.45,7.92,7.92,0,0,1,.36-2.47,5.52,5.52,0,0,1,1-1.88,4.31,4.31,0,0,1,1.52-1.2,4.81,4.81,0,0,1,3.91,0,4.27,4.27,0,0,1,1.48,1.16,5.18,5.18,0,0,1,1,1.77,7.28,7.28,0,0,1,.33,2.25V376h-7.6v.46a3.37,3.37,0,0,0,.81,2.33,2.88,2.88,0,0,0,2.25.91,3.18,3.18,0,0,0,1.78-.5,3.4,3.4,0,0,0,1.17-1.36l1.27,1.08a4.32,4.32,0,0,1-1.59,1.81A4.74,4.74,0,0,1,217.45,381.44Zm-.13-10.25a2.78,2.78,0,0,0-1.17.24,3.2,3.2,0,0,0-.92.67,3,3,0,0,0-.6,1,3.62,3.62,0,0,0-.22,1.3v.17h5.64v-.24a3.45,3.45,0,0,0-.74-2.3A2.49,2.49,0,0,0,217.32,371.19Z"/><path class="cls-2" d="M233.27,381.18a1.66,1.66,0,0,1-1.36-.52,2.51,2.51,0,0,1-.54-1.35h-.1a3.2,3.2,0,0,1-1.11,1.56,3.34,3.34,0,0,1-2,.57,3.58,3.58,0,0,1-2.58-.91,3.32,3.32,0,0,1-1-2.52,3,3,0,0,1,1.09-2.48,5.53,5.53,0,0,1,3.44-.86h2.12v-1a2.44,2.44,0,0,0-.61-1.82,2.38,2.38,0,0,0-1.75-.6,3,3,0,0,0-1.69.43,3.07,3.07,0,0,0-1.06,1.19l-1.2-1a3.72,3.72,0,0,1,.57-.85,3.88,3.88,0,0,1,.87-.72,4.45,4.45,0,0,1,1.17-.51,5.7,5.7,0,0,1,1.48-.19,4.22,4.22,0,0,1,3,1,3.75,3.75,0,0,1,1.1,2.89v6h1.4v1.69Zm-4.71-1.34a3.08,3.08,0,0,0,1.92-.57,1.75,1.75,0,0,0,.75-1.43v-1.76h-2.1a3.64,3.64,0,0,0-2,.41,1.36,1.36,0,0,0-.64,1.21v.47a1.47,1.47,0,0,0,.55,1.25A2.38,2.38,0,0,0,228.56,379.84Z"/><path class="cls-2" d="M243.9,379.29h-.1a3.65,3.65,0,0,1-1.25,1.6,3.29,3.29,0,0,1-1.94.55,3.42,3.42,0,0,1-3-1.54,9.5,9.5,0,0,1,0-8.8,3.44,3.44,0,0,1,3-1.54,3.36,3.36,0,0,1,1.94.55,3.74,3.74,0,0,1,1.25,1.61h.1V364.9h1.88v16.28H243.9Zm-2.52.42a3.11,3.11,0,0,0,1-.15,2.41,2.41,0,0,0,.81-.42,1.87,1.87,0,0,0,.55-.69,2.13,2.13,0,0,0,.2-1v-4a2,2,0,0,0-.2-.95,2.09,2.09,0,0,0-.55-.7,2.62,2.62,0,0,0-.81-.43,3.43,3.43,0,0,0-1-.14,2.54,2.54,0,0,0-2.07.89,3.58,3.58,0,0,0-.74,2.37v1.89a3.53,3.53,0,0,0,.74,2.36A2.52,2.52,0,0,0,241.38,379.71Z"/><path class="cls-2" d="M249.14,379.49h3.54v-12.9h-3.54V364.9h5.42v14.59h3.55v1.69h-9Z"/><path class="cls-2" d="M261.79,379.49h3.66v-8h-3.66v-1.69h5.54v9.66h3.44v1.69h-9Zm4.61-12a1.41,1.41,0,0,1-1.07-.34,1.24,1.24,0,0,1-.3-.85v-.42a1.29,1.29,0,0,1,.3-.86,1.81,1.81,0,0,1,2.14,0,1.3,1.3,0,0,1,.31.86v.42a1.25,1.25,0,0,1-.31.85A1.41,1.41,0,0,1,266.4,367.52Z"/><path class="cls-2" d="M273.68,381.18V369.83h1.88v1.89h.08a4.4,4.4,0,0,1,.41-.81,2.93,2.93,0,0,1,.61-.7,2.62,2.62,0,0,1,.84-.47,3.23,3.23,0,0,1,1.13-.18,3.29,3.29,0,0,1,2.6,1.13,4.7,4.7,0,0,1,1,3.19v7.3h-1.88v-6.95c0-2-.78-2.93-2.33-2.93a3.37,3.37,0,0,0-.9.12,2.2,2.2,0,0,0-.78.39,2,2,0,0,0-.55.66,1.92,1.92,0,0,0-.21.92v7.79Z"/><path class="cls-2" d="M290.21,381.44a5.15,5.15,0,0,1-2.08-.41,4.4,4.4,0,0,1-1.57-1.19,5.58,5.58,0,0,1-1-1.86,8.11,8.11,0,0,1-.34-2.45,8.23,8.23,0,0,1,.35-2.47,5.89,5.89,0,0,1,1-1.88,4.44,4.44,0,0,1,1.53-1.2,4.79,4.79,0,0,1,3.9,0,4.3,4.3,0,0,1,1.49,1.16,5.35,5.35,0,0,1,.95,1.77,7.28,7.28,0,0,1,.33,2.25V376h-7.6v.46a3.37,3.37,0,0,0,.81,2.33,2.86,2.86,0,0,0,2.24.91,3.15,3.15,0,0,0,1.78-.5,3.25,3.25,0,0,0,1.17-1.36l1.28,1.08a4.32,4.32,0,0,1-1.59,1.81A4.77,4.77,0,0,1,290.21,381.44Zm-.12-10.25a2.78,2.78,0,0,0-1.17.24,3.07,3.07,0,0,0-.92.67,2.88,2.88,0,0,0-.61,1,3.85,3.85,0,0,0-.21,1.3v.17h5.64v-.24a3.41,3.41,0,0,0-.75-2.3A2.49,2.49,0,0,0,290.09,371.19Z"/><path class="cls-2" d="M309.92,375.48v-2l8.69-5.39v2.07l-6.95,4.22v.18l6.95,4.24v2.09Z"/><path class="cls-2" d="M322.09,384.22,329,364.46h1.68l-6.94,19.76Z"/><path class="cls-2" d="M334.31,364.9h1.88v6.82h.09a3.86,3.86,0,0,1,.41-.81,2.93,2.93,0,0,1,.61-.7,2.68,2.68,0,0,1,.83-.47,3.33,3.33,0,0,1,1.14-.18,3.27,3.27,0,0,1,2.59,1.13,4.65,4.65,0,0,1,1,3.19v7.3H341v-6.95c0-2-.77-2.93-2.32-2.93a3.37,3.37,0,0,0-.9.12,2.2,2.2,0,0,0-.78.39,1.87,1.87,0,0,0-.55.66,1.82,1.82,0,0,0-.22.92v7.79h-1.88Z"/><path class="cls-2" d="M346.32,381.18v-1.8h4v-12h-.14l-3.41,3.69-1.18-1.25,3.66-4h3v13.56h3.58v1.8Z"/><path class="cls-2" d="M358.43,378.8l6.95-4.22v-.18l-6.95-4.24v-2.09l8.69,5.39v2l-8.69,5.39Z"/><g class="cls-3"><rect class="cls-5" x="121.48" y="415.5" width="768" height="48"/><path class="cls-2" d="M889,416v47H122V416H889m1-1H121v49H890V415Z"/></g><path class="cls-2" d="M139.73,440.48v-2l8.69-5.39v2.07l-6.95,4.22v.18l6.95,4.24v2.09Z"/><path class="cls-2" d="M151.92,434.83h1.88v1.89h.1a3.82,3.82,0,0,1,1.25-1.61,3.36,3.36,0,0,1,1.94-.55,3.43,3.43,0,0,1,3,1.54,9.5,9.5,0,0,1,0,8.8,3.41,3.41,0,0,1-3,1.54,3.29,3.29,0,0,1-1.94-.55,3.73,3.73,0,0,1-1.25-1.6h-.1v6.29h-1.88Zm4.4,9.88a2.56,2.56,0,0,0,2.08-.9,3.58,3.58,0,0,0,.73-2.36v-1.89a3.63,3.63,0,0,0-.73-2.37,2.58,2.58,0,0,0-2.08-.89,3.43,3.43,0,0,0-1,.14,2.47,2.47,0,0,0-.8.43,2,2,0,0,0-.56.7,2,2,0,0,0-.2.95v4a2.13,2.13,0,0,0,.2,1,1.8,1.8,0,0,0,.56.69,2.27,2.27,0,0,0,.8.42A3.11,3.11,0,0,0,156.32,444.71Z"/><path class="cls-2" d="M164,443.8l7-4.22v-.18l-7-4.24v-2.09l8.7,5.39v2l-8.7,5.39Z"/><path class="cls-2" d="M188.85,446.18V430.82h2v13.56h6.57v1.8Z"/><path class="cls-2" d="M204.71,446.44a4.83,4.83,0,0,1-2-.41,4.27,4.27,0,0,1-1.51-1.19,5.42,5.42,0,0,1-1-1.87,8.29,8.29,0,0,1-.34-2.47,8.17,8.17,0,0,1,.34-2.46,5.34,5.34,0,0,1,1-1.87,4.27,4.27,0,0,1,1.51-1.19,5,5,0,0,1,4,0,4.34,4.34,0,0,1,1.53,1.19,5.34,5.34,0,0,1,1,1.87,8.51,8.51,0,0,1,.33,2.46,8.63,8.63,0,0,1-.33,2.47,5.42,5.42,0,0,1-1,1.87,4.34,4.34,0,0,1-1.53,1.19A4.85,4.85,0,0,1,204.71,446.44Zm0-1.69a2.63,2.63,0,0,0,2.06-.85,3.66,3.66,0,0,0,.77-2.56v-1.67a3.69,3.69,0,0,0-.77-2.57,2.95,2.95,0,0,0-4.12,0,3.74,3.74,0,0,0-.77,2.57v1.67a3.71,3.71,0,0,0,.77,2.56A2.63,2.63,0,0,0,204.71,444.75Z"/><path class="cls-2" d="M212.31,444.49h2.93v-8h-2.93v-1.69h4.81v2.92h.12a4.09,4.09,0,0,1,1.21-2.15,3.24,3.24,0,0,1,2.27-.77h1.38v2h-2a2.79,2.79,0,0,0-2.15.85,3.06,3.06,0,0,0-.8,2.19v4.62h3.94v1.69h-8.75Z"/><path class="cls-2" d="M229.17,446.44a5.15,5.15,0,0,1-2.08-.41,4.4,4.4,0,0,1-1.57-1.19,5.58,5.58,0,0,1-1-1.86,8.11,8.11,0,0,1-.34-2.45,8.23,8.23,0,0,1,.35-2.47,5.89,5.89,0,0,1,1-1.88,4.35,4.35,0,0,1,1.53-1.2,4.5,4.5,0,0,1,2-.42A4.55,4.55,0,0,1,231,435a4.18,4.18,0,0,1,1.48,1.16,5,5,0,0,1,1,1.77,7,7,0,0,1,.34,2.25V441h-7.6v.46a3.37,3.37,0,0,0,.81,2.33,2.86,2.86,0,0,0,2.24.91,3.15,3.15,0,0,0,1.78-.5,3.25,3.25,0,0,0,1.17-1.36l1.27,1.08a4.23,4.23,0,0,1-1.58,1.81A4.77,4.77,0,0,1,229.17,446.44Zm-.12-10.25a2.78,2.78,0,0,0-1.17.24,3.07,3.07,0,0,0-.92.67,2.88,2.88,0,0,0-.61,1,3.85,3.85,0,0,0-.21,1.3v.17h5.64v-.24a3.41,3.41,0,0,0-.75-2.3A2.49,2.49,0,0,0,229.05,436.19Z"/><path class="cls-2" d="M236,446.18V434.83h1.68v1.38h.1a3.28,3.28,0,0,1,.69-1.16,1.67,1.67,0,0,1,1.29-.49,1.8,1.8,0,0,1,1.35.5,2.29,2.29,0,0,1,.57,1.31h.08a3.58,3.58,0,0,1,.8-1.29,2,2,0,0,1,1.45-.52,1.71,1.71,0,0,1,1.69.95,6.42,6.42,0,0,1,.47,2.75v7.92h-1.68v-7.63a4.36,4.36,0,0,0-.27-1.84,1,1,0,0,0-.94-.52,1.23,1.23,0,0,0-1,.43,1.84,1.84,0,0,0-.39,1.27v8.29h-1.67v-7.63a4.17,4.17,0,0,0-.28-1.84,1,1,0,0,0-.92-.52,1.27,1.27,0,0,0-1,.43,1.89,1.89,0,0,0-.38,1.27v8.29Z"/><path class="cls-2" d="M262.76,430.82v9.31c0,.7,0,1.33.05,1.89a4.32,4.32,0,0,0,.31,1.42,1.77,1.77,0,0,0,.77.89,3.59,3.59,0,0,0,2.92,0,1.82,1.82,0,0,0,.77-.89,4.32,4.32,0,0,0,.31-1.42c0-.56.05-1.19.05-1.89v-9.31h2v8.87a25.25,25.25,0,0,1-.16,3,5.53,5.53,0,0,1-.66,2.1,3.09,3.09,0,0,1-1.39,1.26,6.58,6.58,0,0,1-4.68,0,3.09,3.09,0,0,1-1.39-1.26,5.53,5.53,0,0,1-.66-2.1,25.25,25.25,0,0,1-.16-3v-8.87Z"/><path class="cls-2" d="M273.19,434.83h1.88v1.89h.1a3.76,3.76,0,0,1,1.26-1.61,3.34,3.34,0,0,1,1.94-.55,3.44,3.44,0,0,1,3,1.54,9.5,9.5,0,0,1,0,8.8,3.42,3.42,0,0,1-3,1.54,3.27,3.27,0,0,1-1.94-.55,3.67,3.67,0,0,1-1.26-1.6h-.1v6.29h-1.88Zm4.41,9.88a2.52,2.52,0,0,0,2.07-.9,3.58,3.58,0,0,0,.74-2.36v-1.89a3.63,3.63,0,0,0-.74-2.37,2.54,2.54,0,0,0-2.07-.89,3.32,3.32,0,0,0-1,.14,2.62,2.62,0,0,0-.81.43,2.12,2.12,0,0,0-.56.7,2.18,2.18,0,0,0-.2.95v4a2.27,2.27,0,0,0,.2,1,1.9,1.9,0,0,0,.56.69,2.41,2.41,0,0,0,.81.42A3,3,0,0,0,277.6,444.71Z"/><path class="cls-2" d="M289.69,446.44a6.37,6.37,0,0,1-2.87-.59,5.53,5.53,0,0,1-2-1.61l1.2-1.16a5.19,5.19,0,0,0,1.59,1.28,4.53,4.53,0,0,0,2.11.46,3.59,3.59,0,0,0,1.87-.44,1.53,1.53,0,0,0,.71-1.39,1.38,1.38,0,0,0-.14-.67,1.16,1.16,0,0,0-.38-.44,1.68,1.68,0,0,0-.56-.25l-.65-.16-1.64-.26c-.39-.06-.8-.15-1.21-.25a4.14,4.14,0,0,1-1.15-.52,2.69,2.69,0,0,1-1.18-2.4,3.45,3.45,0,0,1,.31-1.51,3.13,3.13,0,0,1,.89-1.09,4.21,4.21,0,0,1,1.38-.66,6.81,6.81,0,0,1,1.75-.22,5.93,5.93,0,0,1,2.48.49,5.12,5.12,0,0,1,1.78,1.32l-1.15,1.23a3.55,3.55,0,0,0-.47-.5,3.8,3.8,0,0,0-.66-.45,4.86,4.86,0,0,0-.89-.33,5.1,5.1,0,0,0-1.17-.13,3,3,0,0,0-1.77.43,1.43,1.43,0,0,0-.62,1.24,1.54,1.54,0,0,0,.14.69,1.36,1.36,0,0,0,.39.44,1.86,1.86,0,0,0,.55.26,6.38,6.38,0,0,0,.66.15l1.64.27a9.75,9.75,0,0,1,1.21.26,4,4,0,0,1,1.14.52,2.75,2.75,0,0,1,.85.91,2.92,2.92,0,0,1,.33,1.48,3.2,3.2,0,0,1-1.2,2.66A5.18,5.18,0,0,1,289.69,446.44Z"/><path class="cls-2" d="M304.06,444.29H304a4,4,0,0,1-.42.82,3,3,0,0,1-.6.68,2.88,2.88,0,0,1-.84.48,3.55,3.55,0,0,1-1.14.17,3.26,3.26,0,0,1-2.59-1.12,4.67,4.67,0,0,1-1-3.19v-7.3h1.88v6.95c0,2,.77,2.93,2.32,2.93a3,3,0,0,0,.9-.13,2.18,2.18,0,0,0,.78-.38,2.07,2.07,0,0,0,.55-.66,1.82,1.82,0,0,0,.22-.92v-7.79h1.88v11.35h-1.88Z"/><path class="cls-2" d="M308.79,446.18V434.83h1.67v1.38h.11a3.42,3.42,0,0,1,.68-1.16,1.7,1.7,0,0,1,1.3-.49,1.77,1.77,0,0,1,1.34.5,2.24,2.24,0,0,1,.58,1.31h.08a3.44,3.44,0,0,1,.8-1.29,2,2,0,0,1,1.44-.52,1.73,1.73,0,0,1,1.7.95,6.44,6.44,0,0,1,.46,2.75v7.92h-1.67v-7.63a4.32,4.32,0,0,0-.28-1.84,1,1,0,0,0-.94-.52,1.24,1.24,0,0,0-1,.43,1.89,1.89,0,0,0-.38,1.27v8.29H313v-7.63a4.36,4.36,0,0,0-.27-1.84,1,1,0,0,0-.92-.52,1.24,1.24,0,0,0-1,.43,1.84,1.84,0,0,0-.39,1.27v8.29Z"/><path class="cls-2" d="M352.65,444.29h-.1a3.67,3.67,0,0,1-1.26,1.6,3.27,3.27,0,0,1-1.94.55,3.42,3.42,0,0,1-3-1.54,9.5,9.5,0,0,1,0-8.8,3.44,3.44,0,0,1,3-1.54,3.34,3.34,0,0,1,1.94.55,3.76,3.76,0,0,1,1.26,1.61h.1V429.9h1.88v16.28h-1.88Zm-2.53.42a3,3,0,0,0,1-.15,2.41,2.41,0,0,0,.81-.42,1.9,1.9,0,0,0,.56-.69,2.27,2.27,0,0,0,.2-1v-4a2.18,2.18,0,0,0-.2-.95,2.12,2.12,0,0,0-.56-.7,2.62,2.62,0,0,0-.81-.43,3.32,3.32,0,0,0-1-.14,2.54,2.54,0,0,0-2.07.89,3.63,3.63,0,0,0-.74,2.37v1.89a3.58,3.58,0,0,0,.74,2.36A2.52,2.52,0,0,0,350.12,444.71Z"/><path class="cls-2" d="M362.37,446.44a4.79,4.79,0,0,1-2-.41,4.31,4.31,0,0,1-1.52-1.19,5.42,5.42,0,0,1-1-1.87,8.63,8.63,0,0,1-.33-2.47,8.51,8.51,0,0,1,.33-2.46,5.34,5.34,0,0,1,1-1.87,4.31,4.31,0,0,1,1.52-1.19,4.65,4.65,0,0,1,2-.42,4.7,4.7,0,0,1,2,.42,4.34,4.34,0,0,1,1.53,1.19,5.69,5.69,0,0,1,1,1.87,8.51,8.51,0,0,1,.33,2.46,8.63,8.63,0,0,1-.33,2.47,5.79,5.79,0,0,1-1,1.87,4.34,4.34,0,0,1-1.53,1.19A4.85,4.85,0,0,1,362.37,446.44Zm0-1.69a2.63,2.63,0,0,0,2.06-.85,3.71,3.71,0,0,0,.77-2.56v-1.67a3.74,3.74,0,0,0-.77-2.57,2.95,2.95,0,0,0-4.12,0,3.74,3.74,0,0,0-.77,2.57v1.67a3.71,3.71,0,0,0,.77,2.56A2.63,2.63,0,0,0,362.37,444.75Z"/><path class="cls-2" d="M370,444.49h3.54v-12.9H370V429.9h5.42v14.59H379v1.69h-9Z"/><path class="cls-2" d="M386.62,446.44a4.86,4.86,0,0,1-2-.41,4.27,4.27,0,0,1-1.51-1.19,5.42,5.42,0,0,1-1-1.87,8.29,8.29,0,0,1-.34-2.47,8.17,8.17,0,0,1,.34-2.46,5.34,5.34,0,0,1,1-1.87A4.27,4.27,0,0,1,384.6,435a5.07,5.07,0,0,1,4,0,4.4,4.4,0,0,1,1.52,1.19,5.34,5.34,0,0,1,1,1.87,8.5,8.5,0,0,1,.34,2.46,8.62,8.62,0,0,1-.34,2.47,5.42,5.42,0,0,1-1,1.87,4.4,4.4,0,0,1-1.52,1.19A4.86,4.86,0,0,1,386.62,446.44Zm0-1.69a2.65,2.65,0,0,0,2.07-.85,3.71,3.71,0,0,0,.76-2.56v-1.67a3.74,3.74,0,0,0-.76-2.57,3,3,0,0,0-4.13,0,3.74,3.74,0,0,0-.77,2.57v1.67a3.71,3.71,0,0,0,.77,2.56A2.63,2.63,0,0,0,386.62,444.75Z"/><path class="cls-2" d="M394.22,444.49h2.93v-8h-2.93v-1.69H399v2.92h.13a4.15,4.15,0,0,1,1.2-2.15,3.24,3.24,0,0,1,2.27-.77H404v2h-2a2.82,2.82,0,0,0-2.16.85,3.06,3.06,0,0,0-.8,2.19v4.62h4v1.69h-8.76Z"/><path class="cls-2" d="M417.93,446.18V434.83h1.68v1.38h.1a3.28,3.28,0,0,1,.69-1.16,1.69,1.69,0,0,1,1.29-.49,1.8,1.8,0,0,1,1.35.5,2.23,2.23,0,0,1,.57,1.31h.08a3.58,3.58,0,0,1,.8-1.29,2,2,0,0,1,1.45-.52,1.73,1.73,0,0,1,1.7.95,6.44,6.44,0,0,1,.46,2.75v7.92h-1.68v-7.63a4.36,4.36,0,0,0-.27-1.84,1,1,0,0,0-.94-.52,1.24,1.24,0,0,0-1,.43,1.84,1.84,0,0,0-.38,1.27v8.29h-1.68v-7.63a4.36,4.36,0,0,0-.27-1.84,1,1,0,0,0-.92-.52,1.24,1.24,0,0,0-1,.43,1.84,1.84,0,0,0-.39,1.27v8.29Z"/><path class="cls-2" d="M435.34,446.44a5.2,5.2,0,0,1-2.09-.41,4.28,4.28,0,0,1-1.56-1.19,5.41,5.41,0,0,1-1-1.86,8.1,8.1,0,0,1-.35-2.45,7.92,7.92,0,0,1,.36-2.47,5.52,5.52,0,0,1,1-1.88,4.31,4.31,0,0,1,1.52-1.2,4.81,4.81,0,0,1,3.91,0,4.27,4.27,0,0,1,1.48,1.16,5.18,5.18,0,0,1,.95,1.77,7.28,7.28,0,0,1,.33,2.25V441h-7.6v.46a3.37,3.37,0,0,0,.81,2.33,2.88,2.88,0,0,0,2.25.91,3.18,3.18,0,0,0,1.78-.5,3.4,3.4,0,0,0,1.17-1.36l1.27,1.08a4.32,4.32,0,0,1-1.59,1.81A4.74,4.74,0,0,1,435.34,446.44Zm-.13-10.25a2.78,2.78,0,0,0-1.17.24,3.2,3.2,0,0,0-.92.67,3,3,0,0,0-.6,1,3.85,3.85,0,0,0-.22,1.3v.17h5.64v-.24a3.45,3.45,0,0,0-.74-2.3A2.49,2.49,0,0,0,435.21,436.19Z"/><path class="cls-2" d="M447.83,446.18a2.24,2.24,0,0,1-1.88-.76,3,3,0,0,1-.61-2v-6.93H442v-1.69h2.42a1.06,1.06,0,0,0,.78-.24,1.28,1.28,0,0,0,.23-.86v-2.91h1.78v4h4.63v1.69h-4.63v8h4.63v1.69Z"/><path class="cls-2" d="M475.42,446.18a1.68,1.68,0,0,1-1.37-.52,2.5,2.5,0,0,1-.53-1.35h-.1a3.16,3.16,0,0,1-1.12,1.56,3.34,3.34,0,0,1-2,.57,3.57,3.57,0,0,1-2.57-.91,3.32,3.32,0,0,1-1-2.52,3,3,0,0,1,1.09-2.48,5.49,5.49,0,0,1,3.43-.86h2.13v-1a2.48,2.48,0,0,0-.61-1.82,2.39,2.39,0,0,0-1.76-.6,3,3,0,0,0-1.69.43,3.16,3.16,0,0,0-1.06,1.19l-1.19-1a3.17,3.17,0,0,1,.57-.85,4.06,4.06,0,0,1,.86-.72,4.38,4.38,0,0,1,1.18-.51,5.57,5.57,0,0,1,1.47-.19,4.19,4.19,0,0,1,3,1,3.72,3.72,0,0,1,1.11,2.89v6h1.39v1.69Zm-4.71-1.34a3.08,3.08,0,0,0,1.92-.57,1.75,1.75,0,0,0,.75-1.43v-1.76h-2.11a3.66,3.66,0,0,0-2,.41,1.37,1.37,0,0,0-.63,1.21v.47a1.49,1.49,0,0,0,.54,1.25A2.41,2.41,0,0,0,470.71,444.84Z"/><path class="cls-2" d="M478.57,446.18V434.83h1.68v1.38h.1a3.28,3.28,0,0,1,.69-1.16,1.66,1.66,0,0,1,1.29-.49,1.76,1.76,0,0,1,1.34.5,2.24,2.24,0,0,1,.58,1.31h.08a3.58,3.58,0,0,1,.8-1.29,2,2,0,0,1,1.44-.52,1.72,1.72,0,0,1,1.7.95,6.42,6.42,0,0,1,.47,2.75v7.92h-1.68v-7.63a4.36,4.36,0,0,0-.27-1.84,1,1,0,0,0-.94-.52,1.23,1.23,0,0,0-1,.43,1.84,1.84,0,0,0-.39,1.27v8.29h-1.67v-7.63a4.32,4.32,0,0,0-.28-1.84,1,1,0,0,0-.92-.52,1.27,1.27,0,0,0-1,.43,1.89,1.89,0,0,0-.38,1.27v8.29Z"/><path class="cls-2" d="M496,446.44a5.18,5.18,0,0,1-2.08-.41,4.28,4.28,0,0,1-1.56-1.19,5.42,5.42,0,0,1-1-1.86,8.43,8.43,0,0,1-.34-2.45,7.92,7.92,0,0,1,.36-2.47,5.52,5.52,0,0,1,1-1.88,4.31,4.31,0,0,1,1.52-1.2,4.79,4.79,0,0,1,3.9,0,4.21,4.21,0,0,1,1.49,1.16,5.18,5.18,0,0,1,.95,1.77,7.28,7.28,0,0,1,.33,2.25V441h-7.6v.46a3.37,3.37,0,0,0,.81,2.33,2.87,2.87,0,0,0,2.24.91,3.15,3.15,0,0,0,1.78-.5,3.25,3.25,0,0,0,1.17-1.36l1.28,1.08a4.32,4.32,0,0,1-1.59,1.81A4.77,4.77,0,0,1,496,446.44Zm-.12-10.25a2.78,2.78,0,0,0-1.17.24,3.07,3.07,0,0,0-.92.67,3.2,3.2,0,0,0-.61,1,3.85,3.85,0,0,0-.21,1.3v.17h5.64v-.24a3.41,3.41,0,0,0-.75-2.3A2.49,2.49,0,0,0,495.85,436.19Z"/><path class="cls-2" d="M508.47,446.18a2.28,2.28,0,0,1-1.89-.76,3.07,3.07,0,0,1-.6-2v-6.93h-3.34v-1.69h2.43a1.07,1.07,0,0,0,.78-.24,1.28,1.28,0,0,0,.23-.86v-2.91h1.78v4h4.63v1.69h-4.63v8h4.63v1.69Z"/><path class="cls-2" d="M527.81,440.48v-2l8.69-5.39v2.07l-7,4.22v.18l7,4.24v2.09Z"/><path class="cls-2" d="M540,449.22l6.93-19.76h1.68l-6.94,19.76Z"/><path class="cls-2" d="M552.12,434.83H554v1.89h.1a3.76,3.76,0,0,1,1.26-1.61,3.34,3.34,0,0,1,1.94-.55,3.44,3.44,0,0,1,3,1.54,9.5,9.5,0,0,1,0,8.8,3.42,3.42,0,0,1-3,1.54,3.27,3.27,0,0,1-1.94-.55,3.67,3.67,0,0,1-1.26-1.6H554v6.29h-1.88Zm4.41,9.88a2.52,2.52,0,0,0,2.07-.9,3.58,3.58,0,0,0,.74-2.36v-1.89a3.63,3.63,0,0,0-.74-2.37,2.54,2.54,0,0,0-2.07-.89,3.32,3.32,0,0,0-1,.14,2.62,2.62,0,0,0-.81.43,2.12,2.12,0,0,0-.56.7,2.18,2.18,0,0,0-.2.95v4a2.27,2.27,0,0,0,.2,1,1.9,1.9,0,0,0,.56.69,2.41,2.41,0,0,0,.81.42A3,3,0,0,0,556.53,444.71Z"/><path class="cls-2" d="M564.19,443.8l6.95-4.22v-.18l-6.95-4.24v-2.09l8.69,5.39v2l-8.69,5.39Z"/><g class="cls-3"><rect class="cls-5" x="121.48" y="480.5" width="768" height="48"/><path class="cls-2" d="M889,481v47H122V481H889m1-1H121v49H890V480Z"/></g><path class="cls-2" d="M139.73,505.48v-2l8.69-5.39v2.07l-6.95,4.22v.18l6.95,4.24v2.09Z"/><path class="cls-2" d="M160.1,511.18a1.66,1.66,0,0,1-1.36-.52,2.51,2.51,0,0,1-.54-1.35h-.1a3.2,3.2,0,0,1-1.11,1.56,3.34,3.34,0,0,1-2,.57,3.58,3.58,0,0,1-2.58-.91,3.32,3.32,0,0,1-1-2.52,3,3,0,0,1,1.09-2.48,5.53,5.53,0,0,1,3.44-.86h2.12v-1a2.48,2.48,0,0,0-.6-1.82,2.41,2.41,0,0,0-1.76-.6,3,3,0,0,0-1.69.43,3.07,3.07,0,0,0-1.06,1.19l-1.19-1a3.37,3.37,0,0,1,.56-.85,3.88,3.88,0,0,1,.87-.72,4.45,4.45,0,0,1,1.17-.51,5.7,5.7,0,0,1,1.48-.19,4.19,4.19,0,0,1,3,1,3.72,3.72,0,0,1,1.1,2.89v6h1.4v1.69Zm-4.71-1.34a3,3,0,0,0,1.92-.57,1.75,1.75,0,0,0,.75-1.43v-1.76H156a3.64,3.64,0,0,0-2,.41,1.38,1.38,0,0,0-.64,1.21v.47a1.47,1.47,0,0,0,.55,1.25A2.38,2.38,0,0,0,155.39,509.84Z"/><path class="cls-2" d="M176.25,494.9h1.88v6.82h.08a4.45,4.45,0,0,1,.42-.81,3.13,3.13,0,0,1,.6-.7,2.86,2.86,0,0,1,.84-.47,3.58,3.58,0,0,1,3.73.95,4.65,4.65,0,0,1,1,3.19v7.3H182.9v-6.95c0-2-.77-2.93-2.32-2.93a3.37,3.37,0,0,0-.9.12,2.2,2.2,0,0,0-.78.39,1.87,1.87,0,0,0-.55.66,1.82,1.82,0,0,0-.22.92v7.79h-1.88Z"/><path class="cls-2" d="M188.06,509.49H191v-8h-2.93v-1.69h4.81v2.92H193a4.15,4.15,0,0,1,1.2-2.15,3.25,3.25,0,0,1,2.28-.77h1.37v2h-2a2.79,2.79,0,0,0-2.15.85,3,3,0,0,0-.8,2.19v4.62h3.94v1.69h-8.75Z"/><path class="cls-2" d="M204.92,511.44a5.2,5.2,0,0,1-2.09-.41,4.28,4.28,0,0,1-1.56-1.19,5.41,5.41,0,0,1-1-1.86,8.1,8.1,0,0,1-.35-2.45,7.92,7.92,0,0,1,.36-2.47,5.52,5.52,0,0,1,1-1.88,4.31,4.31,0,0,1,1.52-1.2,4.79,4.79,0,0,1,3.9,0,4.21,4.21,0,0,1,1.49,1.16,5.18,5.18,0,0,1,1,1.77,7.28,7.28,0,0,1,.33,2.25V506h-7.6v.46a3.37,3.37,0,0,0,.81,2.33,2.88,2.88,0,0,0,2.25.91,3.12,3.12,0,0,0,1.77-.5,3.34,3.34,0,0,0,1.18-1.36l1.27,1.08a4.32,4.32,0,0,1-1.59,1.81A4.74,4.74,0,0,1,204.92,511.44Zm-.13-10.25a2.78,2.78,0,0,0-1.17.24,3.07,3.07,0,0,0-.92.67,3,3,0,0,0-.6,1,3.62,3.62,0,0,0-.22,1.3v.17h5.64v-.24a3.41,3.41,0,0,0-.75-2.3A2.46,2.46,0,0,0,204.79,501.19Z"/><path class="cls-2" d="M212.41,509.49h3.42v-8h-3.62v-1.69h3.62v-2.2a3,3,0,0,1,.61-2,2.24,2.24,0,0,1,1.88-.76h3.49v1.69h-4.1v3.24h4.1v1.69h-4.1v8h3.64v1.69h-8.94Z"/><path class="cls-2" d="M224.16,503.06v-1.74h9.62v1.74Zm0,4.51v-1.74h9.62v1.74Z"/><path class="cls-2" d="M238.91,494.9h1.52l-1.09,6.29h-2.83Zm4.91,0h1.52l-1.09,6.29h-2.83Z"/><path class="cls-2" d="M258.58,512.46a2.8,2.8,0,0,1-1.33,2.56,7.76,7.76,0,0,1-4,.82,11.7,11.7,0,0,1-2.22-.18,4.54,4.54,0,0,1-1.48-.55,2.45,2.45,0,0,1-.83-.87,2.58,2.58,0,0,1-.26-1.17,2.09,2.09,0,0,1,.46-1.44,2.63,2.63,0,0,1,1.3-.76v-.24a1.86,1.86,0,0,1-.76-.61,1.64,1.64,0,0,1-.27-1,1.56,1.56,0,0,1,.53-1.31,3.4,3.4,0,0,1,1.35-.65V507a3.36,3.36,0,0,1-1.5-1.36,4.09,4.09,0,0,1-.52-2.12,4.52,4.52,0,0,1,.29-1.62,3.49,3.49,0,0,1,.84-1.24,3.88,3.88,0,0,1,1.3-.79,4.79,4.79,0,0,1,1.69-.29,4.41,4.41,0,0,1,2,.42v-.28a1.9,1.9,0,0,1,.32-1.12,1.16,1.16,0,0,1,1-.45h1.9v1.74H256v.66a3.27,3.27,0,0,1,1,1.27,4.43,4.43,0,0,1,0,3.33,3.44,3.44,0,0,1-.85,1.23,3.82,3.82,0,0,1-1.31.79,4.85,4.85,0,0,1-1.7.29l-.56,0a4.85,4.85,0,0,1-.55-.09,3.26,3.26,0,0,0-.44.15,1.72,1.72,0,0,0-.43.25,1.32,1.32,0,0,0-.32.35.85.85,0,0,0-.12.46.64.64,0,0,0,.46.68,3.93,3.93,0,0,0,1.19.16h2.31a4.35,4.35,0,0,1,3,.83A2.91,2.91,0,0,1,258.58,512.46Zm-1.76.11a1.27,1.27,0,0,0-.47-1,2.79,2.79,0,0,0-1.67-.38h-3.6a1.46,1.46,0,0,0-.93,1.41,1.62,1.62,0,0,0,.52,1.21,2.46,2.46,0,0,0,1.74.5H254a3.92,3.92,0,0,0,2.06-.44A1.4,1.4,0,0,0,256.82,512.57Zm-3.68-6.63a2.22,2.22,0,0,0,1.7-.58,2.19,2.19,0,0,0,.55-1.55v-.62a2,2,0,0,0-2.25-2.13,2.15,2.15,0,0,0-1.68.58,2.24,2.24,0,0,0-.52,1.55v.62a2.22,2.22,0,0,0,.52,1.55A2.15,2.15,0,0,0,253.14,505.94Z"/><path class="cls-2" d="M265.35,511.44a4.83,4.83,0,0,1-2-.41,4.4,4.4,0,0,1-1.52-1.19,5.79,5.79,0,0,1-1-1.87,8.63,8.63,0,0,1-.33-2.47,8.51,8.51,0,0,1,.33-2.46,5.69,5.69,0,0,1,1-1.87,4.4,4.4,0,0,1,1.52-1.19,5,5,0,0,1,4,0,4.34,4.34,0,0,1,1.53,1.19,5.51,5.51,0,0,1,1,1.87,8.51,8.51,0,0,1,.33,2.46,8.63,8.63,0,0,1-.33,2.47,5.6,5.6,0,0,1-1,1.87,4.34,4.34,0,0,1-1.53,1.19A4.85,4.85,0,0,1,265.35,511.44Zm0-1.69a2.63,2.63,0,0,0,2.06-.85,3.71,3.71,0,0,0,.77-2.56v-1.67a3.74,3.74,0,0,0-.77-2.57,2.95,2.95,0,0,0-4.12,0,3.74,3.74,0,0,0-.77,2.57v1.67a3.71,3.71,0,0,0,.77,2.56A2.63,2.63,0,0,0,265.35,509.75Z"/><path class="cls-2" d="M277.48,511.44a4.79,4.79,0,0,1-2-.41,4.31,4.31,0,0,1-1.52-1.19,5.42,5.42,0,0,1-1-1.87,8.63,8.63,0,0,1-.33-2.47A8.51,8.51,0,0,1,273,503a5.34,5.34,0,0,1,1-1.87,4.31,4.31,0,0,1,1.52-1.19,4.65,4.65,0,0,1,2-.42,4.7,4.7,0,0,1,2,.42,4.22,4.22,0,0,1,1.52,1.19,5.34,5.34,0,0,1,1,1.87,8.17,8.17,0,0,1,.34,2.46A8.29,8.29,0,0,1,282,508a5.42,5.42,0,0,1-1,1.87,4.22,4.22,0,0,1-1.52,1.19A4.85,4.85,0,0,1,277.48,511.44Zm0-1.69a2.63,2.63,0,0,0,2.06-.85,3.71,3.71,0,0,0,.77-2.56v-1.67a3.74,3.74,0,0,0-.77-2.57,2.95,2.95,0,0,0-4.12,0,3.69,3.69,0,0,0-.77,2.57v1.67a3.66,3.66,0,0,0,.77,2.56A2.61,2.61,0,0,0,277.48,509.75Z"/><path class="cls-2" d="M295,512.46a2.81,2.81,0,0,1-1.32,2.56,7.81,7.81,0,0,1-4,.82,11.74,11.74,0,0,1-2.23-.18,4.47,4.47,0,0,1-1.47-.55,2.29,2.29,0,0,1-.83-.87,2.46,2.46,0,0,1-.27-1.17,2.14,2.14,0,0,1,.46-1.44,2.68,2.68,0,0,1,1.3-.76v-.24a1.82,1.82,0,0,1-.75-.61,1.86,1.86,0,0,1,.25-2.28,3.4,3.4,0,0,1,1.35-.65V507a3.39,3.39,0,0,1-1.49-1.36,4.09,4.09,0,0,1-.53-2.12,4.52,4.52,0,0,1,.29-1.62,3.49,3.49,0,0,1,.84-1.24,3.92,3.92,0,0,1,1.31-.79,4.7,4.7,0,0,1,1.68-.29,4.48,4.48,0,0,1,2,.42v-.28a1.9,1.9,0,0,1,.31-1.12,1.16,1.16,0,0,1,1-.45h1.9v1.74h-2.39v.66a3.27,3.27,0,0,1,1,1.27,4.43,4.43,0,0,1,0,3.33,3.54,3.54,0,0,1-.84,1.23,4,4,0,0,1-1.32.79,4.85,4.85,0,0,1-1.7.29l-.56,0a4.85,4.85,0,0,1-.55-.09,3.81,3.81,0,0,0-.44.15,1.72,1.72,0,0,0-.43.25,1.32,1.32,0,0,0-.32.35.85.85,0,0,0-.12.46.64.64,0,0,0,.46.68,4,4,0,0,0,1.2.16h2.3a4.35,4.35,0,0,1,3,.83A2.91,2.91,0,0,1,295,512.46Zm-1.76.11a1.27,1.27,0,0,0-.47-1,2.77,2.77,0,0,0-1.67-.38h-3.6a1.46,1.46,0,0,0-.93,1.41,1.62,1.62,0,0,0,.52,1.21,2.47,2.47,0,0,0,1.75.5h1.61a4,4,0,0,0,2.07-.44A1.41,1.41,0,0,0,293.2,512.57Zm-3.68-6.63a2.22,2.22,0,0,0,1.7-.58,2.15,2.15,0,0,0,.55-1.55v-.62a2.16,2.16,0,0,0-.55-1.55,2.22,2.22,0,0,0-1.7-.58,2.14,2.14,0,0,0-1.67.58,2.24,2.24,0,0,0-.53,1.55v.62a2.22,2.22,0,0,0,.53,1.55A2.14,2.14,0,0,0,289.52,505.94Z"/><path class="cls-2" d="M297.25,509.49h3.53v-12.9h-3.53V494.9h5.41v14.59h3.56v1.69h-9Z"/><path class="cls-2" d="M314.06,511.44A5.15,5.15,0,0,1,312,511a4.4,4.4,0,0,1-1.57-1.19,5.58,5.58,0,0,1-1-1.86,8.11,8.11,0,0,1-.34-2.45,8.23,8.23,0,0,1,.35-2.47,5.89,5.89,0,0,1,1-1.88A4.44,4.44,0,0,1,312,500a4.79,4.79,0,0,1,3.9,0,4.21,4.21,0,0,1,1.49,1.16,5.35,5.35,0,0,1,.95,1.77,7.28,7.28,0,0,1,.33,2.25V506H311v.46a3.37,3.37,0,0,0,.81,2.33,2.87,2.87,0,0,0,2.24.91,3.15,3.15,0,0,0,1.78-.5,3.25,3.25,0,0,0,1.17-1.36l1.28,1.08a4.32,4.32,0,0,1-1.59,1.81A4.77,4.77,0,0,1,314.06,511.44Zm-.12-10.25a2.78,2.78,0,0,0-1.17.24,3.07,3.07,0,0,0-.92.67,3,3,0,0,0-.61,1,3.85,3.85,0,0,0-.21,1.3v.17h5.64v-.24a3.41,3.41,0,0,0-.75-2.3A2.49,2.49,0,0,0,313.94,501.19Z"/><path class="cls-2" d="M326,511.4a1.61,1.61,0,0,1-1.26-.42,1.49,1.49,0,0,1-.36-1v-.46a1.44,1.44,0,0,1,.36-1,1.64,1.64,0,0,1,1.26-.41,1.62,1.62,0,0,1,1.25.41,1.44,1.44,0,0,1,.36,1V510a1.49,1.49,0,0,1-.36,1A1.58,1.58,0,0,1,326,511.4Z"/><path class="cls-2" d="M338.5,511.44a4.94,4.94,0,0,1-2.05-.41,4.14,4.14,0,0,1-1.52-1.2A5.68,5.68,0,0,1,334,508a9.26,9.26,0,0,1,0-4.9,5.64,5.64,0,0,1,.95-1.88,4.14,4.14,0,0,1,1.52-1.2,4.72,4.72,0,0,1,2-.42,4.06,4.06,0,0,1,2.52.74,4.42,4.42,0,0,1,1.42,1.93l-1.48.88a2.66,2.66,0,0,0-.89-1.32,2.45,2.45,0,0,0-1.57-.49,2.53,2.53,0,0,0-2.09.91,3.54,3.54,0,0,0-.74,2.33v1.93a3.54,3.54,0,0,0,.74,2.33,2.6,2.6,0,0,0,2.13.91,2.63,2.63,0,0,0,1.66-.52,3.8,3.8,0,0,0,1.05-1.4l1.35,1a4.44,4.44,0,0,1-1.47,1.93A4.29,4.29,0,0,1,338.5,511.44Z"/><path class="cls-2" d="M350.24,511.44a4.83,4.83,0,0,1-2-.41,4.4,4.4,0,0,1-1.52-1.19,5.79,5.79,0,0,1-1-1.87,8.63,8.63,0,0,1-.33-2.47,8.51,8.51,0,0,1,.33-2.46,5.69,5.69,0,0,1,1-1.87,4.4,4.4,0,0,1,1.52-1.19,5,5,0,0,1,4,0,4.34,4.34,0,0,1,1.53,1.19,5.34,5.34,0,0,1,1,1.87,8.51,8.51,0,0,1,.33,2.46,8.63,8.63,0,0,1-.33,2.47,5.42,5.42,0,0,1-1,1.87,4.34,4.34,0,0,1-1.53,1.19A4.85,4.85,0,0,1,350.24,511.44Zm0-1.69a2.63,2.63,0,0,0,2.06-.85,3.66,3.66,0,0,0,.77-2.56v-1.67a3.69,3.69,0,0,0-.77-2.57,2.95,2.95,0,0,0-4.12,0,3.74,3.74,0,0,0-.77,2.57v1.67a3.71,3.71,0,0,0,.77,2.56A2.63,2.63,0,0,0,350.24,509.75Z"/><path class="cls-2" d="M357.3,511.18V499.83H359v1.38h.1a3.61,3.61,0,0,1,.69-1.16,1.7,1.7,0,0,1,1.3-.49,1.79,1.79,0,0,1,1.34.5,2.24,2.24,0,0,1,.58,1.31h.08a3.44,3.44,0,0,1,.8-1.29,2,2,0,0,1,1.44-.52,1.73,1.73,0,0,1,1.7.95,6.44,6.44,0,0,1,.46,2.75v7.92h-1.67v-7.63a4.32,4.32,0,0,0-.28-1.84,1,1,0,0,0-.94-.52,1.24,1.24,0,0,0-1,.43,1.89,1.89,0,0,0-.38,1.27v8.29h-1.68v-7.63a4.36,4.36,0,0,0-.27-1.84,1,1,0,0,0-.92-.52,1.24,1.24,0,0,0-1,.43,1.84,1.84,0,0,0-.39,1.27v8.29Z"/><path class="cls-2" d="M372.31,494.9h1.52l-1.09,6.29h-2.83Zm4.92,0h1.51l-1.09,6.29h-2.83Z"/><path class="cls-2" d="M382.28,508.8l7-4.22v-.18l-7-4.24v-2.09l8.69,5.39v2l-8.69,5.39Z"/><path class="cls-2" d="M406.59,511.18V495.82h8.76v1.81h-6.8v4.86h6.57v1.8h-6.57v5.09h6.8v1.8Z"/><path class="cls-2" d="M419.05,509.49h3.65v-8h-3.65v-1.69h5.53v9.66H428v1.69h-9Zm4.6-12a1.41,1.41,0,0,1-1.07-.34,1.24,1.24,0,0,1-.3-.85v-.42a1.29,1.29,0,0,1,.3-.86,1.37,1.37,0,0,1,1.07-.35,1.36,1.36,0,0,1,1.07.35,1.25,1.25,0,0,1,.31.86v.42a1.2,1.2,0,0,1-.31.85A1.4,1.4,0,0,1,423.65,497.52Z"/><path class="cls-2" d="M430.93,511.18V499.83h1.88v1.89h.08a5.13,5.13,0,0,1,.41-.81,3.17,3.17,0,0,1,.61-.7,2.86,2.86,0,0,1,.84-.47,3.23,3.23,0,0,1,1.13-.18,3.28,3.28,0,0,1,2.6,1.13,4.7,4.7,0,0,1,1,3.19v7.3h-1.88v-6.95c0-2-.78-2.93-2.32-2.93a3.37,3.37,0,0,0-.9.12,2.2,2.2,0,0,0-.78.39,1.9,1.9,0,0,0-.56.66,1.92,1.92,0,0,0-.21.92v7.79Z"/><path class="cls-2" d="M455.65,511.18V495.82h2v13.56h6.57v1.8Z"/><path class="cls-2" d="M467.55,509.49h3.66v-8h-3.66v-1.69h5.54v9.66h3.44v1.69h-9Zm4.61-12a1.41,1.41,0,0,1-1.07-.34,1.24,1.24,0,0,1-.3-.85v-.42a1.29,1.29,0,0,1,.3-.86,1.37,1.37,0,0,1,1.07-.35,1.36,1.36,0,0,1,1.07.35,1.25,1.25,0,0,1,.31.86v.42a1.2,1.2,0,0,1-.31.85A1.4,1.4,0,0,1,472.16,497.52Z"/><path class="cls-2" d="M479.44,511.18V499.83h1.88v1.89h.08a5.13,5.13,0,0,1,.41-.81,3.17,3.17,0,0,1,.61-.7,2.86,2.86,0,0,1,.84-.47,3.23,3.23,0,0,1,1.13-.18,3.28,3.28,0,0,1,2.6,1.13,4.7,4.7,0,0,1,1,3.19v7.3h-1.88v-6.95c0-2-.78-2.93-2.32-2.93a3.37,3.37,0,0,0-.9.12,2.2,2.2,0,0,0-.78.39,1.9,1.9,0,0,0-.56.66,1.92,1.92,0,0,0-.21.92v7.79Z"/><path class="cls-2" d="M491.67,494.9h1.88V505h.1l1.74-1.85,3.23-3.3h2.24l-4.26,4.44,4.77,6.91h-2.3l-3.86-5.72-1.66,1.65v4.07h-1.88Z"/><path class="cls-2" d="M515.68,505.48v-2l8.69-5.39v2.07l-7,4.22v.18l7,4.24v2.09Z"/><path class="cls-2" d="M527.85,514.22l6.93-19.76h1.68l-6.93,19.76Z"/><path class="cls-2" d="M548.18,511.18a1.66,1.66,0,0,1-1.36-.52,2.51,2.51,0,0,1-.54-1.35h-.1a3.2,3.2,0,0,1-1.11,1.56,3.34,3.34,0,0,1-2,.57,3.58,3.58,0,0,1-2.58-.91,3.32,3.32,0,0,1-1-2.52,3,3,0,0,1,1.09-2.48,5.51,5.51,0,0,1,3.44-.86h2.12v-1a2.44,2.44,0,0,0-.61-1.82,2.38,2.38,0,0,0-1.75-.6,3,3,0,0,0-1.69.43,3.07,3.07,0,0,0-1.06,1.19l-1.2-1a3.72,3.72,0,0,1,.57-.85,3.88,3.88,0,0,1,.87-.72,4.45,4.45,0,0,1,1.17-.51,5.7,5.7,0,0,1,1.48-.19,4.22,4.22,0,0,1,3,1,3.75,3.75,0,0,1,1.1,2.89v6h1.39v1.69Zm-4.71-1.34a3.08,3.08,0,0,0,1.92-.57,1.75,1.75,0,0,0,.75-1.43v-1.76H544a3.64,3.64,0,0,0-2,.41,1.36,1.36,0,0,0-.64,1.21v.47a1.47,1.47,0,0,0,.55,1.25A2.38,2.38,0,0,0,543.47,509.84Z"/><path class="cls-2" d="M552.06,508.8l7-4.22v-.18l-7-4.24v-2.09l8.69,5.39v2l-8.69,5.39Z"/><path class="cls-2" d="M69.39,182.48v-2l9.46-5.39v2.06l-7.57,4.23v.18l7.57,4.24v2.09Z"/><path class="cls-2" d="M82.63,191.21l7.55-19.75H92l-7.54,19.75Z"/><path class="cls-2" d="M95.94,171.9h2v6.82h.09a3.61,3.61,0,0,1,.45-.81,2.92,2.92,0,0,1,.66-.7,3,3,0,0,1,.91-.47,3.8,3.8,0,0,1,1.23-.18,3.73,3.73,0,0,1,2.83,1.13,4.44,4.44,0,0,1,1.07,3.19v7.3h-2v-7c0-1.95-.84-2.93-2.53-2.93a4,4,0,0,0-1,.12,2.45,2.45,0,0,0-.85.39,1.9,1.9,0,0,0-.6.66,1.72,1.72,0,0,0-.23.92v7.79h-2Z"/><path class="cls-2" d="M113.94,188.44a6.08,6.08,0,0,1-2.27-.41,4.7,4.7,0,0,1-1.7-1.19A5.34,5.34,0,0,1,108.9,185a7.55,7.55,0,0,1-.37-2.45,7.36,7.36,0,0,1,.38-2.47,5.68,5.68,0,0,1,1.08-1.88,4.63,4.63,0,0,1,1.66-1.2,5.62,5.62,0,0,1,4.24,0,4.6,4.6,0,0,1,1.62,1.15,5.32,5.32,0,0,1,1,1.78,6.72,6.72,0,0,1,.36,2.25V183h-8.27v.46a3.2,3.2,0,0,0,.88,2.33,3.25,3.25,0,0,0,2.44.91,3.62,3.62,0,0,0,1.93-.5,3.42,3.42,0,0,0,1.28-1.36l1.39,1.08a4.48,4.48,0,0,1-1.73,1.81A5.53,5.53,0,0,1,113.94,188.44Zm-.14-10.25a3.27,3.27,0,0,0-1.27.24,3.14,3.14,0,0,0-1,.67,2.85,2.85,0,0,0-.66,1,3.42,3.42,0,0,0-.23,1.3v.17h6.14v-.24a3.25,3.25,0,0,0-.82-2.3A2.81,2.81,0,0,0,113.8,178.19Z"/><path class="cls-2" d="M131.16,188.18a1.89,1.89,0,0,1-1.48-.52,2.4,2.4,0,0,1-.59-1.35H129a3.2,3.2,0,0,1-1.21,1.56,3.84,3.84,0,0,1-2.22.57,4.09,4.09,0,0,1-2.8-.91,3.17,3.17,0,0,1-1-2.52,2.88,2.88,0,0,1,1.19-2.48,6.39,6.39,0,0,1,3.74-.86h2.31v-1a2.34,2.34,0,0,0-.66-1.82,2.75,2.75,0,0,0-1.91-.6,3.61,3.61,0,0,0-1.84.42,3.34,3.34,0,0,0-1.16,1.2l-1.29-1a3.36,3.36,0,0,1,.61-.85,4.39,4.39,0,0,1,1-.72,4.88,4.88,0,0,1,1.27-.51,6.71,6.71,0,0,1,1.61-.19,4.84,4.84,0,0,1,3.27,1,3.58,3.58,0,0,1,1.2,2.89v6h1.51v1.69ZM126,186.84a3.58,3.58,0,0,0,2.09-.57,1.72,1.72,0,0,0,.81-1.44v-1.75h-2.29a4.24,4.24,0,0,0-2.14.41,1.35,1.35,0,0,0-.7,1.21v.47a1.43,1.43,0,0,0,.6,1.25A2.77,2.77,0,0,0,126,186.84Z"/><path class="cls-2" d="M142.73,186.29h-.11a3.72,3.72,0,0,1-1.36,1.6,4.2,4.2,0,0,1-5.33-1,8.79,8.79,0,0,1,0-8.8,3.83,3.83,0,0,1,3.22-1.54,3.9,3.9,0,0,1,2.11.55,3.81,3.81,0,0,1,1.36,1.61h.11V171.9h2.05v16.28h-2.05Zm-2.75.42a3.6,3.6,0,0,0,1.05-.15,2.65,2.65,0,0,0,.88-.42,1.81,1.81,0,0,0,.6-.69,2,2,0,0,0,.22-1v-4a2,2,0,0,0-.82-1.65,2.89,2.89,0,0,0-.88-.43,4,4,0,0,0-1.05-.14,2.89,2.89,0,0,0-2.25.89,3.39,3.39,0,0,0-.8,2.37v1.89a3.36,3.36,0,0,0,.8,2.36A2.86,2.86,0,0,0,140,186.71Z"/><path class="cls-2" d="M148.59,185.8l7.56-4.22v-.18l-7.56-4.24v-2.09l9.46,5.39v2l-9.46,5.39Z"/><path class="cls-2" d="M23.39,659.48v-2l9.46-5.39v2.06l-7.57,4.23v.18l7.57,4.24v2.09Z"/><path class="cls-2" d="M36.63,668.21l7.55-19.75H46l-7.54,19.75Z"/><path class="cls-2" d="M49.94,648.9H52v6.82h.09a3.61,3.61,0,0,1,.45-.81,2.92,2.92,0,0,1,.66-.7,3,3,0,0,1,.91-.47,3.8,3.8,0,0,1,1.23-.18,3.73,3.73,0,0,1,2.83,1.13,4.44,4.44,0,0,1,1.07,3.19v7.3h-2v-6.95c0-2-.84-2.93-2.53-2.93a4,4,0,0,0-1,.12,2.45,2.45,0,0,0-.85.39,1.9,1.9,0,0,0-.6.66,1.72,1.72,0,0,0-.23.92v7.79H49.94Z"/><path class="cls-2" d="M68.33,665.18a2.55,2.55,0,0,1-2-.76,2.9,2.9,0,0,1-.66-2v-6.93H62v-1.69h2.64a.93.93,0,0,0,1.1-1.1v-2.91h1.93v4h5v1.69h-5v8h5v1.69Z"/><path class="cls-2" d="M75.39,665.18V653.83h1.83v1.38h.11a3.41,3.41,0,0,1,.75-1.16,1.87,1.87,0,0,1,1.41-.49,2,2,0,0,1,1.46.5,2.19,2.19,0,0,1,.63,1.31h.08a3.5,3.5,0,0,1,.87-1.29,2.28,2.28,0,0,1,1.58-.52,1.89,1.89,0,0,1,1.84,1,5.93,5.93,0,0,1,.51,2.75v7.92H84.63v-7.64a4,4,0,0,0-.29-1.83,1.08,1.08,0,0,0-1-.52,1.4,1.4,0,0,0-1,.43,1.74,1.74,0,0,0-.42,1.26v8.3H80v-7.64a4,4,0,0,0-.29-1.83,1.05,1.05,0,0,0-1-.52,1.43,1.43,0,0,0-1.08.43,1.74,1.74,0,0,0-.42,1.26v8.3Z"/><path class="cls-2" d="M89.23,663.49h3.85v-12.9H89.23V648.9h5.9v14.59H99v1.69H89.23Z"/><path class="cls-2" d="M102.59,662.8l7.56-4.22v-.18l-7.56-4.24v-2.09l9.46,5.39v2l-9.46,5.39Z"/></g></g></svg>