<svg xmlns="http://www.w3.org/2000/svg" viewBox="0 0 421.02 21.38"><defs><style>.cls-1{fill:#f15a24;}</style></defs><g id="Ebene_2" data-name="Ebene 2"><g id="Ebene_1-2" data-name="Ebene 1"><path class="cls-1" d="M0,11V9L8.69,3.61V5.68L1.74,9.9v.18l7,4.24v2.09Z"/><path class="cls-1" d="M20.37,16.72A1.66,1.66,0,0,1,19,16.2a2.51,2.51,0,0,1-.54-1.35h-.1a3.2,3.2,0,0,1-1.11,1.56,3.34,3.34,0,0,1-2,.57,3.58,3.58,0,0,1-2.58-.91,3.32,3.32,0,0,1-1-2.52,3,3,0,0,1,1.09-2.48,5.59,5.59,0,0,1,3.44-.86h2.12v-1a2.5,2.5,0,0,0-.6-1.82A2.41,2.41,0,0,0,16,6.78a3,3,0,0,0-1.69.43A3.07,3.07,0,0,0,13.22,8.4L12,7.37a3.37,3.37,0,0,1,.56-.85,3.88,3.88,0,0,1,.87-.72,4.45,4.45,0,0,1,1.17-.51,5.7,5.7,0,0,1,1.48-.19,4.23,4.23,0,0,1,3,1A3.75,3.75,0,0,1,20.21,9v6h1.4v1.69Zm-4.7-1.34a3,3,0,0,0,1.91-.57,1.73,1.73,0,0,0,.75-1.43V11.62h-2.1a3.63,3.63,0,0,0-2,.42,1.34,1.34,0,0,0-.64,1.21v.46A1.47,1.47,0,0,0,14.17,15,2.39,2.39,0,0,0,15.67,15.38Z"/><path class="cls-1" d="M36.52.44H38.4V7.26h.08a4.45,4.45,0,0,1,.42-.81,2.69,2.69,0,0,1,1.44-1.17,3.58,3.58,0,0,1,3.73,1,4.65,4.65,0,0,1,1,3.19v7.3H43.17V9.77c0-1.95-.77-2.93-2.32-2.93A3.37,3.37,0,0,0,40,7a2.2,2.2,0,0,0-.78.39,2,2,0,0,0-.55.66,1.82,1.82,0,0,0-.22.92v7.79H36.52Z"/><path class="cls-1" d="M48.33,15h2.93v-8H48.33V5.37h4.81V8.29h.12a4.15,4.15,0,0,1,1.2-2.15,3.25,3.25,0,0,1,2.28-.77h1.37v2h-2a2.79,2.79,0,0,0-2.15.85,3,3,0,0,0-.8,2.19V15h3.94v1.69H48.33Z"/><path class="cls-1" d="M65.18,17a5.18,5.18,0,0,1-2.08-.41,4.28,4.28,0,0,1-1.56-1.19,5.32,5.32,0,0,1-1-1.86,8.1,8.1,0,0,1-.35-2.45,8,8,0,0,1,.36-2.47,5.52,5.52,0,0,1,1-1.88,4.31,4.31,0,0,1,1.52-1.2,4.79,4.79,0,0,1,3.9,0,4.21,4.21,0,0,1,1.49,1.16,5.37,5.37,0,0,1,1,1.77,7.28,7.28,0,0,1,.33,2.25v.86h-7.6V12A3.37,3.37,0,0,0,63,14.34a2.88,2.88,0,0,0,2.25.91,3.12,3.12,0,0,0,1.77-.5,3.34,3.34,0,0,0,1.18-1.36l1.27,1.08a4.26,4.26,0,0,1-1.59,1.81A4.75,4.75,0,0,1,65.18,17ZM65.06,6.73A2.78,2.78,0,0,0,63.89,7a2.94,2.94,0,0,0-.92.68,2.87,2.87,0,0,0-.6,1,3.62,3.62,0,0,0-.22,1.3v.17h5.64V9.9A3.41,3.41,0,0,0,67,7.6,2.46,2.46,0,0,0,65.06,6.73Z"/><path class="cls-1" d="M72.68,15H76.1v-8H72.48V5.37H76.1V3.17a3,3,0,0,1,.61-2A2.24,2.24,0,0,1,78.59.44h3.49V2.13H78V5.37h4.1V7.06H78v8h3.64v1.69H72.68Z"/><path class="cls-1" d="M84.43,8.6V6.86h9.62V8.6Zm0,4.51V11.38h9.62v1.73Z"/><path class="cls-1" d="M99.18.44h1.52L99.61,6.73H96.78Zm4.91,0h1.52l-1.09,6.29h-2.83Z"/><path class="cls-1" d="M118.85,18a2.79,2.79,0,0,1-1.33,2.56,7.76,7.76,0,0,1-4,.82,11.7,11.7,0,0,1-2.22-.18,4.54,4.54,0,0,1-1.48-.55,2.37,2.37,0,0,1-.83-.87,2.58,2.58,0,0,1-.26-1.17,2.09,2.09,0,0,1,.46-1.44,2.63,2.63,0,0,1,1.3-.76v-.24a1.92,1.92,0,0,1-.76-.6,1.69,1.69,0,0,1-.27-1,1.56,1.56,0,0,1,.53-1.31,3.54,3.54,0,0,1,1.35-.65v-.11a3.4,3.4,0,0,1-1.5-1.35A4.15,4.15,0,0,1,109.29,9a4.43,4.43,0,0,1,.29-1.61,3.44,3.44,0,0,1,.84-1.25,4,4,0,0,1,1.3-.79,4.79,4.79,0,0,1,1.69-.29,4.41,4.41,0,0,1,2,.42V5.24a1.9,1.9,0,0,1,.32-1.12,1.15,1.15,0,0,1,1-.45h1.9V5.41h-2.39v.66a3.27,3.27,0,0,1,1,1.27,4.43,4.43,0,0,1,0,3.33,3.35,3.35,0,0,1-.85,1.23,3.82,3.82,0,0,1-1.31.79,4.63,4.63,0,0,1-1.7.29l-.56,0a3.32,3.32,0,0,1-.55-.09l-.44.15a1.72,1.72,0,0,0-.43.25,1.32,1.32,0,0,0-.32.35.85.85,0,0,0-.12.46.64.64,0,0,0,.46.68,3.64,3.64,0,0,0,1.19.16H115a4.4,4.4,0,0,1,3,.83A2.91,2.91,0,0,1,118.85,18Zm-1.76.11a1.23,1.23,0,0,0-.47-1,2.71,2.71,0,0,0-1.67-.39h-3.6a1.46,1.46,0,0,0-.93,1.41,1.62,1.62,0,0,0,.52,1.21,2.41,2.41,0,0,0,1.74.5h1.62a3.92,3.92,0,0,0,2.06-.44A1.4,1.4,0,0,0,117.09,18.11Zm-3.68-6.63a2.22,2.22,0,0,0,1.7-.58,2.19,2.19,0,0,0,.55-1.55V8.73a2.21,2.21,0,0,0-.55-1.55,2.22,2.22,0,0,0-1.7-.58,2.15,2.15,0,0,0-1.68.58,2.24,2.24,0,0,0-.52,1.55v.62a2.22,2.22,0,0,0,.52,1.55A2.15,2.15,0,0,0,113.41,11.48Z"/><path class="cls-1" d="M125.62,17a4.83,4.83,0,0,1-2-.41,4.31,4.31,0,0,1-1.52-1.19,5.51,5.51,0,0,1-1-1.87,8.59,8.59,0,0,1-.33-2.47,8.56,8.56,0,0,1,.33-2.46,5.51,5.51,0,0,1,1-1.87,4.31,4.31,0,0,1,1.52-1.19,5,5,0,0,1,4,0,4.34,4.34,0,0,1,1.53,1.19,5.34,5.34,0,0,1,1,1.87,8.56,8.56,0,0,1,.33,2.46,8.59,8.59,0,0,1-.33,2.47,5.34,5.34,0,0,1-1,1.87,4.34,4.34,0,0,1-1.53,1.19A4.85,4.85,0,0,1,125.62,17Zm0-1.69a2.63,2.63,0,0,0,2.06-.85,3.71,3.71,0,0,0,.77-2.56V10.21a3.7,3.7,0,0,0-.77-2.56,2.92,2.92,0,0,0-4.12,0,3.7,3.7,0,0,0-.77,2.56v1.67a3.71,3.71,0,0,0,.77,2.56A2.63,2.63,0,0,0,125.62,15.29Z"/><path class="cls-1" d="M137.75,17a4.79,4.79,0,0,1-2-.41,4.31,4.31,0,0,1-1.52-1.19,5.34,5.34,0,0,1-1-1.87,8.59,8.59,0,0,1-.33-2.47,8.56,8.56,0,0,1,.33-2.46,5.34,5.34,0,0,1,1-1.87,4.31,4.31,0,0,1,1.52-1.19,4.65,4.65,0,0,1,2-.42,4.7,4.7,0,0,1,2,.42,4.22,4.22,0,0,1,1.52,1.19,5.52,5.52,0,0,1,1,1.87,8.56,8.56,0,0,1,.33,2.46,8.59,8.59,0,0,1-.33,2.47,5.52,5.52,0,0,1-1,1.87,4.22,4.22,0,0,1-1.52,1.19A4.85,4.85,0,0,1,137.75,17Zm0-1.69a2.63,2.63,0,0,0,2.06-.85,3.71,3.71,0,0,0,.77-2.56V10.21a3.7,3.7,0,0,0-.77-2.56,2.92,2.92,0,0,0-4.12,0,3.65,3.65,0,0,0-.77,2.56v1.67a3.66,3.66,0,0,0,.77,2.56A2.61,2.61,0,0,0,137.75,15.29Z"/><path class="cls-1" d="M155.23,18a2.8,2.8,0,0,1-1.32,2.56,7.81,7.81,0,0,1-4,.82,11.74,11.74,0,0,1-2.23-.18,4.39,4.39,0,0,1-1.47-.55,2.22,2.22,0,0,1-.83-.87,2.46,2.46,0,0,1-.27-1.17,2.14,2.14,0,0,1,.46-1.44,2.68,2.68,0,0,1,1.3-.76v-.24a2,2,0,0,1-.76-.6,1.69,1.69,0,0,1-.27-1,1.58,1.58,0,0,1,.53-1.31,3.54,3.54,0,0,1,1.35-.65v-.11a3.37,3.37,0,0,1-1.49-1.35A4.15,4.15,0,0,1,145.67,9,4.43,4.43,0,0,1,146,7.43a3.44,3.44,0,0,1,.84-1.25,4.09,4.09,0,0,1,1.31-.79,4.7,4.7,0,0,1,1.68-.29,4.48,4.48,0,0,1,2,.42V5.24a1.9,1.9,0,0,1,.31-1.12,1.16,1.16,0,0,1,1-.45h1.9V5.41h-2.39v.66a3.27,3.27,0,0,1,1,1.27A4,4,0,0,1,154,9a4.23,4.23,0,0,1-.3,1.63,3.61,3.61,0,0,1-.85,1.23,4,4,0,0,1-1.32.79,4.63,4.63,0,0,1-1.7.29l-.56,0a3.32,3.32,0,0,1-.55-.09l-.44.15a1.72,1.72,0,0,0-.43.25,1.32,1.32,0,0,0-.32.35.85.85,0,0,0-.12.46.64.64,0,0,0,.46.68,3.67,3.67,0,0,0,1.2.16h2.3a4.4,4.4,0,0,1,3,.83A2.91,2.91,0,0,1,155.23,18Zm-1.76.11a1.23,1.23,0,0,0-.47-1,2.71,2.71,0,0,0-1.67-.39h-3.6a1.46,1.46,0,0,0-.93,1.41,1.62,1.62,0,0,0,.52,1.21,2.43,2.43,0,0,0,1.75.5h1.61a4,4,0,0,0,2.07-.44A1.41,1.41,0,0,0,153.47,18.11Zm-3.68-6.63a2.22,2.22,0,0,0,1.7-.58A2.15,2.15,0,0,0,152,9.35V8.73a2.16,2.16,0,0,0-.55-1.55,2.22,2.22,0,0,0-1.7-.58,2.14,2.14,0,0,0-1.67.58,2.24,2.24,0,0,0-.53,1.55v.62a2.22,2.22,0,0,0,.53,1.55A2.14,2.14,0,0,0,149.79,11.48Z"/><path class="cls-1" d="M157.51,15h3.54V2.13h-3.54V.44h5.42V15h3.56v1.69h-9Z"/><path class="cls-1" d="M174.33,17a5.15,5.15,0,0,1-2.08-.41,4.4,4.4,0,0,1-1.57-1.19,5.49,5.49,0,0,1-1-1.86,8.11,8.11,0,0,1-.34-2.45,8.28,8.28,0,0,1,.35-2.47,5.89,5.89,0,0,1,1-1.88,4.44,4.44,0,0,1,1.53-1.2,4.79,4.79,0,0,1,3.9,0,4.21,4.21,0,0,1,1.49,1.16,5.56,5.56,0,0,1,.95,1.77,7.28,7.28,0,0,1,.33,2.25v.86h-7.6V12a3.37,3.37,0,0,0,.81,2.33,2.87,2.87,0,0,0,2.24.91,3.15,3.15,0,0,0,1.78-.5,3.25,3.25,0,0,0,1.17-1.36l1.28,1.08A4.26,4.26,0,0,1,177,16.28,4.77,4.77,0,0,1,174.33,17Zm-.12-10.25A2.78,2.78,0,0,0,173,7a2.94,2.94,0,0,0-.92.68,2.89,2.89,0,0,0-.61,1,3.85,3.85,0,0,0-.21,1.3v.17h5.64V9.9a3.41,3.41,0,0,0-.75-2.3A2.49,2.49,0,0,0,174.21,6.73Z"/><path class="cls-1" d="M186.26,16.94a1.61,1.61,0,0,1-1.26-.42,1.49,1.49,0,0,1-.36-1v-.46a1.44,1.44,0,0,1,.36-1,1.64,1.64,0,0,1,1.26-.41,1.62,1.62,0,0,1,1.25.41,1.44,1.44,0,0,1,.36,1v.46a1.49,1.49,0,0,1-.36,1A1.58,1.58,0,0,1,186.26,16.94Z"/><path class="cls-1" d="M198.77,17a4.94,4.94,0,0,1-2.05-.41,4.14,4.14,0,0,1-1.52-1.2,5.68,5.68,0,0,1-.95-1.87,8.51,8.51,0,0,1-.33-2.46,8.52,8.52,0,0,1,.33-2.44,5.64,5.64,0,0,1,.95-1.88,4.14,4.14,0,0,1,1.52-1.2,4.72,4.72,0,0,1,2-.42,4,4,0,0,1,2.51.74,4.29,4.29,0,0,1,1.43,1.93l-1.48.88a2.66,2.66,0,0,0-.89-1.32,2.45,2.45,0,0,0-1.57-.49,2.56,2.56,0,0,0-2.09.91,3.59,3.59,0,0,0-.74,2.33V12a3.59,3.59,0,0,0,.74,2.33,2.6,2.6,0,0,0,2.13.91,2.63,2.63,0,0,0,1.66-.52,3.72,3.72,0,0,0,1.05-1.4l1.35,1a4.44,4.44,0,0,1-1.47,1.93A4.29,4.29,0,0,1,198.77,17Z"/><path class="cls-1" d="M210.51,17a4.83,4.83,0,0,1-2-.41A4.4,4.4,0,0,1,207,15.38a5.69,5.69,0,0,1-1-1.87,8.59,8.59,0,0,1-.33-2.47A8.56,8.56,0,0,1,206,8.58a5.69,5.69,0,0,1,1-1.87,4.4,4.4,0,0,1,1.52-1.19,5,5,0,0,1,4,0,4.34,4.34,0,0,1,1.53,1.19,5.34,5.34,0,0,1,1,1.87,8.56,8.56,0,0,1,.33,2.46,8.59,8.59,0,0,1-.33,2.47,5.34,5.34,0,0,1-1,1.87,4.34,4.34,0,0,1-1.53,1.19A4.85,4.85,0,0,1,210.51,17Zm0-1.69a2.63,2.63,0,0,0,2.06-.85,3.71,3.71,0,0,0,.77-2.56V10.21a3.7,3.7,0,0,0-.77-2.56,2.92,2.92,0,0,0-4.12,0,3.7,3.7,0,0,0-.77,2.56v1.67a3.71,3.71,0,0,0,.77,2.56A2.63,2.63,0,0,0,210.51,15.29Z"/><path class="cls-1" d="M217.57,16.72V5.37h1.67V6.75h.1A3.61,3.61,0,0,1,220,5.59a1.7,1.7,0,0,1,1.3-.49,1.77,1.77,0,0,1,1.34.5,2.24,2.24,0,0,1,.58,1.31h.08a3.51,3.51,0,0,1,.79-1.29,2,2,0,0,1,1.45-.52,1.73,1.73,0,0,1,1.7,1,6.44,6.44,0,0,1,.46,2.75v7.92h-1.67V9.09a4.32,4.32,0,0,0-.28-1.84,1,1,0,0,0-.94-.52,1.27,1.27,0,0,0-1,.43,1.89,1.89,0,0,0-.38,1.27v8.29h-1.68V9.09a4.36,4.36,0,0,0-.27-1.84,1,1,0,0,0-.92-.52,1.27,1.27,0,0,0-1,.43,1.84,1.84,0,0,0-.39,1.27v8.29Z"/><path class="cls-1" d="M232.58.44h1.52L233,6.73h-2.83Zm4.92,0H239l-1.09,6.29h-2.83Z"/><path class="cls-1" d="M242.55,14.34l6.95-4.22V9.94L242.55,5.7V3.61L251.24,9v2l-8.69,5.39Z"/><path class="cls-1" d="M266.86,16.72V1.36h8.76V3.17h-6.79V8h6.56v1.8h-6.56v5.09h6.79v1.8Z"/><path class="cls-1" d="M279.32,15H283v-8h-3.65V5.37h5.53V15h3.44v1.69h-9Zm4.6-12a1.37,1.37,0,0,1-1.07-.34,1.24,1.24,0,0,1-.3-.85V1.45a1.31,1.31,0,0,1,.3-.86,1.37,1.37,0,0,1,1.07-.35A1.4,1.4,0,0,1,285,.59a1.31,1.31,0,0,1,.3.86v.42a1.24,1.24,0,0,1-.3.85A1.4,1.4,0,0,1,283.92,3.06Z"/><path class="cls-1" d="M291.2,16.72V5.37h1.88V7.26h.08a4.45,4.45,0,0,1,.42-.81,2.89,2.89,0,0,1,.6-.7,3.1,3.1,0,0,1,.84-.47,3.23,3.23,0,0,1,1.13-.18,3.28,3.28,0,0,1,2.6,1.13,4.7,4.7,0,0,1,1,3.19v7.3h-1.88V9.77c0-1.95-.77-2.93-2.32-2.93a3.37,3.37,0,0,0-.9.12,2.2,2.2,0,0,0-.78.39,2,2,0,0,0-.56.66,1.92,1.92,0,0,0-.21.92v7.79Z"/><path class="cls-1" d="M315.92,16.72V1.36h2V14.92h6.57v1.8Z"/><path class="cls-1" d="M327.83,15h3.65v-8h-3.65V5.37h5.53V15h3.44v1.69h-9Zm4.6-12a1.37,1.37,0,0,1-1.07-.34,1.24,1.24,0,0,1-.3-.85V1.45a1.31,1.31,0,0,1,.3-.86,1.37,1.37,0,0,1,1.07-.35,1.36,1.36,0,0,1,1.07.35,1.26,1.26,0,0,1,.31.86v.42a1.2,1.2,0,0,1-.31.85A1.36,1.36,0,0,1,332.43,3.06Z"/><path class="cls-1" d="M339.71,16.72V5.37h1.88V7.26h.08a5.13,5.13,0,0,1,.41-.81,3.17,3.17,0,0,1,.61-.7,3.1,3.1,0,0,1,.84-.47,3.23,3.23,0,0,1,1.13-.18,3.28,3.28,0,0,1,2.6,1.13,4.7,4.7,0,0,1,1,3.19v7.3h-1.88V9.77c0-1.95-.78-2.93-2.32-2.93a3.32,3.32,0,0,0-.9.12,2.2,2.2,0,0,0-.78.39,2,2,0,0,0-.56.66,1.92,1.92,0,0,0-.21.92v7.79Z"/><path class="cls-1" d="M351.94.44h1.88V10.52h.1l1.74-1.85,3.23-3.3h2.24l-4.26,4.44,4.77,6.91h-2.3L355.48,11l-1.66,1.65v4.07h-1.88Z"/><path class="cls-1" d="M376,11V9l8.69-5.39V5.68L377.69,9.9v.18l6.95,4.24v2.09Z"/><path class="cls-1" d="M388.12,19.76,395.05,0h1.68L389.8,19.76Z"/><path class="cls-1" d="M408.45,16.72a1.66,1.66,0,0,1-1.36-.52,2.51,2.51,0,0,1-.54-1.35h-.1a3.2,3.2,0,0,1-1.11,1.56,3.34,3.34,0,0,1-2,.57,3.58,3.58,0,0,1-2.58-.91,3.32,3.32,0,0,1-1-2.52,3,3,0,0,1,1.09-2.48,5.57,5.57,0,0,1,3.44-.86h2.12v-1a2.46,2.46,0,0,0-.61-1.82,2.39,2.39,0,0,0-1.76-.6,3,3,0,0,0-1.68.43A3.07,3.07,0,0,0,401.3,8.4l-1.2-1a3.72,3.72,0,0,1,.57-.85,3.88,3.88,0,0,1,.87-.72,4.45,4.45,0,0,1,1.17-.51,5.7,5.7,0,0,1,1.48-.19,4.27,4.27,0,0,1,3,1A3.75,3.75,0,0,1,408.29,9v6h1.39v1.69Zm-4.71-1.34a3.08,3.08,0,0,0,1.92-.57,1.73,1.73,0,0,0,.75-1.43V11.62h-2.1a3.63,3.63,0,0,0-2,.42,1.34,1.34,0,0,0-.64,1.21v.46a1.47,1.47,0,0,0,.55,1.25A2.38,2.38,0,0,0,403.74,15.38Z"/><path class="cls-1" d="M412.33,14.34l6.95-4.22V9.94L412.33,5.7V3.61L421,9v2l-8.69,5.39Z"/></g></g></svg>