<svg xmlns="http://www.w3.org/2000/svg" viewBox="0 0 433.15 21.12"><defs><style>.cls-1{fill:#f15a24;}</style></defs><g id="Ebene_2" data-name="Ebene 2"><g id="Ebene_1-2" data-name="Ebene 1"><path class="cls-1" d="M0,11V9L8.69,3.61V5.68L1.74,9.9v.18l7,4.24v2.09Z"/><path class="cls-1" d="M12.19,5.37h1.88V7.26h.1a3.82,3.82,0,0,1,1.25-1.61,3.36,3.36,0,0,1,1.94-.55,3.43,3.43,0,0,1,3,1.54A7.62,7.62,0,0,1,21.41,11a7.58,7.58,0,0,1-1.09,4.4,3.41,3.41,0,0,1-3,1.54,3.29,3.29,0,0,1-1.94-.55,3.73,3.73,0,0,1-1.25-1.6h-.1v6.29H12.19Zm4.4,9.88a2.58,2.58,0,0,0,2.08-.89A3.63,3.63,0,0,0,19.4,12V10.1a3.63,3.63,0,0,0-.73-2.37,2.58,2.58,0,0,0-2.08-.89,3.11,3.11,0,0,0-1,.15,2.14,2.14,0,0,0-.8.43,2,2,0,0,0-.56.69,2,2,0,0,0-.2,1v4a2.13,2.13,0,0,0,.2,1,1.91,1.91,0,0,0,.56.7,2.42,2.42,0,0,0,.8.41A3.11,3.11,0,0,0,16.59,15.25Z"/><path class="cls-1" d="M24.25,14.34l7-4.22V9.94l-7-4.24V3.61L33,9v2l-8.7,5.39Z"/><path class="cls-1" d="M49.12,16.72V1.36h2V14.92h6.57v1.8Z"/><path class="cls-1" d="M65,17a4.83,4.83,0,0,1-2-.41,4.27,4.27,0,0,1-1.51-1.19,5.34,5.34,0,0,1-1-1.87A8.24,8.24,0,0,1,60.15,11a8.22,8.22,0,0,1,.34-2.46,5.34,5.34,0,0,1,1-1.87A4.27,4.27,0,0,1,63,5.52a5,5,0,0,1,4,0,4.34,4.34,0,0,1,1.53,1.19,5.34,5.34,0,0,1,1,1.87A8.56,8.56,0,0,1,69.81,11a8.59,8.59,0,0,1-.33,2.47,5.34,5.34,0,0,1-1,1.87A4.34,4.34,0,0,1,67,16.57,4.85,4.85,0,0,1,65,17Zm0-1.69A2.63,2.63,0,0,0,67,14.44a3.66,3.66,0,0,0,.77-2.56V10.21A3.65,3.65,0,0,0,67,7.65a2.92,2.92,0,0,0-4.12,0,3.7,3.7,0,0,0-.77,2.56v1.67a3.71,3.71,0,0,0,.77,2.56A2.63,2.63,0,0,0,65,15.29Z"/><path class="cls-1" d="M72.58,15h2.93v-8H72.58V5.37h4.81V8.29h.12a4.09,4.09,0,0,1,1.21-2.15A3.24,3.24,0,0,1,81,5.37h1.38v2h-2a2.79,2.79,0,0,0-2.15.85,3.06,3.06,0,0,0-.8,2.19V15h3.94v1.69H72.58Z"/><path class="cls-1" d="M89.44,17a5.15,5.15,0,0,1-2.08-.41,4.4,4.4,0,0,1-1.57-1.19,5.49,5.49,0,0,1-1-1.86,8.11,8.11,0,0,1-.34-2.45,8,8,0,0,1,.35-2.47,5.89,5.89,0,0,1,1-1.88,4.44,4.44,0,0,1,1.53-1.2,4.5,4.5,0,0,1,2-.42,4.55,4.55,0,0,1,1.94.41,4.18,4.18,0,0,1,1.48,1.16,5.19,5.19,0,0,1,1,1.77A7,7,0,0,1,94,10.69v.86h-7.6V12a3.37,3.37,0,0,0,.81,2.33,2.84,2.84,0,0,0,2.24.91,3.15,3.15,0,0,0,1.78-.5,3.25,3.25,0,0,0,1.17-1.36l1.27,1.08a4.17,4.17,0,0,1-1.58,1.81A4.77,4.77,0,0,1,89.44,17ZM89.32,6.73A2.78,2.78,0,0,0,88.15,7a2.94,2.94,0,0,0-.92.68,2.75,2.75,0,0,0-.61,1,3.85,3.85,0,0,0-.21,1.3v.17h5.64V9.9a3.41,3.41,0,0,0-.75-2.3A2.49,2.49,0,0,0,89.32,6.73Z"/><path class="cls-1" d="M96.29,16.72V5.37H98V6.75h.1a3.28,3.28,0,0,1,.69-1.16,1.67,1.67,0,0,1,1.29-.49,1.8,1.8,0,0,1,1.35.5A2.29,2.29,0,0,1,102,6.91h.08a3.66,3.66,0,0,1,.8-1.29,2,2,0,0,1,1.45-.52,1.71,1.71,0,0,1,1.69,1,6.42,6.42,0,0,1,.47,2.75v7.92h-1.68V9.09a4.36,4.36,0,0,0-.27-1.84,1,1,0,0,0-.94-.52,1.26,1.26,0,0,0-1,.43,1.84,1.84,0,0,0-.39,1.27v8.29h-1.67V9.09a4.17,4.17,0,0,0-.28-1.84,1,1,0,0,0-.92-.52,1.3,1.3,0,0,0-1,.43A1.89,1.89,0,0,0,98,8.43v8.29Z"/><path class="cls-1" d="M123,1.36v9.31c0,.71,0,1.34,0,1.89a4.32,4.32,0,0,0,.31,1.42,1.75,1.75,0,0,0,.78.89,2.79,2.79,0,0,0,1.45.31,2.88,2.88,0,0,0,1.46-.31,1.87,1.87,0,0,0,.77-.89,4.32,4.32,0,0,0,.31-1.42c0-.55.05-1.18.05-1.89V1.36h2v8.87a25.25,25.25,0,0,1-.16,3,5.53,5.53,0,0,1-.66,2.1A3.17,3.17,0,0,1,128,16.56a6.73,6.73,0,0,1-4.68,0,3.17,3.17,0,0,1-1.39-1.27,5.53,5.53,0,0,1-.66-2.1,25.25,25.25,0,0,1-.16-3V1.36Z"/><path class="cls-1" d="M133.46,5.37h1.88V7.26h.1a3.76,3.76,0,0,1,1.26-1.61,3.34,3.34,0,0,1,1.94-.55,3.44,3.44,0,0,1,3,1.54,7.63,7.63,0,0,1,1.08,4.4,7.58,7.58,0,0,1-1.08,4.4,3.42,3.42,0,0,1-3,1.54,3.27,3.27,0,0,1-1.94-.55,3.67,3.67,0,0,1-1.26-1.6h-.1v6.29h-1.88Zm4.41,9.88a2.54,2.54,0,0,0,2.07-.89,3.63,3.63,0,0,0,.74-2.37V10.1a3.63,3.63,0,0,0-.74-2.37,2.54,2.54,0,0,0-2.07-.89,3,3,0,0,0-1,.15,2.18,2.18,0,0,0-.81.43,2.08,2.08,0,0,0-.56.69,2.18,2.18,0,0,0-.2,1v4a2.27,2.27,0,0,0,.2,1,2,2,0,0,0,.56.7,2.48,2.48,0,0,0,.81.41A3,3,0,0,0,137.87,15.25Z"/><path class="cls-1" d="M150,17a6.44,6.44,0,0,1-2.88-.59,5.56,5.56,0,0,1-2-1.6l1.2-1.17a5.08,5.08,0,0,0,1.59,1.29,4.65,4.65,0,0,0,2.11.45,3.59,3.59,0,0,0,1.87-.44,1.53,1.53,0,0,0,.71-1.39,1.38,1.38,0,0,0-.14-.67,1.16,1.16,0,0,0-.38-.44,1.91,1.91,0,0,0-.56-.25l-.66-.16-1.63-.26A11.33,11.33,0,0,1,148,11.5a3.87,3.87,0,0,1-1.15-.52,2.93,2.93,0,0,1-.85-.93,2.91,2.91,0,0,1-.33-1.47A3.45,3.45,0,0,1,146,7.07,3.13,3.13,0,0,1,146.87,6a4.21,4.21,0,0,1,1.38-.66A6.81,6.81,0,0,1,150,5.1a5.93,5.93,0,0,1,2.48.49,5.12,5.12,0,0,1,1.78,1.32l-1.15,1.23a3,3,0,0,0-.47-.49,3.35,3.35,0,0,0-.66-.46,4.86,4.86,0,0,0-.89-.33,5.1,5.1,0,0,0-1.17-.13,3.12,3.12,0,0,0-1.77.43,1.43,1.43,0,0,0-.62,1.24,1.54,1.54,0,0,0,.14.69,1.36,1.36,0,0,0,.39.44,1.86,1.86,0,0,0,.55.26,6.38,6.38,0,0,0,.66.15l1.64.27a12,12,0,0,1,1.21.26,4,4,0,0,1,1.14.52,2.75,2.75,0,0,1,.85.91,3,3,0,0,1,.33,1.48,3.2,3.2,0,0,1-1.2,2.66A5.18,5.18,0,0,1,150,17Z"/><path class="cls-1" d="M164.33,14.83h-.08a4,4,0,0,1-.42.82,3.31,3.31,0,0,1-.6.69,3.1,3.1,0,0,1-.84.47,3.3,3.3,0,0,1-1.14.17,3.26,3.26,0,0,1-2.59-1.12,4.67,4.67,0,0,1-1-3.19V5.37h1.88v7c0,1.95.77,2.93,2.32,2.93a3.37,3.37,0,0,0,.9-.12,2.38,2.38,0,0,0,.78-.39,2.07,2.07,0,0,0,.55-.66,1.82,1.82,0,0,0,.22-.92V5.37h1.88V16.72h-1.88Z"/><path class="cls-1" d="M169.06,16.72V5.37h1.67V6.75h.1a3.61,3.61,0,0,1,.69-1.16,1.7,1.7,0,0,1,1.3-.49,1.77,1.77,0,0,1,1.34.5,2.24,2.24,0,0,1,.58,1.31h.08a3.4,3.4,0,0,1,.8-1.29,2,2,0,0,1,1.44-.52,1.73,1.73,0,0,1,1.7,1,6.44,6.44,0,0,1,.46,2.75v7.92h-1.67V9.09a4.32,4.32,0,0,0-.28-1.84,1,1,0,0,0-.94-.52,1.27,1.27,0,0,0-1,.43A1.89,1.89,0,0,0,175,8.43v8.29H173.3V9.09A4.36,4.36,0,0,0,173,7.25a1,1,0,0,0-.92-.52,1.27,1.27,0,0,0-1,.43,1.84,1.84,0,0,0-.39,1.27v8.29Z"/><path class="cls-1" d="M212.92,14.83h-.1a3.67,3.67,0,0,1-1.26,1.6,3.27,3.27,0,0,1-1.94.55,3.42,3.42,0,0,1-3-1.54,7.58,7.58,0,0,1-1.08-4.4,7.63,7.63,0,0,1,1.08-4.4,3.44,3.44,0,0,1,3-1.54,3.34,3.34,0,0,1,1.94.55,3.76,3.76,0,0,1,1.26,1.61h.1V.44h1.88V16.72h-1.88Zm-2.53.42a3,3,0,0,0,1-.15,2.58,2.58,0,0,0,.81-.41,2,2,0,0,0,.56-.7,2.27,2.27,0,0,0,.2-1v-4a2.18,2.18,0,0,0-.2-1,2.08,2.08,0,0,0-.56-.69,2.26,2.26,0,0,0-.81-.43,3,3,0,0,0-1-.15,2.54,2.54,0,0,0-2.07.89,3.63,3.63,0,0,0-.74,2.37V12a3.63,3.63,0,0,0,.74,2.37A2.54,2.54,0,0,0,210.39,15.25Z"/><path class="cls-1" d="M222.64,17a4.79,4.79,0,0,1-2-.41,4.31,4.31,0,0,1-1.52-1.19,5.34,5.34,0,0,1-1-1.87,8.59,8.59,0,0,1-.33-2.47,8.56,8.56,0,0,1,.33-2.46,5.34,5.34,0,0,1,1-1.87,4.31,4.31,0,0,1,1.52-1.19,4.65,4.65,0,0,1,2-.42,4.7,4.7,0,0,1,2,.42,4.34,4.34,0,0,1,1.53,1.19,5.51,5.51,0,0,1,1,1.87,8.56,8.56,0,0,1,.33,2.46,8.59,8.59,0,0,1-.33,2.47,5.51,5.51,0,0,1-1,1.87,4.34,4.34,0,0,1-1.53,1.19A4.85,4.85,0,0,1,222.64,17Zm0-1.69a2.63,2.63,0,0,0,2.06-.85,3.71,3.71,0,0,0,.77-2.56V10.21a3.7,3.7,0,0,0-.77-2.56,2.92,2.92,0,0,0-4.12,0,3.7,3.7,0,0,0-.77,2.56v1.67a3.71,3.71,0,0,0,.77,2.56A2.63,2.63,0,0,0,222.64,15.29Z"/><path class="cls-1" d="M230.28,15h3.54V2.13h-3.54V.44h5.42V15h3.55v1.69h-9Z"/><path class="cls-1" d="M246.89,17a4.86,4.86,0,0,1-2-.41,4.27,4.27,0,0,1-1.51-1.19,5.34,5.34,0,0,1-1-1.87,8.24,8.24,0,0,1-.34-2.47,8.22,8.22,0,0,1,.34-2.46,5.34,5.34,0,0,1,1-1.87,4.27,4.27,0,0,1,1.51-1.19,5.07,5.07,0,0,1,4,0,4.4,4.4,0,0,1,1.52,1.19,5.34,5.34,0,0,1,1,1.87,8.55,8.55,0,0,1,.34,2.46,8.57,8.57,0,0,1-.34,2.47,5.34,5.34,0,0,1-1,1.87,4.4,4.4,0,0,1-1.52,1.19A4.86,4.86,0,0,1,246.89,17Zm0-1.69a2.65,2.65,0,0,0,2.07-.85,3.71,3.71,0,0,0,.76-2.56V10.21A3.7,3.7,0,0,0,249,7.65a2.93,2.93,0,0,0-4.13,0,3.7,3.7,0,0,0-.77,2.56v1.67a3.71,3.71,0,0,0,.77,2.56A2.63,2.63,0,0,0,246.89,15.29Z"/><path class="cls-1" d="M254.49,15h2.93v-8h-2.93V5.37h4.81V8.29h.13a4.15,4.15,0,0,1,1.2-2.15,3.24,3.24,0,0,1,2.27-.77h1.38v2h-2a2.82,2.82,0,0,0-2.16.85,3.06,3.06,0,0,0-.8,2.19V15h3.95v1.69h-8.76Z"/><path class="cls-1" d="M278.2,16.72V5.37h1.68V6.75h.1a3.28,3.28,0,0,1,.69-1.16A1.69,1.69,0,0,1,282,5.1a1.8,1.8,0,0,1,1.35.5,2.23,2.23,0,0,1,.57,1.31H284a3.66,3.66,0,0,1,.8-1.29,2,2,0,0,1,1.45-.52,1.74,1.74,0,0,1,1.7,1,6.44,6.44,0,0,1,.46,2.75v7.92h-1.68V9.09a4.36,4.36,0,0,0-.27-1.84,1,1,0,0,0-.94-.52,1.27,1.27,0,0,0-1,.43,1.84,1.84,0,0,0-.38,1.27v8.29h-1.68V9.09a4.17,4.17,0,0,0-.28-1.84,1,1,0,0,0-.92-.52,1.3,1.3,0,0,0-1,.43,1.89,1.89,0,0,0-.38,1.27v8.29Z"/><path class="cls-1" d="M295.61,17a5.2,5.2,0,0,1-2.09-.41A4.28,4.28,0,0,1,292,15.38a5.32,5.32,0,0,1-1-1.86,8.1,8.1,0,0,1-.35-2.45A8,8,0,0,1,291,8.6a5.52,5.52,0,0,1,1-1.88,4.31,4.31,0,0,1,1.52-1.2,4.81,4.81,0,0,1,3.91,0,4.27,4.27,0,0,1,1.48,1.16,5.37,5.37,0,0,1,.95,1.77,7.28,7.28,0,0,1,.33,2.25v.86h-7.6V12a3.37,3.37,0,0,0,.81,2.33,2.88,2.88,0,0,0,2.25.91,3.18,3.18,0,0,0,1.78-.5,3.4,3.4,0,0,0,1.17-1.36l1.27,1.08a4.19,4.19,0,0,1-1.59,1.81A4.74,4.74,0,0,1,295.61,17Zm-.12-10.25a2.8,2.8,0,0,0-1.18.24,3.06,3.06,0,0,0-.92.68,2.87,2.87,0,0,0-.6,1,3.85,3.85,0,0,0-.22,1.3v.17h5.64V9.9a3.45,3.45,0,0,0-.74-2.3A2.49,2.49,0,0,0,295.49,6.73Z"/><path class="cls-1" d="M308.1,16.72a2.24,2.24,0,0,1-1.88-.76,3,3,0,0,1-.61-2V7.06h-3.33V5.37h2.42a1,1,0,0,0,.78-.24,1.27,1.27,0,0,0,.23-.86V1.36h1.78v4h4.63V7.06h-4.63v8h4.63v1.69Z"/><path class="cls-1" d="M335.69,16.72a1.68,1.68,0,0,1-1.37-.52,2.43,2.43,0,0,1-.53-1.35h-.1a3.2,3.2,0,0,1-1.11,1.56,3.39,3.39,0,0,1-2.05.57,3.57,3.57,0,0,1-2.57-.91,3.32,3.32,0,0,1-1-2.52,3,3,0,0,1,1.09-2.48,5.56,5.56,0,0,1,3.43-.86h2.13v-1A2.5,2.5,0,0,0,333,7.38a2.39,2.39,0,0,0-1.76-.6,3,3,0,0,0-1.69.43,3.16,3.16,0,0,0-1.06,1.19l-1.19-1a3.17,3.17,0,0,1,.57-.85,4.06,4.06,0,0,1,.86-.72A4.38,4.38,0,0,1,330,5.29a5.57,5.57,0,0,1,1.47-.19,4.23,4.23,0,0,1,3,1A3.72,3.72,0,0,1,335.53,9v6h1.39v1.69ZM331,15.38a3.08,3.08,0,0,0,1.92-.57,1.73,1.73,0,0,0,.75-1.43V11.62h-2.11a3.68,3.68,0,0,0-2,.42,1.35,1.35,0,0,0-.63,1.21v.46a1.49,1.49,0,0,0,.54,1.25A2.41,2.41,0,0,0,331,15.38Z"/><path class="cls-1" d="M338.84,16.72V5.37h1.68V6.75h.1a3.28,3.28,0,0,1,.69-1.16,1.66,1.66,0,0,1,1.29-.49,1.76,1.76,0,0,1,1.34.5,2.24,2.24,0,0,1,.58,1.31h.08a3.66,3.66,0,0,1,.8-1.29,2,2,0,0,1,1.44-.52,1.72,1.72,0,0,1,1.7,1A6.42,6.42,0,0,1,349,8.8v7.92h-1.68V9.09a4.36,4.36,0,0,0-.27-1.84,1,1,0,0,0-.94-.52,1.26,1.26,0,0,0-1,.43,1.84,1.84,0,0,0-.39,1.27v8.29h-1.68V9.09a4.36,4.36,0,0,0-.27-1.84,1,1,0,0,0-.92-.52,1.3,1.3,0,0,0-1,.43,1.89,1.89,0,0,0-.38,1.27v8.29Z"/><path class="cls-1" d="M356.24,17a5.18,5.18,0,0,1-2.08-.41,4.4,4.4,0,0,1-1.57-1.19,5.49,5.49,0,0,1-1-1.86,8.43,8.43,0,0,1-.34-2.45,8.28,8.28,0,0,1,.35-2.47,5.72,5.72,0,0,1,1-1.88,4.31,4.31,0,0,1,1.52-1.2,4.79,4.79,0,0,1,3.9,0,4.21,4.21,0,0,1,1.49,1.16,5.37,5.37,0,0,1,1,1.77,7.28,7.28,0,0,1,.33,2.25v.86h-7.6V12a3.37,3.37,0,0,0,.81,2.33,2.87,2.87,0,0,0,2.24.91,3.15,3.15,0,0,0,1.78-.5,3.25,3.25,0,0,0,1.17-1.36l1.28,1.08a4.26,4.26,0,0,1-1.59,1.81A4.77,4.77,0,0,1,356.24,17Zm-.12-10.25A2.78,2.78,0,0,0,355,7a2.94,2.94,0,0,0-.92.68,3,3,0,0,0-.61,1,3.85,3.85,0,0,0-.21,1.3v.17h5.64V9.9a3.41,3.41,0,0,0-.75-2.3A2.49,2.49,0,0,0,356.12,6.73Z"/><path class="cls-1" d="M368.74,16.72a2.28,2.28,0,0,1-1.89-.76,3.07,3.07,0,0,1-.6-2V7.06h-3.34V5.37h2.43a1.07,1.07,0,0,0,.78-.24,1.27,1.27,0,0,0,.23-.86V1.36h1.78v4h4.63V7.06h-4.63v8h4.63v1.69Z"/><path class="cls-1" d="M388.08,11V9l8.69-5.39V5.68L389.82,9.9v.18l6.95,4.24v2.09Z"/><path class="cls-1" d="M400.25,19.76,407.18,0h1.68l-6.94,19.76Z"/><path class="cls-1" d="M412.39,5.37h1.88V7.26h.1a3.76,3.76,0,0,1,1.26-1.61,3.34,3.34,0,0,1,1.94-.55,3.44,3.44,0,0,1,3,1.54,7.63,7.63,0,0,1,1.08,4.4,7.58,7.58,0,0,1-1.08,4.4,3.42,3.42,0,0,1-3,1.54,3.27,3.27,0,0,1-1.94-.55,3.67,3.67,0,0,1-1.26-1.6h-.1v6.29h-1.88Zm4.41,9.88a2.54,2.54,0,0,0,2.07-.89,3.63,3.63,0,0,0,.74-2.37V10.1a3.63,3.63,0,0,0-.74-2.37,2.54,2.54,0,0,0-2.07-.89,3,3,0,0,0-1,.15,2.26,2.26,0,0,0-.81.43,2.08,2.08,0,0,0-.56.69,2.18,2.18,0,0,0-.2,1v4a2.27,2.27,0,0,0,.2,1,2,2,0,0,0,.56.7,2.58,2.58,0,0,0,.81.41A3,3,0,0,0,416.8,15.25Z"/><path class="cls-1" d="M424.46,14.34l7-4.22V9.94l-7-4.24V3.61L433.15,9v2l-8.69,5.39Z"/></g></g></svg>